  0
SECTION
  2
HEADER
  9
$ACADVER
  1
AC1009
  9
$INSBASE
 10
0.000000
 20
0.000000
  9
$LIMMIN
 10
-10384.220000
 20
-9875.000000
  9
$LIMMAX
 10
23615.780000
 20
12125.000000
  9
$EXTMIN
 10
-10384.220000
 20
-9875.000000
  9
$EXTMAX
 10
23615.780000
 20
12125.000000
  9
$ATTMODE
 70
0
  9
$LUNITS
 70
2
  9
$LUPREC
 70
3
  9
$THICKNESS
 40
1.200000
  0
ENDSEC
  0
SECTION
  2
TABLES
  0
TABLE
  2
LTYPE
 70
1
  0
LTYPE
  3
Solid Line
  2
CONTINUOUS
 70
0
 72
65
 73
0
 40
0.000000
  0
ENDTAB
  0
TABLE
  2
LAYER
 70
3
  0
LAYER
  2
BOARD_GEOMETRY_OUTLINE
 70
0
 62
1
  6
CONTINUOUS
  0
LAYER
  2
ETCH_TOP
 70
0
 62
2
  6
CONTINUOUS
  0
LAYER
  2
PACKAGE_GEOMETRY_SILKSCREEN_TOP
 70
0
 62
3
  6
CONTINUOUS
  0
ENDTAB
  0
TABLE
  2
STYLE
 70
1
  0
STYLE
  2
STANDARD
 70
0
 40
0.000000
 41
1.000000
 50
0.000000
 71
0
 42
0.200000
  3
txt
  0
ENDTAB
  0
ENDSEC
  0
SECTION
  2
BLOCKS
  0
BLOCK
  8
0
  2
FIGURE_CIRCLE
 70
0
 10
0.000000
 20
0.000000
  0
CIRCLE
  8
0
 10
0.000000
 20
0.000000
 40
0.500000
  0
ENDBLK
  0
BLOCK
  8
0
  2
FIGURE_SQUARE
 70
0
 10
0.000000
 20
0.000000
  0
POLYLINE
  8
0
 66
1
 70
1
 40
0.000000
 41
0.000000
 39
0.000000
  0
VERTEX
  8
0
 10
-0.500000
 20
-0.500000
 40
0.000000
 41
0.000000
 42
0.000000
  0
VERTEX
  8
0
 10
-0.500000
 20
0.500000
 40
0.000000
 41
0.000000
 42
0.000000
  0
VERTEX
  8
0
 10
0.500000
 20
0.500000
 40
0.000000
 41
0.000000
 42
0.000000
  0
VERTEX
  8
0
 10
0.500000
 20
-0.500000
 40
0.000000
 41
0.000000
 42
0.000000
  0
SEQEND
  0
ENDBLK
  0
BLOCK
  8
0
  2
FIGURE_HEX
 70
0
 10
0.000000
 20
0.000000
  0
POLYLINE
  8
0
 66
1
 70
1
 40
0.000000
 41
0.000000
 39
0.000000
  0
VERTEX
  8
0
 10
-0.500000
 20
0.000000
 40
0.000000
 41
0.000000
 42
0.000000
  0
VERTEX
  8
0
 10
-0.250000
 20
0.500000
 40
0.000000
 41
0.000000
 42
0.000000
  0
VERTEX
  8
0
 10
0.250000
 20
0.500000
 40
0.000000
 41
0.000000
 42
0.000000
  0
VERTEX
  8
0
 10
0.500000
 20
0.000000
 40
0.000000
 41
0.000000
 42
0.000000
  0
VERTEX
  8
0
 10
0.250000
 20
-0.500000
 40
0.000000
 41
0.000000
 42
0.000000
  0
VERTEX
  8
0
 10
-0.250000
 20
-0.500000
 40
0.000000
 41
0.000000
 42
0.000000
  0
SEQEND
  0
ENDBLK
  0
BLOCK
  8
0
  2
FIGURE_OCT
 70
0
 10
0.000000
 20
0.000000
  0
POLYLINE
  8
0
 66
1
 70
1
 40
0.000000
 41
0.000000
 39
0.000000
  0
VERTEX
  8
0
 10
-0.500000
 20
-0.207100
 40
0.000000
 41
0.000000
 42
0.000000
  0
VERTEX
  8
0
 10
-0.500000
 20
0.207100
 40
0.000000
 41
0.000000
 42
0.000000
  0
VERTEX
  8
0
 10
-0.207100
 20
0.500000
 40
0.000000
 41
0.000000
 42
0.000000
  0
VERTEX
  8
0
 10
0.207100
 20
0.500000
 40
0.000000
 41
0.000000
 42
0.000000
  0
VERTEX
  8
0
 10
0.500000
 20
0.207100
 40
0.000000
 41
0.000000
 42
0.000000
  0
VERTEX
  8
0
 10
0.500000
 20
-0.207100
 40
0.000000
 41
0.000000
 42
0.000000
  0
VERTEX
  8
0
 10
0.207100
 20
-0.500000
 40
0.000000
 41
0.000000
 42
0.000000
  0
VERTEX
  8
0
 10
-0.207100
 20
-0.500000
 40
0.000000
 41
0.000000
 42
0.000000
  0
SEQEND
  0
ENDBLK
  0
BLOCK
  8
0
  2
FIGURE_OBLONG
 70
0
 10
0.000000
 20
0.000000
  0
POLYLINE
  8
0
 66
1
 70
1
 40
0.000000
 41
0.000000
 39
0.000000
  0
VERTEX
  8
0
 10
-0.500000
 20
-0.125000
 40
0.000000
 41
0.000000
 42
0.000000
  0
VERTEX
  8
0
 10
-0.500000
 20
0.125000
 40
0.000000
 41
0.000000
 42
0.000000
  0
VERTEX
  8
0
 10
-0.416000
 20
0.375000
 40
0.000000
 41
0.000000
 42
0.000000
  0
VERTEX
  8
0
 10
-0.250000
 20
0.500000
 40
0.000000
 41
0.000000
 42
0.000000
  0
VERTEX
  8
0
 10
0.250000
 20
0.500000
 40
0.000000
 41
0.000000
 42
0.000000
  0
VERTEX
  8
0
 10
0.416000
 20
0.375000
 40
0.000000
 41
0.000000
 42
0.000000
  0
VERTEX
  8
0
 10
0.500000
 20
0.125000
 40
0.000000
 41
0.000000
 42
0.000000
  0
VERTEX
  8
0
 10
0.500000
 20
-0.125000
 40
0.000000
 41
0.000000
 42
0.000000
  0
VERTEX
  8
0
 10
0.416000
 20
-0.375000
 40
0.000000
 41
0.000000
 42
0.000000
  0
VERTEX
  8
0
 10
0.250000
 20
-0.500000
 40
0.000000
 41
0.000000
 42
0.000000
  0
VERTEX
  8
0
 10
-0.250000
 20
-0.500000
 40
0.000000
 41
0.000000
 42
0.000000
  0
VERTEX
  8
0
 10
-0.416000
 20
-0.375000
 40
0.000000
 41
0.000000
 42
0.000000
  0
SEQEND
  0
ENDBLK
  0
BLOCK
  8
0
  2
FIGURE_TRI
 70
0
 10
0.000000
 20
0.000000
  0
POLYLINE
  8
0
 66
1
 70
1
 40
0.000000
 41
0.000000
 39
0.000000
  0
VERTEX
  8
0
 10
-0.500000
 20
-0.500000
 40
0.000000
 41
0.000000
 42
0.000000
  0
VERTEX
  8
0
 10
0.000000
 20
0.500000
 40
0.000000
 41
0.000000
 42
0.000000
  0
VERTEX
  8
0
 10
0.500000
 20
-0.500000
 40
0.000000
 41
0.000000
 42
0.000000
  0
SEQEND
  0
ENDBLK
  0
BLOCK
  8
0
  2
FIGURE_CROSS
 70
0
 10
0.000000
 20
0.000000
  0
POLYLINE
  8
0
 66
1
 70
0
 40
0.000000
 41
0.000000
 39
0.000000
  0
VERTEX
  8
0
 10
-0.500000
 20
0.000000
 40
0.000000
 41
0.000000
 42
0.000000
  0
VERTEX
  8
0
 10
0.500000
 20
0.000000
 40
0.000000
 41
0.000000
 42
0.000000
  0
SEQEND
  0
POLYLINE
  8
0
 66
1
 70
0
 40
0.000000
 41
0.000000
 39
0.000000
  0
VERTEX
  8
0
 10
0.000000
 20
0.500000
 40
0.000000
 41
0.000000
 42
0.000000
  0
VERTEX
  8
0
 10
0.000000
 20
-0.500000
 40
0.000000
 41
0.000000
 42
0.000000
  0
SEQEND
  0
ENDBLK
  0
BLOCK
  8
0
  2
FIGURE_DIAMOND
 70
0
 10
0.000000
 20
0.000000
  0
POLYLINE
  8
0
 66
1
 70
1
 40
0.000000
 41
0.000000
 39
0.000000
  0
VERTEX
  8
0
 10
-0.500000
 20
0.000000
 40
0.000000
 41
0.000000
 42
0.000000
  0
VERTEX
  8
0
 10
0.000000
 20
0.500000
 40
0.000000
 41
0.000000
 42
0.000000
  0
VERTEX
  8
0
 10
0.500000
 20
0.000000
 40
0.000000
 41
0.000000
 42
0.000000
  0
VERTEX
  8
0
 10
0.000000
 20
-0.500000
 40
0.000000
 41
0.000000
 42
0.000000
  0
SEQEND
  0
ENDBLK
  0
ENDSEC
  0
SECTION
  2
ENTITIES
  0
POLYLINE
  8
ETCH_TOP
 66
1
 70
1
 40
0.000000
 41
0.000000
 39
0.000000
  0
VERTEX
  8
ETCH_TOP
 10
7128.780000
 20
414.000000
 40
0.000000
 41
0.000000
 42
0.000000
  0
VERTEX
  8
ETCH_TOP
 10
7128.780000
 20
876.000000
 40
0.000000
 41
0.000000
 42
-0.414214
  0
VERTEX
  8
ETCH_TOP
 10
7133.780000
 20
881.000000
 40
0.000000
 41
0.000000
 42
0.000000
  0
VERTEX
  8
ETCH_TOP
 10
7595.780000
 20
881.000000
 40
0.000000
 41
0.000000
 42
-0.414214
  0
VERTEX
  8
ETCH_TOP
 10
7600.780000
 20
876.000000
 40
0.000000
 41
0.000000
 42
0.000000
  0
VERTEX
  8
ETCH_TOP
 10
7600.780000
 20
414.000000
 40
0.000000
 41
0.000000
 42
-0.414214
  0
VERTEX
  8
ETCH_TOP
 10
7595.780000
 20
409.000000
 40
0.000000
 41
0.000000
 42
0.000000
  0
VERTEX
  8
ETCH_TOP
 10
7133.780000
 20
409.000000
 40
0.000000
 41
0.000000
 42
-0.414214
  0
SEQEND
  0
POLYLINE
  8
ETCH_TOP
 66
1
 70
1
 40
0.000000
 41
0.000000
 39
0.000000
  0
VERTEX
  8
ETCH_TOP
 10
7534.800000
 20
602.928000
 40
0.000000
 41
0.000000
 42
0.448377
  0
VERTEX
  8
ETCH_TOP
 10
7532.467000
 20
588.178000
 40
0.000000
 41
0.000000
 42
-2.625682
  0
VERTEX
  8
ETCH_TOP
 10
7466.760000
 20
598.572000
 40
0.000000
 41
0.000000
 42
0.448377
  0
VERTEX
  8
ETCH_TOP
 10
7469.093000
 20
613.322000
 40
0.000000
 41
0.000000
 42
-0.357182
  0
VERTEX
  8
ETCH_TOP
 10
7469.093000
 20
676.678000
 40
0.000000
 41
0.000000
 42
0.448377
  0
VERTEX
  8
ETCH_TOP
 10
7466.760000
 20
691.428000
 40
0.000000
 41
0.000000
 42
-2.625682
  0
VERTEX
  8
ETCH_TOP
 10
7532.467000
 20
701.822000
 40
0.000000
 41
0.000000
 42
0.448377
  0
VERTEX
  8
ETCH_TOP
 10
7534.800000
 20
687.072000
 40
0.000000
 41
0.000000
 42
-0.546238
  0
SEQEND
  0
POLYLINE
  8
ETCH_TOP
 66
1
 70
1
 40
0.000000
 41
0.000000
 39
0.000000
  0
VERTEX
  8
ETCH_TOP
 10
7287.782000
 20
556.500000
 40
0.000000
 41
0.000000
 42
1.000000
  0
VERTEX
  8
ETCH_TOP
 10
7187.778000
 20
556.500000
 40
0.000000
 41
0.000000
 42
1.000000
  0
SEQEND
  0
POLYLINE
  8
ETCH_TOP
 66
1
 70
1
 40
0.000000
 41
0.000000
 39
0.000000
  0
VERTEX
  8
ETCH_TOP
 10
7287.782000
 20
733.500000
 40
0.000000
 41
0.000000
 42
1.000000
  0
VERTEX
  8
ETCH_TOP
 10
7187.778000
 20
733.500000
 40
0.000000
 41
0.000000
 42
1.000000
  0
SEQEND
  0
POLYLINE
  8
ETCH_TOP
 66
1
 70
1
 40
0.000000
 41
0.000000
 39
0.000000
  0
VERTEX
  8
ETCH_TOP
 10
7415.782000
 20
787.000000
 40
0.000000
 41
0.000000
 42
1.000000
  0
VERTEX
  8
ETCH_TOP
 10
7315.778000
 20
787.000000
 40
0.000000
 41
0.000000
 42
1.000000
  0
SEQEND
  0
POLYLINE
  8
ETCH_TOP
 66
1
 70
1
 40
0.000000
 41
0.000000
 39
0.000000
  0
VERTEX
  8
ETCH_TOP
 10
6095.780000
 20
409.000000
 40
0.000000
 41
0.000000
 42
0.000000
  0
VERTEX
  8
ETCH_TOP
 10
5633.780000
 20
409.000000
 40
0.000000
 41
0.000000
 42
-0.414214
  0
VERTEX
  8
ETCH_TOP
 10
5628.780000
 20
414.000000
 40
0.000000
 41
0.000000
 42
0.000000
  0
VERTEX
  8
ETCH_TOP
 10
5628.780000
 20
876.000000
 40
0.000000
 41
0.000000
 42
-0.414214
  0
VERTEX
  8
ETCH_TOP
 10
5633.780000
 20
881.000000
 40
0.000000
 41
0.000000
 42
0.000000
  0
VERTEX
  8
ETCH_TOP
 10
6095.780000
 20
881.000000
 40
0.000000
 41
0.000000
 42
-0.414214
  0
VERTEX
  8
ETCH_TOP
 10
6100.780000
 20
876.000000
 40
0.000000
 41
0.000000
 42
0.000000
  0
VERTEX
  8
ETCH_TOP
 10
6100.780000
 20
414.000000
 40
0.000000
 41
0.000000
 42
-0.414214
  0
SEQEND
  0
POLYLINE
  8
ETCH_TOP
 66
1
 70
1
 40
0.000000
 41
0.000000
 39
0.000000
  0
VERTEX
  8
ETCH_TOP
 10
5787.782000
 20
733.500000
 40
0.000000
 41
0.000000
 42
1.000000
  0
VERTEX
  8
ETCH_TOP
 10
5687.778000
 20
733.500000
 40
0.000000
 41
0.000000
 42
1.000000
  0
SEQEND
  0
POLYLINE
  8
ETCH_TOP
 66
1
 70
1
 40
0.000000
 41
0.000000
 39
0.000000
  0
VERTEX
  8
ETCH_TOP
 10
6043.782000
 20
733.500000
 40
0.000000
 41
0.000000
 42
1.000000
  0
VERTEX
  8
ETCH_TOP
 10
5943.778000
 20
733.500000
 40
0.000000
 41
0.000000
 42
1.000000
  0
SEQEND
  0
POLYLINE
  8
ETCH_TOP
 66
1
 70
1
 40
0.000000
 41
0.000000
 39
0.000000
  0
VERTEX
  8
ETCH_TOP
 10
5915.782000
 20
787.000000
 40
0.000000
 41
0.000000
 42
1.000000
  0
VERTEX
  8
ETCH_TOP
 10
5815.778000
 20
787.000000
 40
0.000000
 41
0.000000
 42
1.000000
  0
SEQEND
  0
POLYLINE
  8
ETCH_TOP
 66
1
 70
1
 40
0.000000
 41
0.000000
 39
0.000000
  0
VERTEX
  8
ETCH_TOP
 10
6845.780000
 20
-341.000000
 40
0.000000
 41
0.000000
 42
0.000000
  0
VERTEX
  8
ETCH_TOP
 10
6383.780000
 20
-341.000000
 40
0.000000
 41
0.000000
 42
-0.414214
  0
VERTEX
  8
ETCH_TOP
 10
6378.780000
 20
-336.000000
 40
0.000000
 41
0.000000
 42
0.000000
  0
VERTEX
  8
ETCH_TOP
 10
6378.780000
 20
126.000000
 40
0.000000
 41
0.000000
 42
-0.414214
  0
VERTEX
  8
ETCH_TOP
 10
6383.780000
 20
131.000000
 40
0.000000
 41
0.000000
 42
0.000000
  0
VERTEX
  8
ETCH_TOP
 10
6845.780000
 20
131.000000
 40
0.000000
 41
0.000000
 42
-0.414214
  0
VERTEX
  8
ETCH_TOP
 10
6850.780000
 20
126.000000
 40
0.000000
 41
0.000000
 42
0.000000
  0
VERTEX
  8
ETCH_TOP
 10
6850.780000
 20
-336.000000
 40
0.000000
 41
0.000000
 42
-0.414214
  0
SEQEND
  0
POLYLINE
  8
ETCH_TOP
 66
1
 70
1
 40
0.000000
 41
0.000000
 39
0.000000
  0
VERTEX
  8
ETCH_TOP
 10
6793.782000
 20
-16.500000
 40
0.000000
 41
0.000000
 42
1.000000
  0
VERTEX
  8
ETCH_TOP
 10
6693.778000
 20
-16.500000
 40
0.000000
 41
0.000000
 42
1.000000
  0
SEQEND
  0
POLYLINE
  8
ETCH_TOP
 66
1
 70
1
 40
0.000000
 41
0.000000
 39
0.000000
  0
VERTEX
  8
ETCH_TOP
 10
6537.782000
 20
-16.500000
 40
0.000000
 41
0.000000
 42
1.000000
  0
VERTEX
  8
ETCH_TOP
 10
6437.778000
 20
-16.500000
 40
0.000000
 41
0.000000
 42
1.000000
  0
SEQEND
  0
POLYLINE
  8
ETCH_TOP
 66
1
 70
1
 40
0.000000
 41
0.000000
 39
0.000000
  0
VERTEX
  8
ETCH_TOP
 10
6665.782000
 20
37.000000
 40
0.000000
 41
0.000000
 42
1.000000
  0
VERTEX
  8
ETCH_TOP
 10
6565.778000
 20
37.000000
 40
0.000000
 41
0.000000
 42
1.000000
  0
SEQEND
  0
POLYLINE
  8
ETCH_TOP
 66
1
 70
1
 40
0.000000
 41
0.000000
 39
0.000000
  0
VERTEX
  8
ETCH_TOP
 10
6845.780000
 20
1159.000000
 40
0.000000
 41
0.000000
 42
0.000000
  0
VERTEX
  8
ETCH_TOP
 10
6383.780000
 20
1159.000000
 40
0.000000
 41
0.000000
 42
-0.414214
  0
VERTEX
  8
ETCH_TOP
 10
6378.780000
 20
1164.000000
 40
0.000000
 41
0.000000
 42
0.000000
  0
VERTEX
  8
ETCH_TOP
 10
6378.780000
 20
1626.000000
 40
0.000000
 41
0.000000
 42
-0.414214
  0
VERTEX
  8
ETCH_TOP
 10
6383.780000
 20
1631.000000
 40
0.000000
 41
0.000000
 42
0.000000
  0
VERTEX
  8
ETCH_TOP
 10
6845.780000
 20
1631.000000
 40
0.000000
 41
0.000000
 42
-0.414214
  0
VERTEX
  8
ETCH_TOP
 10
6850.780000
 20
1626.000000
 40
0.000000
 41
0.000000
 42
0.000000
  0
VERTEX
  8
ETCH_TOP
 10
6850.780000
 20
1164.000000
 40
0.000000
 41
0.000000
 42
-0.414214
  0
SEQEND
  0
POLYLINE
  8
ETCH_TOP
 66
1
 70
1
 40
0.000000
 41
0.000000
 39
0.000000
  0
VERTEX
  8
ETCH_TOP
 10
6793.782000
 20
1483.500000
 40
0.000000
 41
0.000000
 42
1.000000
  0
VERTEX
  8
ETCH_TOP
 10
6693.778000
 20
1483.500000
 40
0.000000
 41
0.000000
 42
1.000000
  0
SEQEND
  0
POLYLINE
  8
ETCH_TOP
 66
1
 70
1
 40
0.000000
 41
0.000000
 39
0.000000
  0
VERTEX
  8
ETCH_TOP
 10
6537.782000
 20
1483.500000
 40
0.000000
 41
0.000000
 42
1.000000
  0
VERTEX
  8
ETCH_TOP
 10
6437.778000
 20
1483.500000
 40
0.000000
 41
0.000000
 42
1.000000
  0
SEQEND
  0
POLYLINE
  8
ETCH_TOP
 66
1
 70
1
 40
0.000000
 41
0.000000
 39
0.000000
  0
VERTEX
  8
ETCH_TOP
 10
6665.782000
 20
1537.000000
 40
0.000000
 41
0.000000
 42
1.000000
  0
VERTEX
  8
ETCH_TOP
 10
6565.778000
 20
1537.000000
 40
0.000000
 41
0.000000
 42
1.000000
  0
SEQEND
  0
POLYLINE
  8
ETCH_TOP
 66
1
 70
1
 40
0.000000
 41
0.000000
 39
0.000000
  0
VERTEX
  8
ETCH_TOP
 10
1000.000000
 20
3915.000000
 40
0.000000
 41
0.000000
 42
1.000000
  0
VERTEX
  8
ETCH_TOP
 10
1000.000000
 20
3385.000000
 40
0.000000
 41
0.000000
 42
1.000000
  0
SEQEND
  0
POLYLINE
  8
ETCH_TOP
 66
1
 70
1
 40
0.000000
 41
0.000000
 39
0.000000
  0
VERTEX
  8
ETCH_TOP
 10
2265.000000
 20
3650.000000
 40
0.000000
 41
0.000000
 42
1.000000
  0
VERTEX
  8
ETCH_TOP
 10
1735.000000
 20
3650.000000
 40
0.000000
 41
0.000000
 42
1.000000
  0
SEQEND
  0
POLYLINE
  8
ETCH_TOP
 66
1
 70
1
 40
0.000000
 41
0.000000
 39
0.000000
  0
VERTEX
  8
ETCH_TOP
 10
3000.000000
 20
3915.000000
 40
0.000000
 41
0.000000
 42
1.000000
  0
VERTEX
  8
ETCH_TOP
 10
3000.000000
 20
3385.000000
 40
0.000000
 41
0.000000
 42
1.000000
  0
SEQEND
  0
POLYLINE
  8
ETCH_TOP
 66
1
 70
1
 40
0.000000
 41
0.000000
 39
0.000000
  0
VERTEX
  8
ETCH_TOP
 10
4000.000000
 20
3915.000000
 40
0.000000
 41
0.000000
 42
1.000000
  0
VERTEX
  8
ETCH_TOP
 10
4000.000000
 20
3385.000000
 40
0.000000
 41
0.000000
 42
1.000000
  0
SEQEND
  0
POLYLINE
  8
ETCH_TOP
 66
1
 70
1
 40
0.000000
 41
0.000000
 39
0.000000
  0
VERTEX
  8
ETCH_TOP
 10
5265.000000
 20
3650.000000
 40
0.000000
 41
0.000000
 42
1.000000
  0
VERTEX
  8
ETCH_TOP
 10
4735.000000
 20
3650.000000
 40
0.000000
 41
0.000000
 42
1.000000
  0
SEQEND
  0
POLYLINE
  8
ETCH_TOP
 66
1
 70
1
 40
0.000000
 41
0.000000
 39
0.000000
  0
VERTEX
  8
ETCH_TOP
 10
6265.000000
 20
3650.000000
 40
0.000000
 41
0.000000
 42
1.000000
  0
VERTEX
  8
ETCH_TOP
 10
5735.000000
 20
3650.000000
 40
0.000000
 41
0.000000
 42
1.000000
  0
SEQEND
  0
POLYLINE
  8
ETCH_TOP
 66
1
 70
1
 40
0.000000
 41
0.000000
 39
0.000000
  0
VERTEX
  8
ETCH_TOP
 10
7265.000000
 20
3650.000000
 40
0.000000
 41
0.000000
 42
1.000000
  0
VERTEX
  8
ETCH_TOP
 10
6735.000000
 20
3650.000000
 40
0.000000
 41
0.000000
 42
1.000000
  0
SEQEND
  0
POLYLINE
  8
ETCH_TOP
 66
1
 70
1
 40
0.000000
 41
0.000000
 39
0.000000
  0
VERTEX
  8
ETCH_TOP
 10
8265.000000
 20
3650.000000
 40
0.000000
 41
0.000000
 42
1.000000
  0
VERTEX
  8
ETCH_TOP
 10
7735.000000
 20
3650.000000
 40
0.000000
 41
0.000000
 42
1.000000
  0
SEQEND
  0
POLYLINE
  8
ETCH_TOP
 66
1
 70
1
 40
0.000000
 41
0.000000
 39
0.000000
  0
VERTEX
  8
ETCH_TOP
 10
7500.000000
 20
2915.000000
 40
0.000000
 41
0.000000
 42
1.000000
  0
VERTEX
  8
ETCH_TOP
 10
7500.000000
 20
2385.000000
 40
0.000000
 41
0.000000
 42
1.000000
  0
SEQEND
  0
POLYLINE
  8
ETCH_TOP
 66
1
 70
1
 40
0.000000
 41
0.000000
 39
0.000000
  0
VERTEX
  8
ETCH_TOP
 10
1500.000000
 20
2915.000000
 40
0.000000
 41
0.000000
 42
1.000000
  0
VERTEX
  8
ETCH_TOP
 10
1500.000000
 20
2385.000000
 40
0.000000
 41
0.000000
 42
1.000000
  0
SEQEND
  0
POLYLINE
  8
ETCH_TOP
 66
1
 70
1
 40
0.000000
 41
0.000000
 39
0.000000
  0
VERTEX
  8
ETCH_TOP
 10
2500.000000
 20
2915.000000
 40
0.000000
 41
0.000000
 42
1.000000
  0
VERTEX
  8
ETCH_TOP
 10
2500.000000
 20
2385.000000
 40
0.000000
 41
0.000000
 42
1.000000
  0
SEQEND
  0
POLYLINE
  8
ETCH_TOP
 66
1
 70
1
 40
0.000000
 41
0.000000
 39
0.000000
  0
VERTEX
  8
ETCH_TOP
 10
3500.000000
 20
2915.000000
 40
0.000000
 41
0.000000
 42
1.000000
  0
VERTEX
  8
ETCH_TOP
 10
3500.000000
 20
2385.000000
 40
0.000000
 41
0.000000
 42
1.000000
  0
SEQEND
  0
POLYLINE
  8
ETCH_TOP
 66
1
 70
1
 40
0.000000
 41
0.000000
 39
0.000000
  0
VERTEX
  8
ETCH_TOP
 10
4765.000000
 20
2650.000000
 40
0.000000
 41
0.000000
 42
1.000000
  0
VERTEX
  8
ETCH_TOP
 10
4235.000000
 20
2650.000000
 40
0.000000
 41
0.000000
 42
1.000000
  0
SEQEND
  0
POLYLINE
  8
ETCH_TOP
 66
1
 70
1
 40
0.000000
 41
0.000000
 39
0.000000
  0
VERTEX
  8
ETCH_TOP
 10
5500.000000
 20
2915.000000
 40
0.000000
 41
0.000000
 42
1.000000
  0
VERTEX
  8
ETCH_TOP
 10
5500.000000
 20
2385.000000
 40
0.000000
 41
0.000000
 42
1.000000
  0
SEQEND
  0
POLYLINE
  8
ETCH_TOP
 66
1
 70
1
 40
0.000000
 41
0.000000
 39
0.000000
  0
VERTEX
  8
ETCH_TOP
 10
6500.000000
 20
2915.000000
 40
0.000000
 41
0.000000
 42
1.000000
  0
VERTEX
  8
ETCH_TOP
 10
6500.000000
 20
2385.000000
 40
0.000000
 41
0.000000
 42
1.000000
  0
SEQEND
  0
POLYLINE
  8
PACKAGE_GEOMETRY_SILKSCREEN_TOP
 66
1
 70
1
 40
0.000000
 41
0.000000
 39
0.000000
  0
VERTEX
  8
PACKAGE_GEOMETRY_SILKSCREEN_TOP
 10
7293.154000
 20
-266.740000
 40
10.000000
 41
10.000000
 42
0.000000
  0
VERTEX
  8
PACKAGE_GEOMETRY_SILKSCREEN_TOP
 10
7709.154000
 20
-266.740000
 40
10.000000
 41
10.000000
 42
0.000000
  0
VERTEX
  8
PACKAGE_GEOMETRY_SILKSCREEN_TOP
 10
7709.154000
 20
133.260000
 40
10.000000
 41
10.000000
 42
0.000000
  0
VERTEX
  8
PACKAGE_GEOMETRY_SILKSCREEN_TOP
 10
7293.154000
 20
133.260000
 40
10.000000
 41
10.000000
 42
0.000000
  0
SEQEND
  0
TEXT
  8
PACKAGE_GEOMETRY_SILKSCREEN_TOP
 10
7208.143000
 20
177.179000
 11
0.000000
 21
0.000000
 40
50.000000
 41
1.020000
 50
90.000000
  7
STANDARD
 71
0
 72
0
  1
1
 73
0
  0
POLYLINE
  8
PACKAGE_GEOMETRY_SILKSCREEN_TOP
 66
1
 70
1
 40
0.000000
 41
0.000000
 39
0.000000
  0
VERTEX
  8
PACKAGE_GEOMETRY_SILKSCREEN_TOP
 10
74.630000
 20
-4.834000
 40
10.000000
 41
10.000000
 42
0.000000
  0
VERTEX
  8
PACKAGE_GEOMETRY_SILKSCREEN_TOP
 10
74.630000
 20
-420.834000
 40
10.000000
 41
10.000000
 42
0.000000
  0
VERTEX
  8
PACKAGE_GEOMETRY_SILKSCREEN_TOP
 10
574.630000
 20
-420.834000
 40
10.000000
 41
10.000000
 42
0.000000
  0
VERTEX
  8
PACKAGE_GEOMETRY_SILKSCREEN_TOP
 10
574.630000
 20
-4.834000
 40
10.000000
 41
10.000000
 42
0.000000
  0
SEQEND
  0
TEXT
  8
PACKAGE_GEOMETRY_SILKSCREEN_TOP
 10
618.549000
 20
80.177000
 11
0.000000
 21
0.000000
 40
50.000000
 41
1.020000
 50
0.000000
  7
STANDARD
 71
0
 72
0
  1
1
 73
0
  0
POLYLINE
  8
PACKAGE_GEOMETRY_SILKSCREEN_TOP
 66
1
 70
1
 40
0.000000
 41
0.000000
 39
0.000000
  0
VERTEX
  8
PACKAGE_GEOMETRY_SILKSCREEN_TOP
 10
4416.680000
 20
-10.964000
 40
10.000000
 41
10.000000
 42
0.000000
  0
VERTEX
  8
PACKAGE_GEOMETRY_SILKSCREEN_TOP
 10
4416.680000
 20
-426.964000
 40
10.000000
 41
10.000000
 42
0.000000
  0
VERTEX
  8
PACKAGE_GEOMETRY_SILKSCREEN_TOP
 10
4916.680000
 20
-426.964000
 40
10.000000
 41
10.000000
 42
0.000000
  0
VERTEX
  8
PACKAGE_GEOMETRY_SILKSCREEN_TOP
 10
4916.680000
 20
-10.964000
 40
10.000000
 41
10.000000
 42
0.000000
  0
SEQEND
  0
TEXT
  8
PACKAGE_GEOMETRY_SILKSCREEN_TOP
 10
4960.599000
 20
74.047000
 11
0.000000
 21
0.000000
 40
50.000000
 41
1.020000
 50
0.000000
  7
STANDARD
 71
0
 72
0
  1
1
 73
0
  0
POLYLINE
  8
PACKAGE_GEOMETRY_SILKSCREEN_TOP
 66
1
 70
1
 40
0.000000
 41
0.000000
 39
0.000000
  0
VERTEX
  8
PACKAGE_GEOMETRY_SILKSCREEN_TOP
 10
5030.400000
 20
-10.964000
 40
10.000000
 41
10.000000
 42
0.000000
  0
VERTEX
  8
PACKAGE_GEOMETRY_SILKSCREEN_TOP
 10
5030.400000
 20
-426.964000
 40
10.000000
 41
10.000000
 42
0.000000
  0
VERTEX
  8
PACKAGE_GEOMETRY_SILKSCREEN_TOP
 10
5530.400000
 20
-426.964000
 40
10.000000
 41
10.000000
 42
0.000000
  0
VERTEX
  8
PACKAGE_GEOMETRY_SILKSCREEN_TOP
 10
5530.400000
 20
-10.964000
 40
10.000000
 41
10.000000
 42
0.000000
  0
SEQEND
  0
TEXT
  8
PACKAGE_GEOMETRY_SILKSCREEN_TOP
 10
5574.319000
 20
74.047000
 11
0.000000
 21
0.000000
 40
50.000000
 41
1.020000
 50
0.000000
  7
STANDARD
 71
0
 72
0
  1
1
 73
0
  0
POLYLINE
  8
PACKAGE_GEOMETRY_SILKSCREEN_TOP
 66
1
 70
1
 40
0.000000
 41
0.000000
 39
0.000000
  0
VERTEX
  8
PACKAGE_GEOMETRY_SILKSCREEN_TOP
 10
630.040000
 20
1.306000
 40
10.000000
 41
10.000000
 42
0.000000
  0
VERTEX
  8
PACKAGE_GEOMETRY_SILKSCREEN_TOP
 10
630.040000
 20
-414.694000
 40
10.000000
 41
10.000000
 42
0.000000
  0
VERTEX
  8
PACKAGE_GEOMETRY_SILKSCREEN_TOP
 10
1130.040000
 20
-414.694000
 40
10.000000
 41
10.000000
 42
0.000000
  0
VERTEX
  8
PACKAGE_GEOMETRY_SILKSCREEN_TOP
 10
1130.040000
 20
1.306000
 40
10.000000
 41
10.000000
 42
0.000000
  0
SEQEND
  0
TEXT
  8
PACKAGE_GEOMETRY_SILKSCREEN_TOP
 10
1173.959000
 20
86.317000
 11
0.000000
 21
0.000000
 40
50.000000
 41
1.020000
 50
0.000000
  7
STANDARD
 71
0
 72
0
  1
1
 73
0
  0
POLYLINE
  8
PACKAGE_GEOMETRY_SILKSCREEN_TOP
 66
1
 70
0
 40
0.000000
 41
0.000000
 39
0.000000
  0
VERTEX
  8
PACKAGE_GEOMETRY_SILKSCREEN_TOP
 10
7141.800000
 20
1220.806000
 40
10.000000
 41
10.000000
 42
0.000000
  0
VERTEX
  8
PACKAGE_GEOMETRY_SILKSCREEN_TOP
 10
7141.800000
 20
1240.806000
 40
10.000000
 41
10.000000
 42
0.000000
  0
SEQEND
  0
POLYLINE
  8
PACKAGE_GEOMETRY_SILKSCREEN_TOP
 66
1
 70
0
 40
0.000000
 41
0.000000
 39
0.000000
  0
VERTEX
  8
PACKAGE_GEOMETRY_SILKSCREEN_TOP
 10
7141.800000
 20
1526.396000
 40
10.000000
 41
10.000000
 42
0.000000
  0
VERTEX
  8
PACKAGE_GEOMETRY_SILKSCREEN_TOP
 10
7141.800000
 20
1546.396000
 40
10.000000
 41
10.000000
 42
0.000000
  0
SEQEND
  0
POLYLINE
  8
PACKAGE_GEOMETRY_SILKSCREEN_TOP
 66
1
 70
1
 40
0.000000
 41
0.000000
 39
0.000000
  0
VERTEX
  8
PACKAGE_GEOMETRY_SILKSCREEN_TOP
 10
7082.745000
 20
1245.806000
 40
10.000000
 41
10.000000
 42
0.000000
  0
VERTEX
  8
PACKAGE_GEOMETRY_SILKSCREEN_TOP
 10
7082.745000
 20
1521.396000
 40
10.000000
 41
10.000000
 42
0.000000
  0
VERTEX
  8
PACKAGE_GEOMETRY_SILKSCREEN_TOP
 10
7200.855000
 20
1521.396000
 40
10.000000
 41
10.000000
 42
0.000000
  0
VERTEX
  8
PACKAGE_GEOMETRY_SILKSCREEN_TOP
 10
7200.855000
 20
1245.806000
 40
10.000000
 41
10.000000
 42
0.000000
  0
SEQEND
  0
POLYLINE
  8
PACKAGE_GEOMETRY_SILKSCREEN_TOP
 66
1
 70
0
 40
0.000000
 41
0.000000
 39
0.000000
  0
VERTEX
  8
PACKAGE_GEOMETRY_SILKSCREEN_TOP
 10
6070.950000
 20
1138.486000
 40
10.000000
 41
10.000000
 42
0.000000
  0
VERTEX
  8
PACKAGE_GEOMETRY_SILKSCREEN_TOP
 10
6070.950000
 20
1158.486000
 40
10.000000
 41
10.000000
 42
0.000000
  0
SEQEND
  0
POLYLINE
  8
PACKAGE_GEOMETRY_SILKSCREEN_TOP
 66
1
 70
0
 40
0.000000
 41
0.000000
 39
0.000000
  0
VERTEX
  8
PACKAGE_GEOMETRY_SILKSCREEN_TOP
 10
6070.950000
 20
1444.076000
 40
10.000000
 41
10.000000
 42
0.000000
  0
VERTEX
  8
PACKAGE_GEOMETRY_SILKSCREEN_TOP
 10
6070.950000
 20
1464.076000
 40
10.000000
 41
10.000000
 42
0.000000
  0
SEQEND
  0
POLYLINE
  8
PACKAGE_GEOMETRY_SILKSCREEN_TOP
 66
1
 70
1
 40
0.000000
 41
0.000000
 39
0.000000
  0
VERTEX
  8
PACKAGE_GEOMETRY_SILKSCREEN_TOP
 10
6011.895000
 20
1163.486000
 40
10.000000
 41
10.000000
 42
0.000000
  0
VERTEX
  8
PACKAGE_GEOMETRY_SILKSCREEN_TOP
 10
6011.895000
 20
1439.076000
 40
10.000000
 41
10.000000
 42
0.000000
  0
VERTEX
  8
PACKAGE_GEOMETRY_SILKSCREEN_TOP
 10
6130.005000
 20
1439.076000
 40
10.000000
 41
10.000000
 42
0.000000
  0
VERTEX
  8
PACKAGE_GEOMETRY_SILKSCREEN_TOP
 10
6130.005000
 20
1163.486000
 40
10.000000
 41
10.000000
 42
0.000000
  0
SEQEND
  0
POLYLINE
  8
PACKAGE_GEOMETRY_SILKSCREEN_TOP
 66
1
 70
0
 40
0.000000
 41
0.000000
 39
0.000000
  0
VERTEX
  8
PACKAGE_GEOMETRY_SILKSCREEN_TOP
 10
6958.130000
 20
574.686000
 40
10.000000
 41
10.000000
 42
0.000000
  0
VERTEX
  8
PACKAGE_GEOMETRY_SILKSCREEN_TOP
 10
6958.130000
 20
594.686000
 40
10.000000
 41
10.000000
 42
0.000000
  0
SEQEND
  0
POLYLINE
  8
PACKAGE_GEOMETRY_SILKSCREEN_TOP
 66
1
 70
0
 40
0.000000
 41
0.000000
 39
0.000000
  0
VERTEX
  8
PACKAGE_GEOMETRY_SILKSCREEN_TOP
 10
6958.130000
 20
880.276000
 40
10.000000
 41
10.000000
 42
0.000000
  0
VERTEX
  8
PACKAGE_GEOMETRY_SILKSCREEN_TOP
 10
6958.130000
 20
900.276000
 40
10.000000
 41
10.000000
 42
0.000000
  0
SEQEND
  0
POLYLINE
  8
PACKAGE_GEOMETRY_SILKSCREEN_TOP
 66
1
 70
1
 40
0.000000
 41
0.000000
 39
0.000000
  0
VERTEX
  8
PACKAGE_GEOMETRY_SILKSCREEN_TOP
 10
6899.075000
 20
599.686000
 40
10.000000
 41
10.000000
 42
0.000000
  0
VERTEX
  8
PACKAGE_GEOMETRY_SILKSCREEN_TOP
 10
6899.075000
 20
875.276000
 40
10.000000
 41
10.000000
 42
0.000000
  0
VERTEX
  8
PACKAGE_GEOMETRY_SILKSCREEN_TOP
 10
7017.185000
 20
875.276000
 40
10.000000
 41
10.000000
 42
0.000000
  0
VERTEX
  8
PACKAGE_GEOMETRY_SILKSCREEN_TOP
 10
7017.185000
 20
599.686000
 40
10.000000
 41
10.000000
 42
0.000000
  0
SEQEND
  0
POLYLINE
  8
PACKAGE_GEOMETRY_SILKSCREEN_TOP
 66
1
 70
0
 40
0.000000
 41
0.000000
 39
0.000000
  0
VERTEX
  8
PACKAGE_GEOMETRY_SILKSCREEN_TOP
 10
7022.120000
 20
-284.404000
 40
10.000000
 41
10.000000
 42
0.000000
  0
VERTEX
  8
PACKAGE_GEOMETRY_SILKSCREEN_TOP
 10
7022.120000
 20
-264.404000
 40
10.000000
 41
10.000000
 42
0.000000
  0
SEQEND
  0
POLYLINE
  8
PACKAGE_GEOMETRY_SILKSCREEN_TOP
 66
1
 70
0
 40
0.000000
 41
0.000000
 39
0.000000
  0
VERTEX
  8
PACKAGE_GEOMETRY_SILKSCREEN_TOP
 10
7022.120000
 20
21.186000
 40
10.000000
 41
10.000000
 42
0.000000
  0
VERTEX
  8
PACKAGE_GEOMETRY_SILKSCREEN_TOP
 10
7022.120000
 20
41.186000
 40
10.000000
 41
10.000000
 42
0.000000
  0
SEQEND
  0
POLYLINE
  8
PACKAGE_GEOMETRY_SILKSCREEN_TOP
 66
1
 70
1
 40
0.000000
 41
0.000000
 39
0.000000
  0
VERTEX
  8
PACKAGE_GEOMETRY_SILKSCREEN_TOP
 10
6963.065000
 20
-259.404000
 40
10.000000
 41
10.000000
 42
0.000000
  0
VERTEX
  8
PACKAGE_GEOMETRY_SILKSCREEN_TOP
 10
6963.065000
 20
16.186000
 40
10.000000
 41
10.000000
 42
0.000000
  0
VERTEX
  8
PACKAGE_GEOMETRY_SILKSCREEN_TOP
 10
7081.175000
 20
16.186000
 40
10.000000
 41
10.000000
 42
0.000000
  0
VERTEX
  8
PACKAGE_GEOMETRY_SILKSCREEN_TOP
 10
7081.175000
 20
-259.404000
 40
10.000000
 41
10.000000
 42
0.000000
  0
SEQEND
  0
POLYLINE
  8
PACKAGE_GEOMETRY_SILKSCREEN_TOP
 66
1
 70
1
 40
0.000000
 41
0.000000
 39
0.000000
  0
VERTEX
  8
PACKAGE_GEOMETRY_SILKSCREEN_TOP
 10
5936.250000
 20
-51.696000
 40
10.000000
 41
10.000000
 42
0.000000
  0
VERTEX
  8
PACKAGE_GEOMETRY_SILKSCREEN_TOP
 10
5975.620000
 20
-51.696000
 40
10.000000
 41
10.000000
 42
0.000000
  0
VERTEX
  8
PACKAGE_GEOMETRY_SILKSCREEN_TOP
 10
5975.620000
 20
-205.239000
 40
10.000000
 41
10.000000
 42
0.000000
  0
VERTEX
  8
PACKAGE_GEOMETRY_SILKSCREEN_TOP
 10
5896.880000
 20
-205.239000
 40
10.000000
 41
10.000000
 42
0.000000
  0
VERTEX
  8
PACKAGE_GEOMETRY_SILKSCREEN_TOP
 10
5896.880000
 20
-51.696000
 40
10.000000
 41
10.000000
 42
0.000000
  0
SEQEND
  0
POLYLINE
  8
PACKAGE_GEOMETRY_SILKSCREEN_TOP
 66
1
 70
0
 40
0.000000
 41
0.000000
 39
0.000000
  0
VERTEX
  8
PACKAGE_GEOMETRY_SILKSCREEN_TOP
 10
5936.250000
 20
-49.019000
 40
10.000000
 41
10.000000
 42
0.000000
  0
VERTEX
  8
PACKAGE_GEOMETRY_SILKSCREEN_TOP
 10
5936.250000
 20
-29.019000
 40
10.000000
 41
10.000000
 42
0.000000
  0
SEQEND
  0
POLYLINE
  8
PACKAGE_GEOMETRY_SILKSCREEN_TOP
 66
1
 70
0
 40
0.000000
 41
0.000000
 39
0.000000
  0
VERTEX
  8
PACKAGE_GEOMETRY_SILKSCREEN_TOP
 10
5936.250000
 20
-230.082000
 40
10.000000
 41
10.000000
 42
0.000000
  0
VERTEX
  8
PACKAGE_GEOMETRY_SILKSCREEN_TOP
 10
5936.250000
 20
-210.082000
 40
10.000000
 41
10.000000
 42
0.000000
  0
SEQEND
  0
POLYLINE
  8
PACKAGE_GEOMETRY_SILKSCREEN_TOP
 66
1
 70
0
 40
0.000000
 41
0.000000
 39
0.000000
  0
VERTEX
  8
PACKAGE_GEOMETRY_SILKSCREEN_TOP
 10
5971.250000
 20
-85.830000
 40
10.000000
 41
10.000000
 42
0.000000
  0
VERTEX
  8
PACKAGE_GEOMETRY_SILKSCREEN_TOP
 10
5901.250000
 20
-85.830000
 40
10.000000
 41
10.000000
 42
0.000000
  0
SEQEND
  0
POLYLINE
  8
PACKAGE_GEOMETRY_SILKSCREEN_TOP
 66
1
 70
0
 40
0.000000
 41
0.000000
 39
0.000000
  0
VERTEX
  8
PACKAGE_GEOMETRY_SILKSCREEN_TOP
 10
5971.250000
 20
-90.830000
 40
10.000000
 41
10.000000
 42
0.000000
  0
VERTEX
  8
PACKAGE_GEOMETRY_SILKSCREEN_TOP
 10
5901.250000
 20
-90.830000
 40
10.000000
 41
10.000000
 42
0.000000
  0
SEQEND
  0
POLYLINE
  8
PACKAGE_GEOMETRY_SILKSCREEN_TOP
 66
1
 70
0
 40
0.000000
 41
0.000000
 39
0.000000
  0
VERTEX
  8
PACKAGE_GEOMETRY_SILKSCREEN_TOP
 10
5971.250000
 20
-95.830000
 40
10.000000
 41
10.000000
 42
0.000000
  0
VERTEX
  8
PACKAGE_GEOMETRY_SILKSCREEN_TOP
 10
5901.250000
 20
-95.830000
 40
10.000000
 41
10.000000
 42
0.000000
  0
SEQEND
  0
POLYLINE
  8
PACKAGE_GEOMETRY_SILKSCREEN_TOP
 66
1
 70
0
 40
0.000000
 41
0.000000
 39
0.000000
  0
VERTEX
  8
PACKAGE_GEOMETRY_SILKSCREEN_TOP
 10
5971.250000
 20
-80.830000
 40
10.000000
 41
10.000000
 42
0.000000
  0
VERTEX
  8
PACKAGE_GEOMETRY_SILKSCREEN_TOP
 10
5901.250000
 20
-80.830000
 40
10.000000
 41
10.000000
 42
0.000000
  0
SEQEND
  0
POLYLINE
  8
PACKAGE_GEOMETRY_SILKSCREEN_TOP
 66
1
 70
1
 40
0.000000
 41
0.000000
 39
0.000000
  0
VERTEX
  8
PACKAGE_GEOMETRY_SILKSCREEN_TOP
 10
6138.320000
 20
-54.516000
 40
10.000000
 41
10.000000
 42
0.000000
  0
VERTEX
  8
PACKAGE_GEOMETRY_SILKSCREEN_TOP
 10
6177.690000
 20
-54.516000
 40
10.000000
 41
10.000000
 42
0.000000
  0
VERTEX
  8
PACKAGE_GEOMETRY_SILKSCREEN_TOP
 10
6177.690000
 20
-208.059000
 40
10.000000
 41
10.000000
 42
0.000000
  0
VERTEX
  8
PACKAGE_GEOMETRY_SILKSCREEN_TOP
 10
6098.950000
 20
-208.059000
 40
10.000000
 41
10.000000
 42
0.000000
  0
VERTEX
  8
PACKAGE_GEOMETRY_SILKSCREEN_TOP
 10
6098.950000
 20
-54.516000
 40
10.000000
 41
10.000000
 42
0.000000
  0
SEQEND
  0
POLYLINE
  8
PACKAGE_GEOMETRY_SILKSCREEN_TOP
 66
1
 70
0
 40
0.000000
 41
0.000000
 39
0.000000
  0
VERTEX
  8
PACKAGE_GEOMETRY_SILKSCREEN_TOP
 10
6138.320000
 20
-51.839000
 40
10.000000
 41
10.000000
 42
0.000000
  0
VERTEX
  8
PACKAGE_GEOMETRY_SILKSCREEN_TOP
 10
6138.320000
 20
-31.839000
 40
10.000000
 41
10.000000
 42
0.000000
  0
SEQEND
  0
POLYLINE
  8
PACKAGE_GEOMETRY_SILKSCREEN_TOP
 66
1
 70
0
 40
0.000000
 41
0.000000
 39
0.000000
  0
VERTEX
  8
PACKAGE_GEOMETRY_SILKSCREEN_TOP
 10
6138.320000
 20
-232.902000
 40
10.000000
 41
10.000000
 42
0.000000
  0
VERTEX
  8
PACKAGE_GEOMETRY_SILKSCREEN_TOP
 10
6138.320000
 20
-212.902000
 40
10.000000
 41
10.000000
 42
0.000000
  0
SEQEND
  0
POLYLINE
  8
PACKAGE_GEOMETRY_SILKSCREEN_TOP
 66
1
 70
0
 40
0.000000
 41
0.000000
 39
0.000000
  0
VERTEX
  8
PACKAGE_GEOMETRY_SILKSCREEN_TOP
 10
6173.320000
 20
-88.650000
 40
10.000000
 41
10.000000
 42
0.000000
  0
VERTEX
  8
PACKAGE_GEOMETRY_SILKSCREEN_TOP
 10
6103.320000
 20
-88.650000
 40
10.000000
 41
10.000000
 42
0.000000
  0
SEQEND
  0
POLYLINE
  8
PACKAGE_GEOMETRY_SILKSCREEN_TOP
 66
1
 70
0
 40
0.000000
 41
0.000000
 39
0.000000
  0
VERTEX
  8
PACKAGE_GEOMETRY_SILKSCREEN_TOP
 10
6173.320000
 20
-93.650000
 40
10.000000
 41
10.000000
 42
0.000000
  0
VERTEX
  8
PACKAGE_GEOMETRY_SILKSCREEN_TOP
 10
6103.320000
 20
-93.650000
 40
10.000000
 41
10.000000
 42
0.000000
  0
SEQEND
  0
POLYLINE
  8
PACKAGE_GEOMETRY_SILKSCREEN_TOP
 66
1
 70
0
 40
0.000000
 41
0.000000
 39
0.000000
  0
VERTEX
  8
PACKAGE_GEOMETRY_SILKSCREEN_TOP
 10
6173.320000
 20
-98.650000
 40
10.000000
 41
10.000000
 42
0.000000
  0
VERTEX
  8
PACKAGE_GEOMETRY_SILKSCREEN_TOP
 10
6103.320000
 20
-98.650000
 40
10.000000
 41
10.000000
 42
0.000000
  0
SEQEND
  0
POLYLINE
  8
PACKAGE_GEOMETRY_SILKSCREEN_TOP
 66
1
 70
0
 40
0.000000
 41
0.000000
 39
0.000000
  0
VERTEX
  8
PACKAGE_GEOMETRY_SILKSCREEN_TOP
 10
6173.320000
 20
-83.650000
 40
10.000000
 41
10.000000
 42
0.000000
  0
VERTEX
  8
PACKAGE_GEOMETRY_SILKSCREEN_TOP
 10
6103.320000
 20
-83.650000
 40
10.000000
 41
10.000000
 42
0.000000
  0
SEQEND
  0
POLYLINE
  8
BOARD_GEOMETRY_OUTLINE
 66
1
 70
1
 40
0.000000
 41
0.000000
 39
0.000000
  0
VERTEX
  8
BOARD_GEOMETRY_OUTLINE
 10
0.000000
 20
-486.660000
 40
0.000000
 41
0.000000
 42
0.000000
  0
VERTEX
  8
BOARD_GEOMETRY_OUTLINE
 10
0.000000
 20
4169.640000
 40
0.000000
 41
0.000000
 42
0.000000
  0
VERTEX
  8
BOARD_GEOMETRY_OUTLINE
 10
8998.130000
 20
4169.640000
 40
0.000000
 41
0.000000
 42
0.000000
  0
VERTEX
  8
BOARD_GEOMETRY_OUTLINE
 10
8998.130000
 20
-486.660000
 40
0.000000
 41
0.000000
 42
0.000000
  0
SEQEND
  0
POLYLINE
  8
BOARD_GEOMETRY_OUTLINE
 66
1
 70
1
 40
0.000000
 41
0.000000
 39
0.000000
  0
VERTEX
  8
BOARD_GEOMETRY_OUTLINE
 10
1200.000000
 20
-87.500000
 40
0.000000
 41
0.000000
 42
0.000000
  0
VERTEX
  8
BOARD_GEOMETRY_OUTLINE
 10
1200.000000
 20
1337.500000
 40
0.000000
 41
0.000000
 42
0.000000
  0
VERTEX
  8
BOARD_GEOMETRY_OUTLINE
 10
4350.000000
 20
1337.500000
 40
0.000000
 41
0.000000
 42
0.000000
  0
VERTEX
  8
BOARD_GEOMETRY_OUTLINE
 10
4350.000000
 20
-87.500000
 40
0.000000
 41
0.000000
 42
0.000000
  0
SEQEND
  0
ENDSEC
  0
EOF
