G04 ================== begin FILE IDENTIFICATION RECORD ==================*
G04 Layout Name:  D:\misc\ED1\worklib\ed1\physical\ed12.brd*
G04 Film Name:    SILK_TOP*
G04 File Format:  Gerber RS274X*
G04 File Origin:  15.2-s023*
G04 Origin Date:  Tue Nov 30 12:14:53 2010*
G04 ================== end FILE IDENTIFICATION RECORD ====================*
%FSLAX44Y44*MOIN*%
%IR0*IPPOS*OFA0.00000B0.00000*MIA0B0*SFA1.00000B1.00000*%
%ADD10C,.01*%
G75*
%LPD*%
G75*
G54D10*
G01X2885Y2809D02*
Y3009D01*
G01Y4593D02*
X3279D01*
Y3058D01*
X2491D01*
Y4593D01*
X2885D01*
G01X3235Y4302D02*
X2535D01*
G01X3235Y4152D02*
X2535D01*
G01X3235Y4202D02*
X2535D01*
G01X3235Y4252D02*
X2535D01*
G01X2885Y4620D02*
Y4820D01*
G01X6475Y4455D02*
X6869D01*
Y2919D01*
X6082D01*
Y4455D01*
X6475D01*
G01X6825Y4164D02*
X6125D01*
G01X6825Y4014D02*
X6125D01*
G01X6825Y4064D02*
X6125D01*
G01X6825Y4114D02*
X6125D01*
G01X5211Y16635D02*
Y19391D01*
X6392D01*
Y16635D01*
X5211D01*
G01X5802Y16385D02*
Y16585D01*
G01Y19441D02*
Y19641D01*
G01X6475Y2671D02*
Y2871D01*
G01Y4482D02*
Y4682D01*
G01X14723Y2406D02*
Y5162D01*
X15904D01*
Y2406D01*
X14723D01*
G01X14170Y10047D02*
Y12803D01*
X15352D01*
Y10047D01*
X14170D01*
G01X14761Y9797D02*
Y9997D01*
G01Y12853D02*
Y13053D01*
G01X15313Y2156D02*
Y2356D01*
G01Y5212D02*
Y5412D01*
G01X15920Y17458D02*
Y20214D01*
X17101D01*
Y17458D01*
X15920D01*
G01X16510Y17208D02*
Y17408D01*
G01Y20264D02*
Y20464D01*
G01X18341Y1821D02*
X18791D01*
Y5826D01*
X18341D01*
G01Y1321D02*
X20841D01*
Y6321D01*
X18341D01*
Y1321D01*
G01X8525Y15444D02*
Y14444D01*
G01X8350Y15110D02*
X8700D01*
G01X9338Y14894D02*
X9738D01*
X9700Y15010D01*
X9638Y15077D01*
X9551Y15110D01*
X9463Y15094D01*
X9388Y15044D01*
X9338Y14927D01*
X9313Y14827D01*
Y14727D01*
X9338Y14627D01*
X9400Y14527D01*
X9476Y14460D01*
X9563Y14444D01*
X9651Y14477D01*
X9738Y14577D01*
G01X10338Y14560D02*
X10400Y14494D01*
X10488Y14444D01*
X10563D01*
X10638Y14477D01*
X10688Y14527D01*
X10713Y14594D01*
X10700Y14694D01*
X10651Y14744D01*
X10425Y14844D01*
X10376Y14960D01*
X10400Y15044D01*
X10450Y15094D01*
X10525Y15110D01*
X10600Y15094D01*
X10676Y15044D01*
G01X11525Y15444D02*
Y14444D01*
G01X11350Y15110D02*
X11700D01*
M02*
