  0
SECTION
  2
HEADER
  9
$ACADVER
  1
AC1009
  9
$INSBASE
 10
0.000000
 20
0.000000
  9
$LIMMIN
 10
-15875.000000
 20
-9875.000000
  9
$LIMMAX
 10
18125.000000
 20
12125.000000
  9
$EXTMIN
 10
-15875.000000
 20
-9875.000000
  9
$EXTMAX
 10
18125.000000
 20
12125.000000
  9
$ATTMODE
 70
0
  9
$LUNITS
 70
2
  9
$LUPREC
 70
3
  9
$THICKNESS
 40
0.000000
  0
ENDSEC
  0
SECTION
  2
TABLES
  0
TABLE
  2
LTYPE
 70
1
  0
LTYPE
  3
Solid Line
  2
CONTINUOUS
 70
0
 72
65
 73
0
 40
0.000000
  0
ENDTAB
  0
TABLE
  2
LAYER
 70
123
  0
LAYER
  2
BOARD_GEOMETRY_OUTLINE
 70
0
 62
1
  6
CONTINUOUS
  0
LAYER
  2
BOARD_GEOMETRY_OUTLINE
 70
0
 62
2
  6
CONTINUOUS
  0
LAYER
  2
BOARD_GEOMETRY_OUTLINE
 70
0
 62
3
  6
CONTINUOUS
  0
LAYER
  2
BOARD_GEOMETRY_OUTLINE
 70
0
 62
4
  6
CONTINUOUS
  0
LAYER
  2
BOARD_GEOMETRY_OUTLINE
 70
0
 62
5
  6
CONTINUOUS
  0
LAYER
  2
BOARD_GEOMETRY_OUTLINE
 70
0
 62
6
  6
CONTINUOUS
  0
LAYER
  2
BOARD_GEOMETRY_OUTLINE
 70
0
 62
7
  6
CONTINUOUS
  0
LAYER
  2
BOARD_GEOMETRY_OUTLINE
 70
0
 62
8
  6
CONTINUOUS
  0
LAYER
  2
BOARD_GEOMETRY_OUTLINE
 70
0
 62
9
  6
CONTINUOUS
  0
LAYER
  2
BOARD_GEOMETRY_OUTLINE
 70
0
 62
10
  6
CONTINUOUS
  0
LAYER
  2
BOARD_GEOMETRY_OUTLINE
 70
0
 62
11
  6
CONTINUOUS
  0
LAYER
  2
BOARD_GEOMETRY_OUTLINE
 70
0
 62
12
  6
CONTINUOUS
  0
LAYER
  2
BOARD_GEOMETRY_OUTLINE
 70
0
 62
13
  6
CONTINUOUS
  0
LAYER
  2
BOARD_GEOMETRY_OUTLINE
 70
0
 62
14
  6
CONTINUOUS
  0
LAYER
  2
BOARD_GEOMETRY_OUTLINE
 70
0
 62
15
  6
CONTINUOUS
  0
LAYER
  2
BOARD_GEOMETRY_OUTLINE
 70
0
 62
16
  6
CONTINUOUS
  0
LAYER
  2
BOARD_GEOMETRY_OUTLINE
 70
0
 62
17
  6
CONTINUOUS
  0
LAYER
  2
BOARD_GEOMETRY_OUTLINE
 70
0
 62
18
  6
CONTINUOUS
  0
LAYER
  2
BOARD_GEOMETRY_OUTLINE
 70
0
 62
19
  6
CONTINUOUS
  0
LAYER
  2
BOARD_GEOMETRY_OUTLINE
 70
0
 62
20
  6
CONTINUOUS
  0
LAYER
  2
BOARD_GEOMETRY_OUTLINE
 70
0
 62
21
  6
CONTINUOUS
  0
LAYER
  2
BOARD_GEOMETRY_OUTLINE
 70
0
 62
22
  6
CONTINUOUS
  0
LAYER
  2
BOARD_GEOMETRY_OUTLINE
 70
0
 62
23
  6
CONTINUOUS
  0
LAYER
  2
BOARD_GEOMETRY_OUTLINE
 70
0
 62
24
  6
CONTINUOUS
  0
LAYER
  2
BOARD_GEOMETRY_OUTLINE
 70
0
 62
25
  6
CONTINUOUS
  0
LAYER
  2
BOARD_GEOMETRY_OUTLINE
 70
0
 62
26
  6
CONTINUOUS
  0
LAYER
  2
BOARD_GEOMETRY_OUTLINE
 70
0
 62
27
  6
CONTINUOUS
  0
LAYER
  2
BOARD_GEOMETRY_OUTLINE
 70
0
 62
28
  6
CONTINUOUS
  0
LAYER
  2
BOARD_GEOMETRY_OUTLINE
 70
0
 62
29
  6
CONTINUOUS
  0
LAYER
  2
BOARD_GEOMETRY_OUTLINE
 70
0
 62
30
  6
CONTINUOUS
  0
LAYER
  2
BOARD_GEOMETRY_OUTLINE
 70
0
 62
31
  6
CONTINUOUS
  0
LAYER
  2
BOARD_GEOMETRY_OUTLINE
 70
0
 62
32
  6
CONTINUOUS
  0
LAYER
  2
BOARD_GEOMETRY_OUTLINE
 70
0
 62
33
  6
CONTINUOUS
  0
LAYER
  2
BOARD_GEOMETRY_OUTLINE
 70
0
 62
34
  6
CONTINUOUS
  0
LAYER
  2
BOARD_GEOMETRY_OUTLINE
 70
0
 62
35
  6
CONTINUOUS
  0
LAYER
  2
BOARD_GEOMETRY_OUTLINE
 70
0
 62
36
  6
CONTINUOUS
  0
LAYER
  2
BOARD_GEOMETRY_OUTLINE
 70
0
 62
37
  6
CONTINUOUS
  0
LAYER
  2
BOARD_GEOMETRY_OUTLINE
 70
0
 62
38
  6
CONTINUOUS
  0
LAYER
  2
BOARD_GEOMETRY_OUTLINE
 70
0
 62
39
  6
CONTINUOUS
  0
LAYER
  2
BOARD_GEOMETRY_OUTLINE
 70
0
 62
40
  6
CONTINUOUS
  0
LAYER
  2
BOARD_GEOMETRY_OUTLINE
 70
0
 62
41
  6
CONTINUOUS
  0
LAYER
  2
BOARD_GEOMETRY_OUTLINE
 70
0
 62
42
  6
CONTINUOUS
  0
LAYER
  2
BOARD_GEOMETRY_OUTLINE
 70
0
 62
43
  6
CONTINUOUS
  0
LAYER
  2
BOARD_GEOMETRY_OUTLINE
 70
0
 62
44
  6
CONTINUOUS
  0
LAYER
  2
BOARD_GEOMETRY_OUTLINE
 70
0
 62
45
  6
CONTINUOUS
  0
LAYER
  2
BOARD_GEOMETRY_OUTLINE
 70
0
 62
46
  6
CONTINUOUS
  0
LAYER
  2
BOARD_GEOMETRY_OUTLINE
 70
0
 62
47
  6
CONTINUOUS
  0
LAYER
  2
BOARD_GEOMETRY_OUTLINE
 70
0
 62
48
  6
CONTINUOUS
  0
LAYER
  2
BOARD_GEOMETRY_OUTLINE
 70
0
 62
49
  6
CONTINUOUS
  0
LAYER
  2
BOARD_GEOMETRY_OUTLINE
 70
0
 62
50
  6
CONTINUOUS
  0
LAYER
  2
BOARD_GEOMETRY_OUTLINE
 70
0
 62
51
  6
CONTINUOUS
  0
LAYER
  2
BOARD_GEOMETRY_OUTLINE
 70
0
 62
52
  6
CONTINUOUS
  0
LAYER
  2
BOARD_GEOMETRY_OUTLINE
 70
0
 62
53
  6
CONTINUOUS
  0
LAYER
  2
BOARD_GEOMETRY_OUTLINE
 70
0
 62
54
  6
CONTINUOUS
  0
LAYER
  2
BOARD_GEOMETRY_OUTLINE
 70
0
 62
55
  6
CONTINUOUS
  0
LAYER
  2
BOARD_GEOMETRY_OUTLINE
 70
0
 62
56
  6
CONTINUOUS
  0
LAYER
  2
BOARD_GEOMETRY_OUTLINE
 70
0
 62
57
  6
CONTINUOUS
  0
LAYER
  2
BOARD_GEOMETRY_OUTLINE
 70
0
 62
58
  6
CONTINUOUS
  0
LAYER
  2
BOARD_GEOMETRY_OUTLINE
 70
0
 62
59
  6
CONTINUOUS
  0
LAYER
  2
BOARD_GEOMETRY_OUTLINE
 70
0
 62
60
  6
CONTINUOUS
  0
LAYER
  2
BOARD_GEOMETRY_OUTLINE
 70
0
 62
61
  6
CONTINUOUS
  0
LAYER
  2
BOARD_GEOMETRY_OUTLINE
 70
0
 62
62
  6
CONTINUOUS
  0
LAYER
  2
BOARD_GEOMETRY_OUTLINE
 70
0
 62
63
  6
CONTINUOUS
  0
LAYER
  2
BOARD_GEOMETRY_OUTLINE
 70
0
 62
64
  6
CONTINUOUS
  0
LAYER
  2
BOARD_GEOMETRY_OUTLINE
 70
0
 62
65
  6
CONTINUOUS
  0
LAYER
  2
BOARD_GEOMETRY_OUTLINE
 70
0
 62
66
  6
CONTINUOUS
  0
LAYER
  2
BOARD_GEOMETRY_OUTLINE
 70
0
 62
67
  6
CONTINUOUS
  0
LAYER
  2
BOARD_GEOMETRY_OUTLINE
 70
0
 62
68
  6
CONTINUOUS
  0
LAYER
  2
BOARD_GEOMETRY_OUTLINE
 70
0
 62
69
  6
CONTINUOUS
  0
LAYER
  2
BOARD_GEOMETRY_OUTLINE
 70
0
 62
70
  6
CONTINUOUS
  0
LAYER
  2
BOARD_GEOMETRY_OUTLINE
 70
0
 62
71
  6
CONTINUOUS
  0
LAYER
  2
BOARD_GEOMETRY_OUTLINE
 70
0
 62
72
  6
CONTINUOUS
  0
LAYER
  2
BOARD_GEOMETRY_OUTLINE
 70
0
 62
73
  6
CONTINUOUS
  0
LAYER
  2
BOARD_GEOMETRY_OUTLINE
 70
0
 62
74
  6
CONTINUOUS
  0
LAYER
  2
BOARD_GEOMETRY_OUTLINE
 70
0
 62
75
  6
CONTINUOUS
  0
LAYER
  2
BOARD_GEOMETRY_OUTLINE
 70
0
 62
76
  6
CONTINUOUS
  0
LAYER
  2
BOARD_GEOMETRY_OUTLINE
 70
0
 62
77
  6
CONTINUOUS
  0
LAYER
  2
BOARD_GEOMETRY_OUTLINE
 70
0
 62
78
  6
CONTINUOUS
  0
LAYER
  2
BOARD_GEOMETRY_OUTLINE
 70
0
 62
79
  6
CONTINUOUS
  0
LAYER
  2
BOARD_GEOMETRY_OUTLINE
 70
0
 62
80
  6
CONTINUOUS
  0
LAYER
  2
BOARD_GEOMETRY_OUTLINE
 70
0
 62
81
  6
CONTINUOUS
  0
LAYER
  2
BOARD_GEOMETRY_OUTLINE
 70
0
 62
82
  6
CONTINUOUS
  0
LAYER
  2
BOARD_GEOMETRY_OUTLINE
 70
0
 62
83
  6
CONTINUOUS
  0
LAYER
  2
BOARD_GEOMETRY_OUTLINE
 70
0
 62
84
  6
CONTINUOUS
  0
LAYER
  2
BOARD_GEOMETRY_OUTLINE
 70
0
 62
85
  6
CONTINUOUS
  0
LAYER
  2
BOARD_GEOMETRY_OUTLINE
 70
0
 62
86
  6
CONTINUOUS
  0
LAYER
  2
BOARD_GEOMETRY_OUTLINE
 70
0
 62
87
  6
CONTINUOUS
  0
LAYER
  2
BOARD_GEOMETRY_OUTLINE
 70
0
 62
88
  6
CONTINUOUS
  0
LAYER
  2
BOARD_GEOMETRY_OUTLINE
 70
0
 62
89
  6
CONTINUOUS
  0
LAYER
  2
BOARD_GEOMETRY_OUTLINE
 70
0
 62
90
  6
CONTINUOUS
  0
LAYER
  2
BOARD_GEOMETRY_OUTLINE
 70
0
 62
91
  6
CONTINUOUS
  0
LAYER
  2
BOARD_GEOMETRY_OUTLINE
 70
0
 62
92
  6
CONTINUOUS
  0
LAYER
  2
BOARD_GEOMETRY_OUTLINE
 70
0
 62
93
  6
CONTINUOUS
  0
LAYER
  2
BOARD_GEOMETRY_OUTLINE
 70
0
 62
94
  6
CONTINUOUS
  0
LAYER
  2
BOARD_GEOMETRY_OUTLINE
 70
0
 62
95
  6
CONTINUOUS
  0
LAYER
  2
BOARD_GEOMETRY_OUTLINE
 70
0
 62
96
  6
CONTINUOUS
  0
LAYER
  2
BOARD_GEOMETRY_OUTLINE
 70
0
 62
97
  6
CONTINUOUS
  0
LAYER
  2
BOARD_GEOMETRY_OUTLINE
 70
0
 62
98
  6
CONTINUOUS
  0
LAYER
  2
BOARD_GEOMETRY_OUTLINE
 70
0
 62
99
  6
CONTINUOUS
  0
LAYER
  2
BOARD_GEOMETRY_OUTLINE
 70
0
 62
100
  6
CONTINUOUS
  0
LAYER
  2
BOARD_GEOMETRY_OUTLINE
 70
0
 62
101
  6
CONTINUOUS
  0
LAYER
  2
BOARD_GEOMETRY_OUTLINE
 70
0
 62
102
  6
CONTINUOUS
  0
LAYER
  2
BOARD_GEOMETRY_OUTLINE
 70
0
 62
103
  6
CONTINUOUS
  0
LAYER
  2
BOARD_GEOMETRY_OUTLINE
 70
0
 62
104
  6
CONTINUOUS
  0
LAYER
  2
BOARD_GEOMETRY_OUTLINE
 70
0
 62
105
  6
CONTINUOUS
  0
LAYER
  2
BOARD_GEOMETRY_OUTLINE
 70
0
 62
106
  6
CONTINUOUS
  0
LAYER
  2
BOARD_GEOMETRY_OUTLINE
 70
0
 62
107
  6
CONTINUOUS
  0
LAYER
  2
BOARD_GEOMETRY_OUTLINE
 70
0
 62
108
  6
CONTINUOUS
  0
LAYER
  2
BOARD_GEOMETRY_OUTLINE
 70
0
 62
109
  6
CONTINUOUS
  0
LAYER
  2
BOARD_GEOMETRY_OUTLINE
 70
0
 62
110
  6
CONTINUOUS
  0
LAYER
  2
BOARD_GEOMETRY_OUTLINE
 70
0
 62
111
  6
CONTINUOUS
  0
LAYER
  2
BOARD_GEOMETRY_OUTLINE
 70
0
 62
112
  6
CONTINUOUS
  0
LAYER
  2
BOARD_GEOMETRY_OUTLINE
 70
0
 62
113
  6
CONTINUOUS
  0
LAYER
  2
BOARD_GEOMETRY_OUTLINE
 70
0
 62
114
  6
CONTINUOUS
  0
LAYER
  2
BOARD_GEOMETRY_OUTLINE
 70
0
 62
115
  6
CONTINUOUS
  0
LAYER
  2
BOARD_GEOMETRY_OUTLINE
 70
0
 62
116
  6
CONTINUOUS
  0
LAYER
  2
BOARD_GEOMETRY_OUTLINE
 70
0
 62
117
  6
CONTINUOUS
  0
LAYER
  2
BOARD_GEOMETRY_OUTLINE
 70
0
 62
118
  6
CONTINUOUS
  0
LAYER
  2
BOARD_GEOMETRY_OUTLINE
 70
0
 62
119
  6
CONTINUOUS
  0
LAYER
  2
BOARD_GEOMETRY_OUTLINE
 70
0
 62
120
  6
CONTINUOUS
  0
LAYER
  2
BOARD_GEOMETRY_OUTLINE
 70
0
 62
121
  6
CONTINUOUS
  0
LAYER
  2
BOARD_GEOMETRY_OUTLINE
 70
0
 62
122
  6
CONTINUOUS
  0
LAYER
  2
BOARD_GEOMETRY_OUTLINE
 70
0
 62
123
  6
CONTINUOUS
  0
ENDTAB
  0
TABLE
  2
STYLE
 70
1
  0
STYLE
  2
STANDARD
 70
0
 40
0.000000
 41
1.000000
 50
0.000000
 71
0
 42
0.200000
  3
txt
  0
ENDTAB
  0
ENDSEC
  0
SECTION
  2
BLOCKS
  0
BLOCK
  8
0
  2
FIGURE_CIRCLE
 70
0
 10
0.000000
 20
0.000000
  0
CIRCLE
  8
0
 10
0.000000
 20
0.000000
 40
0.500000
  0
ENDBLK
  0
BLOCK
  8
0
  2
FIGURE_SQUARE
 70
0
 10
0.000000
 20
0.000000
  0
POLYLINE
  8
0
 66
1
 70
1
 40
0.000000
 41
0.000000
 39
0.000000
  0
VERTEX
  8
0
 10
-0.500000
 20
-0.500000
 40
0.000000
 41
0.000000
 42
0.000000
  0
VERTEX
  8
0
 10
-0.500000
 20
0.500000
 40
0.000000
 41
0.000000
 42
0.000000
  0
VERTEX
  8
0
 10
0.500000
 20
0.500000
 40
0.000000
 41
0.000000
 42
0.000000
  0
VERTEX
  8
0
 10
0.500000
 20
-0.500000
 40
0.000000
 41
0.000000
 42
0.000000
  0
SEQEND
  0
ENDBLK
  0
BLOCK
  8
0
  2
FIGURE_HEX
 70
0
 10
0.000000
 20
0.000000
  0
POLYLINE
  8
0
 66
1
 70
1
 40
0.000000
 41
0.000000
 39
0.000000
  0
VERTEX
  8
0
 10
-0.500000
 20
0.000000
 40
0.000000
 41
0.000000
 42
0.000000
  0
VERTEX
  8
0
 10
-0.250000
 20
0.500000
 40
0.000000
 41
0.000000
 42
0.000000
  0
VERTEX
  8
0
 10
0.250000
 20
0.500000
 40
0.000000
 41
0.000000
 42
0.000000
  0
VERTEX
  8
0
 10
0.500000
 20
0.000000
 40
0.000000
 41
0.000000
 42
0.000000
  0
VERTEX
  8
0
 10
0.250000
 20
-0.500000
 40
0.000000
 41
0.000000
 42
0.000000
  0
VERTEX
  8
0
 10
-0.250000
 20
-0.500000
 40
0.000000
 41
0.000000
 42
0.000000
  0
SEQEND
  0
ENDBLK
  0
BLOCK
  8
0
  2
FIGURE_OCT
 70
0
 10
0.000000
 20
0.000000
  0
POLYLINE
  8
0
 66
1
 70
1
 40
0.000000
 41
0.000000
 39
0.000000
  0
VERTEX
  8
0
 10
-0.500000
 20
-0.207100
 40
0.000000
 41
0.000000
 42
0.000000
  0
VERTEX
  8
0
 10
-0.500000
 20
0.207100
 40
0.000000
 41
0.000000
 42
0.000000
  0
VERTEX
  8
0
 10
-0.207100
 20
0.500000
 40
0.000000
 41
0.000000
 42
0.000000
  0
VERTEX
  8
0
 10
0.207100
 20
0.500000
 40
0.000000
 41
0.000000
 42
0.000000
  0
VERTEX
  8
0
 10
0.500000
 20
0.207100
 40
0.000000
 41
0.000000
 42
0.000000
  0
VERTEX
  8
0
 10
0.500000
 20
-0.207100
 40
0.000000
 41
0.000000
 42
0.000000
  0
VERTEX
  8
0
 10
0.207100
 20
-0.500000
 40
0.000000
 41
0.000000
 42
0.000000
  0
VERTEX
  8
0
 10
-0.207100
 20
-0.500000
 40
0.000000
 41
0.000000
 42
0.000000
  0
SEQEND
  0
ENDBLK
  0
BLOCK
  8
0
  2
FIGURE_OBLONG
 70
0
 10
0.000000
 20
0.000000
  0
POLYLINE
  8
0
 66
1
 70
1
 40
0.000000
 41
0.000000
 39
0.000000
  0
VERTEX
  8
0
 10
-0.500000
 20
-0.125000
 40
0.000000
 41
0.000000
 42
0.000000
  0
VERTEX
  8
0
 10
-0.500000
 20
0.125000
 40
0.000000
 41
0.000000
 42
0.000000
  0
VERTEX
  8
0
 10
-0.416000
 20
0.375000
 40
0.000000
 41
0.000000
 42
0.000000
  0
VERTEX
  8
0
 10
-0.250000
 20
0.500000
 40
0.000000
 41
0.000000
 42
0.000000
  0
VERTEX
  8
0
 10
0.250000
 20
0.500000
 40
0.000000
 41
0.000000
 42
0.000000
  0
VERTEX
  8
0
 10
0.416000
 20
0.375000
 40
0.000000
 41
0.000000
 42
0.000000
  0
VERTEX
  8
0
 10
0.500000
 20
0.125000
 40
0.000000
 41
0.000000
 42
0.000000
  0
VERTEX
  8
0
 10
0.500000
 20
-0.125000
 40
0.000000
 41
0.000000
 42
0.000000
  0
VERTEX
  8
0
 10
0.416000
 20
-0.375000
 40
0.000000
 41
0.000000
 42
0.000000
  0
VERTEX
  8
0
 10
0.250000
 20
-0.500000
 40
0.000000
 41
0.000000
 42
0.000000
  0
VERTEX
  8
0
 10
-0.250000
 20
-0.500000
 40
0.000000
 41
0.000000
 42
0.000000
  0
VERTEX
  8
0
 10
-0.416000
 20
-0.375000
 40
0.000000
 41
0.000000
 42
0.000000
  0
SEQEND
  0
ENDBLK
  0
BLOCK
  8
0
  2
FIGURE_TRI
 70
0
 10
0.000000
 20
0.000000
  0
POLYLINE
  8
0
 66
1
 70
1
 40
0.000000
 41
0.000000
 39
0.000000
  0
VERTEX
  8
0
 10
-0.500000
 20
-0.500000
 40
0.000000
 41
0.000000
 42
0.000000
  0
VERTEX
  8
0
 10
0.000000
 20
0.500000
 40
0.000000
 41
0.000000
 42
0.000000
  0
VERTEX
  8
0
 10
0.500000
 20
-0.500000
 40
0.000000
 41
0.000000
 42
0.000000
  0
SEQEND
  0
ENDBLK
  0
BLOCK
  8
0
  2
FIGURE_CROSS
 70
0
 10
0.000000
 20
0.000000
  0
POLYLINE
  8
0
 66
1
 70
0
 40
0.000000
 41
0.000000
 39
0.000000
  0
VERTEX
  8
0
 10
-0.500000
 20
0.000000
 40
0.000000
 41
0.000000
 42
0.000000
  0
VERTEX
  8
0
 10
0.500000
 20
0.000000
 40
0.000000
 41
0.000000
 42
0.000000
  0
SEQEND
  0
POLYLINE
  8
0
 66
1
 70
0
 40
0.000000
 41
0.000000
 39
0.000000
  0
VERTEX
  8
0
 10
0.000000
 20
0.500000
 40
0.000000
 41
0.000000
 42
0.000000
  0
VERTEX
  8
0
 10
0.000000
 20
-0.500000
 40
0.000000
 41
0.000000
 42
0.000000
  0
SEQEND
  0
ENDBLK
  0
BLOCK
  8
0
  2
FIGURE_DIAMOND
 70
0
 10
0.000000
 20
0.000000
  0
POLYLINE
  8
0
 66
1
 70
1
 40
0.000000
 41
0.000000
 39
0.000000
  0
VERTEX
  8
0
 10
-0.500000
 20
0.000000
 40
0.000000
 41
0.000000
 42
0.000000
  0
VERTEX
  8
0
 10
0.000000
 20
0.500000
 40
0.000000
 41
0.000000
 42
0.000000
  0
VERTEX
  8
0
 10
0.500000
 20
0.000000
 40
0.000000
 41
0.000000
 42
0.000000
  0
VERTEX
  8
0
 10
0.000000
 20
-0.500000
 40
0.000000
 41
0.000000
 42
0.000000
  0
SEQEND
  0
ENDBLK
  0
ENDSEC
  0
SECTION
  2
ENTITIES
  0
CIRCLE
  8
BOARD_GEOMETRY_OUTLINE
 10
250.000000
 20
10750.000000
 40
62.500000
  0
CIRCLE
  8
BOARD_GEOMETRY_OUTLINE
 10
250.000000
 20
10750.000000
 40
62.500000
  0
CIRCLE
  8
BOARD_GEOMETRY_OUTLINE
 10
250.000000
 20
10750.000000
 40
67.500000
  0
CIRCLE
  8
BOARD_GEOMETRY_OUTLINE
 10
250.000000
 20
10750.000000
 40
67.500000
  0
CIRCLE
  8
BOARD_GEOMETRY_OUTLINE
 10
8750.000000
 20
10750.000000
 40
62.500000
  0
CIRCLE
  8
BOARD_GEOMETRY_OUTLINE
 10
8750.000000
 20
10750.000000
 40
62.500000
  0
CIRCLE
  8
BOARD_GEOMETRY_OUTLINE
 10
8750.000000
 20
10750.000000
 40
67.500000
  0
CIRCLE
  8
BOARD_GEOMETRY_OUTLINE
 10
8750.000000
 20
10750.000000
 40
67.500000
  0
CIRCLE
  8
BOARD_GEOMETRY_OUTLINE
 10
250.000000
 20
10750.000000
 40
62.500000
  0
CIRCLE
  8
BOARD_GEOMETRY_OUTLINE
 10
250.000000
 20
10750.000000
 40
62.500000
  0
CIRCLE
  8
BOARD_GEOMETRY_OUTLINE
 10
250.000000
 20
10750.000000
 40
67.500000
  0
CIRCLE
  8
BOARD_GEOMETRY_OUTLINE
 10
250.000000
 20
10750.000000
 40
67.500000
  0
CIRCLE
  8
BOARD_GEOMETRY_OUTLINE
 10
8750.000000
 20
250.000000
 40
62.500000
  0
CIRCLE
  8
BOARD_GEOMETRY_OUTLINE
 10
8750.000000
 20
250.000000
 40
62.500000
  0
CIRCLE
  8
BOARD_GEOMETRY_OUTLINE
 10
8750.000000
 20
250.000000
 40
67.500000
  0
CIRCLE
  8
BOARD_GEOMETRY_OUTLINE
 10
8750.000000
 20
250.000000
 40
67.500000
  0
CIRCLE
  8
BOARD_GEOMETRY_OUTLINE
 10
250.000000
 20
250.000000
 40
62.500000
  0
CIRCLE
  8
BOARD_GEOMETRY_OUTLINE
 10
250.000000
 20
250.000000
 40
62.500000
  0
CIRCLE
  8
BOARD_GEOMETRY_OUTLINE
 10
250.000000
 20
250.000000
 40
67.500000
  0
CIRCLE
  8
BOARD_GEOMETRY_OUTLINE
 10
250.000000
 20
250.000000
 40
67.500000
  0
CIRCLE
  8
BOARD_GEOMETRY_OUTLINE
 10
700.000000
 20
7755.000000
 40
62.500000
  0
CIRCLE
  8
BOARD_GEOMETRY_OUTLINE
 10
700.000000
 20
7755.000000
 40
62.500000
  0
CIRCLE
  8
BOARD_GEOMETRY_OUTLINE
 10
700.000000
 20
7755.000000
 40
67.500000
  0
CIRCLE
  8
BOARD_GEOMETRY_OUTLINE
 10
700.000000
 20
7755.000000
 40
67.500000
  0
CIRCLE
  8
BOARD_GEOMETRY_OUTLINE
 10
5437.500000
 20
1000.000000
 40
62.500000
  0
CIRCLE
  8
BOARD_GEOMETRY_OUTLINE
 10
5437.500000
 20
1000.000000
 40
62.500000
  0
CIRCLE
  8
BOARD_GEOMETRY_OUTLINE
 10
5437.500000
 20
1000.000000
 40
67.500000
  0
CIRCLE
  8
BOARD_GEOMETRY_OUTLINE
 10
5437.500000
 20
1000.000000
 40
67.500000
  0
CIRCLE
  8
BOARD_GEOMETRY_OUTLINE
 10
4562.500000
 20
1000.000000
 40
62.500000
  0
CIRCLE
  8
BOARD_GEOMETRY_OUTLINE
 10
4562.500000
 20
1000.000000
 40
62.500000
  0
CIRCLE
  8
BOARD_GEOMETRY_OUTLINE
 10
4562.500000
 20
1000.000000
 40
67.500000
  0
CIRCLE
  8
BOARD_GEOMETRY_OUTLINE
 10
4562.500000
 20
1000.000000
 40
67.500000
  0
CIRCLE
  8
BOARD_GEOMETRY_OUTLINE
 10
5000.000000
 20
1000.000000
 40
62.500000
  0
CIRCLE
  8
BOARD_GEOMETRY_OUTLINE
 10
5000.000000
 20
1000.000000
 40
62.500000
  0
CIRCLE
  8
BOARD_GEOMETRY_OUTLINE
 10
5000.000000
 20
1000.000000
 40
67.500000
  0
CIRCLE
  8
BOARD_GEOMETRY_OUTLINE
 10
5000.000000
 20
1000.000000
 40
67.500000
  0
POLYLINE
  8
BOARD_GEOMETRY_OUTLINE
 66
1
 70
1
 40
0.000000
 41
0.000000
 39
0.000000
  0
VERTEX
  8
BOARD_GEOMETRY_OUTLINE
 10
2151.220000
 20
8741.000000
 40
0.000000
 41
0.000000
 42
0.000000
  0
VERTEX
  8
BOARD_GEOMETRY_OUTLINE
 10
2619.220000
 20
8741.000000
 40
0.000000
 41
0.000000
 42
-0.414214
  0
VERTEX
  8
BOARD_GEOMETRY_OUTLINE
 10
2621.220000
 20
8739.000000
 40
0.000000
 41
0.000000
 42
0.000000
  0
VERTEX
  8
BOARD_GEOMETRY_OUTLINE
 10
2621.220000
 20
8271.000000
 40
0.000000
 41
0.000000
 42
-0.414214
  0
VERTEX
  8
BOARD_GEOMETRY_OUTLINE
 10
2619.220000
 20
8269.000000
 40
0.000000
 41
0.000000
 42
0.000000
  0
VERTEX
  8
BOARD_GEOMETRY_OUTLINE
 10
2151.220000
 20
8269.000000
 40
0.000000
 41
0.000000
 42
-0.414214
  0
VERTEX
  8
BOARD_GEOMETRY_OUTLINE
 10
2149.220000
 20
8271.000000
 40
0.000000
 41
0.000000
 42
0.000000
  0
VERTEX
  8
BOARD_GEOMETRY_OUTLINE
 10
2149.220000
 20
8739.000000
 40
0.000000
 41
0.000000
 42
-0.414214
  0
SEQEND
  0
POLYLINE
  8
BOARD_GEOMETRY_OUTLINE
 66
1
 70
1
 40
0.000000
 41
0.000000
 39
0.000000
  0
VERTEX
  8
BOARD_GEOMETRY_OUTLINE
 10
2151.220000
 20
7241.000000
 40
0.000000
 41
0.000000
 42
0.000000
  0
VERTEX
  8
BOARD_GEOMETRY_OUTLINE
 10
2619.220000
 20
7241.000000
 40
0.000000
 41
0.000000
 42
-0.414214
  0
VERTEX
  8
BOARD_GEOMETRY_OUTLINE
 10
2621.220000
 20
7239.000000
 40
0.000000
 41
0.000000
 42
0.000000
  0
VERTEX
  8
BOARD_GEOMETRY_OUTLINE
 10
2621.220000
 20
6771.000000
 40
0.000000
 41
0.000000
 42
-0.414214
  0
VERTEX
  8
BOARD_GEOMETRY_OUTLINE
 10
2619.220000
 20
6769.000000
 40
0.000000
 41
0.000000
 42
0.000000
  0
VERTEX
  8
BOARD_GEOMETRY_OUTLINE
 10
2151.220000
 20
6769.000000
 40
0.000000
 41
0.000000
 42
-0.414214
  0
VERTEX
  8
BOARD_GEOMETRY_OUTLINE
 10
2149.220000
 20
6771.000000
 40
0.000000
 41
0.000000
 42
0.000000
  0
VERTEX
  8
BOARD_GEOMETRY_OUTLINE
 10
2149.220000
 20
7239.000000
 40
0.000000
 41
0.000000
 42
-0.414214
  0
SEQEND
  0
POLYLINE
  8
BOARD_GEOMETRY_OUTLINE
 66
1
 70
1
 40
0.000000
 41
0.000000
 39
0.000000
  0
VERTEX
  8
BOARD_GEOMETRY_OUTLINE
 10
2901.220000
 20
7991.000000
 40
0.000000
 41
0.000000
 42
0.000000
  0
VERTEX
  8
BOARD_GEOMETRY_OUTLINE
 10
3369.220000
 20
7991.000000
 40
0.000000
 41
0.000000
 42
-0.414214
  0
VERTEX
  8
BOARD_GEOMETRY_OUTLINE
 10
3371.220000
 20
7989.000000
 40
0.000000
 41
0.000000
 42
0.000000
  0
VERTEX
  8
BOARD_GEOMETRY_OUTLINE
 10
3371.220000
 20
7521.000000
 40
0.000000
 41
0.000000
 42
-0.414214
  0
VERTEX
  8
BOARD_GEOMETRY_OUTLINE
 10
3369.220000
 20
7519.000000
 40
0.000000
 41
0.000000
 42
0.000000
  0
VERTEX
  8
BOARD_GEOMETRY_OUTLINE
 10
2901.220000
 20
7519.000000
 40
0.000000
 41
0.000000
 42
-0.414214
  0
VERTEX
  8
BOARD_GEOMETRY_OUTLINE
 10
2899.220000
 20
7521.000000
 40
0.000000
 41
0.000000
 42
0.000000
  0
VERTEX
  8
BOARD_GEOMETRY_OUTLINE
 10
2899.220000
 20
7989.000000
 40
0.000000
 41
0.000000
 42
-0.414214
  0
SEQEND
  0
POLYLINE
  8
BOARD_GEOMETRY_OUTLINE
 66
1
 70
1
 40
0.000000
 41
0.000000
 39
0.000000
  0
VERTEX
  8
BOARD_GEOMETRY_OUTLINE
 10
1871.220000
 20
7989.000000
 40
0.000000
 41
0.000000
 42
0.000000
  0
VERTEX
  8
BOARD_GEOMETRY_OUTLINE
 10
1871.220000
 20
7521.000000
 40
0.000000
 41
0.000000
 42
-0.414214
  0
VERTEX
  8
BOARD_GEOMETRY_OUTLINE
 10
1869.220000
 20
7519.000000
 40
0.000000
 41
0.000000
 42
0.000000
  0
VERTEX
  8
BOARD_GEOMETRY_OUTLINE
 10
1401.220000
 20
7519.000000
 40
0.000000
 41
0.000000
 42
-0.414214
  0
VERTEX
  8
BOARD_GEOMETRY_OUTLINE
 10
1399.220000
 20
7521.000000
 40
0.000000
 41
0.000000
 42
0.000000
  0
VERTEX
  8
BOARD_GEOMETRY_OUTLINE
 10
1399.220000
 20
7989.000000
 40
0.000000
 41
0.000000
 42
-0.414214
  0
VERTEX
  8
BOARD_GEOMETRY_OUTLINE
 10
1401.220000
 20
7991.000000
 40
0.000000
 41
0.000000
 42
0.000000
  0
VERTEX
  8
BOARD_GEOMETRY_OUTLINE
 10
1869.220000
 20
7991.000000
 40
0.000000
 41
0.000000
 42
-0.414214
  0
SEQEND
  0
POLYLINE
  8
BOARD_GEOMETRY_OUTLINE
 66
1
 70
1
 40
0.000000
 41
0.000000
 39
0.000000
  0
VERTEX
  8
BOARD_GEOMETRY_OUTLINE
 10
7485.000000
 20
8052.500000
 40
0.000000
 41
0.000000
 42
0.000000
  0
VERTEX
  8
BOARD_GEOMETRY_OUTLINE
 10
7485.000000
 20
7505.500000
 40
0.000000
 41
0.000000
 42
-0.414214
  0
VERTEX
  8
BOARD_GEOMETRY_OUTLINE
 10
7483.000000
 20
7503.500000
 40
0.000000
 41
0.000000
 42
0.000000
  0
VERTEX
  8
BOARD_GEOMETRY_OUTLINE
 10
4967.000000
 20
7503.500000
 40
0.000000
 41
0.000000
 42
-0.414214
  0
VERTEX
  8
BOARD_GEOMETRY_OUTLINE
 10
4965.000000
 20
7505.500000
 40
0.000000
 41
0.000000
 42
0.000000
  0
VERTEX
  8
BOARD_GEOMETRY_OUTLINE
 10
4965.000000
 20
8052.500000
 40
0.000000
 41
0.000000
 42
-0.414214
  0
VERTEX
  8
BOARD_GEOMETRY_OUTLINE
 10
4967.000000
 20
8054.500000
 40
0.000000
 41
0.000000
 42
0.000000
  0
VERTEX
  8
BOARD_GEOMETRY_OUTLINE
 10
7483.000000
 20
8054.500000
 40
0.000000
 41
0.000000
 42
-0.414214
  0
SEQEND
  0
POLYLINE
  8
BOARD_GEOMETRY_OUTLINE
 66
1
 70
1
 40
0.000000
 41
0.000000
 39
0.000000
  0
VERTEX
  8
BOARD_GEOMETRY_OUTLINE
 10
3463.000000
 20
815.000000
 40
0.000000
 41
0.000000
 42
0.000000
  0
VERTEX
  8
BOARD_GEOMETRY_OUTLINE
 10
3092.000000
 20
815.000000
 40
0.000000
 41
0.000000
 42
-0.414214
  0
VERTEX
  8
BOARD_GEOMETRY_OUTLINE
 10
3090.000000
 20
817.000000
 40
0.000000
 41
0.000000
 42
0.000000
  0
VERTEX
  8
BOARD_GEOMETRY_OUTLINE
 10
3090.000000
 20
1263.000000
 40
0.000000
 41
0.000000
 42
-0.414214
  0
VERTEX
  8
BOARD_GEOMETRY_OUTLINE
 10
3092.000000
 20
1265.000000
 40
0.000000
 41
0.000000
 42
0.000000
  0
VERTEX
  8
BOARD_GEOMETRY_OUTLINE
 10
3463.000000
 20
1265.000000
 40
0.000000
 41
0.000000
 42
-0.414214
  0
VERTEX
  8
BOARD_GEOMETRY_OUTLINE
 10
3465.000000
 20
1263.000000
 40
0.000000
 41
0.000000
 42
0.000000
  0
VERTEX
  8
BOARD_GEOMETRY_OUTLINE
 10
3465.000000
 20
817.000000
 40
0.000000
 41
0.000000
 42
-0.414214
  0
SEQEND
  0
POLYLINE
  8
BOARD_GEOMETRY_OUTLINE
 66
1
 70
1
 40
0.000000
 41
0.000000
 39
0.000000
  0
VERTEX
  8
BOARD_GEOMETRY_OUTLINE
 10
1164.500000
 20
890.000000
 40
0.000000
 41
0.000000
 42
-0.414214
  0
VERTEX
  8
BOARD_GEOMETRY_OUTLINE
 10
1162.500000
 20
892.000000
 40
0.000000
 41
0.000000
 42
0.000000
  0
VERTEX
  8
BOARD_GEOMETRY_OUTLINE
 10
1162.500000
 20
1238.000000
 40
0.000000
 41
0.000000
 42
-0.414214
  0
VERTEX
  8
BOARD_GEOMETRY_OUTLINE
 10
1164.500000
 20
1240.000000
 40
0.000000
 41
0.000000
 42
0.000000
  0
VERTEX
  8
BOARD_GEOMETRY_OUTLINE
 10
1835.500000
 20
1240.000000
 40
0.000000
 41
0.000000
 42
-0.414214
  0
VERTEX
  8
BOARD_GEOMETRY_OUTLINE
 10
1837.500000
 20
1238.000000
 40
0.000000
 41
0.000000
 42
0.000000
  0
VERTEX
  8
BOARD_GEOMETRY_OUTLINE
 10
1837.500000
 20
892.000000
 40
0.000000
 41
0.000000
 42
-0.414214
  0
VERTEX
  8
BOARD_GEOMETRY_OUTLINE
 10
1835.500000
 20
890.000000
 40
0.000000
 41
0.000000
 42
0.000000
  0
SEQEND
  0
CIRCLE
  8
BOARD_GEOMETRY_OUTLINE
 10
2000.000000
 20
1065.000000
 40
62.500000
  0
CIRCLE
  8
BOARD_GEOMETRY_OUTLINE
 10
2000.000000
 20
1065.000000
 40
62.500000
  0
CIRCLE
  8
BOARD_GEOMETRY_OUTLINE
 10
2000.000000
 20
1065.000000
 40
67.500000
  0
CIRCLE
  8
BOARD_GEOMETRY_OUTLINE
 10
2000.000000
 20
1065.000000
 40
67.500000
  0
CIRCLE
  8
BOARD_GEOMETRY_OUTLINE
 10
1000.000000
 20
1065.000000
 40
62.500000
  0
CIRCLE
  8
BOARD_GEOMETRY_OUTLINE
 10
1000.000000
 20
1065.000000
 40
62.500000
  0
CIRCLE
  8
BOARD_GEOMETRY_OUTLINE
 10
1000.000000
 20
1065.000000
 40
67.500000
  0
CIRCLE
  8
BOARD_GEOMETRY_OUTLINE
 10
1000.000000
 20
1065.000000
 40
67.500000
  0
CIRCLE
  8
BOARD_GEOMETRY_OUTLINE
 10
1500.000000
 20
5750.000000
 40
62.500000
  0
CIRCLE
  8
BOARD_GEOMETRY_OUTLINE
 10
1500.000000
 20
5750.000000
 40
62.500000
  0
CIRCLE
  8
BOARD_GEOMETRY_OUTLINE
 10
1500.000000
 20
5750.000000
 40
67.500000
  0
CIRCLE
  8
BOARD_GEOMETRY_OUTLINE
 10
1500.000000
 20
5750.000000
 40
67.500000
  0
POLYLINE
  8
BOARD_GEOMETRY_OUTLINE
 66
1
 70
1
 40
0.000000
 41
0.000000
 39
0.000000
  0
VERTEX
  8
BOARD_GEOMETRY_OUTLINE
 10
1500.000000
 20
5781.250000
 40
0.000000
 41
0.000000
 42
1.000000
  0
VERTEX
  8
BOARD_GEOMETRY_OUTLINE
 10
1500.000000
 20
5718.750000
 40
0.000000
 41
0.000000
 42
1.000000
  0
SEQEND
  0
CIRCLE
  8
BOARD_GEOMETRY_OUTLINE
 10
2500.000000
 20
5750.000000
 40
62.500000
  0
CIRCLE
  8
BOARD_GEOMETRY_OUTLINE
 10
2500.000000
 20
5750.000000
 40
62.500000
  0
CIRCLE
  8
BOARD_GEOMETRY_OUTLINE
 10
2500.000000
 20
5750.000000
 40
67.500000
  0
CIRCLE
  8
BOARD_GEOMETRY_OUTLINE
 10
2500.000000
 20
5750.000000
 40
67.500000
  0
POLYLINE
  8
BOARD_GEOMETRY_OUTLINE
 66
1
 70
1
 40
0.000000
 41
0.000000
 39
0.000000
  0
VERTEX
  8
BOARD_GEOMETRY_OUTLINE
 10
2500.000000
 20
5781.250000
 40
0.000000
 41
0.000000
 42
1.000000
  0
VERTEX
  8
BOARD_GEOMETRY_OUTLINE
 10
2500.000000
 20
5718.750000
 40
0.000000
 41
0.000000
 42
1.000000
  0
SEQEND
  0
CIRCLE
  8
BOARD_GEOMETRY_OUTLINE
 10
3500.000000
 20
5750.000000
 40
62.500000
  0
CIRCLE
  8
BOARD_GEOMETRY_OUTLINE
 10
3500.000000
 20
5750.000000
 40
62.500000
  0
CIRCLE
  8
BOARD_GEOMETRY_OUTLINE
 10
3500.000000
 20
5750.000000
 40
67.500000
  0
CIRCLE
  8
BOARD_GEOMETRY_OUTLINE
 10
3500.000000
 20
5750.000000
 40
67.500000
  0
POLYLINE
  8
BOARD_GEOMETRY_OUTLINE
 66
1
 70
1
 40
0.000000
 41
0.000000
 39
0.000000
  0
VERTEX
  8
BOARD_GEOMETRY_OUTLINE
 10
3500.000000
 20
5781.250000
 40
0.000000
 41
0.000000
 42
1.000000
  0
VERTEX
  8
BOARD_GEOMETRY_OUTLINE
 10
3500.000000
 20
5718.750000
 40
0.000000
 41
0.000000
 42
1.000000
  0
SEQEND
  0
CIRCLE
  8
BOARD_GEOMETRY_OUTLINE
 10
4500.000000
 20
5750.000000
 40
62.500000
  0
CIRCLE
  8
BOARD_GEOMETRY_OUTLINE
 10
4500.000000
 20
5750.000000
 40
62.500000
  0
CIRCLE
  8
BOARD_GEOMETRY_OUTLINE
 10
4500.000000
 20
5750.000000
 40
67.500000
  0
CIRCLE
  8
BOARD_GEOMETRY_OUTLINE
 10
4500.000000
 20
5750.000000
 40
67.500000
  0
POLYLINE
  8
BOARD_GEOMETRY_OUTLINE
 66
1
 70
1
 40
0.000000
 41
0.000000
 39
0.000000
  0
VERTEX
  8
BOARD_GEOMETRY_OUTLINE
 10
4500.000000
 20
5781.250000
 40
0.000000
 41
0.000000
 42
1.000000
  0
VERTEX
  8
BOARD_GEOMETRY_OUTLINE
 10
4500.000000
 20
5718.750000
 40
0.000000
 41
0.000000
 42
1.000000
  0
SEQEND
  0
CIRCLE
  8
BOARD_GEOMETRY_OUTLINE
 10
5500.000000
 20
5750.000000
 40
62.500000
  0
CIRCLE
  8
BOARD_GEOMETRY_OUTLINE
 10
5500.000000
 20
5750.000000
 40
62.500000
  0
CIRCLE
  8
BOARD_GEOMETRY_OUTLINE
 10
5500.000000
 20
5750.000000
 40
67.500000
  0
CIRCLE
  8
BOARD_GEOMETRY_OUTLINE
 10
5500.000000
 20
5750.000000
 40
67.500000
  0
POLYLINE
  8
BOARD_GEOMETRY_OUTLINE
 66
1
 70
1
 40
0.000000
 41
0.000000
 39
0.000000
  0
VERTEX
  8
BOARD_GEOMETRY_OUTLINE
 10
5500.000000
 20
5781.250000
 40
0.000000
 41
0.000000
 42
1.000000
  0
VERTEX
  8
BOARD_GEOMETRY_OUTLINE
 10
5500.000000
 20
5718.750000
 40
0.000000
 41
0.000000
 42
1.000000
  0
SEQEND
  0
CIRCLE
  8
BOARD_GEOMETRY_OUTLINE
 10
6500.000000
 20
5750.000000
 40
62.500000
  0
CIRCLE
  8
BOARD_GEOMETRY_OUTLINE
 10
6500.000000
 20
5750.000000
 40
62.500000
  0
CIRCLE
  8
BOARD_GEOMETRY_OUTLINE
 10
6500.000000
 20
5750.000000
 40
67.500000
  0
CIRCLE
  8
BOARD_GEOMETRY_OUTLINE
 10
6500.000000
 20
5750.000000
 40
67.500000
  0
POLYLINE
  8
BOARD_GEOMETRY_OUTLINE
 66
1
 70
1
 40
0.000000
 41
0.000000
 39
0.000000
  0
VERTEX
  8
BOARD_GEOMETRY_OUTLINE
 10
6500.000000
 20
5781.250000
 40
0.000000
 41
0.000000
 42
1.000000
  0
VERTEX
  8
BOARD_GEOMETRY_OUTLINE
 10
6500.000000
 20
5718.750000
 40
0.000000
 41
0.000000
 42
1.000000
  0
SEQEND
  0
CIRCLE
  8
BOARD_GEOMETRY_OUTLINE
 10
7500.000000
 20
5750.000000
 40
62.500000
  0
CIRCLE
  8
BOARD_GEOMETRY_OUTLINE
 10
7500.000000
 20
5750.000000
 40
62.500000
  0
CIRCLE
  8
BOARD_GEOMETRY_OUTLINE
 10
7500.000000
 20
5750.000000
 40
67.500000
  0
CIRCLE
  8
BOARD_GEOMETRY_OUTLINE
 10
7500.000000
 20
5750.000000
 40
67.500000
  0
POLYLINE
  8
BOARD_GEOMETRY_OUTLINE
 66
1
 70
1
 40
0.000000
 41
0.000000
 39
0.000000
  0
VERTEX
  8
BOARD_GEOMETRY_OUTLINE
 10
7500.000000
 20
5781.250000
 40
0.000000
 41
0.000000
 42
1.000000
  0
VERTEX
  8
BOARD_GEOMETRY_OUTLINE
 10
7500.000000
 20
5718.750000
 40
0.000000
 41
0.000000
 42
1.000000
  0
SEQEND
  0
CIRCLE
  8
BOARD_GEOMETRY_OUTLINE
 10
8000.000000
 20
4750.000000
 40
62.500000
  0
CIRCLE
  8
BOARD_GEOMETRY_OUTLINE
 10
8000.000000
 20
4750.000000
 40
62.500000
  0
CIRCLE
  8
BOARD_GEOMETRY_OUTLINE
 10
8000.000000
 20
4750.000000
 40
67.500000
  0
CIRCLE
  8
BOARD_GEOMETRY_OUTLINE
 10
8000.000000
 20
4750.000000
 40
67.500000
  0
POLYLINE
  8
BOARD_GEOMETRY_OUTLINE
 66
1
 70
1
 40
0.000000
 41
0.000000
 39
0.000000
  0
VERTEX
  8
BOARD_GEOMETRY_OUTLINE
 10
8000.000000
 20
4781.250000
 40
0.000000
 41
0.000000
 42
1.000000
  0
VERTEX
  8
BOARD_GEOMETRY_OUTLINE
 10
8000.000000
 20
4718.750000
 40
0.000000
 41
0.000000
 42
1.000000
  0
SEQEND
  0
CIRCLE
  8
BOARD_GEOMETRY_OUTLINE
 10
7000.000000
 20
4750.000000
 40
62.500000
  0
CIRCLE
  8
BOARD_GEOMETRY_OUTLINE
 10
7000.000000
 20
4750.000000
 40
62.500000
  0
CIRCLE
  8
BOARD_GEOMETRY_OUTLINE
 10
7000.000000
 20
4750.000000
 40
67.500000
  0
CIRCLE
  8
BOARD_GEOMETRY_OUTLINE
 10
7000.000000
 20
4750.000000
 40
67.500000
  0
POLYLINE
  8
BOARD_GEOMETRY_OUTLINE
 66
1
 70
1
 40
0.000000
 41
0.000000
 39
0.000000
  0
VERTEX
  8
BOARD_GEOMETRY_OUTLINE
 10
7000.000000
 20
4781.250000
 40
0.000000
 41
0.000000
 42
1.000000
  0
VERTEX
  8
BOARD_GEOMETRY_OUTLINE
 10
7000.000000
 20
4718.750000
 40
0.000000
 41
0.000000
 42
1.000000
  0
SEQEND
  0
CIRCLE
  8
BOARD_GEOMETRY_OUTLINE
 10
6000.000000
 20
4750.000000
 40
62.500000
  0
CIRCLE
  8
BOARD_GEOMETRY_OUTLINE
 10
6000.000000
 20
4750.000000
 40
62.500000
  0
CIRCLE
  8
BOARD_GEOMETRY_OUTLINE
 10
6000.000000
 20
4750.000000
 40
67.500000
  0
CIRCLE
  8
BOARD_GEOMETRY_OUTLINE
 10
6000.000000
 20
4750.000000
 40
67.500000
  0
POLYLINE
  8
BOARD_GEOMETRY_OUTLINE
 66
1
 70
1
 40
0.000000
 41
0.000000
 39
0.000000
  0
VERTEX
  8
BOARD_GEOMETRY_OUTLINE
 10
6000.000000
 20
4781.250000
 40
0.000000
 41
0.000000
 42
1.000000
  0
VERTEX
  8
BOARD_GEOMETRY_OUTLINE
 10
6000.000000
 20
4718.750000
 40
0.000000
 41
0.000000
 42
1.000000
  0
SEQEND
  0
CIRCLE
  8
BOARD_GEOMETRY_OUTLINE
 10
5000.000000
 20
4750.000000
 40
62.500000
  0
CIRCLE
  8
BOARD_GEOMETRY_OUTLINE
 10
5000.000000
 20
4750.000000
 40
62.500000
  0
CIRCLE
  8
BOARD_GEOMETRY_OUTLINE
 10
5000.000000
 20
4750.000000
 40
67.500000
  0
CIRCLE
  8
BOARD_GEOMETRY_OUTLINE
 10
5000.000000
 20
4750.000000
 40
67.500000
  0
POLYLINE
  8
BOARD_GEOMETRY_OUTLINE
 66
1
 70
1
 40
0.000000
 41
0.000000
 39
0.000000
  0
VERTEX
  8
BOARD_GEOMETRY_OUTLINE
 10
5000.000000
 20
4781.250000
 40
0.000000
 41
0.000000
 42
1.000000
  0
VERTEX
  8
BOARD_GEOMETRY_OUTLINE
 10
5000.000000
 20
4718.750000
 40
0.000000
 41
0.000000
 42
1.000000
  0
SEQEND
  0
CIRCLE
  8
BOARD_GEOMETRY_OUTLINE
 10
4000.000000
 20
4750.000000
 40
62.500000
  0
CIRCLE
  8
BOARD_GEOMETRY_OUTLINE
 10
4000.000000
 20
4750.000000
 40
62.500000
  0
CIRCLE
  8
BOARD_GEOMETRY_OUTLINE
 10
4000.000000
 20
4750.000000
 40
67.500000
  0
CIRCLE
  8
BOARD_GEOMETRY_OUTLINE
 10
4000.000000
 20
4750.000000
 40
67.500000
  0
POLYLINE
  8
BOARD_GEOMETRY_OUTLINE
 66
1
 70
1
 40
0.000000
 41
0.000000
 39
0.000000
  0
VERTEX
  8
BOARD_GEOMETRY_OUTLINE
 10
4000.000000
 20
4781.250000
 40
0.000000
 41
0.000000
 42
1.000000
  0
VERTEX
  8
BOARD_GEOMETRY_OUTLINE
 10
4000.000000
 20
4718.750000
 40
0.000000
 41
0.000000
 42
1.000000
  0
SEQEND
  0
CIRCLE
  8
BOARD_GEOMETRY_OUTLINE
 10
3000.000000
 20
4750.000000
 40
62.500000
  0
CIRCLE
  8
BOARD_GEOMETRY_OUTLINE
 10
3000.000000
 20
4750.000000
 40
62.500000
  0
CIRCLE
  8
BOARD_GEOMETRY_OUTLINE
 10
3000.000000
 20
4750.000000
 40
67.500000
  0
CIRCLE
  8
BOARD_GEOMETRY_OUTLINE
 10
3000.000000
 20
4750.000000
 40
67.500000
  0
POLYLINE
  8
BOARD_GEOMETRY_OUTLINE
 66
1
 70
1
 40
0.000000
 41
0.000000
 39
0.000000
  0
VERTEX
  8
BOARD_GEOMETRY_OUTLINE
 10
3000.000000
 20
4781.250000
 40
0.000000
 41
0.000000
 42
1.000000
  0
VERTEX
  8
BOARD_GEOMETRY_OUTLINE
 10
3000.000000
 20
4718.750000
 40
0.000000
 41
0.000000
 42
1.000000
  0
SEQEND
  0
CIRCLE
  8
BOARD_GEOMETRY_OUTLINE
 10
2000.000000
 20
4750.000000
 40
62.500000
  0
CIRCLE
  8
BOARD_GEOMETRY_OUTLINE
 10
2000.000000
 20
4750.000000
 40
62.500000
  0
CIRCLE
  8
BOARD_GEOMETRY_OUTLINE
 10
2000.000000
 20
4750.000000
 40
67.500000
  0
CIRCLE
  8
BOARD_GEOMETRY_OUTLINE
 10
2000.000000
 20
4750.000000
 40
67.500000
  0
POLYLINE
  8
BOARD_GEOMETRY_OUTLINE
 66
1
 70
1
 40
0.000000
 41
0.000000
 39
0.000000
  0
VERTEX
  8
BOARD_GEOMETRY_OUTLINE
 10
2000.000000
 20
4781.250000
 40
0.000000
 41
0.000000
 42
1.000000
  0
VERTEX
  8
BOARD_GEOMETRY_OUTLINE
 10
2000.000000
 20
4718.750000
 40
0.000000
 41
0.000000
 42
1.000000
  0
SEQEND
  0
CIRCLE
  8
BOARD_GEOMETRY_OUTLINE
 10
1000.000000
 20
4750.000000
 40
62.500000
  0
CIRCLE
  8
BOARD_GEOMETRY_OUTLINE
 10
1000.000000
 20
4750.000000
 40
62.500000
  0
CIRCLE
  8
BOARD_GEOMETRY_OUTLINE
 10
1000.000000
 20
4750.000000
 40
67.500000
  0
CIRCLE
  8
BOARD_GEOMETRY_OUTLINE
 10
1000.000000
 20
4750.000000
 40
67.500000
  0
POLYLINE
  8
BOARD_GEOMETRY_OUTLINE
 66
1
 70
1
 40
0.000000
 41
0.000000
 39
0.000000
  0
VERTEX
  8
BOARD_GEOMETRY_OUTLINE
 10
1000.000000
 20
4781.250000
 40
0.000000
 41
0.000000
 42
1.000000
  0
VERTEX
  8
BOARD_GEOMETRY_OUTLINE
 10
1000.000000
 20
4718.750000
 40
0.000000
 41
0.000000
 42
1.000000
  0
SEQEND
  0
CIRCLE
  8
BOARD_GEOMETRY_OUTLINE
 10
1500.000000
 20
1750.000000
 40
62.500000
  0
CIRCLE
  8
BOARD_GEOMETRY_OUTLINE
 10
1500.000000
 20
1750.000000
 40
62.500000
  0
CIRCLE
  8
BOARD_GEOMETRY_OUTLINE
 10
1500.000000
 20
1750.000000
 40
67.500000
  0
CIRCLE
  8
BOARD_GEOMETRY_OUTLINE
 10
1500.000000
 20
1750.000000
 40
67.500000
  0
POLYLINE
  8
BOARD_GEOMETRY_OUTLINE
 66
1
 70
1
 40
0.000000
 41
0.000000
 39
0.000000
  0
VERTEX
  8
BOARD_GEOMETRY_OUTLINE
 10
1500.000000
 20
1781.250000
 40
0.000000
 41
0.000000
 42
1.000000
  0
VERTEX
  8
BOARD_GEOMETRY_OUTLINE
 10
1500.000000
 20
1718.750000
 40
0.000000
 41
0.000000
 42
1.000000
  0
SEQEND
  0
CIRCLE
  8
BOARD_GEOMETRY_OUTLINE
 10
2500.000000
 20
1750.000000
 40
62.500000
  0
CIRCLE
  8
BOARD_GEOMETRY_OUTLINE
 10
2500.000000
 20
1750.000000
 40
62.500000
  0
CIRCLE
  8
BOARD_GEOMETRY_OUTLINE
 10
2500.000000
 20
1750.000000
 40
67.500000
  0
CIRCLE
  8
BOARD_GEOMETRY_OUTLINE
 10
2500.000000
 20
1750.000000
 40
67.500000
  0
POLYLINE
  8
BOARD_GEOMETRY_OUTLINE
 66
1
 70
1
 40
0.000000
 41
0.000000
 39
0.000000
  0
VERTEX
  8
BOARD_GEOMETRY_OUTLINE
 10
2500.000000
 20
1781.250000
 40
0.000000
 41
0.000000
 42
1.000000
  0
VERTEX
  8
BOARD_GEOMETRY_OUTLINE
 10
2500.000000
 20
1718.750000
 40
0.000000
 41
0.000000
 42
1.000000
  0
SEQEND
  0
CIRCLE
  8
BOARD_GEOMETRY_OUTLINE
 10
3500.000000
 20
1750.000000
 40
62.500000
  0
CIRCLE
  8
BOARD_GEOMETRY_OUTLINE
 10
3500.000000
 20
1750.000000
 40
62.500000
  0
CIRCLE
  8
BOARD_GEOMETRY_OUTLINE
 10
3500.000000
 20
1750.000000
 40
67.500000
  0
CIRCLE
  8
BOARD_GEOMETRY_OUTLINE
 10
3500.000000
 20
1750.000000
 40
67.500000
  0
POLYLINE
  8
BOARD_GEOMETRY_OUTLINE
 66
1
 70
1
 40
0.000000
 41
0.000000
 39
0.000000
  0
VERTEX
  8
BOARD_GEOMETRY_OUTLINE
 10
3500.000000
 20
1781.250000
 40
0.000000
 41
0.000000
 42
1.000000
  0
VERTEX
  8
BOARD_GEOMETRY_OUTLINE
 10
3500.000000
 20
1718.750000
 40
0.000000
 41
0.000000
 42
1.000000
  0
SEQEND
  0
CIRCLE
  8
BOARD_GEOMETRY_OUTLINE
 10
4500.000000
 20
1750.000000
 40
62.500000
  0
CIRCLE
  8
BOARD_GEOMETRY_OUTLINE
 10
4500.000000
 20
1750.000000
 40
62.500000
  0
CIRCLE
  8
BOARD_GEOMETRY_OUTLINE
 10
4500.000000
 20
1750.000000
 40
67.500000
  0
CIRCLE
  8
BOARD_GEOMETRY_OUTLINE
 10
4500.000000
 20
1750.000000
 40
67.500000
  0
POLYLINE
  8
BOARD_GEOMETRY_OUTLINE
 66
1
 70
1
 40
0.000000
 41
0.000000
 39
0.000000
  0
VERTEX
  8
BOARD_GEOMETRY_OUTLINE
 10
4500.000000
 20
1781.250000
 40
0.000000
 41
0.000000
 42
1.000000
  0
VERTEX
  8
BOARD_GEOMETRY_OUTLINE
 10
4500.000000
 20
1718.750000
 40
0.000000
 41
0.000000
 42
1.000000
  0
SEQEND
  0
CIRCLE
  8
BOARD_GEOMETRY_OUTLINE
 10
5500.000000
 20
1750.000000
 40
62.500000
  0
CIRCLE
  8
BOARD_GEOMETRY_OUTLINE
 10
5500.000000
 20
1750.000000
 40
62.500000
  0
CIRCLE
  8
BOARD_GEOMETRY_OUTLINE
 10
5500.000000
 20
1750.000000
 40
67.500000
  0
CIRCLE
  8
BOARD_GEOMETRY_OUTLINE
 10
5500.000000
 20
1750.000000
 40
67.500000
  0
POLYLINE
  8
BOARD_GEOMETRY_OUTLINE
 66
1
 70
1
 40
0.000000
 41
0.000000
 39
0.000000
  0
VERTEX
  8
BOARD_GEOMETRY_OUTLINE
 10
5500.000000
 20
1781.250000
 40
0.000000
 41
0.000000
 42
1.000000
  0
VERTEX
  8
BOARD_GEOMETRY_OUTLINE
 10
5500.000000
 20
1718.750000
 40
0.000000
 41
0.000000
 42
1.000000
  0
SEQEND
  0
CIRCLE
  8
BOARD_GEOMETRY_OUTLINE
 10
6500.000000
 20
1750.000000
 40
62.500000
  0
CIRCLE
  8
BOARD_GEOMETRY_OUTLINE
 10
6500.000000
 20
1750.000000
 40
62.500000
  0
CIRCLE
  8
BOARD_GEOMETRY_OUTLINE
 10
6500.000000
 20
1750.000000
 40
67.500000
  0
CIRCLE
  8
BOARD_GEOMETRY_OUTLINE
 10
6500.000000
 20
1750.000000
 40
67.500000
  0
POLYLINE
  8
BOARD_GEOMETRY_OUTLINE
 66
1
 70
1
 40
0.000000
 41
0.000000
 39
0.000000
  0
VERTEX
  8
BOARD_GEOMETRY_OUTLINE
 10
6500.000000
 20
1781.250000
 40
0.000000
 41
0.000000
 42
1.000000
  0
VERTEX
  8
BOARD_GEOMETRY_OUTLINE
 10
6500.000000
 20
1718.750000
 40
0.000000
 41
0.000000
 42
1.000000
  0
SEQEND
  0
CIRCLE
  8
BOARD_GEOMETRY_OUTLINE
 10
7500.000000
 20
1750.000000
 40
62.500000
  0
CIRCLE
  8
BOARD_GEOMETRY_OUTLINE
 10
7500.000000
 20
1750.000000
 40
62.500000
  0
CIRCLE
  8
BOARD_GEOMETRY_OUTLINE
 10
7500.000000
 20
1750.000000
 40
67.500000
  0
CIRCLE
  8
BOARD_GEOMETRY_OUTLINE
 10
7500.000000
 20
1750.000000
 40
67.500000
  0
POLYLINE
  8
BOARD_GEOMETRY_OUTLINE
 66
1
 70
1
 40
0.000000
 41
0.000000
 39
0.000000
  0
VERTEX
  8
BOARD_GEOMETRY_OUTLINE
 10
7500.000000
 20
1781.250000
 40
0.000000
 41
0.000000
 42
1.000000
  0
VERTEX
  8
BOARD_GEOMETRY_OUTLINE
 10
7500.000000
 20
1718.750000
 40
0.000000
 41
0.000000
 42
1.000000
  0
SEQEND
  0
CIRCLE
  8
BOARD_GEOMETRY_OUTLINE
 10
8000.000000
 20
2750.000000
 40
62.500000
  0
CIRCLE
  8
BOARD_GEOMETRY_OUTLINE
 10
8000.000000
 20
2750.000000
 40
62.500000
  0
CIRCLE
  8
BOARD_GEOMETRY_OUTLINE
 10
8000.000000
 20
2750.000000
 40
67.500000
  0
CIRCLE
  8
BOARD_GEOMETRY_OUTLINE
 10
8000.000000
 20
2750.000000
 40
67.500000
  0
POLYLINE
  8
BOARD_GEOMETRY_OUTLINE
 66
1
 70
1
 40
0.000000
 41
0.000000
 39
0.000000
  0
VERTEX
  8
BOARD_GEOMETRY_OUTLINE
 10
8000.000000
 20
2781.250000
 40
0.000000
 41
0.000000
 42
1.000000
  0
VERTEX
  8
BOARD_GEOMETRY_OUTLINE
 10
8000.000000
 20
2718.750000
 40
0.000000
 41
0.000000
 42
1.000000
  0
SEQEND
  0
CIRCLE
  8
BOARD_GEOMETRY_OUTLINE
 10
7000.000000
 20
2750.000000
 40
62.500000
  0
CIRCLE
  8
BOARD_GEOMETRY_OUTLINE
 10
7000.000000
 20
2750.000000
 40
62.500000
  0
CIRCLE
  8
BOARD_GEOMETRY_OUTLINE
 10
7000.000000
 20
2750.000000
 40
67.500000
  0
CIRCLE
  8
BOARD_GEOMETRY_OUTLINE
 10
7000.000000
 20
2750.000000
 40
67.500000
  0
POLYLINE
  8
BOARD_GEOMETRY_OUTLINE
 66
1
 70
1
 40
0.000000
 41
0.000000
 39
0.000000
  0
VERTEX
  8
BOARD_GEOMETRY_OUTLINE
 10
7000.000000
 20
2781.250000
 40
0.000000
 41
0.000000
 42
1.000000
  0
VERTEX
  8
BOARD_GEOMETRY_OUTLINE
 10
7000.000000
 20
2718.750000
 40
0.000000
 41
0.000000
 42
1.000000
  0
SEQEND
  0
CIRCLE
  8
BOARD_GEOMETRY_OUTLINE
 10
6000.000000
 20
2750.000000
 40
62.500000
  0
CIRCLE
  8
BOARD_GEOMETRY_OUTLINE
 10
6000.000000
 20
2750.000000
 40
62.500000
  0
CIRCLE
  8
BOARD_GEOMETRY_OUTLINE
 10
6000.000000
 20
2750.000000
 40
67.500000
  0
CIRCLE
  8
BOARD_GEOMETRY_OUTLINE
 10
6000.000000
 20
2750.000000
 40
67.500000
  0
POLYLINE
  8
BOARD_GEOMETRY_OUTLINE
 66
1
 70
1
 40
0.000000
 41
0.000000
 39
0.000000
  0
VERTEX
  8
BOARD_GEOMETRY_OUTLINE
 10
6000.000000
 20
2781.250000
 40
0.000000
 41
0.000000
 42
1.000000
  0
VERTEX
  8
BOARD_GEOMETRY_OUTLINE
 10
6000.000000
 20
2718.750000
 40
0.000000
 41
0.000000
 42
1.000000
  0
SEQEND
  0
CIRCLE
  8
BOARD_GEOMETRY_OUTLINE
 10
5000.000000
 20
2750.000000
 40
62.500000
  0
CIRCLE
  8
BOARD_GEOMETRY_OUTLINE
 10
5000.000000
 20
2750.000000
 40
62.500000
  0
CIRCLE
  8
BOARD_GEOMETRY_OUTLINE
 10
5000.000000
 20
2750.000000
 40
67.500000
  0
CIRCLE
  8
BOARD_GEOMETRY_OUTLINE
 10
5000.000000
 20
2750.000000
 40
67.500000
  0
POLYLINE
  8
BOARD_GEOMETRY_OUTLINE
 66
1
 70
1
 40
0.000000
 41
0.000000
 39
0.000000
  0
VERTEX
  8
BOARD_GEOMETRY_OUTLINE
 10
5000.000000
 20
2781.250000
 40
0.000000
 41
0.000000
 42
1.000000
  0
VERTEX
  8
BOARD_GEOMETRY_OUTLINE
 10
5000.000000
 20
2718.750000
 40
0.000000
 41
0.000000
 42
1.000000
  0
SEQEND
  0
CIRCLE
  8
BOARD_GEOMETRY_OUTLINE
 10
4000.000000
 20
2750.000000
 40
62.500000
  0
CIRCLE
  8
BOARD_GEOMETRY_OUTLINE
 10
4000.000000
 20
2750.000000
 40
62.500000
  0
CIRCLE
  8
BOARD_GEOMETRY_OUTLINE
 10
4000.000000
 20
2750.000000
 40
67.500000
  0
CIRCLE
  8
BOARD_GEOMETRY_OUTLINE
 10
4000.000000
 20
2750.000000
 40
67.500000
  0
POLYLINE
  8
BOARD_GEOMETRY_OUTLINE
 66
1
 70
1
 40
0.000000
 41
0.000000
 39
0.000000
  0
VERTEX
  8
BOARD_GEOMETRY_OUTLINE
 10
4000.000000
 20
2781.250000
 40
0.000000
 41
0.000000
 42
1.000000
  0
VERTEX
  8
BOARD_GEOMETRY_OUTLINE
 10
4000.000000
 20
2718.750000
 40
0.000000
 41
0.000000
 42
1.000000
  0
SEQEND
  0
CIRCLE
  8
BOARD_GEOMETRY_OUTLINE
 10
3000.000000
 20
2750.000000
 40
62.500000
  0
CIRCLE
  8
BOARD_GEOMETRY_OUTLINE
 10
3000.000000
 20
2750.000000
 40
62.500000
  0
CIRCLE
  8
BOARD_GEOMETRY_OUTLINE
 10
3000.000000
 20
2750.000000
 40
67.500000
  0
CIRCLE
  8
BOARD_GEOMETRY_OUTLINE
 10
3000.000000
 20
2750.000000
 40
67.500000
  0
POLYLINE
  8
BOARD_GEOMETRY_OUTLINE
 66
1
 70
1
 40
0.000000
 41
0.000000
 39
0.000000
  0
VERTEX
  8
BOARD_GEOMETRY_OUTLINE
 10
3000.000000
 20
2781.250000
 40
0.000000
 41
0.000000
 42
1.000000
  0
VERTEX
  8
BOARD_GEOMETRY_OUTLINE
 10
3000.000000
 20
2718.750000
 40
0.000000
 41
0.000000
 42
1.000000
  0
SEQEND
  0
CIRCLE
  8
BOARD_GEOMETRY_OUTLINE
 10
2000.000000
 20
2750.000000
 40
62.500000
  0
CIRCLE
  8
BOARD_GEOMETRY_OUTLINE
 10
2000.000000
 20
2750.000000
 40
62.500000
  0
CIRCLE
  8
BOARD_GEOMETRY_OUTLINE
 10
2000.000000
 20
2750.000000
 40
67.500000
  0
CIRCLE
  8
BOARD_GEOMETRY_OUTLINE
 10
2000.000000
 20
2750.000000
 40
67.500000
  0
POLYLINE
  8
BOARD_GEOMETRY_OUTLINE
 66
1
 70
1
 40
0.000000
 41
0.000000
 39
0.000000
  0
VERTEX
  8
BOARD_GEOMETRY_OUTLINE
 10
2000.000000
 20
2781.250000
 40
0.000000
 41
0.000000
 42
1.000000
  0
VERTEX
  8
BOARD_GEOMETRY_OUTLINE
 10
2000.000000
 20
2718.750000
 40
0.000000
 41
0.000000
 42
1.000000
  0
SEQEND
  0
CIRCLE
  8
BOARD_GEOMETRY_OUTLINE
 10
1000.000000
 20
2750.000000
 40
62.500000
  0
CIRCLE
  8
BOARD_GEOMETRY_OUTLINE
 10
1000.000000
 20
2750.000000
 40
62.500000
  0
CIRCLE
  8
BOARD_GEOMETRY_OUTLINE
 10
1000.000000
 20
2750.000000
 40
67.500000
  0
CIRCLE
  8
BOARD_GEOMETRY_OUTLINE
 10
1000.000000
 20
2750.000000
 40
67.500000
  0
POLYLINE
  8
BOARD_GEOMETRY_OUTLINE
 66
1
 70
1
 40
0.000000
 41
0.000000
 39
0.000000
  0
VERTEX
  8
BOARD_GEOMETRY_OUTLINE
 10
1000.000000
 20
2781.250000
 40
0.000000
 41
0.000000
 42
1.000000
  0
VERTEX
  8
BOARD_GEOMETRY_OUTLINE
 10
1000.000000
 20
2718.750000
 40
0.000000
 41
0.000000
 42
1.000000
  0
SEQEND
  0
POLYLINE
  8
BOARD_GEOMETRY_OUTLINE
 66
1
 70
0
 40
0.000000
 41
0.000000
 39
0.000000
  0
VERTEX
  8
BOARD_GEOMETRY_OUTLINE
 10
0.000000
 20
9750.000000
 40
5.000000
 41
5.000000
 42
0.000000
  0
VERTEX
  8
BOARD_GEOMETRY_OUTLINE
 10
9000.000000
 20
9750.000000
 40
5.000000
 41
5.000000
 42
0.000000
  0
SEQEND
  0
POLYLINE
  8
BOARD_GEOMETRY_OUTLINE
 66
1
 70
0
 40
0.000000
 41
0.000000
 39
0.000000
  0
VERTEX
  8
BOARD_GEOMETRY_OUTLINE
 10
0.000000
 20
10500.000000
 40
5.000000
 41
5.000000
 42
0.000000
  0
VERTEX
  8
BOARD_GEOMETRY_OUTLINE
 10
9000.000000
 20
10500.000000
 40
5.000000
 41
5.000000
 42
0.000000
  0
SEQEND
  0
POLYLINE
  8
BOARD_GEOMETRY_OUTLINE
 66
1
 70
0
 40
0.000000
 41
0.000000
 39
0.000000
  0
VERTEX
  8
BOARD_GEOMETRY_OUTLINE
 10
0.000000
 20
3500.000000
 40
5.000000
 41
5.000000
 42
0.000000
  0
VERTEX
  8
BOARD_GEOMETRY_OUTLINE
 10
9000.000000
 20
3500.000000
 40
5.000000
 41
5.000000
 42
0.000000
  0
SEQEND
  0
POLYLINE
  8
BOARD_GEOMETRY_OUTLINE
 66
1
 70
0
 40
0.000000
 41
0.000000
 39
0.000000
  0
VERTEX
  8
BOARD_GEOMETRY_OUTLINE
 10
0.000000
 20
500.000000
 40
5.000000
 41
5.000000
 42
0.000000
  0
VERTEX
  8
BOARD_GEOMETRY_OUTLINE
 10
9000.000000
 20
500.000000
 40
5.000000
 41
5.000000
 42
0.000000
  0
SEQEND
  0
POLYLINE
  8
BOARD_GEOMETRY_OUTLINE
 66
1
 70
1
 40
0.000000
 41
0.000000
 39
0.000000
  0
VERTEX
  8
BOARD_GEOMETRY_OUTLINE
 10
0.000000
 20
0.000000
 40
0.000000
 41
0.000000
 42
0.000000
  0
VERTEX
  8
BOARD_GEOMETRY_OUTLINE
 10
9000.000000
 20
0.000000
 40
0.000000
 41
0.000000
 42
0.000000
  0
VERTEX
  8
BOARD_GEOMETRY_OUTLINE
 10
9000.000000
 20
700.000000
 40
0.000000
 41
0.000000
 42
0.000000
  0
VERTEX
  8
BOARD_GEOMETRY_OUTLINE
 10
9200.000000
 20
900.000000
 40
0.000000
 41
0.000000
 42
0.000000
  0
VERTEX
  8
BOARD_GEOMETRY_OUTLINE
 10
9200.000000
 20
3100.000000
 40
0.000000
 41
0.000000
 42
0.000000
  0
VERTEX
  8
BOARD_GEOMETRY_OUTLINE
 10
9000.000000
 20
3300.000000
 40
0.000000
 41
0.000000
 42
0.000000
  0
VERTEX
  8
BOARD_GEOMETRY_OUTLINE
 10
9000.000000
 20
3700.000000
 40
0.000000
 41
0.000000
 42
0.000000
  0
VERTEX
  8
BOARD_GEOMETRY_OUTLINE
 10
9200.000000
 20
3900.000000
 40
0.000000
 41
0.000000
 42
0.000000
  0
VERTEX
  8
BOARD_GEOMETRY_OUTLINE
 10
9200.000000
 20
9400.000000
 40
0.000000
 41
0.000000
 42
0.000000
  0
VERTEX
  8
BOARD_GEOMETRY_OUTLINE
 10
9000.000000
 20
9600.000000
 40
0.000000
 41
0.000000
 42
0.000000
  0
VERTEX
  8
BOARD_GEOMETRY_OUTLINE
 10
9000.000000
 20
10900.000000
 40
0.000000
 41
0.000000
 42
0.000000
  0
VERTEX
  8
BOARD_GEOMETRY_OUTLINE
 10
0.000000
 20
10900.000000
 40
0.000000
 41
0.000000
 42
0.000000
  0
VERTEX
  8
BOARD_GEOMETRY_OUTLINE
 10
0.000000
 20
9600.000000
 40
0.000000
 41
0.000000
 42
0.000000
  0
VERTEX
  8
BOARD_GEOMETRY_OUTLINE
 10
-200.000000
 20
9400.000000
 40
0.000000
 41
0.000000
 42
0.000000
  0
VERTEX
  8
BOARD_GEOMETRY_OUTLINE
 10
-200.000000
 20
3900.000000
 40
0.000000
 41
0.000000
 42
0.000000
  0
VERTEX
  8
BOARD_GEOMETRY_OUTLINE
 10
0.000000
 20
3700.000000
 40
0.000000
 41
0.000000
 42
0.000000
  0
VERTEX
  8
BOARD_GEOMETRY_OUTLINE
 10
0.000000
 20
3300.000000
 40
0.000000
 41
0.000000
 42
0.000000
  0
VERTEX
  8
BOARD_GEOMETRY_OUTLINE
 10
-200.000000
 20
3100.000000
 40
0.000000
 41
0.000000
 42
0.000000
  0
VERTEX
  8
BOARD_GEOMETRY_OUTLINE
 10
-200.000000
 20
900.000000
 40
0.000000
 41
0.000000
 42
0.000000
  0
VERTEX
  8
BOARD_GEOMETRY_OUTLINE
 10
0.000000
 20
700.000000
 40
0.000000
 41
0.000000
 42
0.000000
  0
SEQEND
  0
INSERT
  8
BOARD_GEOMETRY_OUTLINE
  2
FIGURE_CROSS
 10
0.000000
 20
0.000000
 41
50.000000
 42
50.000000
 50
0.000000
  0
ENDSEC
  0
EOF
