  0
SECTION
  2
HEADER
  9
$ACADVER
  1
AC1009
  9
$INSBASE
 10
0.000000
 20
0.000000
  9
$LIMMIN
 10
-15875.000000
 20
-9875.000000
  9
$LIMMAX
 10
18125.000000
 20
12125.000000
  9
$EXTMIN
 10
-15875.000000
 20
-9875.000000
  9
$EXTMAX
 10
18125.000000
 20
12125.000000
  9
$ATTMODE
 70
0
  9
$LUNITS
 70
2
  9
$LUPREC
 70
3
  9
$THICKNESS
 40
0.000000
  0
ENDSEC
  0
SECTION
  2
TABLES
  0
TABLE
  2
LTYPE
 70
0
  0
LTYPE
  2
CONTINUOUS
  3
Solid line
 70
0
 72
65
 73
0
 40
0.000000
  0
ENDTAB
  0
TABLE
  2
LAYER
 70
2
  0
LAYER
  2
BOARD_GEOMETRY_OUTLINE
 70
0
 62
1
  6
CONTINUOUS
  0
LAYER
  2
ETCH_TOP
 70
0
 62
2
  6
CONTINUOUS
  0
ENDTAB
  0
TABLE
  2
STYLE
 70
0
  0
STYLE
  2
STANDARD
 70
0
 40
0.000000
 41
1.000000
 50
0.000000
 71
0
 42
0.200000
  3
txt
  0
ENDTAB
  0
ENDSEC
  0
SECTION
  2
BLOCKS
  0
BLOCK
  8
CDN_FIGURES
  2
FIGURE_CIRCLE
 70
0
 10
0.000000
 20
0.000000
  0
CIRCLE
  8
CDN_FIGURES
 10
0.000000
 20
0.000000
 40
0.500000
  0
ENDBLK
  0
BLOCK
  8
CDN_FIGURES
  2
FIGURE_SQUARE
 70
0
 10
0.000000
 20
0.000000
  0
POLYLINE
  8
CDN_FIGURES
 66
1
 70
1
 40
0.000000
 41
0.000000
 39
0.000000
  0
VERTEX
  8
CDN_FIGURES
 10
-0.500000
 20
-0.500000
 40
0.000000
 41
0.000000
 42
0.000000
  0
VERTEX
  8
CDN_FIGURES
 10
-0.500000
 20
0.500000
 40
0.000000
 41
0.000000
 42
0.000000
  0
VERTEX
  8
CDN_FIGURES
 10
0.500000
 20
0.500000
 40
0.000000
 41
0.000000
 42
0.000000
  0
VERTEX
  8
CDN_FIGURES
 10
0.500000
 20
-0.500000
 40
0.000000
 41
0.000000
 42
0.000000
  0
SEQEND
  0
ENDBLK
  0
BLOCK
  8
CDN_FIGURES
  2
FIGURE_HEX
 70
0
 10
0.000000
 20
0.000000
  0
POLYLINE
  8
CDN_FIGURES
 66
1
 70
1
 40
0.000000
 41
0.000000
 39
0.000000
  0
VERTEX
  8
CDN_FIGURES
 10
-0.500000
 20
0.000000
 40
0.000000
 41
0.000000
 42
0.000000
  0
VERTEX
  8
CDN_FIGURES
 10
-0.250000
 20
0.500000
 40
0.000000
 41
0.000000
 42
0.000000
  0
VERTEX
  8
CDN_FIGURES
 10
0.250000
 20
0.500000
 40
0.000000
 41
0.000000
 42
0.000000
  0
VERTEX
  8
CDN_FIGURES
 10
0.500000
 20
0.000000
 40
0.000000
 41
0.000000
 42
0.000000
  0
VERTEX
  8
CDN_FIGURES
 10
0.250000
 20
-0.500000
 40
0.000000
 41
0.000000
 42
0.000000
  0
VERTEX
  8
CDN_FIGURES
 10
-0.250000
 20
-0.500000
 40
0.000000
 41
0.000000
 42
0.000000
  0
SEQEND
  0
ENDBLK
  0
BLOCK
  8
CDN_FIGURES
  2
FIGURE_OCT
 70
0
 10
0.000000
 20
0.000000
  0
POLYLINE
  8
CDN_FIGURES
 66
1
 70
1
 40
0.000000
 41
0.000000
 39
0.000000
  0
VERTEX
  8
CDN_FIGURES
 10
-0.500000
 20
-0.207100
 40
0.000000
 41
0.000000
 42
0.000000
  0
VERTEX
  8
CDN_FIGURES
 10
-0.500000
 20
0.207100
 40
0.000000
 41
0.000000
 42
0.000000
  0
VERTEX
  8
CDN_FIGURES
 10
-0.207100
 20
0.500000
 40
0.000000
 41
0.000000
 42
0.000000
  0
VERTEX
  8
CDN_FIGURES
 10
0.207100
 20
0.500000
 40
0.000000
 41
0.000000
 42
0.000000
  0
VERTEX
  8
CDN_FIGURES
 10
0.500000
 20
0.207100
 40
0.000000
 41
0.000000
 42
0.000000
  0
VERTEX
  8
CDN_FIGURES
 10
0.500000
 20
-0.207100
 40
0.000000
 41
0.000000
 42
0.000000
  0
VERTEX
  8
CDN_FIGURES
 10
0.207100
 20
-0.500000
 40
0.000000
 41
0.000000
 42
0.000000
  0
VERTEX
  8
CDN_FIGURES
 10
-0.207100
 20
-0.500000
 40
0.000000
 41
0.000000
 42
0.000000
  0
SEQEND
  0
ENDBLK
  0
BLOCK
  8
CDN_FIGURES
  2
FIGURE_OBLONG
 70
0
 10
0.000000
 20
0.000000
  0
POLYLINE
  8
CDN_FIGURES
 66
1
 70
1
 40
0.000000
 41
0.000000
 39
0.000000
  0
VERTEX
  8
CDN_FIGURES
 10
-0.500000
 20
-0.125000
 40
0.000000
 41
0.000000
 42
0.000000
  0
VERTEX
  8
CDN_FIGURES
 10
-0.500000
 20
0.125000
 40
0.000000
 41
0.000000
 42
0.000000
  0
VERTEX
  8
CDN_FIGURES
 10
-0.416000
 20
0.375000
 40
0.000000
 41
0.000000
 42
0.000000
  0
VERTEX
  8
CDN_FIGURES
 10
-0.250000
 20
0.500000
 40
0.000000
 41
0.000000
 42
0.000000
  0
VERTEX
  8
CDN_FIGURES
 10
0.250000
 20
0.500000
 40
0.000000
 41
0.000000
 42
0.000000
  0
VERTEX
  8
CDN_FIGURES
 10
0.416000
 20
0.375000
 40
0.000000
 41
0.000000
 42
0.000000
  0
VERTEX
  8
CDN_FIGURES
 10
0.500000
 20
0.125000
 40
0.000000
 41
0.000000
 42
0.000000
  0
VERTEX
  8
CDN_FIGURES
 10
0.500000
 20
-0.125000
 40
0.000000
 41
0.000000
 42
0.000000
  0
VERTEX
  8
CDN_FIGURES
 10
0.416000
 20
-0.375000
 40
0.000000
 41
0.000000
 42
0.000000
  0
VERTEX
  8
CDN_FIGURES
 10
0.250000
 20
-0.500000
 40
0.000000
 41
0.000000
 42
0.000000
  0
VERTEX
  8
CDN_FIGURES
 10
-0.250000
 20
-0.500000
 40
0.000000
 41
0.000000
 42
0.000000
  0
VERTEX
  8
CDN_FIGURES
 10
-0.416000
 20
-0.375000
 40
0.000000
 41
0.000000
 42
0.000000
  0
SEQEND
  0
ENDBLK
  0
BLOCK
  8
CDN_FIGURES
  2
FIGURE_TRI
 70
0
 10
0.000000
 20
0.000000
  0
POLYLINE
  8
CDN_FIGURES
 66
1
 70
1
 40
0.000000
 41
0.000000
 39
0.000000
  0
VERTEX
  8
CDN_FIGURES
 10
-0.500000
 20
-0.500000
 40
0.000000
 41
0.000000
 42
0.000000
  0
VERTEX
  8
CDN_FIGURES
 10
0.000000
 20
0.500000
 40
0.000000
 41
0.000000
 42
0.000000
  0
VERTEX
  8
CDN_FIGURES
 10
0.500000
 20
-0.500000
 40
0.000000
 41
0.000000
 42
0.000000
  0
SEQEND
  0
ENDBLK
  0
BLOCK
  8
CDN_FIGURES
  2
FIGURE_CROSS
 70
0
 10
0.000000
 20
0.000000
  0
POLYLINE
  8
CDN_FIGURES
 66
1
 70
0
 40
0.000000
 41
0.000000
 39
0.000000
  0
VERTEX
  8
CDN_FIGURES
 10
-0.500000
 20
0.000000
 40
0.000000
 41
0.000000
 42
0.000000
  0
VERTEX
  8
CDN_FIGURES
 10
0.500000
 20
0.000000
 40
0.000000
 41
0.000000
 42
0.000000
  0
SEQEND
  0
POLYLINE
  8
CDN_FIGURES
 66
1
 70
0
 40
0.000000
 41
0.000000
 39
0.000000
  0
VERTEX
  8
CDN_FIGURES
 10
0.000000
 20
0.500000
 40
0.000000
 41
0.000000
 42
0.000000
  0
VERTEX
  8
CDN_FIGURES
 10
0.000000
 20
-0.500000
 40
0.000000
 41
0.000000
 42
0.000000
  0
SEQEND
  0
ENDBLK
  0
BLOCK
  8
CDN_FIGURES
  2
FIGURE_DIAMOND
 70
0
 10
0.000000
 20
0.000000
  0
POLYLINE
  8
CDN_FIGURES
 66
1
 70
1
 40
0.000000
 41
0.000000
 39
0.000000
  0
VERTEX
  8
CDN_FIGURES
 10
-0.500000
 20
0.000000
 40
0.000000
 41
0.000000
 42
0.000000
  0
VERTEX
  8
CDN_FIGURES
 10
0.000000
 20
0.500000
 40
0.000000
 41
0.000000
 42
0.000000
  0
VERTEX
  8
CDN_FIGURES
 10
0.500000
 20
0.000000
 40
0.000000
 41
0.000000
 42
0.000000
  0
VERTEX
  8
CDN_FIGURES
 10
0.000000
 20
-0.500000
 40
0.000000
 41
0.000000
 42
0.000000
  0
SEQEND
  0
ENDBLK
  0
ENDSEC
  0
SECTION
  2
ENTITIES
  0
POLYLINE
  8
ETCH_TOP
 66
1
 70
1
 40
0.000000
 41
0.000000
 39
0.000000
  0
VERTEX
  8
ETCH_TOP
 10
8821.000000
 20
2000.000000
 40
0.000000
 41
0.000000
 42
1.000000
  0
VERTEX
  8
ETCH_TOP
 10
8679.000000
 20
2000.000000
 40
0.000000
 41
0.000000
 42
1.000000
  0
SEQEND
  0
POLYLINE
  8
ETCH_TOP
 66
1
 70
1
 40
0.000000
 41
0.000000
 39
0.000000
  0
VERTEX
  8
ETCH_TOP
 10
321.000000
 20
2000.000000
 40
0.000000
 41
0.000000
 42
1.000000
  0
VERTEX
  8
ETCH_TOP
 10
179.000000
 20
2000.000000
 40
0.000000
 41
0.000000
 42
1.000000
  0
SEQEND
  0
POLYLINE
  8
ETCH_TOP
 66
1
 70
1
 40
0.000000
 41
0.000000
 39
0.000000
  0
VERTEX
  8
ETCH_TOP
 10
250.000000
 20
10821.000000
 40
0.000000
 41
0.000000
 42
1.000000
  0
VERTEX
  8
ETCH_TOP
 10
250.000000
 20
10679.000000
 40
0.000000
 41
0.000000
 42
1.000000
  0
SEQEND
  0
POLYLINE
  8
ETCH_TOP
 66
1
 70
1
 40
0.000000
 41
0.000000
 39
0.000000
  0
VERTEX
  8
ETCH_TOP
 10
8821.000000
 20
10750.000000
 40
0.000000
 41
0.000000
 42
1.000000
  0
VERTEX
  8
ETCH_TOP
 10
8679.000000
 20
10750.000000
 40
0.000000
 41
0.000000
 42
1.000000
  0
SEQEND
  0
POLYLINE
  8
ETCH_TOP
 66
1
 70
1
 40
0.000000
 41
0.000000
 39
0.000000
  0
VERTEX
  8
ETCH_TOP
 10
8821.000000
 20
250.000000
 40
0.000000
 41
0.000000
 42
1.000000
  0
VERTEX
  8
ETCH_TOP
 10
8679.000000
 20
250.000000
 40
0.000000
 41
0.000000
 42
1.000000
  0
SEQEND
  0
POLYLINE
  8
ETCH_TOP
 66
1
 70
1
 40
0.000000
 41
0.000000
 39
0.000000
  0
VERTEX
  8
ETCH_TOP
 10
321.000000
 20
250.000000
 40
0.000000
 41
0.000000
 42
1.000000
  0
VERTEX
  8
ETCH_TOP
 10
179.000000
 20
250.000000
 40
0.000000
 41
0.000000
 42
1.000000
  0
SEQEND
  0
POLYLINE
  8
ETCH_TOP
 66
1
 70
1
 40
0.000000
 41
0.000000
 39
0.000000
  0
VERTEX
  8
ETCH_TOP
 10
825.000000
 20
7255.000000
 40
0.000000
 41
0.000000
 42
1.000000
  0
VERTEX
  8
ETCH_TOP
 10
575.000000
 20
7255.000000
 40
0.000000
 41
0.000000
 42
1.000000
  0
SEQEND
  0
POLYLINE
  8
ETCH_TOP
 66
1
 70
1
 40
0.000000
 41
0.000000
 39
0.000000
  0
VERTEX
  8
ETCH_TOP
 10
5500.000000
 20
1000.000000
 40
0.000000
 41
0.000000
 42
1.000000
  0
VERTEX
  8
ETCH_TOP
 10
5375.000000
 20
1000.000000
 40
0.000000
 41
0.000000
 42
1.000000
  0
SEQEND
  0
POLYLINE
  8
ETCH_TOP
 66
1
 70
1
 40
0.000000
 41
0.000000
 39
0.000000
  0
VERTEX
  8
ETCH_TOP
 10
4625.000000
 20
1000.000000
 40
0.000000
 41
0.000000
 42
1.000000
  0
VERTEX
  8
ETCH_TOP
 10
4500.000000
 20
1000.000000
 40
0.000000
 41
0.000000
 42
1.000000
  0
SEQEND
  0
POLYLINE
  8
ETCH_TOP
 66
1
 70
1
 40
0.000000
 41
0.000000
 39
0.000000
  0
VERTEX
  8
ETCH_TOP
 10
5000.000000
 20
1300.000000
 40
0.000000
 41
0.000000
 42
1.000000
  0
VERTEX
  8
ETCH_TOP
 10
5000.000000
 20
700.000000
 40
0.000000
 41
0.000000
 42
1.000000
  0
SEQEND
  0
POLYLINE
  8
ETCH_TOP
 66
1
 70
1
 40
0.000000
 41
0.000000
 39
0.000000
  0
VERTEX
  8
ETCH_TOP
 10
3500.000000
 20
5485.000000
 40
0.000000
 41
0.000000
 42
1.000000
  0
VERTEX
  8
ETCH_TOP
 10
3500.000000
 20
6015.000000
 40
0.000000
 41
0.000000
 42
1.000000
  0
SEQEND
  0
POLYLINE
  8
ETCH_TOP
 66
1
 70
1
 40
0.000000
 41
0.000000
 39
0.000000
  0
VERTEX
  8
ETCH_TOP
 10
3500.000000
 20
5817.501000
 40
0.000000
 41
0.000000
 42
1.000000
  0
VERTEX
  8
ETCH_TOP
 10
3500.000000
 20
5682.499000
 40
0.000000
 41
0.000000
 42
1.000000
  0
SEQEND
  0
POLYLINE
  8
ETCH_TOP
 66
1
 70
1
 40
0.000000
 41
0.000000
 39
0.000000
  0
VERTEX
  8
ETCH_TOP
 10
4500.000000
 20
5485.000000
 40
0.000000
 41
0.000000
 42
1.000000
  0
VERTEX
  8
ETCH_TOP
 10
4500.000000
 20
6015.000000
 40
0.000000
 41
0.000000
 42
1.000000
  0
SEQEND
  0
POLYLINE
  8
ETCH_TOP
 66
1
 70
1
 40
0.000000
 41
0.000000
 39
0.000000
  0
VERTEX
  8
ETCH_TOP
 10
4500.000000
 20
5817.501000
 40
0.000000
 41
0.000000
 42
1.000000
  0
VERTEX
  8
ETCH_TOP
 10
4500.000000
 20
5682.499000
 40
0.000000
 41
0.000000
 42
1.000000
  0
SEQEND
  0
POLYLINE
  8
ETCH_TOP
 66
1
 70
1
 40
0.000000
 41
0.000000
 39
0.000000
  0
VERTEX
  8
ETCH_TOP
 10
6500.000000
 20
5485.000000
 40
0.000000
 41
0.000000
 42
1.000000
  0
VERTEX
  8
ETCH_TOP
 10
6500.000000
 20
6015.000000
 40
0.000000
 41
0.000000
 42
1.000000
  0
SEQEND
  0
POLYLINE
  8
ETCH_TOP
 66
1
 70
1
 40
0.000000
 41
0.000000
 39
0.000000
  0
VERTEX
  8
ETCH_TOP
 10
6500.000000
 20
5817.501000
 40
0.000000
 41
0.000000
 42
1.000000
  0
VERTEX
  8
ETCH_TOP
 10
6500.000000
 20
5682.499000
 40
0.000000
 41
0.000000
 42
1.000000
  0
SEQEND
  0
POLYLINE
  8
ETCH_TOP
 66
1
 70
1
 40
0.000000
 41
0.000000
 39
0.000000
  0
VERTEX
  8
ETCH_TOP
 10
4000.000000
 20
4485.000000
 40
0.000000
 41
0.000000
 42
1.000000
  0
VERTEX
  8
ETCH_TOP
 10
4000.000000
 20
5015.000000
 40
0.000000
 41
0.000000
 42
1.000000
  0
SEQEND
  0
POLYLINE
  8
ETCH_TOP
 66
1
 70
1
 40
0.000000
 41
0.000000
 39
0.000000
  0
VERTEX
  8
ETCH_TOP
 10
4000.000000
 20
4817.501000
 40
0.000000
 41
0.000000
 42
1.000000
  0
VERTEX
  8
ETCH_TOP
 10
4000.000000
 20
4682.499000
 40
0.000000
 41
0.000000
 42
1.000000
  0
SEQEND
  0
POLYLINE
  8
ETCH_TOP
 66
1
 70
1
 40
0.000000
 41
0.000000
 39
0.000000
  0
VERTEX
  8
ETCH_TOP
 10
1000.000000
 20
4485.000000
 40
0.000000
 41
0.000000
 42
1.000000
  0
VERTEX
  8
ETCH_TOP
 10
1000.000000
 20
5015.000000
 40
0.000000
 41
0.000000
 42
1.000000
  0
SEQEND
  0
POLYLINE
  8
ETCH_TOP
 66
1
 70
1
 40
0.000000
 41
0.000000
 39
0.000000
  0
VERTEX
  8
ETCH_TOP
 10
1000.000000
 20
4817.501000
 40
0.000000
 41
0.000000
 42
1.000000
  0
VERTEX
  8
ETCH_TOP
 10
1000.000000
 20
4682.499000
 40
0.000000
 41
0.000000
 42
1.000000
  0
SEQEND
  0
POLYLINE
  8
ETCH_TOP
 66
1
 70
1
 40
0.000000
 41
0.000000
 39
0.000000
  0
VERTEX
  8
ETCH_TOP
 10
2000.000000
 20
4485.000000
 40
0.000000
 41
0.000000
 42
1.000000
  0
VERTEX
  8
ETCH_TOP
 10
2000.000000
 20
5015.000000
 40
0.000000
 41
0.000000
 42
1.000000
  0
SEQEND
  0
POLYLINE
  8
ETCH_TOP
 66
1
 70
1
 40
0.000000
 41
0.000000
 39
0.000000
  0
VERTEX
  8
ETCH_TOP
 10
2000.000000
 20
4817.501000
 40
0.000000
 41
0.000000
 42
1.000000
  0
VERTEX
  8
ETCH_TOP
 10
2000.000000
 20
4682.499000
 40
0.000000
 41
0.000000
 42
1.000000
  0
SEQEND
  0
POLYLINE
  8
ETCH_TOP
 66
1
 70
1
 40
0.000000
 41
0.000000
 39
0.000000
  0
VERTEX
  8
ETCH_TOP
 10
3000.000000
 20
4485.000000
 40
0.000000
 41
0.000000
 42
1.000000
  0
VERTEX
  8
ETCH_TOP
 10
3000.000000
 20
5015.000000
 40
0.000000
 41
0.000000
 42
1.000000
  0
SEQEND
  0
POLYLINE
  8
ETCH_TOP
 66
1
 70
1
 40
0.000000
 41
0.000000
 39
0.000000
  0
VERTEX
  8
ETCH_TOP
 10
3000.000000
 20
4817.501000
 40
0.000000
 41
0.000000
 42
1.000000
  0
VERTEX
  8
ETCH_TOP
 10
3000.000000
 20
4682.499000
 40
0.000000
 41
0.000000
 42
1.000000
  0
SEQEND
  0
POLYLINE
  8
ETCH_TOP
 66
1
 70
1
 40
0.000000
 41
0.000000
 39
0.000000
  0
VERTEX
  8
ETCH_TOP
 10
5000.000000
 20
4485.000000
 40
0.000000
 41
0.000000
 42
1.000000
  0
VERTEX
  8
ETCH_TOP
 10
5000.000000
 20
5015.000000
 40
0.000000
 41
0.000000
 42
1.000000
  0
SEQEND
  0
POLYLINE
  8
ETCH_TOP
 66
1
 70
1
 40
0.000000
 41
0.000000
 39
0.000000
  0
VERTEX
  8
ETCH_TOP
 10
5000.000000
 20
4817.501000
 40
0.000000
 41
0.000000
 42
1.000000
  0
VERTEX
  8
ETCH_TOP
 10
5000.000000
 20
4682.499000
 40
0.000000
 41
0.000000
 42
1.000000
  0
SEQEND
  0
POLYLINE
  8
ETCH_TOP
 66
1
 70
1
 40
0.000000
 41
0.000000
 39
0.000000
  0
VERTEX
  8
ETCH_TOP
 10
6000.000000
 20
4485.000000
 40
0.000000
 41
0.000000
 42
1.000000
  0
VERTEX
  8
ETCH_TOP
 10
6000.000000
 20
5015.000000
 40
0.000000
 41
0.000000
 42
1.000000
  0
SEQEND
  0
POLYLINE
  8
ETCH_TOP
 66
1
 70
1
 40
0.000000
 41
0.000000
 39
0.000000
  0
VERTEX
  8
ETCH_TOP
 10
6000.000000
 20
4817.501000
 40
0.000000
 41
0.000000
 42
1.000000
  0
VERTEX
  8
ETCH_TOP
 10
6000.000000
 20
4682.499000
 40
0.000000
 41
0.000000
 42
1.000000
  0
SEQEND
  0
POLYLINE
  8
ETCH_TOP
 66
1
 70
1
 40
0.000000
 41
0.000000
 39
0.000000
  0
VERTEX
  8
ETCH_TOP
 10
7000.000000
 20
4485.000000
 40
0.000000
 41
0.000000
 42
1.000000
  0
VERTEX
  8
ETCH_TOP
 10
7000.000000
 20
5015.000000
 40
0.000000
 41
0.000000
 42
1.000000
  0
SEQEND
  0
POLYLINE
  8
ETCH_TOP
 66
1
 70
1
 40
0.000000
 41
0.000000
 39
0.000000
  0
VERTEX
  8
ETCH_TOP
 10
7000.000000
 20
4817.501000
 40
0.000000
 41
0.000000
 42
1.000000
  0
VERTEX
  8
ETCH_TOP
 10
7000.000000
 20
4682.499000
 40
0.000000
 41
0.000000
 42
1.000000
  0
SEQEND
  0
POLYLINE
  8
ETCH_TOP
 66
1
 70
1
 40
0.000000
 41
0.000000
 39
0.000000
  0
VERTEX
  8
ETCH_TOP
 10
8000.000000
 20
4485.000000
 40
0.000000
 41
0.000000
 42
1.000000
  0
VERTEX
  8
ETCH_TOP
 10
8000.000000
 20
5015.000000
 40
0.000000
 41
0.000000
 42
1.000000
  0
SEQEND
  0
POLYLINE
  8
ETCH_TOP
 66
1
 70
1
 40
0.000000
 41
0.000000
 39
0.000000
  0
VERTEX
  8
ETCH_TOP
 10
8000.000000
 20
4817.501000
 40
0.000000
 41
0.000000
 42
1.000000
  0
VERTEX
  8
ETCH_TOP
 10
8000.000000
 20
4682.499000
 40
0.000000
 41
0.000000
 42
1.000000
  0
SEQEND
  0
POLYLINE
  8
ETCH_TOP
 66
1
 70
1
 40
0.000000
 41
0.000000
 39
0.000000
  0
VERTEX
  8
ETCH_TOP
 10
7500.000000
 20
5485.000000
 40
0.000000
 41
0.000000
 42
1.000000
  0
VERTEX
  8
ETCH_TOP
 10
7500.000000
 20
6015.000000
 40
0.000000
 41
0.000000
 42
1.000000
  0
SEQEND
  0
POLYLINE
  8
ETCH_TOP
 66
1
 70
1
 40
0.000000
 41
0.000000
 39
0.000000
  0
VERTEX
  8
ETCH_TOP
 10
7500.000000
 20
5817.501000
 40
0.000000
 41
0.000000
 42
1.000000
  0
VERTEX
  8
ETCH_TOP
 10
7500.000000
 20
5682.499000
 40
0.000000
 41
0.000000
 42
1.000000
  0
SEQEND
  0
POLYLINE
  8
ETCH_TOP
 66
1
 70
1
 40
0.000000
 41
0.000000
 39
0.000000
  0
VERTEX
  8
ETCH_TOP
 10
5500.000000
 20
5485.000000
 40
0.000000
 41
0.000000
 42
1.000000
  0
VERTEX
  8
ETCH_TOP
 10
5500.000000
 20
6015.000000
 40
0.000000
 41
0.000000
 42
1.000000
  0
SEQEND
  0
POLYLINE
  8
ETCH_TOP
 66
1
 70
1
 40
0.000000
 41
0.000000
 39
0.000000
  0
VERTEX
  8
ETCH_TOP
 10
5500.000000
 20
5817.501000
 40
0.000000
 41
0.000000
 42
1.000000
  0
VERTEX
  8
ETCH_TOP
 10
5500.000000
 20
5682.499000
 40
0.000000
 41
0.000000
 42
1.000000
  0
SEQEND
  0
POLYLINE
  8
ETCH_TOP
 66
1
 70
1
 40
0.000000
 41
0.000000
 39
0.000000
  0
VERTEX
  8
ETCH_TOP
 10
2500.000000
 20
5485.000000
 40
0.000000
 41
0.000000
 42
1.000000
  0
VERTEX
  8
ETCH_TOP
 10
2500.000000
 20
6015.000000
 40
0.000000
 41
0.000000
 42
1.000000
  0
SEQEND
  0
POLYLINE
  8
ETCH_TOP
 66
1
 70
1
 40
0.000000
 41
0.000000
 39
0.000000
  0
VERTEX
  8
ETCH_TOP
 10
2500.000000
 20
5817.501000
 40
0.000000
 41
0.000000
 42
1.000000
  0
VERTEX
  8
ETCH_TOP
 10
2500.000000
 20
5682.499000
 40
0.000000
 41
0.000000
 42
1.000000
  0
SEQEND
  0
POLYLINE
  8
ETCH_TOP
 66
1
 70
1
 40
0.000000
 41
0.000000
 39
0.000000
  0
VERTEX
  8
ETCH_TOP
 10
1500.000000
 20
5485.000000
 40
0.000000
 41
0.000000
 42
1.000000
  0
VERTEX
  8
ETCH_TOP
 10
1500.000000
 20
6015.000000
 40
0.000000
 41
0.000000
 42
1.000000
  0
SEQEND
  0
POLYLINE
  8
ETCH_TOP
 66
1
 70
1
 40
0.000000
 41
0.000000
 39
0.000000
  0
VERTEX
  8
ETCH_TOP
 10
1500.000000
 20
5817.501000
 40
0.000000
 41
0.000000
 42
1.000000
  0
VERTEX
  8
ETCH_TOP
 10
1500.000000
 20
5682.499000
 40
0.000000
 41
0.000000
 42
1.000000
  0
SEQEND
  0
POLYLINE
  8
ETCH_TOP
 66
1
 70
1
 40
0.000000
 41
0.000000
 39
0.000000
  0
VERTEX
  8
ETCH_TOP
 10
2151.220000
 20
8241.000000
 40
0.000000
 41
0.000000
 42
0.000000
  0
VERTEX
  8
ETCH_TOP
 10
2619.220000
 20
8241.000000
 40
0.000000
 41
0.000000
 42
-0.414214
  0
VERTEX
  8
ETCH_TOP
 10
2621.220000
 20
8239.000000
 40
0.000000
 41
0.000000
 42
0.000000
  0
VERTEX
  8
ETCH_TOP
 10
2621.220000
 20
7771.000000
 40
0.000000
 41
0.000000
 42
-0.414214
  0
VERTEX
  8
ETCH_TOP
 10
2619.220000
 20
7769.000000
 40
0.000000
 41
0.000000
 42
0.000000
  0
VERTEX
  8
ETCH_TOP
 10
2151.220000
 20
7769.000000
 40
0.000000
 41
0.000000
 42
-0.414214
  0
VERTEX
  8
ETCH_TOP
 10
2149.220000
 20
7771.000000
 40
0.000000
 41
0.000000
 42
0.000000
  0
VERTEX
  8
ETCH_TOP
 10
2149.220000
 20
8239.000000
 40
0.000000
 41
0.000000
 42
-0.414214
  0
VERTEX
  8
ETCH_TOP
 10
2151.220000
 20
8241.000000
 40
0.000000
 41
0.000000
 42
0.000000
  0
SEQEND
  0
POLYLINE
  8
ETCH_TOP
 66
1
 70
1
 40
0.000000
 41
0.000000
 39
0.000000
  0
VERTEX
  8
ETCH_TOP
 10
2149.220000
 20
6271.000000
 40
0.000000
 41
0.000000
 42
0.000000
  0
VERTEX
  8
ETCH_TOP
 10
2149.220000
 20
6739.000000
 40
0.000000
 41
0.000000
 42
-0.414214
  0
VERTEX
  8
ETCH_TOP
 10
2151.220000
 20
6741.000000
 40
0.000000
 41
0.000000
 42
0.000000
  0
VERTEX
  8
ETCH_TOP
 10
2619.220000
 20
6741.000000
 40
0.000000
 41
0.000000
 42
-0.414214
  0
VERTEX
  8
ETCH_TOP
 10
2621.220000
 20
6739.000000
 40
0.000000
 41
0.000000
 42
0.000000
  0
VERTEX
  8
ETCH_TOP
 10
2621.220000
 20
6323.667000
 40
0.000000
 41
0.000000
 42
-0.414214
  0
VERTEX
  8
ETCH_TOP
 10
2619.220000
 20
6321.667000
 40
0.000000
 41
0.000000
 42
0.000000
  0
VERTEX
  8
ETCH_TOP
 10
2181.999000
 20
6321.667000
 40
0.000000
 41
0.000000
 42
0.000000
  0
VERTEX
  8
ETCH_TOP
 10
2181.999000
 20
6271.000000
 40
0.000000
 41
0.000000
 42
-0.414214
  0
VERTEX
  8
ETCH_TOP
 10
2179.999000
 20
6269.000000
 40
0.000000
 41
0.000000
 42
0.000000
  0
VERTEX
  8
ETCH_TOP
 10
2151.220000
 20
6269.000000
 40
0.000000
 41
0.000000
 42
-0.414214
  0
VERTEX
  8
ETCH_TOP
 10
2149.220000
 20
6271.000000
 40
0.000000
 41
0.000000
 42
0.000000
  0
SEQEND
  0
POLYLINE
  8
ETCH_TOP
 66
1
 70
1
 40
0.000000
 41
0.000000
 39
0.000000
  0
VERTEX
  8
ETCH_TOP
 10
2901.220000
 20
7491.000000
 40
0.000000
 41
0.000000
 42
0.000000
  0
VERTEX
  8
ETCH_TOP
 10
3369.220000
 20
7491.000000
 40
0.000000
 41
0.000000
 42
-0.414214
  0
VERTEX
  8
ETCH_TOP
 10
3371.220000
 20
7489.000000
 40
0.000000
 41
0.000000
 42
0.000000
  0
VERTEX
  8
ETCH_TOP
 10
3371.220000
 20
7021.000000
 40
0.000000
 41
0.000000
 42
-0.414214
  0
VERTEX
  8
ETCH_TOP
 10
3369.220000
 20
7019.000000
 40
0.000000
 41
0.000000
 42
0.000000
  0
VERTEX
  8
ETCH_TOP
 10
2901.220000
 20
7019.000000
 40
0.000000
 41
0.000000
 42
-0.414214
  0
VERTEX
  8
ETCH_TOP
 10
2899.220000
 20
7021.000000
 40
0.000000
 41
0.000000
 42
0.000000
  0
VERTEX
  8
ETCH_TOP
 10
2899.220000
 20
7489.000000
 40
0.000000
 41
0.000000
 42
-0.414214
  0
VERTEX
  8
ETCH_TOP
 10
2901.220000
 20
7491.000000
 40
0.000000
 41
0.000000
 42
0.000000
  0
SEQEND
  0
POLYLINE
  8
ETCH_TOP
 66
1
 70
1
 40
0.000000
 41
0.000000
 39
0.000000
  0
VERTEX
  8
ETCH_TOP
 10
1871.220000
 20
7489.000000
 40
0.000000
 41
0.000000
 42
0.000000
  0
VERTEX
  8
ETCH_TOP
 10
1871.220000
 20
7021.000000
 40
0.000000
 41
0.000000
 42
-0.414214
  0
VERTEX
  8
ETCH_TOP
 10
1869.220000
 20
7019.000000
 40
0.000000
 41
0.000000
 42
0.000000
  0
VERTEX
  8
ETCH_TOP
 10
1401.220000
 20
7019.000000
 40
0.000000
 41
0.000000
 42
-0.414214
  0
VERTEX
  8
ETCH_TOP
 10
1399.220000
 20
7021.000000
 40
0.000000
 41
0.000000
 42
0.000000
  0
VERTEX
  8
ETCH_TOP
 10
1399.220000
 20
7489.000000
 40
0.000000
 41
0.000000
 42
-0.414214
  0
VERTEX
  8
ETCH_TOP
 10
1401.220000
 20
7491.000000
 40
0.000000
 41
0.000000
 42
0.000000
  0
VERTEX
  8
ETCH_TOP
 10
1869.220000
 20
7491.000000
 40
0.000000
 41
0.000000
 42
-0.414214
  0
VERTEX
  8
ETCH_TOP
 10
1871.220000
 20
7489.000000
 40
0.000000
 41
0.000000
 42
0.000000
  0
SEQEND
  0
POLYLINE
  8
ETCH_TOP
 66
1
 70
1
 40
0.000000
 41
0.000000
 39
0.000000
  0
VERTEX
  8
ETCH_TOP
 10
7485.000000
 20
7552.500000
 40
0.000000
 41
0.000000
 42
0.000000
  0
VERTEX
  8
ETCH_TOP
 10
7485.000000
 20
7005.500000
 40
0.000000
 41
0.000000
 42
-0.414214
  0
VERTEX
  8
ETCH_TOP
 10
7483.000000
 20
7003.500000
 40
0.000000
 41
0.000000
 42
0.000000
  0
VERTEX
  8
ETCH_TOP
 10
4967.000000
 20
7003.500000
 40
0.000000
 41
0.000000
 42
-0.414214
  0
VERTEX
  8
ETCH_TOP
 10
4965.000000
 20
7005.500000
 40
0.000000
 41
0.000000
 42
0.000000
  0
VERTEX
  8
ETCH_TOP
 10
4965.000000
 20
7552.500000
 40
0.000000
 41
0.000000
 42
-0.414214
  0
VERTEX
  8
ETCH_TOP
 10
4967.000000
 20
7554.500000
 40
0.000000
 41
0.000000
 42
0.000000
  0
VERTEX
  8
ETCH_TOP
 10
7483.000000
 20
7554.500000
 40
0.000000
 41
0.000000
 42
-0.414214
  0
VERTEX
  8
ETCH_TOP
 10
7485.000000
 20
7552.500000
 40
0.000000
 41
0.000000
 42
0.000000
  0
SEQEND
  0
POLYLINE
  8
ETCH_TOP
 66
1
 70
1
 40
0.000000
 41
0.000000
 39
0.000000
  0
VERTEX
  8
ETCH_TOP
 10
1500.000000
 20
1440.000000
 40
0.000000
 41
0.000000
 42
1.000000
  0
VERTEX
  8
ETCH_TOP
 10
1500.000000
 20
2060.000000
 40
0.000000
 41
0.000000
 42
1.000000
  0
SEQEND
  0
POLYLINE
  8
ETCH_TOP
 66
1
 70
1
 40
0.000000
 41
0.000000
 39
0.000000
  0
VERTEX
  8
ETCH_TOP
 10
1500.000000
 20
1817.501000
 40
0.000000
 41
0.000000
 42
1.000000
  0
VERTEX
  8
ETCH_TOP
 10
1500.000000
 20
1682.499000
 40
0.000000
 41
0.000000
 42
1.000000
  0
SEQEND
  0
POLYLINE
  8
ETCH_TOP
 66
1
 70
1
 40
0.000000
 41
0.000000
 39
0.000000
  0
VERTEX
  8
ETCH_TOP
 10
7000.000000
 20
2440.000000
 40
0.000000
 41
0.000000
 42
1.000000
  0
VERTEX
  8
ETCH_TOP
 10
7000.000000
 20
3060.000000
 40
0.000000
 41
0.000000
 42
1.000000
  0
SEQEND
  0
POLYLINE
  8
ETCH_TOP
 66
1
 70
1
 40
0.000000
 41
0.000000
 39
0.000000
  0
VERTEX
  8
ETCH_TOP
 10
7000.000000
 20
2817.501000
 40
0.000000
 41
0.000000
 42
1.000000
  0
VERTEX
  8
ETCH_TOP
 10
7000.000000
 20
2682.499000
 40
0.000000
 41
0.000000
 42
1.000000
  0
SEQEND
  0
POLYLINE
  8
ETCH_TOP
 66
1
 70
1
 40
0.000000
 41
0.000000
 39
0.000000
  0
VERTEX
  8
ETCH_TOP
 10
8000.000000
 20
2440.000000
 40
0.000000
 41
0.000000
 42
1.000000
  0
VERTEX
  8
ETCH_TOP
 10
8000.000000
 20
3060.000000
 40
0.000000
 41
0.000000
 42
1.000000
  0
SEQEND
  0
POLYLINE
  8
ETCH_TOP
 66
1
 70
1
 40
0.000000
 41
0.000000
 39
0.000000
  0
VERTEX
  8
ETCH_TOP
 10
8000.000000
 20
2817.501000
 40
0.000000
 41
0.000000
 42
1.000000
  0
VERTEX
  8
ETCH_TOP
 10
8000.000000
 20
2682.499000
 40
0.000000
 41
0.000000
 42
1.000000
  0
SEQEND
  0
POLYLINE
  8
ETCH_TOP
 66
1
 70
1
 40
0.000000
 41
0.000000
 39
0.000000
  0
VERTEX
  8
ETCH_TOP
 10
5000.000000
 20
2440.000000
 40
0.000000
 41
0.000000
 42
1.000000
  0
VERTEX
  8
ETCH_TOP
 10
5000.000000
 20
3060.000000
 40
0.000000
 41
0.000000
 42
1.000000
  0
SEQEND
  0
POLYLINE
  8
ETCH_TOP
 66
1
 70
1
 40
0.000000
 41
0.000000
 39
0.000000
  0
VERTEX
  8
ETCH_TOP
 10
5000.000000
 20
2817.501000
 40
0.000000
 41
0.000000
 42
1.000000
  0
VERTEX
  8
ETCH_TOP
 10
5000.000000
 20
2682.499000
 40
0.000000
 41
0.000000
 42
1.000000
  0
SEQEND
  0
POLYLINE
  8
ETCH_TOP
 66
1
 70
1
 40
0.000000
 41
0.000000
 39
0.000000
  0
VERTEX
  8
ETCH_TOP
 10
4500.000000
 20
1440.000000
 40
0.000000
 41
0.000000
 42
1.000000
  0
VERTEX
  8
ETCH_TOP
 10
4500.000000
 20
2060.000000
 40
0.000000
 41
0.000000
 42
1.000000
  0
SEQEND
  0
POLYLINE
  8
ETCH_TOP
 66
1
 70
1
 40
0.000000
 41
0.000000
 39
0.000000
  0
VERTEX
  8
ETCH_TOP
 10
4500.000000
 20
1817.501000
 40
0.000000
 41
0.000000
 42
1.000000
  0
VERTEX
  8
ETCH_TOP
 10
4500.000000
 20
1682.499000
 40
0.000000
 41
0.000000
 42
1.000000
  0
SEQEND
  0
POLYLINE
  8
ETCH_TOP
 66
1
 70
1
 40
0.000000
 41
0.000000
 39
0.000000
  0
VERTEX
  8
ETCH_TOP
 10
3500.000000
 20
1440.000000
 40
0.000000
 41
0.000000
 42
1.000000
  0
VERTEX
  8
ETCH_TOP
 10
3500.000000
 20
2060.000000
 40
0.000000
 41
0.000000
 42
1.000000
  0
SEQEND
  0
POLYLINE
  8
ETCH_TOP
 66
1
 70
1
 40
0.000000
 41
0.000000
 39
0.000000
  0
VERTEX
  8
ETCH_TOP
 10
3500.000000
 20
1817.501000
 40
0.000000
 41
0.000000
 42
1.000000
  0
VERTEX
  8
ETCH_TOP
 10
3500.000000
 20
1682.499000
 40
0.000000
 41
0.000000
 42
1.000000
  0
SEQEND
  0
POLYLINE
  8
ETCH_TOP
 66
1
 70
1
 40
0.000000
 41
0.000000
 39
0.000000
  0
VERTEX
  8
ETCH_TOP
 10
1000.000000
 20
2440.000000
 40
0.000000
 41
0.000000
 42
1.000000
  0
VERTEX
  8
ETCH_TOP
 10
1000.000000
 20
3060.000000
 40
0.000000
 41
0.000000
 42
1.000000
  0
SEQEND
  0
POLYLINE
  8
ETCH_TOP
 66
1
 70
1
 40
0.000000
 41
0.000000
 39
0.000000
  0
VERTEX
  8
ETCH_TOP
 10
1000.000000
 20
2817.501000
 40
0.000000
 41
0.000000
 42
1.000000
  0
VERTEX
  8
ETCH_TOP
 10
1000.000000
 20
2682.499000
 40
0.000000
 41
0.000000
 42
1.000000
  0
SEQEND
  0
POLYLINE
  8
ETCH_TOP
 66
1
 70
1
 40
0.000000
 41
0.000000
 39
0.000000
  0
VERTEX
  8
ETCH_TOP
 10
7500.000000
 20
1440.000000
 40
0.000000
 41
0.000000
 42
1.000000
  0
VERTEX
  8
ETCH_TOP
 10
7500.000000
 20
2060.000000
 40
0.000000
 41
0.000000
 42
1.000000
  0
SEQEND
  0
POLYLINE
  8
ETCH_TOP
 66
1
 70
1
 40
0.000000
 41
0.000000
 39
0.000000
  0
VERTEX
  8
ETCH_TOP
 10
7500.000000
 20
1817.501000
 40
0.000000
 41
0.000000
 42
1.000000
  0
VERTEX
  8
ETCH_TOP
 10
7500.000000
 20
1682.499000
 40
0.000000
 41
0.000000
 42
1.000000
  0
SEQEND
  0
POLYLINE
  8
ETCH_TOP
 66
1
 70
1
 40
0.000000
 41
0.000000
 39
0.000000
  0
VERTEX
  8
ETCH_TOP
 10
6500.000000
 20
1440.000000
 40
0.000000
 41
0.000000
 42
1.000000
  0
VERTEX
  8
ETCH_TOP
 10
6500.000000
 20
2060.000000
 40
0.000000
 41
0.000000
 42
1.000000
  0
SEQEND
  0
POLYLINE
  8
ETCH_TOP
 66
1
 70
1
 40
0.000000
 41
0.000000
 39
0.000000
  0
VERTEX
  8
ETCH_TOP
 10
6500.000000
 20
1817.501000
 40
0.000000
 41
0.000000
 42
1.000000
  0
VERTEX
  8
ETCH_TOP
 10
6500.000000
 20
1682.499000
 40
0.000000
 41
0.000000
 42
1.000000
  0
SEQEND
  0
POLYLINE
  8
ETCH_TOP
 66
1
 70
1
 40
0.000000
 41
0.000000
 39
0.000000
  0
VERTEX
  8
ETCH_TOP
 10
5500.000000
 20
1440.000000
 40
0.000000
 41
0.000000
 42
1.000000
  0
VERTEX
  8
ETCH_TOP
 10
5500.000000
 20
2060.000000
 40
0.000000
 41
0.000000
 42
1.000000
  0
SEQEND
  0
POLYLINE
  8
ETCH_TOP
 66
1
 70
1
 40
0.000000
 41
0.000000
 39
0.000000
  0
VERTEX
  8
ETCH_TOP
 10
5500.000000
 20
1817.501000
 40
0.000000
 41
0.000000
 42
1.000000
  0
VERTEX
  8
ETCH_TOP
 10
5500.000000
 20
1682.499000
 40
0.000000
 41
0.000000
 42
1.000000
  0
SEQEND
  0
POLYLINE
  8
ETCH_TOP
 66
1
 70
1
 40
0.000000
 41
0.000000
 39
0.000000
  0
VERTEX
  8
ETCH_TOP
 10
6000.000000
 20
2440.000000
 40
0.000000
 41
0.000000
 42
1.000000
  0
VERTEX
  8
ETCH_TOP
 10
6000.000000
 20
3060.000000
 40
0.000000
 41
0.000000
 42
1.000000
  0
SEQEND
  0
POLYLINE
  8
ETCH_TOP
 66
1
 70
1
 40
0.000000
 41
0.000000
 39
0.000000
  0
VERTEX
  8
ETCH_TOP
 10
6000.000000
 20
2817.501000
 40
0.000000
 41
0.000000
 42
1.000000
  0
VERTEX
  8
ETCH_TOP
 10
6000.000000
 20
2682.499000
 40
0.000000
 41
0.000000
 42
1.000000
  0
SEQEND
  0
POLYLINE
  8
ETCH_TOP
 66
1
 70
1
 40
0.000000
 41
0.000000
 39
0.000000
  0
VERTEX
  8
ETCH_TOP
 10
4000.000000
 20
2440.000000
 40
0.000000
 41
0.000000
 42
1.000000
  0
VERTEX
  8
ETCH_TOP
 10
4000.000000
 20
3060.000000
 40
0.000000
 41
0.000000
 42
1.000000
  0
SEQEND
  0
POLYLINE
  8
ETCH_TOP
 66
1
 70
1
 40
0.000000
 41
0.000000
 39
0.000000
  0
VERTEX
  8
ETCH_TOP
 10
4000.000000
 20
2817.501000
 40
0.000000
 41
0.000000
 42
1.000000
  0
VERTEX
  8
ETCH_TOP
 10
4000.000000
 20
2682.499000
 40
0.000000
 41
0.000000
 42
1.000000
  0
SEQEND
  0
POLYLINE
  8
ETCH_TOP
 66
1
 70
1
 40
0.000000
 41
0.000000
 39
0.000000
  0
VERTEX
  8
ETCH_TOP
 10
3000.000000
 20
2440.000000
 40
0.000000
 41
0.000000
 42
1.000000
  0
VERTEX
  8
ETCH_TOP
 10
3000.000000
 20
3060.000000
 40
0.000000
 41
0.000000
 42
1.000000
  0
SEQEND
  0
POLYLINE
  8
ETCH_TOP
 66
1
 70
1
 40
0.000000
 41
0.000000
 39
0.000000
  0
VERTEX
  8
ETCH_TOP
 10
3000.000000
 20
2817.501000
 40
0.000000
 41
0.000000
 42
1.000000
  0
VERTEX
  8
ETCH_TOP
 10
3000.000000
 20
2682.499000
 40
0.000000
 41
0.000000
 42
1.000000
  0
SEQEND
  0
POLYLINE
  8
ETCH_TOP
 66
1
 70
1
 40
0.000000
 41
0.000000
 39
0.000000
  0
VERTEX
  8
ETCH_TOP
 10
2000.000000
 20
2440.000000
 40
0.000000
 41
0.000000
 42
1.000000
  0
VERTEX
  8
ETCH_TOP
 10
2000.000000
 20
3060.000000
 40
0.000000
 41
0.000000
 42
1.000000
  0
SEQEND
  0
POLYLINE
  8
ETCH_TOP
 66
1
 70
1
 40
0.000000
 41
0.000000
 39
0.000000
  0
VERTEX
  8
ETCH_TOP
 10
2000.000000
 20
2817.501000
 40
0.000000
 41
0.000000
 42
1.000000
  0
VERTEX
  8
ETCH_TOP
 10
2000.000000
 20
2682.499000
 40
0.000000
 41
0.000000
 42
1.000000
  0
SEQEND
  0
POLYLINE
  8
ETCH_TOP
 66
1
 70
1
 40
0.000000
 41
0.000000
 39
0.000000
  0
VERTEX
  8
ETCH_TOP
 10
2500.000000
 20
1440.000000
 40
0.000000
 41
0.000000
 42
1.000000
  0
VERTEX
  8
ETCH_TOP
 10
2500.000000
 20
2060.000000
 40
0.000000
 41
0.000000
 42
1.000000
  0
SEQEND
  0
POLYLINE
  8
ETCH_TOP
 66
1
 70
1
 40
0.000000
 41
0.000000
 39
0.000000
  0
VERTEX
  8
ETCH_TOP
 10
2500.000000
 20
1817.501000
 40
0.000000
 41
0.000000
 42
1.000000
  0
VERTEX
  8
ETCH_TOP
 10
2500.000000
 20
1682.499000
 40
0.000000
 41
0.000000
 42
1.000000
  0
SEQEND
  0
POLYLINE
  8
ETCH_TOP
 66
1
 70
1
 40
0.000000
 41
0.000000
 39
0.000000
  0
VERTEX
  8
ETCH_TOP
 10
3463.000000
 20
815.000000
 40
0.000000
 41
0.000000
 42
0.000000
  0
VERTEX
  8
ETCH_TOP
 10
3092.000000
 20
815.000000
 40
0.000000
 41
0.000000
 42
-0.414214
  0
VERTEX
  8
ETCH_TOP
 10
3090.000000
 20
817.000000
 40
0.000000
 41
0.000000
 42
0.000000
  0
VERTEX
  8
ETCH_TOP
 10
3090.000000
 20
1263.000000
 40
0.000000
 41
0.000000
 42
-0.414214
  0
VERTEX
  8
ETCH_TOP
 10
3092.000000
 20
1265.000000
 40
0.000000
 41
0.000000
 42
0.000000
  0
VERTEX
  8
ETCH_TOP
 10
3463.000000
 20
1265.000000
 40
0.000000
 41
0.000000
 42
-0.414214
  0
VERTEX
  8
ETCH_TOP
 10
3465.000000
 20
1263.000000
 40
0.000000
 41
0.000000
 42
0.000000
  0
VERTEX
  8
ETCH_TOP
 10
3465.000000
 20
817.000000
 40
0.000000
 41
0.000000
 42
-0.414214
  0
VERTEX
  8
ETCH_TOP
 10
3463.000000
 20
815.000000
 40
0.000000
 41
0.000000
 42
0.000000
  0
SEQEND
  0
POLYLINE
  8
ETCH_TOP
 66
1
 70
1
 40
0.000000
 41
0.000000
 39
0.000000
  0
VERTEX
  8
ETCH_TOP
 10
1164.500000
 20
890.000000
 40
0.000000
 41
0.000000
 42
-0.414214
  0
VERTEX
  8
ETCH_TOP
 10
1162.500000
 20
892.000000
 40
0.000000
 41
0.000000
 42
0.000000
  0
VERTEX
  8
ETCH_TOP
 10
1162.500000
 20
1238.000000
 40
0.000000
 41
0.000000
 42
-0.414214
  0
VERTEX
  8
ETCH_TOP
 10
1164.500000
 20
1240.000000
 40
0.000000
 41
0.000000
 42
0.000000
  0
VERTEX
  8
ETCH_TOP
 10
1835.500000
 20
1240.000000
 40
0.000000
 41
0.000000
 42
-0.414214
  0
VERTEX
  8
ETCH_TOP
 10
1837.500000
 20
1238.000000
 40
0.000000
 41
0.000000
 42
0.000000
  0
VERTEX
  8
ETCH_TOP
 10
1837.500000
 20
892.000000
 40
0.000000
 41
0.000000
 42
-0.414214
  0
VERTEX
  8
ETCH_TOP
 10
1835.500000
 20
890.000000
 40
0.000000
 41
0.000000
 42
0.000000
  0
SEQEND
  0
POLYLINE
  8
ETCH_TOP
 66
1
 70
1
 40
0.000000
 41
0.000000
 39
0.000000
  0
VERTEX
  8
ETCH_TOP
 10
2075.000000
 20
1065.000000
 40
0.000000
 41
0.000000
 42
1.000000
  0
VERTEX
  8
ETCH_TOP
 10
1925.000000
 20
1065.000000
 40
0.000000
 41
0.000000
 42
1.000000
  0
SEQEND
  0
POLYLINE
  8
ETCH_TOP
 66
1
 70
1
 40
0.000000
 41
0.000000
 39
0.000000
  0
VERTEX
  8
ETCH_TOP
 10
1075.000000
 20
1065.000000
 40
0.000000
 41
0.000000
 42
1.000000
  0
VERTEX
  8
ETCH_TOP
 10
925.000000
 20
1065.000000
 40
0.000000
 41
0.000000
 42
1.000000
  0
SEQEND
  0
POLYLINE
  8
ETCH_TOP
 66
1
 70
1
 40
0.000000
 41
0.000000
 39
0.000000
  0
VERTEX
  8
ETCH_TOP
 10
4500.000000
 20
10812.500000
 40
0.000000
 41
0.000000
 42
1.000000
  0
VERTEX
  8
ETCH_TOP
 10
4500.000000
 20
10687.500000
 40
0.000000
 41
0.000000
 42
1.000000
  0
SEQEND
  0
POLYLINE
  8
ETCH_TOP
 66
1
 70
1
 40
0.000000
 41
0.000000
 39
0.000000
  0
VERTEX
  8
ETCH_TOP
 10
4500.000000
 20
312.500000
 40
0.000000
 41
0.000000
 42
1.000000
  0
VERTEX
  8
ETCH_TOP
 10
4500.000000
 20
187.500000
 40
0.000000
 41
0.000000
 42
1.000000
  0
SEQEND
  0
POLYLINE
  8
ETCH_TOP
 66
1
 70
1
 40
0.000000
 41
0.000000
 39
0.000000
  0
VERTEX
  8
ETCH_TOP
 10
1500.000000
 20
5718.750000
 40
0.000000
 41
0.000000
 42
1.000000
  0
VERTEX
  8
ETCH_TOP
 10
1500.000000
 20
5781.250000
 40
0.000000
 41
0.000000
 42
1.000000
  0
SEQEND
  0
POLYLINE
  8
ETCH_TOP
 66
1
 70
1
 40
0.000000
 41
0.000000
 39
0.000000
  0
VERTEX
  8
ETCH_TOP
 10
2500.000000
 20
5718.750000
 40
0.000000
 41
0.000000
 42
1.000000
  0
VERTEX
  8
ETCH_TOP
 10
2500.000000
 20
5781.250000
 40
0.000000
 41
0.000000
 42
1.000000
  0
SEQEND
  0
POLYLINE
  8
ETCH_TOP
 66
1
 70
1
 40
0.000000
 41
0.000000
 39
0.000000
  0
VERTEX
  8
ETCH_TOP
 10
3500.000000
 20
5718.750000
 40
0.000000
 41
0.000000
 42
1.000000
  0
VERTEX
  8
ETCH_TOP
 10
3500.000000
 20
5781.250000
 40
0.000000
 41
0.000000
 42
1.000000
  0
SEQEND
  0
POLYLINE
  8
ETCH_TOP
 66
1
 70
1
 40
0.000000
 41
0.000000
 39
0.000000
  0
VERTEX
  8
ETCH_TOP
 10
4500.000000
 20
5718.750000
 40
0.000000
 41
0.000000
 42
1.000000
  0
VERTEX
  8
ETCH_TOP
 10
4500.000000
 20
5781.250000
 40
0.000000
 41
0.000000
 42
1.000000
  0
SEQEND
  0
POLYLINE
  8
ETCH_TOP
 66
1
 70
1
 40
0.000000
 41
0.000000
 39
0.000000
  0
VERTEX
  8
ETCH_TOP
 10
5500.000000
 20
5718.750000
 40
0.000000
 41
0.000000
 42
1.000000
  0
VERTEX
  8
ETCH_TOP
 10
5500.000000
 20
5781.250000
 40
0.000000
 41
0.000000
 42
1.000000
  0
SEQEND
  0
POLYLINE
  8
ETCH_TOP
 66
1
 70
1
 40
0.000000
 41
0.000000
 39
0.000000
  0
VERTEX
  8
ETCH_TOP
 10
6500.000000
 20
5718.750000
 40
0.000000
 41
0.000000
 42
1.000000
  0
VERTEX
  8
ETCH_TOP
 10
6500.000000
 20
5781.250000
 40
0.000000
 41
0.000000
 42
1.000000
  0
SEQEND
  0
POLYLINE
  8
ETCH_TOP
 66
1
 70
1
 40
0.000000
 41
0.000000
 39
0.000000
  0
VERTEX
  8
ETCH_TOP
 10
7500.000000
 20
5718.750000
 40
0.000000
 41
0.000000
 42
1.000000
  0
VERTEX
  8
ETCH_TOP
 10
7500.000000
 20
5781.250000
 40
0.000000
 41
0.000000
 42
1.000000
  0
SEQEND
  0
POLYLINE
  8
ETCH_TOP
 66
1
 70
1
 40
0.000000
 41
0.000000
 39
0.000000
  0
VERTEX
  8
ETCH_TOP
 10
8000.000000
 20
4718.750000
 40
0.000000
 41
0.000000
 42
1.000000
  0
VERTEX
  8
ETCH_TOP
 10
8000.000000
 20
4781.250000
 40
0.000000
 41
0.000000
 42
1.000000
  0
SEQEND
  0
POLYLINE
  8
ETCH_TOP
 66
1
 70
1
 40
0.000000
 41
0.000000
 39
0.000000
  0
VERTEX
  8
ETCH_TOP
 10
7000.000000
 20
4718.750000
 40
0.000000
 41
0.000000
 42
1.000000
  0
VERTEX
  8
ETCH_TOP
 10
7000.000000
 20
4781.250000
 40
0.000000
 41
0.000000
 42
1.000000
  0
SEQEND
  0
POLYLINE
  8
ETCH_TOP
 66
1
 70
1
 40
0.000000
 41
0.000000
 39
0.000000
  0
VERTEX
  8
ETCH_TOP
 10
6000.000000
 20
4718.750000
 40
0.000000
 41
0.000000
 42
1.000000
  0
VERTEX
  8
ETCH_TOP
 10
6000.000000
 20
4781.250000
 40
0.000000
 41
0.000000
 42
1.000000
  0
SEQEND
  0
POLYLINE
  8
ETCH_TOP
 66
1
 70
1
 40
0.000000
 41
0.000000
 39
0.000000
  0
VERTEX
  8
ETCH_TOP
 10
5000.000000
 20
4718.750000
 40
0.000000
 41
0.000000
 42
1.000000
  0
VERTEX
  8
ETCH_TOP
 10
5000.000000
 20
4781.250000
 40
0.000000
 41
0.000000
 42
1.000000
  0
SEQEND
  0
POLYLINE
  8
ETCH_TOP
 66
1
 70
1
 40
0.000000
 41
0.000000
 39
0.000000
  0
VERTEX
  8
ETCH_TOP
 10
4000.000000
 20
4718.750000
 40
0.000000
 41
0.000000
 42
1.000000
  0
VERTEX
  8
ETCH_TOP
 10
4000.000000
 20
4781.250000
 40
0.000000
 41
0.000000
 42
1.000000
  0
SEQEND
  0
POLYLINE
  8
ETCH_TOP
 66
1
 70
1
 40
0.000000
 41
0.000000
 39
0.000000
  0
VERTEX
  8
ETCH_TOP
 10
3000.000000
 20
4718.750000
 40
0.000000
 41
0.000000
 42
1.000000
  0
VERTEX
  8
ETCH_TOP
 10
3000.000000
 20
4781.250000
 40
0.000000
 41
0.000000
 42
1.000000
  0
SEQEND
  0
POLYLINE
  8
ETCH_TOP
 66
1
 70
1
 40
0.000000
 41
0.000000
 39
0.000000
  0
VERTEX
  8
ETCH_TOP
 10
2000.000000
 20
4718.750000
 40
0.000000
 41
0.000000
 42
1.000000
  0
VERTEX
  8
ETCH_TOP
 10
2000.000000
 20
4781.250000
 40
0.000000
 41
0.000000
 42
1.000000
  0
SEQEND
  0
POLYLINE
  8
ETCH_TOP
 66
1
 70
1
 40
0.000000
 41
0.000000
 39
0.000000
  0
VERTEX
  8
ETCH_TOP
 10
1000.000000
 20
4718.750000
 40
0.000000
 41
0.000000
 42
1.000000
  0
VERTEX
  8
ETCH_TOP
 10
1000.000000
 20
4781.250000
 40
0.000000
 41
0.000000
 42
1.000000
  0
SEQEND
  0
POLYLINE
  8
ETCH_TOP
 66
1
 70
1
 40
0.000000
 41
0.000000
 39
0.000000
  0
VERTEX
  8
ETCH_TOP
 10
1500.000000
 20
1718.750000
 40
0.000000
 41
0.000000
 42
1.000000
  0
VERTEX
  8
ETCH_TOP
 10
1500.000000
 20
1781.250000
 40
0.000000
 41
0.000000
 42
1.000000
  0
SEQEND
  0
POLYLINE
  8
ETCH_TOP
 66
1
 70
1
 40
0.000000
 41
0.000000
 39
0.000000
  0
VERTEX
  8
ETCH_TOP
 10
2500.000000
 20
1718.750000
 40
0.000000
 41
0.000000
 42
1.000000
  0
VERTEX
  8
ETCH_TOP
 10
2500.000000
 20
1781.250000
 40
0.000000
 41
0.000000
 42
1.000000
  0
SEQEND
  0
POLYLINE
  8
ETCH_TOP
 66
1
 70
1
 40
0.000000
 41
0.000000
 39
0.000000
  0
VERTEX
  8
ETCH_TOP
 10
3500.000000
 20
1718.750000
 40
0.000000
 41
0.000000
 42
1.000000
  0
VERTEX
  8
ETCH_TOP
 10
3500.000000
 20
1781.250000
 40
0.000000
 41
0.000000
 42
1.000000
  0
SEQEND
  0
POLYLINE
  8
ETCH_TOP
 66
1
 70
1
 40
0.000000
 41
0.000000
 39
0.000000
  0
VERTEX
  8
ETCH_TOP
 10
4500.000000
 20
1718.750000
 40
0.000000
 41
0.000000
 42
1.000000
  0
VERTEX
  8
ETCH_TOP
 10
4500.000000
 20
1781.250000
 40
0.000000
 41
0.000000
 42
1.000000
  0
SEQEND
  0
POLYLINE
  8
ETCH_TOP
 66
1
 70
1
 40
0.000000
 41
0.000000
 39
0.000000
  0
VERTEX
  8
ETCH_TOP
 10
5500.000000
 20
1718.750000
 40
0.000000
 41
0.000000
 42
1.000000
  0
VERTEX
  8
ETCH_TOP
 10
5500.000000
 20
1781.250000
 40
0.000000
 41
0.000000
 42
1.000000
  0
SEQEND
  0
POLYLINE
  8
ETCH_TOP
 66
1
 70
1
 40
0.000000
 41
0.000000
 39
0.000000
  0
VERTEX
  8
ETCH_TOP
 10
6500.000000
 20
1718.750000
 40
0.000000
 41
0.000000
 42
1.000000
  0
VERTEX
  8
ETCH_TOP
 10
6500.000000
 20
1781.250000
 40
0.000000
 41
0.000000
 42
1.000000
  0
SEQEND
  0
POLYLINE
  8
ETCH_TOP
 66
1
 70
1
 40
0.000000
 41
0.000000
 39
0.000000
  0
VERTEX
  8
ETCH_TOP
 10
7500.000000
 20
1718.750000
 40
0.000000
 41
0.000000
 42
1.000000
  0
VERTEX
  8
ETCH_TOP
 10
7500.000000
 20
1781.250000
 40
0.000000
 41
0.000000
 42
1.000000
  0
SEQEND
  0
POLYLINE
  8
ETCH_TOP
 66
1
 70
1
 40
0.000000
 41
0.000000
 39
0.000000
  0
VERTEX
  8
ETCH_TOP
 10
8000.000000
 20
2718.750000
 40
0.000000
 41
0.000000
 42
1.000000
  0
VERTEX
  8
ETCH_TOP
 10
8000.000000
 20
2781.250000
 40
0.000000
 41
0.000000
 42
1.000000
  0
SEQEND
  0
POLYLINE
  8
ETCH_TOP
 66
1
 70
1
 40
0.000000
 41
0.000000
 39
0.000000
  0
VERTEX
  8
ETCH_TOP
 10
7000.000000
 20
2718.750000
 40
0.000000
 41
0.000000
 42
1.000000
  0
VERTEX
  8
ETCH_TOP
 10
7000.000000
 20
2781.250000
 40
0.000000
 41
0.000000
 42
1.000000
  0
SEQEND
  0
POLYLINE
  8
ETCH_TOP
 66
1
 70
1
 40
0.000000
 41
0.000000
 39
0.000000
  0
VERTEX
  8
ETCH_TOP
 10
6000.000000
 20
2718.750000
 40
0.000000
 41
0.000000
 42
1.000000
  0
VERTEX
  8
ETCH_TOP
 10
6000.000000
 20
2781.250000
 40
0.000000
 41
0.000000
 42
1.000000
  0
SEQEND
  0
POLYLINE
  8
ETCH_TOP
 66
1
 70
1
 40
0.000000
 41
0.000000
 39
0.000000
  0
VERTEX
  8
ETCH_TOP
 10
5000.000000
 20
2718.750000
 40
0.000000
 41
0.000000
 42
1.000000
  0
VERTEX
  8
ETCH_TOP
 10
5000.000000
 20
2781.250000
 40
0.000000
 41
0.000000
 42
1.000000
  0
SEQEND
  0
POLYLINE
  8
ETCH_TOP
 66
1
 70
1
 40
0.000000
 41
0.000000
 39
0.000000
  0
VERTEX
  8
ETCH_TOP
 10
4000.000000
 20
2718.750000
 40
0.000000
 41
0.000000
 42
1.000000
  0
VERTEX
  8
ETCH_TOP
 10
4000.000000
 20
2781.250000
 40
0.000000
 41
0.000000
 42
1.000000
  0
SEQEND
  0
POLYLINE
  8
ETCH_TOP
 66
1
 70
1
 40
0.000000
 41
0.000000
 39
0.000000
  0
VERTEX
  8
ETCH_TOP
 10
3000.000000
 20
2718.750000
 40
0.000000
 41
0.000000
 42
1.000000
  0
VERTEX
  8
ETCH_TOP
 10
3000.000000
 20
2781.250000
 40
0.000000
 41
0.000000
 42
1.000000
  0
SEQEND
  0
POLYLINE
  8
ETCH_TOP
 66
1
 70
1
 40
0.000000
 41
0.000000
 39
0.000000
  0
VERTEX
  8
ETCH_TOP
 10
2000.000000
 20
2718.750000
 40
0.000000
 41
0.000000
 42
1.000000
  0
VERTEX
  8
ETCH_TOP
 10
2000.000000
 20
2781.250000
 40
0.000000
 41
0.000000
 42
1.000000
  0
SEQEND
  0
POLYLINE
  8
ETCH_TOP
 66
1
 70
1
 40
0.000000
 41
0.000000
 39
0.000000
  0
VERTEX
  8
ETCH_TOP
 10
1000.000000
 20
2718.750000
 40
0.000000
 41
0.000000
 42
1.000000
  0
VERTEX
  8
ETCH_TOP
 10
1000.000000
 20
2781.250000
 40
0.000000
 41
0.000000
 42
1.000000
  0
SEQEND
  0
POLYLINE
  8
ETCH_TOP
 66
1
 70
0
 40
0.000000
 41
0.000000
 39
0.000000
  0
VERTEX
  8
ETCH_TOP
 10
1803.000000
 20
5925.000000
 40
31.000000
 41
31.000000
 42
0.000000
  0
VERTEX
  8
ETCH_TOP
 10
1817.000000
 20
5933.000000
 40
31.000000
 41
31.000000
 42
0.000000
  0
SEQEND
  0
POLYLINE
  8
ETCH_TOP
 66
1
 70
0
 40
0.000000
 41
0.000000
 39
0.000000
  0
VERTEX
  8
ETCH_TOP
 10
1850.000000
 20
5750.000000
 40
31.000000
 41
31.000000
 42
0.000000
  0
VERTEX
  8
ETCH_TOP
 10
1900.000000
 20
5750.000000
 40
31.000000
 41
31.000000
 42
0.000000
  0
SEQEND
  0
POLYLINE
  8
ETCH_TOP
 66
1
 70
0
 40
0.000000
 41
0.000000
 39
0.000000
  0
VERTEX
  8
ETCH_TOP
 10
1803.000000
 20
5575.000000
 40
31.000000
 41
31.000000
 42
0.000000
  0
VERTEX
  8
ETCH_TOP
 10
1817.000000
 20
5567.000000
 40
31.000000
 41
31.000000
 42
0.000000
  0
SEQEND
  0
POLYLINE
  8
ETCH_TOP
 66
1
 70
0
 40
0.000000
 41
0.000000
 39
0.000000
  0
VERTEX
  8
ETCH_TOP
 10
1675.000000
 20
6053.000000
 40
31.000000
 41
31.000000
 42
0.000000
  0
VERTEX
  8
ETCH_TOP
 10
1700.000000
 20
6096.000000
 40
31.000000
 41
31.000000
 42
0.000000
  0
SEQEND
  0
POLYLINE
  8
ETCH_TOP
 66
1
 70
0
 40
0.000000
 41
0.000000
 39
0.000000
  0
VERTEX
  8
ETCH_TOP
 10
1675.000000
 20
5447.000000
 40
31.000000
 41
31.000000
 42
0.000000
  0
VERTEX
  8
ETCH_TOP
 10
1700.000000
 20
5404.000000
 40
31.000000
 41
31.000000
 42
0.000000
  0
SEQEND
  0
POLYLINE
  8
ETCH_TOP
 66
1
 70
0
 40
0.000000
 41
0.000000
 39
0.000000
  0
VERTEX
  8
ETCH_TOP
 10
1500.000000
 20
5400.000000
 40
31.000000
 41
31.000000
 42
0.000000
  0
VERTEX
  8
ETCH_TOP
 10
1500.000000
 20
5384.000000
 40
31.000000
 41
31.000000
 42
0.000000
  0
SEQEND
  0
POLYLINE
  8
ETCH_TOP
 66
1
 70
0
 40
0.000000
 41
0.000000
 39
0.000000
  0
VERTEX
  8
ETCH_TOP
 10
1325.000000
 20
6053.000000
 40
31.000000
 41
31.000000
 42
0.000000
  0
VERTEX
  8
ETCH_TOP
 10
1300.000000
 20
6096.000000
 40
31.000000
 41
31.000000
 42
0.000000
  0
SEQEND
  0
POLYLINE
  8
ETCH_TOP
 66
1
 70
0
 40
0.000000
 41
0.000000
 39
0.000000
  0
VERTEX
  8
ETCH_TOP
 10
1197.000000
 20
5925.000000
 40
31.000000
 41
31.000000
 42
0.000000
  0
VERTEX
  8
ETCH_TOP
 10
1183.000000
 20
5933.000000
 40
31.000000
 41
31.000000
 42
0.000000
  0
SEQEND
  0
POLYLINE
  8
ETCH_TOP
 66
1
 70
0
 40
0.000000
 41
0.000000
 39
0.000000
  0
VERTEX
  8
ETCH_TOP
 10
1197.000000
 20
5575.000000
 40
31.000000
 41
31.000000
 42
0.000000
  0
VERTEX
  8
ETCH_TOP
 10
1183.000000
 20
5567.000000
 40
31.000000
 41
31.000000
 42
0.000000
  0
SEQEND
  0
POLYLINE
  8
ETCH_TOP
 66
1
 70
0
 40
0.000000
 41
0.000000
 39
0.000000
  0
VERTEX
  8
ETCH_TOP
 10
1325.000000
 20
5447.000000
 40
31.000000
 41
31.000000
 42
0.000000
  0
VERTEX
  8
ETCH_TOP
 10
1300.000000
 20
5404.000000
 40
31.000000
 41
31.000000
 42
0.000000
  0
SEQEND
  0
POLYLINE
  8
ETCH_TOP
 66
1
 70
0
 40
0.000000
 41
0.000000
 39
0.000000
  0
VERTEX
  8
ETCH_TOP
 10
1150.000000
 20
5750.000000
 40
31.000000
 41
31.000000
 42
0.000000
  0
VERTEX
  8
ETCH_TOP
 10
1100.000000
 20
5750.000000
 40
31.000000
 41
31.000000
 42
0.000000
  0
SEQEND
  0
POLYLINE
  8
ETCH_TOP
 66
1
 70
0
 40
0.000000
 41
0.000000
 39
0.000000
  0
VERTEX
  8
ETCH_TOP
 10
2803.000000
 20
5925.000000
 40
31.000000
 41
31.000000
 42
0.000000
  0
VERTEX
  8
ETCH_TOP
 10
2817.000000
 20
5933.000000
 40
31.000000
 41
31.000000
 42
0.000000
  0
SEQEND
  0
POLYLINE
  8
ETCH_TOP
 66
1
 70
0
 40
0.000000
 41
0.000000
 39
0.000000
  0
VERTEX
  8
ETCH_TOP
 10
2850.000000
 20
5750.000000
 40
31.000000
 41
31.000000
 42
0.000000
  0
VERTEX
  8
ETCH_TOP
 10
2900.000000
 20
5750.000000
 40
31.000000
 41
31.000000
 42
0.000000
  0
SEQEND
  0
POLYLINE
  8
ETCH_TOP
 66
1
 70
0
 40
0.000000
 41
0.000000
 39
0.000000
  0
VERTEX
  8
ETCH_TOP
 10
2803.000000
 20
5575.000000
 40
31.000000
 41
31.000000
 42
0.000000
  0
VERTEX
  8
ETCH_TOP
 10
2817.000000
 20
5567.000000
 40
31.000000
 41
31.000000
 42
0.000000
  0
SEQEND
  0
POLYLINE
  8
ETCH_TOP
 66
1
 70
0
 40
0.000000
 41
0.000000
 39
0.000000
  0
VERTEX
  8
ETCH_TOP
 10
2675.000000
 20
6053.000000
 40
31.000000
 41
31.000000
 42
0.000000
  0
VERTEX
  8
ETCH_TOP
 10
2700.000000
 20
6096.000000
 40
31.000000
 41
31.000000
 42
0.000000
  0
SEQEND
  0
POLYLINE
  8
ETCH_TOP
 66
1
 70
0
 40
0.000000
 41
0.000000
 39
0.000000
  0
VERTEX
  8
ETCH_TOP
 10
2675.000000
 20
5447.000000
 40
31.000000
 41
31.000000
 42
0.000000
  0
VERTEX
  8
ETCH_TOP
 10
2700.000000
 20
5404.000000
 40
31.000000
 41
31.000000
 42
0.000000
  0
SEQEND
  0
POLYLINE
  8
ETCH_TOP
 66
1
 70
0
 40
0.000000
 41
0.000000
 39
0.000000
  0
VERTEX
  8
ETCH_TOP
 10
2500.000000
 20
5400.000000
 40
31.000000
 41
31.000000
 42
0.000000
  0
VERTEX
  8
ETCH_TOP
 10
2500.000000
 20
5384.000000
 40
31.000000
 41
31.000000
 42
0.000000
  0
SEQEND
  0
POLYLINE
  8
ETCH_TOP
 66
1
 70
0
 40
0.000000
 41
0.000000
 39
0.000000
  0
VERTEX
  8
ETCH_TOP
 10
2325.000000
 20
6053.000000
 40
31.000000
 41
31.000000
 42
0.000000
  0
VERTEX
  8
ETCH_TOP
 10
2300.000000
 20
6096.000000
 40
31.000000
 41
31.000000
 42
0.000000
  0
SEQEND
  0
POLYLINE
  8
ETCH_TOP
 66
1
 70
0
 40
0.000000
 41
0.000000
 39
0.000000
  0
VERTEX
  8
ETCH_TOP
 10
2197.000000
 20
5925.000000
 40
31.000000
 41
31.000000
 42
0.000000
  0
VERTEX
  8
ETCH_TOP
 10
2183.000000
 20
5933.000000
 40
31.000000
 41
31.000000
 42
0.000000
  0
SEQEND
  0
POLYLINE
  8
ETCH_TOP
 66
1
 70
0
 40
0.000000
 41
0.000000
 39
0.000000
  0
VERTEX
  8
ETCH_TOP
 10
2197.000000
 20
5575.000000
 40
31.000000
 41
31.000000
 42
0.000000
  0
VERTEX
  8
ETCH_TOP
 10
2183.000000
 20
5567.000000
 40
31.000000
 41
31.000000
 42
0.000000
  0
SEQEND
  0
POLYLINE
  8
ETCH_TOP
 66
1
 70
0
 40
0.000000
 41
0.000000
 39
0.000000
  0
VERTEX
  8
ETCH_TOP
 10
2325.000000
 20
5447.000000
 40
31.000000
 41
31.000000
 42
0.000000
  0
VERTEX
  8
ETCH_TOP
 10
2300.000000
 20
5404.000000
 40
31.000000
 41
31.000000
 42
0.000000
  0
SEQEND
  0
POLYLINE
  8
ETCH_TOP
 66
1
 70
0
 40
0.000000
 41
0.000000
 39
0.000000
  0
VERTEX
  8
ETCH_TOP
 10
2150.000000
 20
5750.000000
 40
31.000000
 41
31.000000
 42
0.000000
  0
VERTEX
  8
ETCH_TOP
 10
2100.000000
 20
5750.000000
 40
31.000000
 41
31.000000
 42
0.000000
  0
SEQEND
  0
POLYLINE
  8
ETCH_TOP
 66
1
 70
0
 40
0.000000
 41
0.000000
 39
0.000000
  0
VERTEX
  8
ETCH_TOP
 10
3803.000000
 20
5925.000000
 40
31.000000
 41
31.000000
 42
0.000000
  0
VERTEX
  8
ETCH_TOP
 10
3817.000000
 20
5933.000000
 40
31.000000
 41
31.000000
 42
0.000000
  0
SEQEND
  0
POLYLINE
  8
ETCH_TOP
 66
1
 70
0
 40
0.000000
 41
0.000000
 39
0.000000
  0
VERTEX
  8
ETCH_TOP
 10
3850.000000
 20
5750.000000
 40
31.000000
 41
31.000000
 42
0.000000
  0
VERTEX
  8
ETCH_TOP
 10
3900.000000
 20
5750.000000
 40
31.000000
 41
31.000000
 42
0.000000
  0
SEQEND
  0
POLYLINE
  8
ETCH_TOP
 66
1
 70
0
 40
0.000000
 41
0.000000
 39
0.000000
  0
VERTEX
  8
ETCH_TOP
 10
3803.000000
 20
5575.000000
 40
31.000000
 41
31.000000
 42
0.000000
  0
VERTEX
  8
ETCH_TOP
 10
3817.000000
 20
5567.000000
 40
31.000000
 41
31.000000
 42
0.000000
  0
SEQEND
  0
POLYLINE
  8
ETCH_TOP
 66
1
 70
0
 40
0.000000
 41
0.000000
 39
0.000000
  0
VERTEX
  8
ETCH_TOP
 10
3675.000000
 20
6053.000000
 40
31.000000
 41
31.000000
 42
0.000000
  0
VERTEX
  8
ETCH_TOP
 10
3700.000000
 20
6096.000000
 40
31.000000
 41
31.000000
 42
0.000000
  0
SEQEND
  0
POLYLINE
  8
ETCH_TOP
 66
1
 70
0
 40
0.000000
 41
0.000000
 39
0.000000
  0
VERTEX
  8
ETCH_TOP
 10
3675.000000
 20
5447.000000
 40
31.000000
 41
31.000000
 42
0.000000
  0
VERTEX
  8
ETCH_TOP
 10
3700.000000
 20
5404.000000
 40
31.000000
 41
31.000000
 42
0.000000
  0
SEQEND
  0
POLYLINE
  8
ETCH_TOP
 66
1
 70
0
 40
0.000000
 41
0.000000
 39
0.000000
  0
VERTEX
  8
ETCH_TOP
 10
3500.000000
 20
5400.000000
 40
31.000000
 41
31.000000
 42
0.000000
  0
VERTEX
  8
ETCH_TOP
 10
3500.000000
 20
5384.000000
 40
31.000000
 41
31.000000
 42
0.000000
  0
SEQEND
  0
POLYLINE
  8
ETCH_TOP
 66
1
 70
0
 40
0.000000
 41
0.000000
 39
0.000000
  0
VERTEX
  8
ETCH_TOP
 10
3325.000000
 20
6053.000000
 40
31.000000
 41
31.000000
 42
0.000000
  0
VERTEX
  8
ETCH_TOP
 10
3300.000000
 20
6096.000000
 40
31.000000
 41
31.000000
 42
0.000000
  0
SEQEND
  0
POLYLINE
  8
ETCH_TOP
 66
1
 70
0
 40
0.000000
 41
0.000000
 39
0.000000
  0
VERTEX
  8
ETCH_TOP
 10
3197.000000
 20
5925.000000
 40
31.000000
 41
31.000000
 42
0.000000
  0
VERTEX
  8
ETCH_TOP
 10
3183.000000
 20
5933.000000
 40
31.000000
 41
31.000000
 42
0.000000
  0
SEQEND
  0
POLYLINE
  8
ETCH_TOP
 66
1
 70
0
 40
0.000000
 41
0.000000
 39
0.000000
  0
VERTEX
  8
ETCH_TOP
 10
3197.000000
 20
5575.000000
 40
31.000000
 41
31.000000
 42
0.000000
  0
VERTEX
  8
ETCH_TOP
 10
3183.000000
 20
5567.000000
 40
31.000000
 41
31.000000
 42
0.000000
  0
SEQEND
  0
POLYLINE
  8
ETCH_TOP
 66
1
 70
0
 40
0.000000
 41
0.000000
 39
0.000000
  0
VERTEX
  8
ETCH_TOP
 10
3325.000000
 20
5447.000000
 40
31.000000
 41
31.000000
 42
0.000000
  0
VERTEX
  8
ETCH_TOP
 10
3300.000000
 20
5404.000000
 40
31.000000
 41
31.000000
 42
0.000000
  0
SEQEND
  0
POLYLINE
  8
ETCH_TOP
 66
1
 70
0
 40
0.000000
 41
0.000000
 39
0.000000
  0
VERTEX
  8
ETCH_TOP
 10
3150.000000
 20
5750.000000
 40
31.000000
 41
31.000000
 42
0.000000
  0
VERTEX
  8
ETCH_TOP
 10
3100.000000
 20
5750.000000
 40
31.000000
 41
31.000000
 42
0.000000
  0
SEQEND
  0
POLYLINE
  8
ETCH_TOP
 66
1
 70
0
 40
0.000000
 41
0.000000
 39
0.000000
  0
VERTEX
  8
ETCH_TOP
 10
4803.000000
 20
5925.000000
 40
31.000000
 41
31.000000
 42
0.000000
  0
VERTEX
  8
ETCH_TOP
 10
4817.000000
 20
5933.000000
 40
31.000000
 41
31.000000
 42
0.000000
  0
SEQEND
  0
POLYLINE
  8
ETCH_TOP
 66
1
 70
0
 40
0.000000
 41
0.000000
 39
0.000000
  0
VERTEX
  8
ETCH_TOP
 10
4850.000000
 20
5750.000000
 40
31.000000
 41
31.000000
 42
0.000000
  0
VERTEX
  8
ETCH_TOP
 10
4900.000000
 20
5750.000000
 40
31.000000
 41
31.000000
 42
0.000000
  0
SEQEND
  0
POLYLINE
  8
ETCH_TOP
 66
1
 70
0
 40
0.000000
 41
0.000000
 39
0.000000
  0
VERTEX
  8
ETCH_TOP
 10
4803.000000
 20
5575.000000
 40
31.000000
 41
31.000000
 42
0.000000
  0
VERTEX
  8
ETCH_TOP
 10
4817.000000
 20
5567.000000
 40
31.000000
 41
31.000000
 42
0.000000
  0
SEQEND
  0
POLYLINE
  8
ETCH_TOP
 66
1
 70
0
 40
0.000000
 41
0.000000
 39
0.000000
  0
VERTEX
  8
ETCH_TOP
 10
4675.000000
 20
6053.000000
 40
31.000000
 41
31.000000
 42
0.000000
  0
VERTEX
  8
ETCH_TOP
 10
4700.000000
 20
6096.000000
 40
31.000000
 41
31.000000
 42
0.000000
  0
SEQEND
  0
POLYLINE
  8
ETCH_TOP
 66
1
 70
0
 40
0.000000
 41
0.000000
 39
0.000000
  0
VERTEX
  8
ETCH_TOP
 10
4675.000000
 20
5447.000000
 40
31.000000
 41
31.000000
 42
0.000000
  0
VERTEX
  8
ETCH_TOP
 10
4700.000000
 20
5404.000000
 40
31.000000
 41
31.000000
 42
0.000000
  0
SEQEND
  0
POLYLINE
  8
ETCH_TOP
 66
1
 70
0
 40
0.000000
 41
0.000000
 39
0.000000
  0
VERTEX
  8
ETCH_TOP
 10
4500.000000
 20
5400.000000
 40
31.000000
 41
31.000000
 42
0.000000
  0
VERTEX
  8
ETCH_TOP
 10
4500.000000
 20
5384.000000
 40
31.000000
 41
31.000000
 42
0.000000
  0
SEQEND
  0
POLYLINE
  8
ETCH_TOP
 66
1
 70
0
 40
0.000000
 41
0.000000
 39
0.000000
  0
VERTEX
  8
ETCH_TOP
 10
4325.000000
 20
6053.000000
 40
31.000000
 41
31.000000
 42
0.000000
  0
VERTEX
  8
ETCH_TOP
 10
4300.000000
 20
6096.000000
 40
31.000000
 41
31.000000
 42
0.000000
  0
SEQEND
  0
POLYLINE
  8
ETCH_TOP
 66
1
 70
0
 40
0.000000
 41
0.000000
 39
0.000000
  0
VERTEX
  8
ETCH_TOP
 10
4197.000000
 20
5925.000000
 40
31.000000
 41
31.000000
 42
0.000000
  0
VERTEX
  8
ETCH_TOP
 10
4183.000000
 20
5933.000000
 40
31.000000
 41
31.000000
 42
0.000000
  0
SEQEND
  0
POLYLINE
  8
ETCH_TOP
 66
1
 70
0
 40
0.000000
 41
0.000000
 39
0.000000
  0
VERTEX
  8
ETCH_TOP
 10
4197.000000
 20
5575.000000
 40
31.000000
 41
31.000000
 42
0.000000
  0
VERTEX
  8
ETCH_TOP
 10
4183.000000
 20
5567.000000
 40
31.000000
 41
31.000000
 42
0.000000
  0
SEQEND
  0
POLYLINE
  8
ETCH_TOP
 66
1
 70
0
 40
0.000000
 41
0.000000
 39
0.000000
  0
VERTEX
  8
ETCH_TOP
 10
4325.000000
 20
5447.000000
 40
31.000000
 41
31.000000
 42
0.000000
  0
VERTEX
  8
ETCH_TOP
 10
4300.000000
 20
5404.000000
 40
31.000000
 41
31.000000
 42
0.000000
  0
SEQEND
  0
POLYLINE
  8
ETCH_TOP
 66
1
 70
0
 40
0.000000
 41
0.000000
 39
0.000000
  0
VERTEX
  8
ETCH_TOP
 10
4150.000000
 20
5750.000000
 40
31.000000
 41
31.000000
 42
0.000000
  0
VERTEX
  8
ETCH_TOP
 10
4100.000000
 20
5750.000000
 40
31.000000
 41
31.000000
 42
0.000000
  0
SEQEND
  0
POLYLINE
  8
ETCH_TOP
 66
1
 70
0
 40
0.000000
 41
0.000000
 39
0.000000
  0
VERTEX
  8
ETCH_TOP
 10
5803.000000
 20
5925.000000
 40
31.000000
 41
31.000000
 42
0.000000
  0
VERTEX
  8
ETCH_TOP
 10
5817.000000
 20
5933.000000
 40
31.000000
 41
31.000000
 42
0.000000
  0
SEQEND
  0
POLYLINE
  8
ETCH_TOP
 66
1
 70
0
 40
0.000000
 41
0.000000
 39
0.000000
  0
VERTEX
  8
ETCH_TOP
 10
5850.000000
 20
5750.000000
 40
31.000000
 41
31.000000
 42
0.000000
  0
VERTEX
  8
ETCH_TOP
 10
5900.000000
 20
5750.000000
 40
31.000000
 41
31.000000
 42
0.000000
  0
SEQEND
  0
POLYLINE
  8
ETCH_TOP
 66
1
 70
0
 40
0.000000
 41
0.000000
 39
0.000000
  0
VERTEX
  8
ETCH_TOP
 10
5803.000000
 20
5575.000000
 40
31.000000
 41
31.000000
 42
0.000000
  0
VERTEX
  8
ETCH_TOP
 10
5817.000000
 20
5567.000000
 40
31.000000
 41
31.000000
 42
0.000000
  0
SEQEND
  0
POLYLINE
  8
ETCH_TOP
 66
1
 70
0
 40
0.000000
 41
0.000000
 39
0.000000
  0
VERTEX
  8
ETCH_TOP
 10
5675.000000
 20
6053.000000
 40
31.000000
 41
31.000000
 42
0.000000
  0
VERTEX
  8
ETCH_TOP
 10
5700.000000
 20
6096.000000
 40
31.000000
 41
31.000000
 42
0.000000
  0
SEQEND
  0
POLYLINE
  8
ETCH_TOP
 66
1
 70
0
 40
0.000000
 41
0.000000
 39
0.000000
  0
VERTEX
  8
ETCH_TOP
 10
5675.000000
 20
5447.000000
 40
31.000000
 41
31.000000
 42
0.000000
  0
VERTEX
  8
ETCH_TOP
 10
5700.000000
 20
5404.000000
 40
31.000000
 41
31.000000
 42
0.000000
  0
SEQEND
  0
POLYLINE
  8
ETCH_TOP
 66
1
 70
0
 40
0.000000
 41
0.000000
 39
0.000000
  0
VERTEX
  8
ETCH_TOP
 10
5500.000000
 20
5400.000000
 40
31.000000
 41
31.000000
 42
0.000000
  0
VERTEX
  8
ETCH_TOP
 10
5500.000000
 20
5384.000000
 40
31.000000
 41
31.000000
 42
0.000000
  0
SEQEND
  0
POLYLINE
  8
ETCH_TOP
 66
1
 70
0
 40
0.000000
 41
0.000000
 39
0.000000
  0
VERTEX
  8
ETCH_TOP
 10
5325.000000
 20
6053.000000
 40
31.000000
 41
31.000000
 42
0.000000
  0
VERTEX
  8
ETCH_TOP
 10
5300.000000
 20
6096.000000
 40
31.000000
 41
31.000000
 42
0.000000
  0
SEQEND
  0
POLYLINE
  8
ETCH_TOP
 66
1
 70
0
 40
0.000000
 41
0.000000
 39
0.000000
  0
VERTEX
  8
ETCH_TOP
 10
5197.000000
 20
5925.000000
 40
31.000000
 41
31.000000
 42
0.000000
  0
VERTEX
  8
ETCH_TOP
 10
5183.000000
 20
5933.000000
 40
31.000000
 41
31.000000
 42
0.000000
  0
SEQEND
  0
POLYLINE
  8
ETCH_TOP
 66
1
 70
0
 40
0.000000
 41
0.000000
 39
0.000000
  0
VERTEX
  8
ETCH_TOP
 10
5197.000000
 20
5575.000000
 40
31.000000
 41
31.000000
 42
0.000000
  0
VERTEX
  8
ETCH_TOP
 10
5183.000000
 20
5567.000000
 40
31.000000
 41
31.000000
 42
0.000000
  0
SEQEND
  0
POLYLINE
  8
ETCH_TOP
 66
1
 70
0
 40
0.000000
 41
0.000000
 39
0.000000
  0
VERTEX
  8
ETCH_TOP
 10
5325.000000
 20
5447.000000
 40
31.000000
 41
31.000000
 42
0.000000
  0
VERTEX
  8
ETCH_TOP
 10
5300.000000
 20
5404.000000
 40
31.000000
 41
31.000000
 42
0.000000
  0
SEQEND
  0
POLYLINE
  8
ETCH_TOP
 66
1
 70
0
 40
0.000000
 41
0.000000
 39
0.000000
  0
VERTEX
  8
ETCH_TOP
 10
5150.000000
 20
5750.000000
 40
31.000000
 41
31.000000
 42
0.000000
  0
VERTEX
  8
ETCH_TOP
 10
5100.000000
 20
5750.000000
 40
31.000000
 41
31.000000
 42
0.000000
  0
SEQEND
  0
POLYLINE
  8
ETCH_TOP
 66
1
 70
0
 40
0.000000
 41
0.000000
 39
0.000000
  0
VERTEX
  8
ETCH_TOP
 10
6803.000000
 20
5925.000000
 40
31.000000
 41
31.000000
 42
0.000000
  0
VERTEX
  8
ETCH_TOP
 10
6817.000000
 20
5933.000000
 40
31.000000
 41
31.000000
 42
0.000000
  0
SEQEND
  0
POLYLINE
  8
ETCH_TOP
 66
1
 70
0
 40
0.000000
 41
0.000000
 39
0.000000
  0
VERTEX
  8
ETCH_TOP
 10
6850.000000
 20
5750.000000
 40
31.000000
 41
31.000000
 42
0.000000
  0
VERTEX
  8
ETCH_TOP
 10
6900.000000
 20
5750.000000
 40
31.000000
 41
31.000000
 42
0.000000
  0
SEQEND
  0
POLYLINE
  8
ETCH_TOP
 66
1
 70
0
 40
0.000000
 41
0.000000
 39
0.000000
  0
VERTEX
  8
ETCH_TOP
 10
6803.000000
 20
5575.000000
 40
31.000000
 41
31.000000
 42
0.000000
  0
VERTEX
  8
ETCH_TOP
 10
6817.000000
 20
5567.000000
 40
31.000000
 41
31.000000
 42
0.000000
  0
SEQEND
  0
POLYLINE
  8
ETCH_TOP
 66
1
 70
0
 40
0.000000
 41
0.000000
 39
0.000000
  0
VERTEX
  8
ETCH_TOP
 10
6675.000000
 20
6053.000000
 40
31.000000
 41
31.000000
 42
0.000000
  0
VERTEX
  8
ETCH_TOP
 10
6700.000000
 20
6096.000000
 40
31.000000
 41
31.000000
 42
0.000000
  0
SEQEND
  0
POLYLINE
  8
ETCH_TOP
 66
1
 70
0
 40
0.000000
 41
0.000000
 39
0.000000
  0
VERTEX
  8
ETCH_TOP
 10
6675.000000
 20
5447.000000
 40
31.000000
 41
31.000000
 42
0.000000
  0
VERTEX
  8
ETCH_TOP
 10
6700.000000
 20
5404.000000
 40
31.000000
 41
31.000000
 42
0.000000
  0
SEQEND
  0
POLYLINE
  8
ETCH_TOP
 66
1
 70
0
 40
0.000000
 41
0.000000
 39
0.000000
  0
VERTEX
  8
ETCH_TOP
 10
6500.000000
 20
5400.000000
 40
31.000000
 41
31.000000
 42
0.000000
  0
VERTEX
  8
ETCH_TOP
 10
6500.000000
 20
5384.000000
 40
31.000000
 41
31.000000
 42
0.000000
  0
SEQEND
  0
POLYLINE
  8
ETCH_TOP
 66
1
 70
0
 40
0.000000
 41
0.000000
 39
0.000000
  0
VERTEX
  8
ETCH_TOP
 10
6325.000000
 20
6053.000000
 40
31.000000
 41
31.000000
 42
0.000000
  0
VERTEX
  8
ETCH_TOP
 10
6300.000000
 20
6096.000000
 40
31.000000
 41
31.000000
 42
0.000000
  0
SEQEND
  0
POLYLINE
  8
ETCH_TOP
 66
1
 70
0
 40
0.000000
 41
0.000000
 39
0.000000
  0
VERTEX
  8
ETCH_TOP
 10
6197.000000
 20
5925.000000
 40
31.000000
 41
31.000000
 42
0.000000
  0
VERTEX
  8
ETCH_TOP
 10
6183.000000
 20
5933.000000
 40
31.000000
 41
31.000000
 42
0.000000
  0
SEQEND
  0
POLYLINE
  8
ETCH_TOP
 66
1
 70
0
 40
0.000000
 41
0.000000
 39
0.000000
  0
VERTEX
  8
ETCH_TOP
 10
6197.000000
 20
5575.000000
 40
31.000000
 41
31.000000
 42
0.000000
  0
VERTEX
  8
ETCH_TOP
 10
6183.000000
 20
5567.000000
 40
31.000000
 41
31.000000
 42
0.000000
  0
SEQEND
  0
POLYLINE
  8
ETCH_TOP
 66
1
 70
0
 40
0.000000
 41
0.000000
 39
0.000000
  0
VERTEX
  8
ETCH_TOP
 10
6325.000000
 20
5447.000000
 40
31.000000
 41
31.000000
 42
0.000000
  0
VERTEX
  8
ETCH_TOP
 10
6300.000000
 20
5404.000000
 40
31.000000
 41
31.000000
 42
0.000000
  0
SEQEND
  0
POLYLINE
  8
ETCH_TOP
 66
1
 70
0
 40
0.000000
 41
0.000000
 39
0.000000
  0
VERTEX
  8
ETCH_TOP
 10
6150.000000
 20
5750.000000
 40
31.000000
 41
31.000000
 42
0.000000
  0
VERTEX
  8
ETCH_TOP
 10
6100.000000
 20
5750.000000
 40
31.000000
 41
31.000000
 42
0.000000
  0
SEQEND
  0
POLYLINE
  8
ETCH_TOP
 66
1
 70
0
 40
0.000000
 41
0.000000
 39
0.000000
  0
VERTEX
  8
ETCH_TOP
 10
7803.000000
 20
5925.000000
 40
31.000000
 41
31.000000
 42
0.000000
  0
VERTEX
  8
ETCH_TOP
 10
7817.000000
 20
5933.000000
 40
31.000000
 41
31.000000
 42
0.000000
  0
SEQEND
  0
POLYLINE
  8
ETCH_TOP
 66
1
 70
0
 40
0.000000
 41
0.000000
 39
0.000000
  0
VERTEX
  8
ETCH_TOP
 10
7850.000000
 20
5750.000000
 40
31.000000
 41
31.000000
 42
0.000000
  0
VERTEX
  8
ETCH_TOP
 10
7900.000000
 20
5750.000000
 40
31.000000
 41
31.000000
 42
0.000000
  0
SEQEND
  0
POLYLINE
  8
ETCH_TOP
 66
1
 70
0
 40
0.000000
 41
0.000000
 39
0.000000
  0
VERTEX
  8
ETCH_TOP
 10
7803.000000
 20
5575.000000
 40
31.000000
 41
31.000000
 42
0.000000
  0
VERTEX
  8
ETCH_TOP
 10
7817.000000
 20
5567.000000
 40
31.000000
 41
31.000000
 42
0.000000
  0
SEQEND
  0
POLYLINE
  8
ETCH_TOP
 66
1
 70
0
 40
0.000000
 41
0.000000
 39
0.000000
  0
VERTEX
  8
ETCH_TOP
 10
7675.000000
 20
6053.000000
 40
31.000000
 41
31.000000
 42
0.000000
  0
VERTEX
  8
ETCH_TOP
 10
7700.000000
 20
6096.000000
 40
31.000000
 41
31.000000
 42
0.000000
  0
SEQEND
  0
POLYLINE
  8
ETCH_TOP
 66
1
 70
0
 40
0.000000
 41
0.000000
 39
0.000000
  0
VERTEX
  8
ETCH_TOP
 10
7675.000000
 20
5447.000000
 40
31.000000
 41
31.000000
 42
0.000000
  0
VERTEX
  8
ETCH_TOP
 10
7700.000000
 20
5404.000000
 40
31.000000
 41
31.000000
 42
0.000000
  0
SEQEND
  0
POLYLINE
  8
ETCH_TOP
 66
1
 70
0
 40
0.000000
 41
0.000000
 39
0.000000
  0
VERTEX
  8
ETCH_TOP
 10
7500.000000
 20
5400.000000
 40
31.000000
 41
31.000000
 42
0.000000
  0
VERTEX
  8
ETCH_TOP
 10
7500.000000
 20
5384.000000
 40
31.000000
 41
31.000000
 42
0.000000
  0
SEQEND
  0
POLYLINE
  8
ETCH_TOP
 66
1
 70
0
 40
0.000000
 41
0.000000
 39
0.000000
  0
VERTEX
  8
ETCH_TOP
 10
7325.000000
 20
6053.000000
 40
31.000000
 41
31.000000
 42
0.000000
  0
VERTEX
  8
ETCH_TOP
 10
7300.000000
 20
6096.000000
 40
31.000000
 41
31.000000
 42
0.000000
  0
SEQEND
  0
POLYLINE
  8
ETCH_TOP
 66
1
 70
0
 40
0.000000
 41
0.000000
 39
0.000000
  0
VERTEX
  8
ETCH_TOP
 10
7197.000000
 20
5925.000000
 40
31.000000
 41
31.000000
 42
0.000000
  0
VERTEX
  8
ETCH_TOP
 10
7183.000000
 20
5933.000000
 40
31.000000
 41
31.000000
 42
0.000000
  0
SEQEND
  0
POLYLINE
  8
ETCH_TOP
 66
1
 70
0
 40
0.000000
 41
0.000000
 39
0.000000
  0
VERTEX
  8
ETCH_TOP
 10
7197.000000
 20
5575.000000
 40
31.000000
 41
31.000000
 42
0.000000
  0
VERTEX
  8
ETCH_TOP
 10
7183.000000
 20
5567.000000
 40
31.000000
 41
31.000000
 42
0.000000
  0
SEQEND
  0
POLYLINE
  8
ETCH_TOP
 66
1
 70
0
 40
0.000000
 41
0.000000
 39
0.000000
  0
VERTEX
  8
ETCH_TOP
 10
7325.000000
 20
5447.000000
 40
31.000000
 41
31.000000
 42
0.000000
  0
VERTEX
  8
ETCH_TOP
 10
7300.000000
 20
5404.000000
 40
31.000000
 41
31.000000
 42
0.000000
  0
SEQEND
  0
POLYLINE
  8
ETCH_TOP
 66
1
 70
0
 40
0.000000
 41
0.000000
 39
0.000000
  0
VERTEX
  8
ETCH_TOP
 10
7150.000000
 20
5750.000000
 40
31.000000
 41
31.000000
 42
0.000000
  0
VERTEX
  8
ETCH_TOP
 10
7100.000000
 20
5750.000000
 40
31.000000
 41
31.000000
 42
0.000000
  0
SEQEND
  0
POLYLINE
  8
ETCH_TOP
 66
1
 70
0
 40
0.000000
 41
0.000000
 39
0.000000
  0
VERTEX
  8
ETCH_TOP
 10
8303.000000
 20
4925.000000
 40
31.000000
 41
31.000000
 42
0.000000
  0
VERTEX
  8
ETCH_TOP
 10
8317.000000
 20
4933.000000
 40
31.000000
 41
31.000000
 42
0.000000
  0
SEQEND
  0
POLYLINE
  8
ETCH_TOP
 66
1
 70
0
 40
0.000000
 41
0.000000
 39
0.000000
  0
VERTEX
  8
ETCH_TOP
 10
8350.000000
 20
4750.000000
 40
31.000000
 41
31.000000
 42
0.000000
  0
VERTEX
  8
ETCH_TOP
 10
8400.000000
 20
4750.000000
 40
31.000000
 41
31.000000
 42
0.000000
  0
SEQEND
  0
POLYLINE
  8
ETCH_TOP
 66
1
 70
0
 40
0.000000
 41
0.000000
 39
0.000000
  0
VERTEX
  8
ETCH_TOP
 10
8303.000000
 20
4575.000000
 40
31.000000
 41
31.000000
 42
0.000000
  0
VERTEX
  8
ETCH_TOP
 10
8317.000000
 20
4567.000000
 40
31.000000
 41
31.000000
 42
0.000000
  0
SEQEND
  0
POLYLINE
  8
ETCH_TOP
 66
1
 70
0
 40
0.000000
 41
0.000000
 39
0.000000
  0
VERTEX
  8
ETCH_TOP
 10
8175.000000
 20
5053.000000
 40
31.000000
 41
31.000000
 42
0.000000
  0
VERTEX
  8
ETCH_TOP
 10
8200.000000
 20
5096.000000
 40
31.000000
 41
31.000000
 42
0.000000
  0
SEQEND
  0
POLYLINE
  8
ETCH_TOP
 66
1
 70
0
 40
0.000000
 41
0.000000
 39
0.000000
  0
VERTEX
  8
ETCH_TOP
 10
8175.000000
 20
4447.000000
 40
31.000000
 41
31.000000
 42
0.000000
  0
VERTEX
  8
ETCH_TOP
 10
8200.000000
 20
4404.000000
 40
31.000000
 41
31.000000
 42
0.000000
  0
SEQEND
  0
POLYLINE
  8
ETCH_TOP
 66
1
 70
0
 40
0.000000
 41
0.000000
 39
0.000000
  0
VERTEX
  8
ETCH_TOP
 10
8000.000000
 20
4400.000000
 40
31.000000
 41
31.000000
 42
0.000000
  0
VERTEX
  8
ETCH_TOP
 10
8000.000000
 20
4384.000000
 40
31.000000
 41
31.000000
 42
0.000000
  0
SEQEND
  0
POLYLINE
  8
ETCH_TOP
 66
1
 70
0
 40
0.000000
 41
0.000000
 39
0.000000
  0
VERTEX
  8
ETCH_TOP
 10
7825.000000
 20
5053.000000
 40
31.000000
 41
31.000000
 42
0.000000
  0
VERTEX
  8
ETCH_TOP
 10
7800.000000
 20
5096.000000
 40
31.000000
 41
31.000000
 42
0.000000
  0
SEQEND
  0
POLYLINE
  8
ETCH_TOP
 66
1
 70
0
 40
0.000000
 41
0.000000
 39
0.000000
  0
VERTEX
  8
ETCH_TOP
 10
7697.000000
 20
4925.000000
 40
31.000000
 41
31.000000
 42
0.000000
  0
VERTEX
  8
ETCH_TOP
 10
7683.000000
 20
4933.000000
 40
31.000000
 41
31.000000
 42
0.000000
  0
SEQEND
  0
POLYLINE
  8
ETCH_TOP
 66
1
 70
0
 40
0.000000
 41
0.000000
 39
0.000000
  0
VERTEX
  8
ETCH_TOP
 10
7697.000000
 20
4575.000000
 40
31.000000
 41
31.000000
 42
0.000000
  0
VERTEX
  8
ETCH_TOP
 10
7683.000000
 20
4567.000000
 40
31.000000
 41
31.000000
 42
0.000000
  0
SEQEND
  0
POLYLINE
  8
ETCH_TOP
 66
1
 70
0
 40
0.000000
 41
0.000000
 39
0.000000
  0
VERTEX
  8
ETCH_TOP
 10
7825.000000
 20
4447.000000
 40
31.000000
 41
31.000000
 42
0.000000
  0
VERTEX
  8
ETCH_TOP
 10
7800.000000
 20
4404.000000
 40
31.000000
 41
31.000000
 42
0.000000
  0
SEQEND
  0
POLYLINE
  8
ETCH_TOP
 66
1
 70
0
 40
0.000000
 41
0.000000
 39
0.000000
  0
VERTEX
  8
ETCH_TOP
 10
7650.000000
 20
4750.000000
 40
31.000000
 41
31.000000
 42
0.000000
  0
VERTEX
  8
ETCH_TOP
 10
7600.000000
 20
4750.000000
 40
31.000000
 41
31.000000
 42
0.000000
  0
SEQEND
  0
POLYLINE
  8
ETCH_TOP
 66
1
 70
0
 40
0.000000
 41
0.000000
 39
0.000000
  0
VERTEX
  8
ETCH_TOP
 10
7303.000000
 20
4925.000000
 40
31.000000
 41
31.000000
 42
0.000000
  0
VERTEX
  8
ETCH_TOP
 10
7317.000000
 20
4933.000000
 40
31.000000
 41
31.000000
 42
0.000000
  0
SEQEND
  0
POLYLINE
  8
ETCH_TOP
 66
1
 70
0
 40
0.000000
 41
0.000000
 39
0.000000
  0
VERTEX
  8
ETCH_TOP
 10
7350.000000
 20
4750.000000
 40
31.000000
 41
31.000000
 42
0.000000
  0
VERTEX
  8
ETCH_TOP
 10
7400.000000
 20
4750.000000
 40
31.000000
 41
31.000000
 42
0.000000
  0
SEQEND
  0
POLYLINE
  8
ETCH_TOP
 66
1
 70
0
 40
0.000000
 41
0.000000
 39
0.000000
  0
VERTEX
  8
ETCH_TOP
 10
7303.000000
 20
4575.000000
 40
31.000000
 41
31.000000
 42
0.000000
  0
VERTEX
  8
ETCH_TOP
 10
7317.000000
 20
4567.000000
 40
31.000000
 41
31.000000
 42
0.000000
  0
SEQEND
  0
POLYLINE
  8
ETCH_TOP
 66
1
 70
0
 40
0.000000
 41
0.000000
 39
0.000000
  0
VERTEX
  8
ETCH_TOP
 10
7175.000000
 20
5053.000000
 40
31.000000
 41
31.000000
 42
0.000000
  0
VERTEX
  8
ETCH_TOP
 10
7200.000000
 20
5096.000000
 40
31.000000
 41
31.000000
 42
0.000000
  0
SEQEND
  0
POLYLINE
  8
ETCH_TOP
 66
1
 70
0
 40
0.000000
 41
0.000000
 39
0.000000
  0
VERTEX
  8
ETCH_TOP
 10
7175.000000
 20
4447.000000
 40
31.000000
 41
31.000000
 42
0.000000
  0
VERTEX
  8
ETCH_TOP
 10
7200.000000
 20
4404.000000
 40
31.000000
 41
31.000000
 42
0.000000
  0
SEQEND
  0
POLYLINE
  8
ETCH_TOP
 66
1
 70
0
 40
0.000000
 41
0.000000
 39
0.000000
  0
VERTEX
  8
ETCH_TOP
 10
7000.000000
 20
4400.000000
 40
31.000000
 41
31.000000
 42
0.000000
  0
VERTEX
  8
ETCH_TOP
 10
7000.000000
 20
4384.000000
 40
31.000000
 41
31.000000
 42
0.000000
  0
SEQEND
  0
POLYLINE
  8
ETCH_TOP
 66
1
 70
0
 40
0.000000
 41
0.000000
 39
0.000000
  0
VERTEX
  8
ETCH_TOP
 10
6825.000000
 20
5053.000000
 40
31.000000
 41
31.000000
 42
0.000000
  0
VERTEX
  8
ETCH_TOP
 10
6800.000000
 20
5096.000000
 40
31.000000
 41
31.000000
 42
0.000000
  0
SEQEND
  0
POLYLINE
  8
ETCH_TOP
 66
1
 70
0
 40
0.000000
 41
0.000000
 39
0.000000
  0
VERTEX
  8
ETCH_TOP
 10
6697.000000
 20
4925.000000
 40
31.000000
 41
31.000000
 42
0.000000
  0
VERTEX
  8
ETCH_TOP
 10
6683.000000
 20
4933.000000
 40
31.000000
 41
31.000000
 42
0.000000
  0
SEQEND
  0
POLYLINE
  8
ETCH_TOP
 66
1
 70
0
 40
0.000000
 41
0.000000
 39
0.000000
  0
VERTEX
  8
ETCH_TOP
 10
6697.000000
 20
4575.000000
 40
31.000000
 41
31.000000
 42
0.000000
  0
VERTEX
  8
ETCH_TOP
 10
6683.000000
 20
4567.000000
 40
31.000000
 41
31.000000
 42
0.000000
  0
SEQEND
  0
POLYLINE
  8
ETCH_TOP
 66
1
 70
0
 40
0.000000
 41
0.000000
 39
0.000000
  0
VERTEX
  8
ETCH_TOP
 10
6825.000000
 20
4447.000000
 40
31.000000
 41
31.000000
 42
0.000000
  0
VERTEX
  8
ETCH_TOP
 10
6800.000000
 20
4404.000000
 40
31.000000
 41
31.000000
 42
0.000000
  0
SEQEND
  0
POLYLINE
  8
ETCH_TOP
 66
1
 70
0
 40
0.000000
 41
0.000000
 39
0.000000
  0
VERTEX
  8
ETCH_TOP
 10
6650.000000
 20
4750.000000
 40
31.000000
 41
31.000000
 42
0.000000
  0
VERTEX
  8
ETCH_TOP
 10
6600.000000
 20
4750.000000
 40
31.000000
 41
31.000000
 42
0.000000
  0
SEQEND
  0
POLYLINE
  8
ETCH_TOP
 66
1
 70
0
 40
0.000000
 41
0.000000
 39
0.000000
  0
VERTEX
  8
ETCH_TOP
 10
6303.000000
 20
4925.000000
 40
31.000000
 41
31.000000
 42
0.000000
  0
VERTEX
  8
ETCH_TOP
 10
6317.000000
 20
4933.000000
 40
31.000000
 41
31.000000
 42
0.000000
  0
SEQEND
  0
POLYLINE
  8
ETCH_TOP
 66
1
 70
0
 40
0.000000
 41
0.000000
 39
0.000000
  0
VERTEX
  8
ETCH_TOP
 10
6350.000000
 20
4750.000000
 40
31.000000
 41
31.000000
 42
0.000000
  0
VERTEX
  8
ETCH_TOP
 10
6400.000000
 20
4750.000000
 40
31.000000
 41
31.000000
 42
0.000000
  0
SEQEND
  0
POLYLINE
  8
ETCH_TOP
 66
1
 70
0
 40
0.000000
 41
0.000000
 39
0.000000
  0
VERTEX
  8
ETCH_TOP
 10
6303.000000
 20
4575.000000
 40
31.000000
 41
31.000000
 42
0.000000
  0
VERTEX
  8
ETCH_TOP
 10
6317.000000
 20
4567.000000
 40
31.000000
 41
31.000000
 42
0.000000
  0
SEQEND
  0
POLYLINE
  8
ETCH_TOP
 66
1
 70
0
 40
0.000000
 41
0.000000
 39
0.000000
  0
VERTEX
  8
ETCH_TOP
 10
6175.000000
 20
5053.000000
 40
31.000000
 41
31.000000
 42
0.000000
  0
VERTEX
  8
ETCH_TOP
 10
6200.000000
 20
5096.000000
 40
31.000000
 41
31.000000
 42
0.000000
  0
SEQEND
  0
POLYLINE
  8
ETCH_TOP
 66
1
 70
0
 40
0.000000
 41
0.000000
 39
0.000000
  0
VERTEX
  8
ETCH_TOP
 10
6175.000000
 20
4447.000000
 40
31.000000
 41
31.000000
 42
0.000000
  0
VERTEX
  8
ETCH_TOP
 10
6200.000000
 20
4404.000000
 40
31.000000
 41
31.000000
 42
0.000000
  0
SEQEND
  0
POLYLINE
  8
ETCH_TOP
 66
1
 70
0
 40
0.000000
 41
0.000000
 39
0.000000
  0
VERTEX
  8
ETCH_TOP
 10
6000.000000
 20
4400.000000
 40
31.000000
 41
31.000000
 42
0.000000
  0
VERTEX
  8
ETCH_TOP
 10
6000.000000
 20
4384.000000
 40
31.000000
 41
31.000000
 42
0.000000
  0
SEQEND
  0
POLYLINE
  8
ETCH_TOP
 66
1
 70
0
 40
0.000000
 41
0.000000
 39
0.000000
  0
VERTEX
  8
ETCH_TOP
 10
5825.000000
 20
5053.000000
 40
31.000000
 41
31.000000
 42
0.000000
  0
VERTEX
  8
ETCH_TOP
 10
5800.000000
 20
5096.000000
 40
31.000000
 41
31.000000
 42
0.000000
  0
SEQEND
  0
POLYLINE
  8
ETCH_TOP
 66
1
 70
0
 40
0.000000
 41
0.000000
 39
0.000000
  0
VERTEX
  8
ETCH_TOP
 10
5697.000000
 20
4925.000000
 40
31.000000
 41
31.000000
 42
0.000000
  0
VERTEX
  8
ETCH_TOP
 10
5683.000000
 20
4933.000000
 40
31.000000
 41
31.000000
 42
0.000000
  0
SEQEND
  0
POLYLINE
  8
ETCH_TOP
 66
1
 70
0
 40
0.000000
 41
0.000000
 39
0.000000
  0
VERTEX
  8
ETCH_TOP
 10
5697.000000
 20
4575.000000
 40
31.000000
 41
31.000000
 42
0.000000
  0
VERTEX
  8
ETCH_TOP
 10
5683.000000
 20
4567.000000
 40
31.000000
 41
31.000000
 42
0.000000
  0
SEQEND
  0
POLYLINE
  8
ETCH_TOP
 66
1
 70
0
 40
0.000000
 41
0.000000
 39
0.000000
  0
VERTEX
  8
ETCH_TOP
 10
5825.000000
 20
4447.000000
 40
31.000000
 41
31.000000
 42
0.000000
  0
VERTEX
  8
ETCH_TOP
 10
5800.000000
 20
4404.000000
 40
31.000000
 41
31.000000
 42
0.000000
  0
SEQEND
  0
POLYLINE
  8
ETCH_TOP
 66
1
 70
0
 40
0.000000
 41
0.000000
 39
0.000000
  0
VERTEX
  8
ETCH_TOP
 10
5650.000000
 20
4750.000000
 40
31.000000
 41
31.000000
 42
0.000000
  0
VERTEX
  8
ETCH_TOP
 10
5600.000000
 20
4750.000000
 40
31.000000
 41
31.000000
 42
0.000000
  0
SEQEND
  0
POLYLINE
  8
ETCH_TOP
 66
1
 70
0
 40
0.000000
 41
0.000000
 39
0.000000
  0
VERTEX
  8
ETCH_TOP
 10
5303.000000
 20
4925.000000
 40
31.000000
 41
31.000000
 42
0.000000
  0
VERTEX
  8
ETCH_TOP
 10
5317.000000
 20
4933.000000
 40
31.000000
 41
31.000000
 42
0.000000
  0
SEQEND
  0
POLYLINE
  8
ETCH_TOP
 66
1
 70
0
 40
0.000000
 41
0.000000
 39
0.000000
  0
VERTEX
  8
ETCH_TOP
 10
5350.000000
 20
4750.000000
 40
31.000000
 41
31.000000
 42
0.000000
  0
VERTEX
  8
ETCH_TOP
 10
5400.000000
 20
4750.000000
 40
31.000000
 41
31.000000
 42
0.000000
  0
SEQEND
  0
POLYLINE
  8
ETCH_TOP
 66
1
 70
0
 40
0.000000
 41
0.000000
 39
0.000000
  0
VERTEX
  8
ETCH_TOP
 10
5303.000000
 20
4575.000000
 40
31.000000
 41
31.000000
 42
0.000000
  0
VERTEX
  8
ETCH_TOP
 10
5317.000000
 20
4567.000000
 40
31.000000
 41
31.000000
 42
0.000000
  0
SEQEND
  0
POLYLINE
  8
ETCH_TOP
 66
1
 70
0
 40
0.000000
 41
0.000000
 39
0.000000
  0
VERTEX
  8
ETCH_TOP
 10
5175.000000
 20
5053.000000
 40
31.000000
 41
31.000000
 42
0.000000
  0
VERTEX
  8
ETCH_TOP
 10
5200.000000
 20
5096.000000
 40
31.000000
 41
31.000000
 42
0.000000
  0
SEQEND
  0
POLYLINE
  8
ETCH_TOP
 66
1
 70
0
 40
0.000000
 41
0.000000
 39
0.000000
  0
VERTEX
  8
ETCH_TOP
 10
5175.000000
 20
4447.000000
 40
31.000000
 41
31.000000
 42
0.000000
  0
VERTEX
  8
ETCH_TOP
 10
5200.000000
 20
4404.000000
 40
31.000000
 41
31.000000
 42
0.000000
  0
SEQEND
  0
POLYLINE
  8
ETCH_TOP
 66
1
 70
0
 40
0.000000
 41
0.000000
 39
0.000000
  0
VERTEX
  8
ETCH_TOP
 10
5000.000000
 20
4400.000000
 40
31.000000
 41
31.000000
 42
0.000000
  0
VERTEX
  8
ETCH_TOP
 10
5000.000000
 20
4384.000000
 40
31.000000
 41
31.000000
 42
0.000000
  0
SEQEND
  0
POLYLINE
  8
ETCH_TOP
 66
1
 70
0
 40
0.000000
 41
0.000000
 39
0.000000
  0
VERTEX
  8
ETCH_TOP
 10
4825.000000
 20
5053.000000
 40
31.000000
 41
31.000000
 42
0.000000
  0
VERTEX
  8
ETCH_TOP
 10
4800.000000
 20
5096.000000
 40
31.000000
 41
31.000000
 42
0.000000
  0
SEQEND
  0
POLYLINE
  8
ETCH_TOP
 66
1
 70
0
 40
0.000000
 41
0.000000
 39
0.000000
  0
VERTEX
  8
ETCH_TOP
 10
4697.000000
 20
4925.000000
 40
31.000000
 41
31.000000
 42
0.000000
  0
VERTEX
  8
ETCH_TOP
 10
4683.000000
 20
4933.000000
 40
31.000000
 41
31.000000
 42
0.000000
  0
SEQEND
  0
POLYLINE
  8
ETCH_TOP
 66
1
 70
0
 40
0.000000
 41
0.000000
 39
0.000000
  0
VERTEX
  8
ETCH_TOP
 10
4697.000000
 20
4575.000000
 40
31.000000
 41
31.000000
 42
0.000000
  0
VERTEX
  8
ETCH_TOP
 10
4683.000000
 20
4567.000000
 40
31.000000
 41
31.000000
 42
0.000000
  0
SEQEND
  0
POLYLINE
  8
ETCH_TOP
 66
1
 70
0
 40
0.000000
 41
0.000000
 39
0.000000
  0
VERTEX
  8
ETCH_TOP
 10
4825.000000
 20
4447.000000
 40
31.000000
 41
31.000000
 42
0.000000
  0
VERTEX
  8
ETCH_TOP
 10
4800.000000
 20
4404.000000
 40
31.000000
 41
31.000000
 42
0.000000
  0
SEQEND
  0
POLYLINE
  8
ETCH_TOP
 66
1
 70
0
 40
0.000000
 41
0.000000
 39
0.000000
  0
VERTEX
  8
ETCH_TOP
 10
4650.000000
 20
4750.000000
 40
31.000000
 41
31.000000
 42
0.000000
  0
VERTEX
  8
ETCH_TOP
 10
4600.000000
 20
4750.000000
 40
31.000000
 41
31.000000
 42
0.000000
  0
SEQEND
  0
POLYLINE
  8
ETCH_TOP
 66
1
 70
0
 40
0.000000
 41
0.000000
 39
0.000000
  0
VERTEX
  8
ETCH_TOP
 10
4303.000000
 20
4925.000000
 40
31.000000
 41
31.000000
 42
0.000000
  0
VERTEX
  8
ETCH_TOP
 10
4317.000000
 20
4933.000000
 40
31.000000
 41
31.000000
 42
0.000000
  0
SEQEND
  0
POLYLINE
  8
ETCH_TOP
 66
1
 70
0
 40
0.000000
 41
0.000000
 39
0.000000
  0
VERTEX
  8
ETCH_TOP
 10
4350.000000
 20
4750.000000
 40
31.000000
 41
31.000000
 42
0.000000
  0
VERTEX
  8
ETCH_TOP
 10
4400.000000
 20
4750.000000
 40
31.000000
 41
31.000000
 42
0.000000
  0
SEQEND
  0
POLYLINE
  8
ETCH_TOP
 66
1
 70
0
 40
0.000000
 41
0.000000
 39
0.000000
  0
VERTEX
  8
ETCH_TOP
 10
4303.000000
 20
4575.000000
 40
31.000000
 41
31.000000
 42
0.000000
  0
VERTEX
  8
ETCH_TOP
 10
4317.000000
 20
4567.000000
 40
31.000000
 41
31.000000
 42
0.000000
  0
SEQEND
  0
POLYLINE
  8
ETCH_TOP
 66
1
 70
0
 40
0.000000
 41
0.000000
 39
0.000000
  0
VERTEX
  8
ETCH_TOP
 10
4175.000000
 20
5053.000000
 40
31.000000
 41
31.000000
 42
0.000000
  0
VERTEX
  8
ETCH_TOP
 10
4200.000000
 20
5096.000000
 40
31.000000
 41
31.000000
 42
0.000000
  0
SEQEND
  0
POLYLINE
  8
ETCH_TOP
 66
1
 70
0
 40
0.000000
 41
0.000000
 39
0.000000
  0
VERTEX
  8
ETCH_TOP
 10
4175.000000
 20
4447.000000
 40
31.000000
 41
31.000000
 42
0.000000
  0
VERTEX
  8
ETCH_TOP
 10
4200.000000
 20
4404.000000
 40
31.000000
 41
31.000000
 42
0.000000
  0
SEQEND
  0
POLYLINE
  8
ETCH_TOP
 66
1
 70
0
 40
0.000000
 41
0.000000
 39
0.000000
  0
VERTEX
  8
ETCH_TOP
 10
4000.000000
 20
4400.000000
 40
31.000000
 41
31.000000
 42
0.000000
  0
VERTEX
  8
ETCH_TOP
 10
4000.000000
 20
4384.000000
 40
31.000000
 41
31.000000
 42
0.000000
  0
SEQEND
  0
POLYLINE
  8
ETCH_TOP
 66
1
 70
0
 40
0.000000
 41
0.000000
 39
0.000000
  0
VERTEX
  8
ETCH_TOP
 10
3825.000000
 20
5053.000000
 40
31.000000
 41
31.000000
 42
0.000000
  0
VERTEX
  8
ETCH_TOP
 10
3800.000000
 20
5096.000000
 40
31.000000
 41
31.000000
 42
0.000000
  0
SEQEND
  0
POLYLINE
  8
ETCH_TOP
 66
1
 70
0
 40
0.000000
 41
0.000000
 39
0.000000
  0
VERTEX
  8
ETCH_TOP
 10
3697.000000
 20
4925.000000
 40
31.000000
 41
31.000000
 42
0.000000
  0
VERTEX
  8
ETCH_TOP
 10
3683.000000
 20
4933.000000
 40
31.000000
 41
31.000000
 42
0.000000
  0
SEQEND
  0
POLYLINE
  8
ETCH_TOP
 66
1
 70
0
 40
0.000000
 41
0.000000
 39
0.000000
  0
VERTEX
  8
ETCH_TOP
 10
3697.000000
 20
4575.000000
 40
31.000000
 41
31.000000
 42
0.000000
  0
VERTEX
  8
ETCH_TOP
 10
3683.000000
 20
4567.000000
 40
31.000000
 41
31.000000
 42
0.000000
  0
SEQEND
  0
POLYLINE
  8
ETCH_TOP
 66
1
 70
0
 40
0.000000
 41
0.000000
 39
0.000000
  0
VERTEX
  8
ETCH_TOP
 10
3825.000000
 20
4447.000000
 40
31.000000
 41
31.000000
 42
0.000000
  0
VERTEX
  8
ETCH_TOP
 10
3800.000000
 20
4404.000000
 40
31.000000
 41
31.000000
 42
0.000000
  0
SEQEND
  0
POLYLINE
  8
ETCH_TOP
 66
1
 70
0
 40
0.000000
 41
0.000000
 39
0.000000
  0
VERTEX
  8
ETCH_TOP
 10
3650.000000
 20
4750.000000
 40
31.000000
 41
31.000000
 42
0.000000
  0
VERTEX
  8
ETCH_TOP
 10
3600.000000
 20
4750.000000
 40
31.000000
 41
31.000000
 42
0.000000
  0
SEQEND
  0
POLYLINE
  8
ETCH_TOP
 66
1
 70
0
 40
0.000000
 41
0.000000
 39
0.000000
  0
VERTEX
  8
ETCH_TOP
 10
3303.000000
 20
4925.000000
 40
31.000000
 41
31.000000
 42
0.000000
  0
VERTEX
  8
ETCH_TOP
 10
3317.000000
 20
4933.000000
 40
31.000000
 41
31.000000
 42
0.000000
  0
SEQEND
  0
POLYLINE
  8
ETCH_TOP
 66
1
 70
0
 40
0.000000
 41
0.000000
 39
0.000000
  0
VERTEX
  8
ETCH_TOP
 10
3350.000000
 20
4750.000000
 40
31.000000
 41
31.000000
 42
0.000000
  0
VERTEX
  8
ETCH_TOP
 10
3400.000000
 20
4750.000000
 40
31.000000
 41
31.000000
 42
0.000000
  0
SEQEND
  0
POLYLINE
  8
ETCH_TOP
 66
1
 70
0
 40
0.000000
 41
0.000000
 39
0.000000
  0
VERTEX
  8
ETCH_TOP
 10
3303.000000
 20
4575.000000
 40
31.000000
 41
31.000000
 42
0.000000
  0
VERTEX
  8
ETCH_TOP
 10
3317.000000
 20
4567.000000
 40
31.000000
 41
31.000000
 42
0.000000
  0
SEQEND
  0
POLYLINE
  8
ETCH_TOP
 66
1
 70
0
 40
0.000000
 41
0.000000
 39
0.000000
  0
VERTEX
  8
ETCH_TOP
 10
3175.000000
 20
5053.000000
 40
31.000000
 41
31.000000
 42
0.000000
  0
VERTEX
  8
ETCH_TOP
 10
3200.000000
 20
5096.000000
 40
31.000000
 41
31.000000
 42
0.000000
  0
SEQEND
  0
POLYLINE
  8
ETCH_TOP
 66
1
 70
0
 40
0.000000
 41
0.000000
 39
0.000000
  0
VERTEX
  8
ETCH_TOP
 10
3175.000000
 20
4447.000000
 40
31.000000
 41
31.000000
 42
0.000000
  0
VERTEX
  8
ETCH_TOP
 10
3200.000000
 20
4404.000000
 40
31.000000
 41
31.000000
 42
0.000000
  0
SEQEND
  0
POLYLINE
  8
ETCH_TOP
 66
1
 70
0
 40
0.000000
 41
0.000000
 39
0.000000
  0
VERTEX
  8
ETCH_TOP
 10
3000.000000
 20
4400.000000
 40
31.000000
 41
31.000000
 42
0.000000
  0
VERTEX
  8
ETCH_TOP
 10
3000.000000
 20
4384.000000
 40
31.000000
 41
31.000000
 42
0.000000
  0
SEQEND
  0
POLYLINE
  8
ETCH_TOP
 66
1
 70
0
 40
0.000000
 41
0.000000
 39
0.000000
  0
VERTEX
  8
ETCH_TOP
 10
2825.000000
 20
5053.000000
 40
31.000000
 41
31.000000
 42
0.000000
  0
VERTEX
  8
ETCH_TOP
 10
2800.000000
 20
5096.000000
 40
31.000000
 41
31.000000
 42
0.000000
  0
SEQEND
  0
POLYLINE
  8
ETCH_TOP
 66
1
 70
0
 40
0.000000
 41
0.000000
 39
0.000000
  0
VERTEX
  8
ETCH_TOP
 10
2697.000000
 20
4925.000000
 40
31.000000
 41
31.000000
 42
0.000000
  0
VERTEX
  8
ETCH_TOP
 10
2683.000000
 20
4933.000000
 40
31.000000
 41
31.000000
 42
0.000000
  0
SEQEND
  0
POLYLINE
  8
ETCH_TOP
 66
1
 70
0
 40
0.000000
 41
0.000000
 39
0.000000
  0
VERTEX
  8
ETCH_TOP
 10
2697.000000
 20
4575.000000
 40
31.000000
 41
31.000000
 42
0.000000
  0
VERTEX
  8
ETCH_TOP
 10
2683.000000
 20
4567.000000
 40
31.000000
 41
31.000000
 42
0.000000
  0
SEQEND
  0
POLYLINE
  8
ETCH_TOP
 66
1
 70
0
 40
0.000000
 41
0.000000
 39
0.000000
  0
VERTEX
  8
ETCH_TOP
 10
2825.000000
 20
4447.000000
 40
31.000000
 41
31.000000
 42
0.000000
  0
VERTEX
  8
ETCH_TOP
 10
2800.000000
 20
4404.000000
 40
31.000000
 41
31.000000
 42
0.000000
  0
SEQEND
  0
POLYLINE
  8
ETCH_TOP
 66
1
 70
0
 40
0.000000
 41
0.000000
 39
0.000000
  0
VERTEX
  8
ETCH_TOP
 10
2650.000000
 20
4750.000000
 40
31.000000
 41
31.000000
 42
0.000000
  0
VERTEX
  8
ETCH_TOP
 10
2600.000000
 20
4750.000000
 40
31.000000
 41
31.000000
 42
0.000000
  0
SEQEND
  0
POLYLINE
  8
ETCH_TOP
 66
1
 70
0
 40
0.000000
 41
0.000000
 39
0.000000
  0
VERTEX
  8
ETCH_TOP
 10
2303.000000
 20
4925.000000
 40
31.000000
 41
31.000000
 42
0.000000
  0
VERTEX
  8
ETCH_TOP
 10
2317.000000
 20
4933.000000
 40
31.000000
 41
31.000000
 42
0.000000
  0
SEQEND
  0
POLYLINE
  8
ETCH_TOP
 66
1
 70
0
 40
0.000000
 41
0.000000
 39
0.000000
  0
VERTEX
  8
ETCH_TOP
 10
2350.000000
 20
4750.000000
 40
31.000000
 41
31.000000
 42
0.000000
  0
VERTEX
  8
ETCH_TOP
 10
2400.000000
 20
4750.000000
 40
31.000000
 41
31.000000
 42
0.000000
  0
SEQEND
  0
POLYLINE
  8
ETCH_TOP
 66
1
 70
0
 40
0.000000
 41
0.000000
 39
0.000000
  0
VERTEX
  8
ETCH_TOP
 10
2303.000000
 20
4575.000000
 40
31.000000
 41
31.000000
 42
0.000000
  0
VERTEX
  8
ETCH_TOP
 10
2317.000000
 20
4567.000000
 40
31.000000
 41
31.000000
 42
0.000000
  0
SEQEND
  0
POLYLINE
  8
ETCH_TOP
 66
1
 70
0
 40
0.000000
 41
0.000000
 39
0.000000
  0
VERTEX
  8
ETCH_TOP
 10
2175.000000
 20
5053.000000
 40
31.000000
 41
31.000000
 42
0.000000
  0
VERTEX
  8
ETCH_TOP
 10
2200.000000
 20
5096.000000
 40
31.000000
 41
31.000000
 42
0.000000
  0
SEQEND
  0
POLYLINE
  8
ETCH_TOP
 66
1
 70
0
 40
0.000000
 41
0.000000
 39
0.000000
  0
VERTEX
  8
ETCH_TOP
 10
2175.000000
 20
4447.000000
 40
31.000000
 41
31.000000
 42
0.000000
  0
VERTEX
  8
ETCH_TOP
 10
2200.000000
 20
4404.000000
 40
31.000000
 41
31.000000
 42
0.000000
  0
SEQEND
  0
POLYLINE
  8
ETCH_TOP
 66
1
 70
0
 40
0.000000
 41
0.000000
 39
0.000000
  0
VERTEX
  8
ETCH_TOP
 10
2000.000000
 20
4400.000000
 40
31.000000
 41
31.000000
 42
0.000000
  0
VERTEX
  8
ETCH_TOP
 10
2000.000000
 20
4384.000000
 40
31.000000
 41
31.000000
 42
0.000000
  0
SEQEND
  0
POLYLINE
  8
ETCH_TOP
 66
1
 70
0
 40
0.000000
 41
0.000000
 39
0.000000
  0
VERTEX
  8
ETCH_TOP
 10
1825.000000
 20
5053.000000
 40
31.000000
 41
31.000000
 42
0.000000
  0
VERTEX
  8
ETCH_TOP
 10
1800.000000
 20
5096.000000
 40
31.000000
 41
31.000000
 42
0.000000
  0
SEQEND
  0
POLYLINE
  8
ETCH_TOP
 66
1
 70
0
 40
0.000000
 41
0.000000
 39
0.000000
  0
VERTEX
  8
ETCH_TOP
 10
1697.000000
 20
4925.000000
 40
31.000000
 41
31.000000
 42
0.000000
  0
VERTEX
  8
ETCH_TOP
 10
1683.000000
 20
4933.000000
 40
31.000000
 41
31.000000
 42
0.000000
  0
SEQEND
  0
POLYLINE
  8
ETCH_TOP
 66
1
 70
0
 40
0.000000
 41
0.000000
 39
0.000000
  0
VERTEX
  8
ETCH_TOP
 10
1697.000000
 20
4575.000000
 40
31.000000
 41
31.000000
 42
0.000000
  0
VERTEX
  8
ETCH_TOP
 10
1683.000000
 20
4567.000000
 40
31.000000
 41
31.000000
 42
0.000000
  0
SEQEND
  0
POLYLINE
  8
ETCH_TOP
 66
1
 70
0
 40
0.000000
 41
0.000000
 39
0.000000
  0
VERTEX
  8
ETCH_TOP
 10
1825.000000
 20
4447.000000
 40
31.000000
 41
31.000000
 42
0.000000
  0
VERTEX
  8
ETCH_TOP
 10
1800.000000
 20
4404.000000
 40
31.000000
 41
31.000000
 42
0.000000
  0
SEQEND
  0
POLYLINE
  8
ETCH_TOP
 66
1
 70
0
 40
0.000000
 41
0.000000
 39
0.000000
  0
VERTEX
  8
ETCH_TOP
 10
1650.000000
 20
4750.000000
 40
31.000000
 41
31.000000
 42
0.000000
  0
VERTEX
  8
ETCH_TOP
 10
1600.000000
 20
4750.000000
 40
31.000000
 41
31.000000
 42
0.000000
  0
SEQEND
  0
POLYLINE
  8
ETCH_TOP
 66
1
 70
0
 40
0.000000
 41
0.000000
 39
0.000000
  0
VERTEX
  8
ETCH_TOP
 10
697.000000
 20
4925.000000
 40
31.000000
 41
31.000000
 42
0.000000
  0
VERTEX
  8
ETCH_TOP
 10
683.000000
 20
4933.000000
 40
31.000000
 41
31.000000
 42
0.000000
  0
SEQEND
  0
POLYLINE
  8
ETCH_TOP
 66
1
 70
0
 40
0.000000
 41
0.000000
 39
0.000000
  0
VERTEX
  8
ETCH_TOP
 10
1303.000000
 20
4925.000000
 40
31.000000
 41
31.000000
 42
0.000000
  0
VERTEX
  8
ETCH_TOP
 10
1317.000000
 20
4933.000000
 40
31.000000
 41
31.000000
 42
0.000000
  0
SEQEND
  0
POLYLINE
  8
ETCH_TOP
 66
1
 70
0
 40
0.000000
 41
0.000000
 39
0.000000
  0
VERTEX
  8
ETCH_TOP
 10
1303.000000
 20
4575.000000
 40
31.000000
 41
31.000000
 42
0.000000
  0
VERTEX
  8
ETCH_TOP
 10
1317.000000
 20
4567.000000
 40
31.000000
 41
31.000000
 42
0.000000
  0
SEQEND
  0
POLYLINE
  8
ETCH_TOP
 66
1
 70
0
 40
0.000000
 41
0.000000
 39
0.000000
  0
VERTEX
  8
ETCH_TOP
 10
697.000000
 20
4575.000000
 40
31.000000
 41
31.000000
 42
0.000000
  0
VERTEX
  8
ETCH_TOP
 10
683.000000
 20
4567.000000
 40
31.000000
 41
31.000000
 42
0.000000
  0
SEQEND
  0
POLYLINE
  8
ETCH_TOP
 66
1
 70
0
 40
0.000000
 41
0.000000
 39
0.000000
  0
VERTEX
  8
ETCH_TOP
 10
1000.000000
 20
4400.000000
 40
31.000000
 41
31.000000
 42
0.000000
  0
VERTEX
  8
ETCH_TOP
 10
1000.000000
 20
4384.000000
 40
31.000000
 41
31.000000
 42
0.000000
  0
SEQEND
  0
POLYLINE
  8
ETCH_TOP
 66
1
 70
0
 40
0.000000
 41
0.000000
 39
0.000000
  0
VERTEX
  8
ETCH_TOP
 10
650.000000
 20
4750.000000
 40
31.000000
 41
31.000000
 42
0.000000
  0
VERTEX
  8
ETCH_TOP
 10
600.000000
 20
4750.000000
 40
31.000000
 41
31.000000
 42
0.000000
  0
SEQEND
  0
POLYLINE
  8
ETCH_TOP
 66
1
 70
0
 40
0.000000
 41
0.000000
 39
0.000000
  0
VERTEX
  8
ETCH_TOP
 10
825.000000
 20
4447.000000
 40
31.000000
 41
31.000000
 42
0.000000
  0
VERTEX
  8
ETCH_TOP
 10
800.000000
 20
4404.000000
 40
31.000000
 41
31.000000
 42
0.000000
  0
SEQEND
  0
POLYLINE
  8
ETCH_TOP
 66
1
 70
0
 40
0.000000
 41
0.000000
 39
0.000000
  0
VERTEX
  8
ETCH_TOP
 10
825.000000
 20
5053.000000
 40
31.000000
 41
31.000000
 42
0.000000
  0
VERTEX
  8
ETCH_TOP
 10
800.000000
 20
5096.000000
 40
31.000000
 41
31.000000
 42
0.000000
  0
SEQEND
  0
POLYLINE
  8
ETCH_TOP
 66
1
 70
0
 40
0.000000
 41
0.000000
 39
0.000000
  0
VERTEX
  8
ETCH_TOP
 10
1175.000000
 20
4447.000000
 40
31.000000
 41
31.000000
 42
0.000000
  0
VERTEX
  8
ETCH_TOP
 10
1200.000000
 20
4404.000000
 40
31.000000
 41
31.000000
 42
0.000000
  0
SEQEND
  0
POLYLINE
  8
ETCH_TOP
 66
1
 70
0
 40
0.000000
 41
0.000000
 39
0.000000
  0
VERTEX
  8
ETCH_TOP
 10
1175.000000
 20
5053.000000
 40
31.000000
 41
31.000000
 42
0.000000
  0
VERTEX
  8
ETCH_TOP
 10
1200.000000
 20
5096.000000
 40
31.000000
 41
31.000000
 42
0.000000
  0
SEQEND
  0
POLYLINE
  8
ETCH_TOP
 66
1
 70
0
 40
0.000000
 41
0.000000
 39
0.000000
  0
VERTEX
  8
ETCH_TOP
 10
1350.000000
 20
4750.000000
 40
31.000000
 41
31.000000
 42
0.000000
  0
VERTEX
  8
ETCH_TOP
 10
1400.000000
 20
4750.000000
 40
31.000000
 41
31.000000
 42
0.000000
  0
SEQEND
  0
POLYLINE
  8
ETCH_TOP
 66
1
 70
0
 40
0.000000
 41
0.000000
 39
0.000000
  0
VERTEX
  8
ETCH_TOP
 10
0.000000
 20
9750.000000
 40
5.000000
 41
5.000000
 42
0.000000
  0
VERTEX
  8
ETCH_TOP
 10
9000.000000
 20
9750.000000
 40
5.000000
 41
5.000000
 42
0.000000
  0
SEQEND
  0
POLYLINE
  8
ETCH_TOP
 66
1
 70
0
 40
0.000000
 41
0.000000
 39
0.000000
  0
VERTEX
  8
ETCH_TOP
 10
0.000000
 20
10500.000000
 40
5.000000
 41
5.000000
 42
0.000000
  0
VERTEX
  8
ETCH_TOP
 10
9000.000000
 20
10500.000000
 40
5.000000
 41
5.000000
 42
0.000000
  0
SEQEND
  0
POLYLINE
  8
ETCH_TOP
 66
1
 70
0
 40
0.000000
 41
0.000000
 39
0.000000
  0
VERTEX
  8
ETCH_TOP
 10
0.000000
 20
3500.000000
 40
5.000000
 41
5.000000
 42
0.000000
  0
VERTEX
  8
ETCH_TOP
 10
9000.000000
 20
3500.000000
 40
5.000000
 41
5.000000
 42
0.000000
  0
SEQEND
  0
POLYLINE
  8
ETCH_TOP
 66
1
 70
0
 40
0.000000
 41
0.000000
 39
0.000000
  0
VERTEX
  8
ETCH_TOP
 10
0.000000
 20
500.000000
 40
5.000000
 41
5.000000
 42
0.000000
  0
VERTEX
  8
ETCH_TOP
 10
9000.000000
 20
500.000000
 40
5.000000
 41
5.000000
 42
0.000000
  0
SEQEND
  0
POLYLINE
  8
BOARD_GEOMETRY_OUTLINE
 66
1
 70
1
 40
0.000000
 41
0.000000
 39
0.000000
  0
VERTEX
  8
BOARD_GEOMETRY_OUTLINE
 10
0.000000
 20
0.000000
 40
0.000000
 41
0.000000
 42
0.000000
  0
VERTEX
  8
BOARD_GEOMETRY_OUTLINE
 10
0.000000
 20
10900.000000
 40
0.000000
 41
0.000000
 42
0.000000
  0
VERTEX
  8
BOARD_GEOMETRY_OUTLINE
 10
9000.000000
 20
10900.000000
 40
0.000000
 41
0.000000
 42
0.000000
  0
VERTEX
  8
BOARD_GEOMETRY_OUTLINE
 10
9000.000000
 20
0.000000
 40
0.000000
 41
0.000000
 42
0.000000
  0
SEQEND
  0
TEXT
  8
ETCH_TOP
 10
875.000000
 20
7600.000000
 11
0.000000
 21
0.000000
 40
125.000000
 41
0.832000
 50
180.000000
  7
STANDARD
 71
0
 72
0
 73
0
  1
MIDI
  0
TEXT
  8
ETCH_TOP
 10
2325.000000
 20
5300.000000
 11
0.000000
 21
0.000000
 40
125.000000
 41
0.832000
 50
180.000000
  7
STANDARD
 71
0
 72
0
 73
0
  1
CRASH3
  0
TEXT
  8
ETCH_TOP
 10
3300.000000
 20
5275.000000
 11
0.000000
 21
0.000000
 40
125.000000
 41
0.832000
 50
180.000000
  7
STANDARD
 71
0
 72
0
 73
0
  1
CRASH1
  0
TEXT
  8
ETCH_TOP
 10
1975.000000
 20
6275.000000
 11
0.000000
 21
0.000000
 40
125.000000
 41
0.832000
 50
180.000000
  7
STANDARD
 71
0
 72
0
 73
0
  1
RIDE BELL
  0
TEXT
  8
ETCH_TOP
 10
2800.000000
 20
6275.000000
 11
0.000000
 21
0.000000
 40
125.000000
 41
0.832000
 50
180.000000
  7
STANDARD
 71
0
 72
0
 73
0
  1
CRASH2
  0
TEXT
  8
ETCH_TOP
 10
3700.000000
 20
6275.000000
 11
0.000000
 21
0.000000
 40
125.000000
 41
0.832000
 50
180.000000
  7
STANDARD
 71
0
 72
0
 73
0
  1
RIDE
  0
TEXT
  8
ETCH_TOP
 10
4425.000000
 20
5275.000000
 11
0.000000
 21
0.000000
 40
125.000000
 41
0.832000
 50
180.000000
  7
STANDARD
 71
0
 72
0
 73
0
  1
FLR TOM2
  0
TEXT
  8
ETCH_TOP
 10
4900.000000
 20
6275.000000
 11
0.000000
 21
0.000000
 40
125.000000
 41
0.832000
 50
180.000000
  7
STANDARD
 71
0
 72
0
 73
0
  1
FLR TOM1
  0
TEXT
  8
ETCH_TOP
 10
5325.000000
 20
5300.000000
 11
0.000000
 21
0.000000
 40
125.000000
 41
0.832000
 50
180.000000
  7
STANDARD
 71
0
 72
0
 73
0
  1
RK TOM
  0
TEXT
  8
ETCH_TOP
 10
6375.000000
 20
5275.000000
 11
0.000000
 21
0.000000
 40
125.000000
 41
0.832000
 50
180.000000
  7
STANDARD
 71
0
 72
0
 73
0
  1
SNARE L
  0
TEXT
  8
ETCH_TOP
 10
7350.000000
 20
5275.000000
 11
0.000000
 21
0.000000
 40
125.000000
 41
0.832000
 50
180.000000
  7
STANDARD
 71
0
 72
0
 73
0
  1
SNARE C
  0
TEXT
  8
ETCH_TOP
 10
5850.000000
 20
6275.000000
 11
0.000000
 21
0.000000
 40
125.000000
 41
0.832000
 50
180.000000
  7
STANDARD
 71
0
 72
0
 73
0
  1
SNARE R
  0
TEXT
  8
ETCH_TOP
 10
6950.000000
 20
6275.000000
 11
0.000000
 21
0.000000
 40
125.000000
 41
0.832000
 50
180.000000
  7
STANDARD
 71
0
 72
0
 73
0
  1
SNARE RIM
  0
TEXT
  8
ETCH_TOP
 10
7700.000000
 20
6275.000000
 11
0.000000
 21
0.000000
 40
125.000000
 41
0.832000
 50
180.000000
  7
STANDARD
 71
0
 72
0
 73
0
  1
KICK
  0
TEXT
  8
ETCH_TOP
 10
8250.000000
 20
5275.000000
 11
0.000000
 21
0.000000
 40
125.000000
 41
0.832000
 50
180.000000
  7
STANDARD
 71
0
 72
0
 73
0
  1
HIHAT
  0
TEXT
  8
ETCH_TOP
 10
5850.000000
 20
3125.000000
 11
0.000000
 21
0.000000
 40
125.000000
 41
0.832000
 50
0.000000
  7
STANDARD
 71
0
 72
0
 73
0
  1
L/R
  0
TEXT
  8
ETCH_TOP
 10
5750.000000
 20
3325.000000
 11
0.000000
 21
0.000000
 40
125.000000
 41
0.832000
 50
0.000000
  7
STANDARD
 71
0
 72
0
 73
0
  1
SNARE
  0
TEXT
  8
ETCH_TOP
 10
4850.000000
 20
3125.000000
 11
0.000000
 21
0.000000
 40
125.000000
 41
0.832000
 50
0.000000
  7
STANDARD
 71
0
 72
0
 73
0
  1
TOM
  0
TEXT
  8
ETCH_TOP
 10
4825.000000
 20
3300.000000
 11
0.000000
 21
0.000000
 40
125.000000
 41
0.832000
 50
0.000000
  7
STANDARD
 71
0
 72
0
 73
0
  1
RACK
  0
TEXT
  8
ETCH_TOP
 10
3750.000000
 20
3125.000000
 11
0.000000
 21
0.000000
 40
125.000000
 41
0.832000
 50
0.000000
  7
STANDARD
 71
0
 72
0
 73
0
  1
TOM 2
  0
TEXT
  8
ETCH_TOP
 10
3750.000000
 20
3300.000000
 11
0.000000
 21
0.000000
 40
125.000000
 41
0.832000
 50
0.000000
  7
STANDARD
 71
0
 72
0
 73
0
  1
FLOOR
  0
TEXT
  8
ETCH_TOP
 10
775.000000
 20
3125.000000
 11
0.000000
 21
0.000000
 40
125.000000
 41
0.832000
 50
0.000000
  7
STANDARD
 71
0
 72
0
 73
0
  1
PEDAL
  0
TEXT
  8
ETCH_TOP
 10
775.000000
 20
3300.000000
 11
0.000000
 21
0.000000
 40
125.000000
 41
0.832000
 50
0.000000
  7
STANDARD
 71
0
 72
0
 73
0
  1
HIHAT
  0
TEXT
  8
ETCH_TOP
 10
1650.000000
 20
3125.000000
 11
0.000000
 21
0.000000
 40
125.000000
 41
0.832000
 50
0.000000
  7
STANDARD
 71
0
 72
0
 73
0
  1
CRASH 3
  0
TEXT
  8
ETCH_TOP
 10
2675.000000
 20
3125.000000
 11
0.000000
 21
0.000000
 40
125.000000
 41
0.832000
 50
0.000000
  7
STANDARD
 71
0
 72
0
 73
0
  1
CRASH 1
  0
TEXT
  8
ETCH_TOP
 10
6450.000000
 20
3125.000000
 11
0.000000
 21
0.000000
 40
125.000000
 41
0.832000
 50
0.000000
  7
STANDARD
 71
0
 72
0
 73
0
  1
CENTER/RIM
  0
TEXT
  8
ETCH_TOP
 10
6750.000000
 20
3300.000000
 11
0.000000
 21
0.000000
 40
125.000000
 41
0.832000
 50
0.000000
  7
STANDARD
 71
0
 72
0
 73
0
  1
SNARE
  0
TEXT
  8
ETCH_TOP
 10
7750.000000
 20
3125.000000
 11
0.000000
 21
0.000000
 40
125.000000
 41
0.832000
 50
0.000000
  7
STANDARD
 71
0
 72
0
 73
0
  1
HIHAT
  0
TEXT
  8
ETCH_TOP
 10
7300.000000
 20
2125.000000
 11
0.000000
 21
0.000000
 40
125.000000
 41
0.832000
 50
0.000000
  7
STANDARD
 71
0
 72
0
 73
0
  1
KICK
  0
TEXT
  8
ETCH_TOP
 10
4275.000000
 20
2125.000000
 11
0.000000
 21
0.000000
 40
125.000000
 41
0.832000
 50
0.000000
  7
STANDARD
 71
0
 72
0
 73
0
  1
TOM 1
  0
TEXT
  8
ETCH_TOP
 10
4275.000000
 20
2300.000000
 11
0.000000
 21
0.000000
 40
125.000000
 41
0.832000
 50
0.000000
  7
STANDARD
 71
0
 72
0
 73
0
  1
FLOOR
  0
TEXT
  8
ETCH_TOP
 10
3025.000000
 20
2125.000000
 11
0.000000
 21
0.000000
 40
125.000000
 41
0.832000
 50
0.000000
  7
STANDARD
 71
0
 72
0
 73
0
  1
EDGE/BELL
  0
TEXT
  8
ETCH_TOP
 10
3300.000000
 20
2300.000000
 11
0.000000
 21
0.000000
 40
125.000000
 41
0.832000
 50
0.000000
  7
STANDARD
 71
0
 72
0
 73
0
  1
RIDE
  0
TEXT
  8
ETCH_TOP
 10
2150.000000
 20
2125.000000
 11
0.000000
 21
0.000000
 40
125.000000
 41
0.832000
 50
0.000000
  7
STANDARD
 71
0
 72
0
 73
0
  1
CRASH 2
  0
TEXT
  8
ETCH_TOP
 10
950.000000
 20
2125.000000
 11
0.000000
 21
0.000000
 40
125.000000
 41
0.832000
 50
0.000000
  7
STANDARD
 71
0
 72
0
 73
0
  1
FOOTSWITCH
  0
ENDSEC
  0
EOF
