  0
SECTION
  2
HEADER
  9
$ACADVER
  1
AC1009
  9
$INSBASE
 10
0.000000
 20
0.000000
  9
$LIMMIN
 10
-15875.000000
 20
-9875.000000
  9
$LIMMAX
 10
18125.000000
 20
12125.000000
  9
$EXTMIN
 10
-15875.000000
 20
-9875.000000
  9
$EXTMAX
 10
18125.000000
 20
12125.000000
  9
$ATTMODE
 70
0
  9
$LUNITS
 70
2
  9
$LUPREC
 70
3
  9
$THICKNESS
 40
0.000000
  0
ENDSEC
  0
SECTION
  2
TABLES
  0
TABLE
  2
LTYPE
 70
0
  0
LTYPE
  2
CONTINUOUS
  3
Solid line
 70
0
 72
65
 73
0
 40
0.000000
  0
ENDTAB
  0
TABLE
  2
LAYER
 70
2
  0
LAYER
  2
BOARD_GEOMETRY_OUTLINE
 70
0
 62
1
  6
CONTINUOUS
  0
LAYER
  2
ETCH_TOP
 70
0
 62
2
  6
CONTINUOUS
  0
ENDTAB
  0
TABLE
  2
STYLE
 70
0
  0
STYLE
  2
STANDARD
 70
0
 40
0.000000
 41
1.000000
 50
0.000000
 71
0
 42
0.200000
  3
txt
  0
ENDTAB
  0
ENDSEC
  0
SECTION
  2
BLOCKS
  0
BLOCK
  8
CDN_FIGURES
  2
FIGURE_CIRCLE
 70
0
 10
0.000000
 20
0.000000
  0
CIRCLE
  8
CDN_FIGURES
 10
0.000000
 20
0.000000
 40
0.500000
  0
ENDBLK
  0
BLOCK
  8
CDN_FIGURES
  2
FIGURE_SQUARE
 70
0
 10
0.000000
 20
0.000000
  0
POLYLINE
  8
CDN_FIGURES
 66
1
 70
1
 40
0.000000
 41
0.000000
 39
0.000000
  0
VERTEX
  8
CDN_FIGURES
 10
-0.500000
 20
-0.500000
 40
0.000000
 41
0.000000
 42
0.000000
  0
VERTEX
  8
CDN_FIGURES
 10
-0.500000
 20
0.500000
 40
0.000000
 41
0.000000
 42
0.000000
  0
VERTEX
  8
CDN_FIGURES
 10
0.500000
 20
0.500000
 40
0.000000
 41
0.000000
 42
0.000000
  0
VERTEX
  8
CDN_FIGURES
 10
0.500000
 20
-0.500000
 40
0.000000
 41
0.000000
 42
0.000000
  0
SEQEND
  0
ENDBLK
  0
BLOCK
  8
CDN_FIGURES
  2
FIGURE_HEX
 70
0
 10
0.000000
 20
0.000000
  0
POLYLINE
  8
CDN_FIGURES
 66
1
 70
1
 40
0.000000
 41
0.000000
 39
0.000000
  0
VERTEX
  8
CDN_FIGURES
 10
-0.500000
 20
0.000000
 40
0.000000
 41
0.000000
 42
0.000000
  0
VERTEX
  8
CDN_FIGURES
 10
-0.250000
 20
0.500000
 40
0.000000
 41
0.000000
 42
0.000000
  0
VERTEX
  8
CDN_FIGURES
 10
0.250000
 20
0.500000
 40
0.000000
 41
0.000000
 42
0.000000
  0
VERTEX
  8
CDN_FIGURES
 10
0.500000
 20
0.000000
 40
0.000000
 41
0.000000
 42
0.000000
  0
VERTEX
  8
CDN_FIGURES
 10
0.250000
 20
-0.500000
 40
0.000000
 41
0.000000
 42
0.000000
  0
VERTEX
  8
CDN_FIGURES
 10
-0.250000
 20
-0.500000
 40
0.000000
 41
0.000000
 42
0.000000
  0
SEQEND
  0
ENDBLK
  0
BLOCK
  8
CDN_FIGURES
  2
FIGURE_OCT
 70
0
 10
0.000000
 20
0.000000
  0
POLYLINE
  8
CDN_FIGURES
 66
1
 70
1
 40
0.000000
 41
0.000000
 39
0.000000
  0
VERTEX
  8
CDN_FIGURES
 10
-0.500000
 20
-0.207100
 40
0.000000
 41
0.000000
 42
0.000000
  0
VERTEX
  8
CDN_FIGURES
 10
-0.500000
 20
0.207100
 40
0.000000
 41
0.000000
 42
0.000000
  0
VERTEX
  8
CDN_FIGURES
 10
-0.207100
 20
0.500000
 40
0.000000
 41
0.000000
 42
0.000000
  0
VERTEX
  8
CDN_FIGURES
 10
0.207100
 20
0.500000
 40
0.000000
 41
0.000000
 42
0.000000
  0
VERTEX
  8
CDN_FIGURES
 10
0.500000
 20
0.207100
 40
0.000000
 41
0.000000
 42
0.000000
  0
VERTEX
  8
CDN_FIGURES
 10
0.500000
 20
-0.207100
 40
0.000000
 41
0.000000
 42
0.000000
  0
VERTEX
  8
CDN_FIGURES
 10
0.207100
 20
-0.500000
 40
0.000000
 41
0.000000
 42
0.000000
  0
VERTEX
  8
CDN_FIGURES
 10
-0.207100
 20
-0.500000
 40
0.000000
 41
0.000000
 42
0.000000
  0
SEQEND
  0
ENDBLK
  0
BLOCK
  8
CDN_FIGURES
  2
FIGURE_OBLONG
 70
0
 10
0.000000
 20
0.000000
  0
POLYLINE
  8
CDN_FIGURES
 66
1
 70
1
 40
0.000000
 41
0.000000
 39
0.000000
  0
VERTEX
  8
CDN_FIGURES
 10
-0.500000
 20
-0.125000
 40
0.000000
 41
0.000000
 42
0.000000
  0
VERTEX
  8
CDN_FIGURES
 10
-0.500000
 20
0.125000
 40
0.000000
 41
0.000000
 42
0.000000
  0
VERTEX
  8
CDN_FIGURES
 10
-0.416000
 20
0.375000
 40
0.000000
 41
0.000000
 42
0.000000
  0
VERTEX
  8
CDN_FIGURES
 10
-0.250000
 20
0.500000
 40
0.000000
 41
0.000000
 42
0.000000
  0
VERTEX
  8
CDN_FIGURES
 10
0.250000
 20
0.500000
 40
0.000000
 41
0.000000
 42
0.000000
  0
VERTEX
  8
CDN_FIGURES
 10
0.416000
 20
0.375000
 40
0.000000
 41
0.000000
 42
0.000000
  0
VERTEX
  8
CDN_FIGURES
 10
0.500000
 20
0.125000
 40
0.000000
 41
0.000000
 42
0.000000
  0
VERTEX
  8
CDN_FIGURES
 10
0.500000
 20
-0.125000
 40
0.000000
 41
0.000000
 42
0.000000
  0
VERTEX
  8
CDN_FIGURES
 10
0.416000
 20
-0.375000
 40
0.000000
 41
0.000000
 42
0.000000
  0
VERTEX
  8
CDN_FIGURES
 10
0.250000
 20
-0.500000
 40
0.000000
 41
0.000000
 42
0.000000
  0
VERTEX
  8
CDN_FIGURES
 10
-0.250000
 20
-0.500000
 40
0.000000
 41
0.000000
 42
0.000000
  0
VERTEX
  8
CDN_FIGURES
 10
-0.416000
 20
-0.375000
 40
0.000000
 41
0.000000
 42
0.000000
  0
SEQEND
  0
ENDBLK
  0
BLOCK
  8
CDN_FIGURES
  2
FIGURE_TRI
 70
0
 10
0.000000
 20
0.000000
  0
POLYLINE
  8
CDN_FIGURES
 66
1
 70
1
 40
0.000000
 41
0.000000
 39
0.000000
  0
VERTEX
  8
CDN_FIGURES
 10
-0.500000
 20
-0.500000
 40
0.000000
 41
0.000000
 42
0.000000
  0
VERTEX
  8
CDN_FIGURES
 10
0.000000
 20
0.500000
 40
0.000000
 41
0.000000
 42
0.000000
  0
VERTEX
  8
CDN_FIGURES
 10
0.500000
 20
-0.500000
 40
0.000000
 41
0.000000
 42
0.000000
  0
SEQEND
  0
ENDBLK
  0
BLOCK
  8
CDN_FIGURES
  2
FIGURE_CROSS
 70
0
 10
0.000000
 20
0.000000
  0
POLYLINE
  8
CDN_FIGURES
 66
1
 70
0
 40
0.000000
 41
0.000000
 39
0.000000
  0
VERTEX
  8
CDN_FIGURES
 10
-0.500000
 20
0.000000
 40
0.000000
 41
0.000000
 42
0.000000
  0
VERTEX
  8
CDN_FIGURES
 10
0.500000
 20
0.000000
 40
0.000000
 41
0.000000
 42
0.000000
  0
SEQEND
  0
POLYLINE
  8
CDN_FIGURES
 66
1
 70
0
 40
0.000000
 41
0.000000
 39
0.000000
  0
VERTEX
  8
CDN_FIGURES
 10
0.000000
 20
0.500000
 40
0.000000
 41
0.000000
 42
0.000000
  0
VERTEX
  8
CDN_FIGURES
 10
0.000000
 20
-0.500000
 40
0.000000
 41
0.000000
 42
0.000000
  0
SEQEND
  0
ENDBLK
  0
BLOCK
  8
CDN_FIGURES
  2
FIGURE_DIAMOND
 70
0
 10
0.000000
 20
0.000000
  0
POLYLINE
  8
CDN_FIGURES
 66
1
 70
1
 40
0.000000
 41
0.000000
 39
0.000000
  0
VERTEX
  8
CDN_FIGURES
 10
-0.500000
 20
0.000000
 40
0.000000
 41
0.000000
 42
0.000000
  0
VERTEX
  8
CDN_FIGURES
 10
0.000000
 20
0.500000
 40
0.000000
 41
0.000000
 42
0.000000
  0
VERTEX
  8
CDN_FIGURES
 10
0.500000
 20
0.000000
 40
0.000000
 41
0.000000
 42
0.000000
  0
VERTEX
  8
CDN_FIGURES
 10
0.000000
 20
-0.500000
 40
0.000000
 41
0.000000
 42
0.000000
  0
SEQEND
  0
ENDBLK
  0
ENDSEC
  0
SECTION
  2
ENTITIES
  0
POLYLINE
  8
ETCH_TOP
 66
1
 70
1
 40
0.000000
 41
0.000000
 39
0.000000
  0
VERTEX
  8
ETCH_TOP
 10
8750.000000
 20
2071.000000
 40
0.000000
 41
0.000000
 42
1.000000
  0
VERTEX
  8
ETCH_TOP
 10
8750.000000
 20
1929.000000
 40
0.000000
 41
0.000000
 42
1.000000
  0
SEQEND
  0
POLYLINE
  8
ETCH_TOP
 66
1
 70
1
 40
0.000000
 41
0.000000
 39
0.000000
  0
VERTEX
  8
ETCH_TOP
 10
250.000000
 20
2071.000000
 40
0.000000
 41
0.000000
 42
1.000000
  0
VERTEX
  8
ETCH_TOP
 10
250.000000
 20
1929.000000
 40
0.000000
 41
0.000000
 42
1.000000
  0
SEQEND
  0
POLYLINE
  8
ETCH_TOP
 66
1
 70
1
 40
0.000000
 41
0.000000
 39
0.000000
  0
VERTEX
  8
ETCH_TOP
 10
8750.000000
 20
10821.000000
 40
0.000000
 41
0.000000
 42
1.000000
  0
VERTEX
  8
ETCH_TOP
 10
8750.000000
 20
10679.000000
 40
0.000000
 41
0.000000
 42
1.000000
  0
SEQEND
  0
POLYLINE
  8
ETCH_TOP
 66
1
 70
1
 40
0.000000
 41
0.000000
 39
0.000000
  0
VERTEX
  8
ETCH_TOP
 10
250.000000
 20
10821.000000
 40
0.000000
 41
0.000000
 42
1.000000
  0
VERTEX
  8
ETCH_TOP
 10
250.000000
 20
10679.000000
 40
0.000000
 41
0.000000
 42
1.000000
  0
SEQEND
  0
POLYLINE
  8
ETCH_TOP
 66
1
 70
1
 40
0.000000
 41
0.000000
 39
0.000000
  0
VERTEX
  8
ETCH_TOP
 10
8750.000000
 20
321.000000
 40
0.000000
 41
0.000000
 42
1.000000
  0
VERTEX
  8
ETCH_TOP
 10
8750.000000
 20
179.000000
 40
0.000000
 41
0.000000
 42
1.000000
  0
SEQEND
  0
POLYLINE
  8
ETCH_TOP
 66
1
 70
1
 40
0.000000
 41
0.000000
 39
0.000000
  0
VERTEX
  8
ETCH_TOP
 10
250.000000
 20
321.000000
 40
0.000000
 41
0.000000
 42
1.000000
  0
VERTEX
  8
ETCH_TOP
 10
250.000000
 20
179.000000
 40
0.000000
 41
0.000000
 42
1.000000
  0
SEQEND
  0
POLYLINE
  8
ETCH_TOP
 66
1
 70
1
 40
0.000000
 41
0.000000
 39
0.000000
  0
VERTEX
  8
ETCH_TOP
 10
700.000000
 20
7380.000000
 40
0.000000
 41
0.000000
 42
1.000000
  0
VERTEX
  8
ETCH_TOP
 10
700.000000
 20
7130.000000
 40
0.000000
 41
0.000000
 42
1.000000
  0
SEQEND
  0
POLYLINE
  8
ETCH_TOP
 66
1
 70
1
 40
0.000000
 41
0.000000
 39
0.000000
  0
VERTEX
  8
ETCH_TOP
 10
5437.500000
 20
1062.500000
 40
0.000000
 41
0.000000
 42
1.000000
  0
VERTEX
  8
ETCH_TOP
 10
5437.500000
 20
937.500000
 40
0.000000
 41
0.000000
 42
1.000000
  0
SEQEND
  0
POLYLINE
  8
ETCH_TOP
 66
1
 70
1
 40
0.000000
 41
0.000000
 39
0.000000
  0
VERTEX
  8
ETCH_TOP
 10
4562.500000
 20
1062.500000
 40
0.000000
 41
0.000000
 42
1.000000
  0
VERTEX
  8
ETCH_TOP
 10
4562.500000
 20
937.500000
 40
0.000000
 41
0.000000
 42
1.000000
  0
SEQEND
  0
POLYLINE
  8
ETCH_TOP
 66
1
 70
1
 40
0.000000
 41
0.000000
 39
0.000000
  0
VERTEX
  8
ETCH_TOP
 10
5000.000000
 20
1300.000000
 40
0.000000
 41
0.000000
 42
1.000000
  0
VERTEX
  8
ETCH_TOP
 10
5000.000000
 20
700.000000
 40
0.000000
 41
0.000000
 42
1.000000
  0
SEQEND
  0
POLYLINE
  8
ETCH_TOP
 66
1
 70
1
 40
0.000000
 41
0.000000
 39
0.000000
  0
VERTEX
  8
ETCH_TOP
 10
4000.000000
 20
4485.000000
 40
0.000000
 41
0.000000
 42
1.000000
  0
VERTEX
  8
ETCH_TOP
 10
4000.000000
 20
5015.000000
 40
0.000000
 41
0.000000
 42
1.000000
  0
SEQEND
  0
POLYLINE
  8
ETCH_TOP
 66
1
 70
1
 40
0.000000
 41
0.000000
 39
0.000000
  0
VERTEX
  8
ETCH_TOP
 10
4000.000000
 20
4786.251000
 40
0.000000
 41
0.000000
 42
1.000000
  0
VERTEX
  8
ETCH_TOP
 10
4000.000000
 20
4713.749000
 40
0.000000
 41
0.000000
 42
1.000000
  0
SEQEND
  0
POLYLINE
  8
ETCH_TOP
 66
1
 70
1
 40
0.000000
 41
0.000000
 39
0.000000
  0
VERTEX
  8
ETCH_TOP
 10
1000.000000
 20
4485.000000
 40
0.000000
 41
0.000000
 42
1.000000
  0
VERTEX
  8
ETCH_TOP
 10
1000.000000
 20
5015.000000
 40
0.000000
 41
0.000000
 42
1.000000
  0
SEQEND
  0
POLYLINE
  8
ETCH_TOP
 66
1
 70
1
 40
0.000000
 41
0.000000
 39
0.000000
  0
VERTEX
  8
ETCH_TOP
 10
1000.000000
 20
4786.251000
 40
0.000000
 41
0.000000
 42
1.000000
  0
VERTEX
  8
ETCH_TOP
 10
1000.000000
 20
4713.749000
 40
0.000000
 41
0.000000
 42
1.000000
  0
SEQEND
  0
POLYLINE
  8
ETCH_TOP
 66
1
 70
1
 40
0.000000
 41
0.000000
 39
0.000000
  0
VERTEX
  8
ETCH_TOP
 10
2000.000000
 20
4485.000000
 40
0.000000
 41
0.000000
 42
1.000000
  0
VERTEX
  8
ETCH_TOP
 10
2000.000000
 20
5015.000000
 40
0.000000
 41
0.000000
 42
1.000000
  0
SEQEND
  0
POLYLINE
  8
ETCH_TOP
 66
1
 70
1
 40
0.000000
 41
0.000000
 39
0.000000
  0
VERTEX
  8
ETCH_TOP
 10
2000.000000
 20
4786.251000
 40
0.000000
 41
0.000000
 42
1.000000
  0
VERTEX
  8
ETCH_TOP
 10
2000.000000
 20
4713.749000
 40
0.000000
 41
0.000000
 42
1.000000
  0
SEQEND
  0
POLYLINE
  8
ETCH_TOP
 66
1
 70
1
 40
0.000000
 41
0.000000
 39
0.000000
  0
VERTEX
  8
ETCH_TOP
 10
3000.000000
 20
4485.000000
 40
0.000000
 41
0.000000
 42
1.000000
  0
VERTEX
  8
ETCH_TOP
 10
3000.000000
 20
5015.000000
 40
0.000000
 41
0.000000
 42
1.000000
  0
SEQEND
  0
POLYLINE
  8
ETCH_TOP
 66
1
 70
1
 40
0.000000
 41
0.000000
 39
0.000000
  0
VERTEX
  8
ETCH_TOP
 10
3000.000000
 20
4786.251000
 40
0.000000
 41
0.000000
 42
1.000000
  0
VERTEX
  8
ETCH_TOP
 10
3000.000000
 20
4713.749000
 40
0.000000
 41
0.000000
 42
1.000000
  0
SEQEND
  0
POLYLINE
  8
ETCH_TOP
 66
1
 70
1
 40
0.000000
 41
0.000000
 39
0.000000
  0
VERTEX
  8
ETCH_TOP
 10
5000.000000
 20
4485.000000
 40
0.000000
 41
0.000000
 42
1.000000
  0
VERTEX
  8
ETCH_TOP
 10
5000.000000
 20
5015.000000
 40
0.000000
 41
0.000000
 42
1.000000
  0
SEQEND
  0
POLYLINE
  8
ETCH_TOP
 66
1
 70
1
 40
0.000000
 41
0.000000
 39
0.000000
  0
VERTEX
  8
ETCH_TOP
 10
5000.000000
 20
4786.251000
 40
0.000000
 41
0.000000
 42
1.000000
  0
VERTEX
  8
ETCH_TOP
 10
5000.000000
 20
4713.749000
 40
0.000000
 41
0.000000
 42
1.000000
  0
SEQEND
  0
POLYLINE
  8
ETCH_TOP
 66
1
 70
1
 40
0.000000
 41
0.000000
 39
0.000000
  0
VERTEX
  8
ETCH_TOP
 10
6000.000000
 20
4485.000000
 40
0.000000
 41
0.000000
 42
1.000000
  0
VERTEX
  8
ETCH_TOP
 10
6000.000000
 20
5015.000000
 40
0.000000
 41
0.000000
 42
1.000000
  0
SEQEND
  0
POLYLINE
  8
ETCH_TOP
 66
1
 70
1
 40
0.000000
 41
0.000000
 39
0.000000
  0
VERTEX
  8
ETCH_TOP
 10
6000.000000
 20
4786.251000
 40
0.000000
 41
0.000000
 42
1.000000
  0
VERTEX
  8
ETCH_TOP
 10
6000.000000
 20
4713.749000
 40
0.000000
 41
0.000000
 42
1.000000
  0
SEQEND
  0
POLYLINE
  8
ETCH_TOP
 66
1
 70
1
 40
0.000000
 41
0.000000
 39
0.000000
  0
VERTEX
  8
ETCH_TOP
 10
7000.000000
 20
4485.000000
 40
0.000000
 41
0.000000
 42
1.000000
  0
VERTEX
  8
ETCH_TOP
 10
7000.000000
 20
5015.000000
 40
0.000000
 41
0.000000
 42
1.000000
  0
SEQEND
  0
POLYLINE
  8
ETCH_TOP
 66
1
 70
1
 40
0.000000
 41
0.000000
 39
0.000000
  0
VERTEX
  8
ETCH_TOP
 10
7000.000000
 20
4786.251000
 40
0.000000
 41
0.000000
 42
1.000000
  0
VERTEX
  8
ETCH_TOP
 10
7000.000000
 20
4713.749000
 40
0.000000
 41
0.000000
 42
1.000000
  0
SEQEND
  0
POLYLINE
  8
ETCH_TOP
 66
1
 70
1
 40
0.000000
 41
0.000000
 39
0.000000
  0
VERTEX
  8
ETCH_TOP
 10
8000.000000
 20
4485.000000
 40
0.000000
 41
0.000000
 42
1.000000
  0
VERTEX
  8
ETCH_TOP
 10
8000.000000
 20
5015.000000
 40
0.000000
 41
0.000000
 42
1.000000
  0
SEQEND
  0
POLYLINE
  8
ETCH_TOP
 66
1
 70
1
 40
0.000000
 41
0.000000
 39
0.000000
  0
VERTEX
  8
ETCH_TOP
 10
8000.000000
 20
4786.251000
 40
0.000000
 41
0.000000
 42
1.000000
  0
VERTEX
  8
ETCH_TOP
 10
8000.000000
 20
4713.749000
 40
0.000000
 41
0.000000
 42
1.000000
  0
SEQEND
  0
POLYLINE
  8
ETCH_TOP
 66
1
 70
1
 40
0.000000
 41
0.000000
 39
0.000000
  0
VERTEX
  8
ETCH_TOP
 10
7500.000000
 20
5485.000000
 40
0.000000
 41
0.000000
 42
1.000000
  0
VERTEX
  8
ETCH_TOP
 10
7500.000000
 20
6015.000000
 40
0.000000
 41
0.000000
 42
1.000000
  0
SEQEND
  0
POLYLINE
  8
ETCH_TOP
 66
1
 70
1
 40
0.000000
 41
0.000000
 39
0.000000
  0
VERTEX
  8
ETCH_TOP
 10
7500.000000
 20
5786.251000
 40
0.000000
 41
0.000000
 42
1.000000
  0
VERTEX
  8
ETCH_TOP
 10
7500.000000
 20
5713.749000
 40
0.000000
 41
0.000000
 42
1.000000
  0
SEQEND
  0
POLYLINE
  8
ETCH_TOP
 66
1
 70
1
 40
0.000000
 41
0.000000
 39
0.000000
  0
VERTEX
  8
ETCH_TOP
 10
6500.000000
 20
5485.000000
 40
0.000000
 41
0.000000
 42
1.000000
  0
VERTEX
  8
ETCH_TOP
 10
6500.000000
 20
6015.000000
 40
0.000000
 41
0.000000
 42
1.000000
  0
SEQEND
  0
POLYLINE
  8
ETCH_TOP
 66
1
 70
1
 40
0.000000
 41
0.000000
 39
0.000000
  0
VERTEX
  8
ETCH_TOP
 10
6500.000000
 20
5786.251000
 40
0.000000
 41
0.000000
 42
1.000000
  0
VERTEX
  8
ETCH_TOP
 10
6500.000000
 20
5713.749000
 40
0.000000
 41
0.000000
 42
1.000000
  0
SEQEND
  0
POLYLINE
  8
ETCH_TOP
 66
1
 70
1
 40
0.000000
 41
0.000000
 39
0.000000
  0
VERTEX
  8
ETCH_TOP
 10
5500.000000
 20
5485.000000
 40
0.000000
 41
0.000000
 42
1.000000
  0
VERTEX
  8
ETCH_TOP
 10
5500.000000
 20
6015.000000
 40
0.000000
 41
0.000000
 42
1.000000
  0
SEQEND
  0
POLYLINE
  8
ETCH_TOP
 66
1
 70
1
 40
0.000000
 41
0.000000
 39
0.000000
  0
VERTEX
  8
ETCH_TOP
 10
5500.000000
 20
5786.251000
 40
0.000000
 41
0.000000
 42
1.000000
  0
VERTEX
  8
ETCH_TOP
 10
5500.000000
 20
5713.749000
 40
0.000000
 41
0.000000
 42
1.000000
  0
SEQEND
  0
POLYLINE
  8
ETCH_TOP
 66
1
 70
1
 40
0.000000
 41
0.000000
 39
0.000000
  0
VERTEX
  8
ETCH_TOP
 10
4500.000000
 20
5485.000000
 40
0.000000
 41
0.000000
 42
1.000000
  0
VERTEX
  8
ETCH_TOP
 10
4500.000000
 20
6015.000000
 40
0.000000
 41
0.000000
 42
1.000000
  0
SEQEND
  0
POLYLINE
  8
ETCH_TOP
 66
1
 70
1
 40
0.000000
 41
0.000000
 39
0.000000
  0
VERTEX
  8
ETCH_TOP
 10
4500.000000
 20
5786.251000
 40
0.000000
 41
0.000000
 42
1.000000
  0
VERTEX
  8
ETCH_TOP
 10
4500.000000
 20
5713.749000
 40
0.000000
 41
0.000000
 42
1.000000
  0
SEQEND
  0
POLYLINE
  8
ETCH_TOP
 66
1
 70
1
 40
0.000000
 41
0.000000
 39
0.000000
  0
VERTEX
  8
ETCH_TOP
 10
3500.000000
 20
5485.000000
 40
0.000000
 41
0.000000
 42
1.000000
  0
VERTEX
  8
ETCH_TOP
 10
3500.000000
 20
6015.000000
 40
0.000000
 41
0.000000
 42
1.000000
  0
SEQEND
  0
POLYLINE
  8
ETCH_TOP
 66
1
 70
1
 40
0.000000
 41
0.000000
 39
0.000000
  0
VERTEX
  8
ETCH_TOP
 10
3500.000000
 20
5786.251000
 40
0.000000
 41
0.000000
 42
1.000000
  0
VERTEX
  8
ETCH_TOP
 10
3500.000000
 20
5713.749000
 40
0.000000
 41
0.000000
 42
1.000000
  0
SEQEND
  0
POLYLINE
  8
ETCH_TOP
 66
1
 70
1
 40
0.000000
 41
0.000000
 39
0.000000
  0
VERTEX
  8
ETCH_TOP
 10
2500.000000
 20
5485.000000
 40
0.000000
 41
0.000000
 42
1.000000
  0
VERTEX
  8
ETCH_TOP
 10
2500.000000
 20
6015.000000
 40
0.000000
 41
0.000000
 42
1.000000
  0
SEQEND
  0
POLYLINE
  8
ETCH_TOP
 66
1
 70
1
 40
0.000000
 41
0.000000
 39
0.000000
  0
VERTEX
  8
ETCH_TOP
 10
2500.000000
 20
5786.251000
 40
0.000000
 41
0.000000
 42
1.000000
  0
VERTEX
  8
ETCH_TOP
 10
2500.000000
 20
5713.749000
 40
0.000000
 41
0.000000
 42
1.000000
  0
SEQEND
  0
POLYLINE
  8
ETCH_TOP
 66
1
 70
1
 40
0.000000
 41
0.000000
 39
0.000000
  0
VERTEX
  8
ETCH_TOP
 10
1500.000000
 20
5485.000000
 40
0.000000
 41
0.000000
 42
1.000000
  0
VERTEX
  8
ETCH_TOP
 10
1500.000000
 20
6015.000000
 40
0.000000
 41
0.000000
 42
1.000000
  0
SEQEND
  0
POLYLINE
  8
ETCH_TOP
 66
1
 70
1
 40
0.000000
 41
0.000000
 39
0.000000
  0
VERTEX
  8
ETCH_TOP
 10
1500.000000
 20
5786.251000
 40
0.000000
 41
0.000000
 42
1.000000
  0
VERTEX
  8
ETCH_TOP
 10
1500.000000
 20
5713.749000
 40
0.000000
 41
0.000000
 42
1.000000
  0
SEQEND
  0
POLYLINE
  8
ETCH_TOP
 66
1
 70
1
 40
0.000000
 41
0.000000
 39
0.000000
  0
VERTEX
  8
ETCH_TOP
 10
2151.220000
 20
8241.000000
 40
0.000000
 41
0.000000
 42
0.000000
  0
VERTEX
  8
ETCH_TOP
 10
2619.220000
 20
8241.000000
 40
0.000000
 41
0.000000
 42
-0.414214
  0
VERTEX
  8
ETCH_TOP
 10
2621.220000
 20
8239.000000
 40
0.000000
 41
0.000000
 42
0.000000
  0
VERTEX
  8
ETCH_TOP
 10
2621.220000
 20
7771.000000
 40
0.000000
 41
0.000000
 42
-0.414214
  0
VERTEX
  8
ETCH_TOP
 10
2619.220000
 20
7769.000000
 40
0.000000
 41
0.000000
 42
0.000000
  0
VERTEX
  8
ETCH_TOP
 10
2151.220000
 20
7769.000000
 40
0.000000
 41
0.000000
 42
-0.414214
  0
VERTEX
  8
ETCH_TOP
 10
2149.220000
 20
7771.000000
 40
0.000000
 41
0.000000
 42
0.000000
  0
VERTEX
  8
ETCH_TOP
 10
2149.220000
 20
8239.000000
 40
0.000000
 41
0.000000
 42
-0.414214
  0
VERTEX
  8
ETCH_TOP
 10
2151.220000
 20
8241.000000
 40
0.000000
 41
0.000000
 42
0.000000
  0
SEQEND
  0
POLYLINE
  8
ETCH_TOP
 66
1
 70
1
 40
0.000000
 41
0.000000
 39
0.000000
  0
VERTEX
  8
ETCH_TOP
 10
2151.220000
 20
6741.000000
 40
0.000000
 41
0.000000
 42
0.000000
  0
VERTEX
  8
ETCH_TOP
 10
2619.220000
 20
6741.000000
 40
0.000000
 41
0.000000
 42
-0.414214
  0
VERTEX
  8
ETCH_TOP
 10
2621.220000
 20
6739.000000
 40
0.000000
 41
0.000000
 42
0.000000
  0
VERTEX
  8
ETCH_TOP
 10
2621.220000
 20
6271.000000
 40
0.000000
 41
0.000000
 42
-0.414214
  0
VERTEX
  8
ETCH_TOP
 10
2619.220000
 20
6269.000000
 40
0.000000
 41
0.000000
 42
0.000000
  0
VERTEX
  8
ETCH_TOP
 10
2151.220000
 20
6269.000000
 40
0.000000
 41
0.000000
 42
-0.414214
  0
VERTEX
  8
ETCH_TOP
 10
2149.220000
 20
6271.000000
 40
0.000000
 41
0.000000
 42
0.000000
  0
VERTEX
  8
ETCH_TOP
 10
2149.220000
 20
6739.000000
 40
0.000000
 41
0.000000
 42
-0.414214
  0
VERTEX
  8
ETCH_TOP
 10
2151.220000
 20
6741.000000
 40
0.000000
 41
0.000000
 42
0.000000
  0
SEQEND
  0
POLYLINE
  8
ETCH_TOP
 66
1
 70
1
 40
0.000000
 41
0.000000
 39
0.000000
  0
VERTEX
  8
ETCH_TOP
 10
2901.220000
 20
7491.000000
 40
0.000000
 41
0.000000
 42
0.000000
  0
VERTEX
  8
ETCH_TOP
 10
3369.220000
 20
7491.000000
 40
0.000000
 41
0.000000
 42
-0.414214
  0
VERTEX
  8
ETCH_TOP
 10
3371.220000
 20
7489.000000
 40
0.000000
 41
0.000000
 42
0.000000
  0
VERTEX
  8
ETCH_TOP
 10
3371.220000
 20
7021.000000
 40
0.000000
 41
0.000000
 42
-0.414214
  0
VERTEX
  8
ETCH_TOP
 10
3369.220000
 20
7019.000000
 40
0.000000
 41
0.000000
 42
0.000000
  0
VERTEX
  8
ETCH_TOP
 10
2901.220000
 20
7019.000000
 40
0.000000
 41
0.000000
 42
-0.414214
  0
VERTEX
  8
ETCH_TOP
 10
2899.220000
 20
7021.000000
 40
0.000000
 41
0.000000
 42
0.000000
  0
VERTEX
  8
ETCH_TOP
 10
2899.220000
 20
7489.000000
 40
0.000000
 41
0.000000
 42
-0.414214
  0
VERTEX
  8
ETCH_TOP
 10
2901.220000
 20
7491.000000
 40
0.000000
 41
0.000000
 42
0.000000
  0
SEQEND
  0
POLYLINE
  8
ETCH_TOP
 66
1
 70
1
 40
0.000000
 41
0.000000
 39
0.000000
  0
VERTEX
  8
ETCH_TOP
 10
1871.220000
 20
7489.000000
 40
0.000000
 41
0.000000
 42
0.000000
  0
VERTEX
  8
ETCH_TOP
 10
1871.220000
 20
7021.000000
 40
0.000000
 41
0.000000
 42
-0.414214
  0
VERTEX
  8
ETCH_TOP
 10
1869.220000
 20
7019.000000
 40
0.000000
 41
0.000000
 42
0.000000
  0
VERTEX
  8
ETCH_TOP
 10
1401.220000
 20
7019.000000
 40
0.000000
 41
0.000000
 42
-0.414214
  0
VERTEX
  8
ETCH_TOP
 10
1399.220000
 20
7021.000000
 40
0.000000
 41
0.000000
 42
0.000000
  0
VERTEX
  8
ETCH_TOP
 10
1399.220000
 20
7489.000000
 40
0.000000
 41
0.000000
 42
-0.414214
  0
VERTEX
  8
ETCH_TOP
 10
1401.220000
 20
7491.000000
 40
0.000000
 41
0.000000
 42
0.000000
  0
VERTEX
  8
ETCH_TOP
 10
1869.220000
 20
7491.000000
 40
0.000000
 41
0.000000
 42
-0.414214
  0
VERTEX
  8
ETCH_TOP
 10
1871.220000
 20
7489.000000
 40
0.000000
 41
0.000000
 42
0.000000
  0
SEQEND
  0
POLYLINE
  8
ETCH_TOP
 66
1
 70
1
 40
0.000000
 41
0.000000
 39
0.000000
  0
VERTEX
  8
ETCH_TOP
 10
7485.000000
 20
7552.500000
 40
0.000000
 41
0.000000
 42
0.000000
  0
VERTEX
  8
ETCH_TOP
 10
7485.000000
 20
7005.500000
 40
0.000000
 41
0.000000
 42
-0.414214
  0
VERTEX
  8
ETCH_TOP
 10
7483.000000
 20
7003.500000
 40
0.000000
 41
0.000000
 42
0.000000
  0
VERTEX
  8
ETCH_TOP
 10
4967.000000
 20
7003.500000
 40
0.000000
 41
0.000000
 42
-0.414214
  0
VERTEX
  8
ETCH_TOP
 10
4965.000000
 20
7005.500000
 40
0.000000
 41
0.000000
 42
0.000000
  0
VERTEX
  8
ETCH_TOP
 10
4965.000000
 20
7552.500000
 40
0.000000
 41
0.000000
 42
-0.414214
  0
VERTEX
  8
ETCH_TOP
 10
4967.000000
 20
7554.500000
 40
0.000000
 41
0.000000
 42
0.000000
  0
VERTEX
  8
ETCH_TOP
 10
7483.000000
 20
7554.500000
 40
0.000000
 41
0.000000
 42
-0.414214
  0
VERTEX
  8
ETCH_TOP
 10
7485.000000
 20
7552.500000
 40
0.000000
 41
0.000000
 42
0.000000
  0
SEQEND
  0
POLYLINE
  8
ETCH_TOP
 66
1
 70
1
 40
0.000000
 41
0.000000
 39
0.000000
  0
VERTEX
  8
ETCH_TOP
 10
7500.000000
 20
1440.000000
 40
0.000000
 41
0.000000
 42
1.000000
  0
VERTEX
  8
ETCH_TOP
 10
7500.000000
 20
2060.000000
 40
0.000000
 41
0.000000
 42
1.000000
  0
SEQEND
  0
POLYLINE
  8
ETCH_TOP
 66
1
 70
1
 40
0.000000
 41
0.000000
 39
0.000000
  0
VERTEX
  8
ETCH_TOP
 10
7500.000000
 20
1786.251000
 40
0.000000
 41
0.000000
 42
1.000000
  0
VERTEX
  8
ETCH_TOP
 10
7500.000000
 20
1713.749000
 40
0.000000
 41
0.000000
 42
1.000000
  0
SEQEND
  0
POLYLINE
  8
ETCH_TOP
 66
1
 70
1
 40
0.000000
 41
0.000000
 39
0.000000
  0
VERTEX
  8
ETCH_TOP
 10
6500.000000
 20
1440.000000
 40
0.000000
 41
0.000000
 42
1.000000
  0
VERTEX
  8
ETCH_TOP
 10
6500.000000
 20
2060.000000
 40
0.000000
 41
0.000000
 42
1.000000
  0
SEQEND
  0
POLYLINE
  8
ETCH_TOP
 66
1
 70
1
 40
0.000000
 41
0.000000
 39
0.000000
  0
VERTEX
  8
ETCH_TOP
 10
6500.000000
 20
1786.251000
 40
0.000000
 41
0.000000
 42
1.000000
  0
VERTEX
  8
ETCH_TOP
 10
6500.000000
 20
1713.749000
 40
0.000000
 41
0.000000
 42
1.000000
  0
SEQEND
  0
POLYLINE
  8
ETCH_TOP
 66
1
 70
1
 40
0.000000
 41
0.000000
 39
0.000000
  0
VERTEX
  8
ETCH_TOP
 10
5500.000000
 20
1440.000000
 40
0.000000
 41
0.000000
 42
1.000000
  0
VERTEX
  8
ETCH_TOP
 10
5500.000000
 20
2060.000000
 40
0.000000
 41
0.000000
 42
1.000000
  0
SEQEND
  0
POLYLINE
  8
ETCH_TOP
 66
1
 70
1
 40
0.000000
 41
0.000000
 39
0.000000
  0
VERTEX
  8
ETCH_TOP
 10
5500.000000
 20
1786.251000
 40
0.000000
 41
0.000000
 42
1.000000
  0
VERTEX
  8
ETCH_TOP
 10
5500.000000
 20
1713.749000
 40
0.000000
 41
0.000000
 42
1.000000
  0
SEQEND
  0
POLYLINE
  8
ETCH_TOP
 66
1
 70
1
 40
0.000000
 41
0.000000
 39
0.000000
  0
VERTEX
  8
ETCH_TOP
 10
4500.000000
 20
1440.000000
 40
0.000000
 41
0.000000
 42
1.000000
  0
VERTEX
  8
ETCH_TOP
 10
4500.000000
 20
2060.000000
 40
0.000000
 41
0.000000
 42
1.000000
  0
SEQEND
  0
POLYLINE
  8
ETCH_TOP
 66
1
 70
1
 40
0.000000
 41
0.000000
 39
0.000000
  0
VERTEX
  8
ETCH_TOP
 10
4500.000000
 20
1786.251000
 40
0.000000
 41
0.000000
 42
1.000000
  0
VERTEX
  8
ETCH_TOP
 10
4500.000000
 20
1713.749000
 40
0.000000
 41
0.000000
 42
1.000000
  0
SEQEND
  0
POLYLINE
  8
ETCH_TOP
 66
1
 70
1
 40
0.000000
 41
0.000000
 39
0.000000
  0
VERTEX
  8
ETCH_TOP
 10
8000.000000
 20
2440.000000
 40
0.000000
 41
0.000000
 42
1.000000
  0
VERTEX
  8
ETCH_TOP
 10
8000.000000
 20
3060.000000
 40
0.000000
 41
0.000000
 42
1.000000
  0
SEQEND
  0
POLYLINE
  8
ETCH_TOP
 66
1
 70
1
 40
0.000000
 41
0.000000
 39
0.000000
  0
VERTEX
  8
ETCH_TOP
 10
8000.000000
 20
2786.251000
 40
0.000000
 41
0.000000
 42
1.000000
  0
VERTEX
  8
ETCH_TOP
 10
8000.000000
 20
2713.749000
 40
0.000000
 41
0.000000
 42
1.000000
  0
SEQEND
  0
POLYLINE
  8
ETCH_TOP
 66
1
 70
1
 40
0.000000
 41
0.000000
 39
0.000000
  0
VERTEX
  8
ETCH_TOP
 10
7000.000000
 20
2440.000000
 40
0.000000
 41
0.000000
 42
1.000000
  0
VERTEX
  8
ETCH_TOP
 10
7000.000000
 20
3060.000000
 40
0.000000
 41
0.000000
 42
1.000000
  0
SEQEND
  0
POLYLINE
  8
ETCH_TOP
 66
1
 70
1
 40
0.000000
 41
0.000000
 39
0.000000
  0
VERTEX
  8
ETCH_TOP
 10
7000.000000
 20
2786.251000
 40
0.000000
 41
0.000000
 42
1.000000
  0
VERTEX
  8
ETCH_TOP
 10
7000.000000
 20
2713.749000
 40
0.000000
 41
0.000000
 42
1.000000
  0
SEQEND
  0
POLYLINE
  8
ETCH_TOP
 66
1
 70
1
 40
0.000000
 41
0.000000
 39
0.000000
  0
VERTEX
  8
ETCH_TOP
 10
6000.000000
 20
2440.000000
 40
0.000000
 41
0.000000
 42
1.000000
  0
VERTEX
  8
ETCH_TOP
 10
6000.000000
 20
3060.000000
 40
0.000000
 41
0.000000
 42
1.000000
  0
SEQEND
  0
POLYLINE
  8
ETCH_TOP
 66
1
 70
1
 40
0.000000
 41
0.000000
 39
0.000000
  0
VERTEX
  8
ETCH_TOP
 10
6000.000000
 20
2786.251000
 40
0.000000
 41
0.000000
 42
1.000000
  0
VERTEX
  8
ETCH_TOP
 10
6000.000000
 20
2713.749000
 40
0.000000
 41
0.000000
 42
1.000000
  0
SEQEND
  0
POLYLINE
  8
ETCH_TOP
 66
1
 70
1
 40
0.000000
 41
0.000000
 39
0.000000
  0
VERTEX
  8
ETCH_TOP
 10
5000.000000
 20
2440.000000
 40
0.000000
 41
0.000000
 42
1.000000
  0
VERTEX
  8
ETCH_TOP
 10
5000.000000
 20
3060.000000
 40
0.000000
 41
0.000000
 42
1.000000
  0
SEQEND
  0
POLYLINE
  8
ETCH_TOP
 66
1
 70
1
 40
0.000000
 41
0.000000
 39
0.000000
  0
VERTEX
  8
ETCH_TOP
 10
5000.000000
 20
2786.251000
 40
0.000000
 41
0.000000
 42
1.000000
  0
VERTEX
  8
ETCH_TOP
 10
5000.000000
 20
2713.749000
 40
0.000000
 41
0.000000
 42
1.000000
  0
SEQEND
  0
POLYLINE
  8
ETCH_TOP
 66
1
 70
1
 40
0.000000
 41
0.000000
 39
0.000000
  0
VERTEX
  8
ETCH_TOP
 10
4000.000000
 20
2440.000000
 40
0.000000
 41
0.000000
 42
1.000000
  0
VERTEX
  8
ETCH_TOP
 10
4000.000000
 20
3060.000000
 40
0.000000
 41
0.000000
 42
1.000000
  0
SEQEND
  0
POLYLINE
  8
ETCH_TOP
 66
1
 70
1
 40
0.000000
 41
0.000000
 39
0.000000
  0
VERTEX
  8
ETCH_TOP
 10
4000.000000
 20
2786.251000
 40
0.000000
 41
0.000000
 42
1.000000
  0
VERTEX
  8
ETCH_TOP
 10
4000.000000
 20
2713.749000
 40
0.000000
 41
0.000000
 42
1.000000
  0
SEQEND
  0
POLYLINE
  8
ETCH_TOP
 66
1
 70
1
 40
0.000000
 41
0.000000
 39
0.000000
  0
VERTEX
  8
ETCH_TOP
 10
3000.000000
 20
2440.000000
 40
0.000000
 41
0.000000
 42
1.000000
  0
VERTEX
  8
ETCH_TOP
 10
3000.000000
 20
3060.000000
 40
0.000000
 41
0.000000
 42
1.000000
  0
SEQEND
  0
POLYLINE
  8
ETCH_TOP
 66
1
 70
1
 40
0.000000
 41
0.000000
 39
0.000000
  0
VERTEX
  8
ETCH_TOP
 10
3000.000000
 20
2786.251000
 40
0.000000
 41
0.000000
 42
1.000000
  0
VERTEX
  8
ETCH_TOP
 10
3000.000000
 20
2713.749000
 40
0.000000
 41
0.000000
 42
1.000000
  0
SEQEND
  0
POLYLINE
  8
ETCH_TOP
 66
1
 70
1
 40
0.000000
 41
0.000000
 39
0.000000
  0
VERTEX
  8
ETCH_TOP
 10
2000.000000
 20
2440.000000
 40
0.000000
 41
0.000000
 42
1.000000
  0
VERTEX
  8
ETCH_TOP
 10
2000.000000
 20
3060.000000
 40
0.000000
 41
0.000000
 42
1.000000
  0
SEQEND
  0
POLYLINE
  8
ETCH_TOP
 66
1
 70
1
 40
0.000000
 41
0.000000
 39
0.000000
  0
VERTEX
  8
ETCH_TOP
 10
2000.000000
 20
2786.251000
 40
0.000000
 41
0.000000
 42
1.000000
  0
VERTEX
  8
ETCH_TOP
 10
2000.000000
 20
2713.749000
 40
0.000000
 41
0.000000
 42
1.000000
  0
SEQEND
  0
POLYLINE
  8
ETCH_TOP
 66
1
 70
1
 40
0.000000
 41
0.000000
 39
0.000000
  0
VERTEX
  8
ETCH_TOP
 10
3500.000000
 20
1440.000000
 40
0.000000
 41
0.000000
 42
1.000000
  0
VERTEX
  8
ETCH_TOP
 10
3500.000000
 20
2060.000000
 40
0.000000
 41
0.000000
 42
1.000000
  0
SEQEND
  0
POLYLINE
  8
ETCH_TOP
 66
1
 70
1
 40
0.000000
 41
0.000000
 39
0.000000
  0
VERTEX
  8
ETCH_TOP
 10
3500.000000
 20
1786.251000
 40
0.000000
 41
0.000000
 42
1.000000
  0
VERTEX
  8
ETCH_TOP
 10
3500.000000
 20
1713.749000
 40
0.000000
 41
0.000000
 42
1.000000
  0
SEQEND
  0
POLYLINE
  8
ETCH_TOP
 66
1
 70
1
 40
0.000000
 41
0.000000
 39
0.000000
  0
VERTEX
  8
ETCH_TOP
 10
2500.000000
 20
1440.000000
 40
0.000000
 41
0.000000
 42
1.000000
  0
VERTEX
  8
ETCH_TOP
 10
2500.000000
 20
2060.000000
 40
0.000000
 41
0.000000
 42
1.000000
  0
SEQEND
  0
POLYLINE
  8
ETCH_TOP
 66
1
 70
1
 40
0.000000
 41
0.000000
 39
0.000000
  0
VERTEX
  8
ETCH_TOP
 10
2500.000000
 20
1786.251000
 40
0.000000
 41
0.000000
 42
1.000000
  0
VERTEX
  8
ETCH_TOP
 10
2500.000000
 20
1713.749000
 40
0.000000
 41
0.000000
 42
1.000000
  0
SEQEND
  0
POLYLINE
  8
ETCH_TOP
 66
1
 70
1
 40
0.000000
 41
0.000000
 39
0.000000
  0
VERTEX
  8
ETCH_TOP
 10
1500.000000
 20
1440.000000
 40
0.000000
 41
0.000000
 42
1.000000
  0
VERTEX
  8
ETCH_TOP
 10
1500.000000
 20
2060.000000
 40
0.000000
 41
0.000000
 42
1.000000
  0
SEQEND
  0
POLYLINE
  8
ETCH_TOP
 66
1
 70
1
 40
0.000000
 41
0.000000
 39
0.000000
  0
VERTEX
  8
ETCH_TOP
 10
1500.000000
 20
1786.251000
 40
0.000000
 41
0.000000
 42
1.000000
  0
VERTEX
  8
ETCH_TOP
 10
1500.000000
 20
1713.749000
 40
0.000000
 41
0.000000
 42
1.000000
  0
SEQEND
  0
POLYLINE
  8
ETCH_TOP
 66
1
 70
1
 40
0.000000
 41
0.000000
 39
0.000000
  0
VERTEX
  8
ETCH_TOP
 10
1000.000000
 20
2440.000000
 40
0.000000
 41
0.000000
 42
1.000000
  0
VERTEX
  8
ETCH_TOP
 10
1000.000000
 20
3060.000000
 40
0.000000
 41
0.000000
 42
1.000000
  0
SEQEND
  0
POLYLINE
  8
ETCH_TOP
 66
1
 70
1
 40
0.000000
 41
0.000000
 39
0.000000
  0
VERTEX
  8
ETCH_TOP
 10
1000.000000
 20
2786.251000
 40
0.000000
 41
0.000000
 42
1.000000
  0
VERTEX
  8
ETCH_TOP
 10
1000.000000
 20
2713.749000
 40
0.000000
 41
0.000000
 42
1.000000
  0
SEQEND
  0
POLYLINE
  8
ETCH_TOP
 66
1
 70
1
 40
0.000000
 41
0.000000
 39
0.000000
  0
VERTEX
  8
ETCH_TOP
 10
3463.000000
 20
815.000000
 40
0.000000
 41
0.000000
 42
0.000000
  0
VERTEX
  8
ETCH_TOP
 10
3092.000000
 20
815.000000
 40
0.000000
 41
0.000000
 42
-0.414214
  0
VERTEX
  8
ETCH_TOP
 10
3090.000000
 20
817.000000
 40
0.000000
 41
0.000000
 42
0.000000
  0
VERTEX
  8
ETCH_TOP
 10
3090.000000
 20
1263.000000
 40
0.000000
 41
0.000000
 42
-0.414214
  0
VERTEX
  8
ETCH_TOP
 10
3092.000000
 20
1265.000000
 40
0.000000
 41
0.000000
 42
0.000000
  0
VERTEX
  8
ETCH_TOP
 10
3463.000000
 20
1265.000000
 40
0.000000
 41
0.000000
 42
-0.414214
  0
VERTEX
  8
ETCH_TOP
 10
3465.000000
 20
1263.000000
 40
0.000000
 41
0.000000
 42
0.000000
  0
VERTEX
  8
ETCH_TOP
 10
3465.000000
 20
817.000000
 40
0.000000
 41
0.000000
 42
-0.414214
  0
VERTEX
  8
ETCH_TOP
 10
3463.000000
 20
815.000000
 40
0.000000
 41
0.000000
 42
0.000000
  0
SEQEND
  0
POLYLINE
  8
ETCH_TOP
 66
1
 70
1
 40
0.000000
 41
0.000000
 39
0.000000
  0
VERTEX
  8
ETCH_TOP
 10
1164.500000
 20
890.000000
 40
0.000000
 41
0.000000
 42
-0.414214
  0
VERTEX
  8
ETCH_TOP
 10
1162.500000
 20
892.000000
 40
0.000000
 41
0.000000
 42
0.000000
  0
VERTEX
  8
ETCH_TOP
 10
1162.500000
 20
1238.000000
 40
0.000000
 41
0.000000
 42
-0.414214
  0
VERTEX
  8
ETCH_TOP
 10
1164.500000
 20
1240.000000
 40
0.000000
 41
0.000000
 42
0.000000
  0
VERTEX
  8
ETCH_TOP
 10
1835.500000
 20
1240.000000
 40
0.000000
 41
0.000000
 42
-0.414214
  0
VERTEX
  8
ETCH_TOP
 10
1837.500000
 20
1238.000000
 40
0.000000
 41
0.000000
 42
0.000000
  0
VERTEX
  8
ETCH_TOP
 10
1837.500000
 20
892.000000
 40
0.000000
 41
0.000000
 42
-0.414214
  0
VERTEX
  8
ETCH_TOP
 10
1835.500000
 20
890.000000
 40
0.000000
 41
0.000000
 42
0.000000
  0
SEQEND
  0
POLYLINE
  8
ETCH_TOP
 66
1
 70
1
 40
0.000000
 41
0.000000
 39
0.000000
  0
VERTEX
  8
ETCH_TOP
 10
2000.000000
 20
1140.000000
 40
0.000000
 41
0.000000
 42
1.000000
  0
VERTEX
  8
ETCH_TOP
 10
2000.000000
 20
990.000000
 40
0.000000
 41
0.000000
 42
1.000000
  0
SEQEND
  0
POLYLINE
  8
ETCH_TOP
 66
1
 70
1
 40
0.000000
 41
0.000000
 39
0.000000
  0
VERTEX
  8
ETCH_TOP
 10
1000.000000
 20
1140.000000
 40
0.000000
 41
0.000000
 42
1.000000
  0
VERTEX
  8
ETCH_TOP
 10
1000.000000
 20
990.000000
 40
0.000000
 41
0.000000
 42
1.000000
  0
SEQEND
  0
POLYLINE
  8
ETCH_TOP
 66
1
 70
1
 40
0.000000
 41
0.000000
 39
0.000000
  0
VERTEX
  8
ETCH_TOP
 10
4500.000000
 20
10812.500000
 40
0.000000
 41
0.000000
 42
1.000000
  0
VERTEX
  8
ETCH_TOP
 10
4500.000000
 20
10687.500000
 40
0.000000
 41
0.000000
 42
1.000000
  0
SEQEND
  0
POLYLINE
  8
ETCH_TOP
 66
1
 70
1
 40
0.000000
 41
0.000000
 39
0.000000
  0
VERTEX
  8
ETCH_TOP
 10
4500.000000
 20
312.500000
 40
0.000000
 41
0.000000
 42
1.000000
  0
VERTEX
  8
ETCH_TOP
 10
4500.000000
 20
187.500000
 40
0.000000
 41
0.000000
 42
1.000000
  0
SEQEND
  0
POLYLINE
  8
ETCH_TOP
 66
1
 70
1
 40
0.000000
 41
0.000000
 39
0.000000
  0
VERTEX
  8
ETCH_TOP
 10
1531.250000
 20
5750.000000
 40
0.000000
 41
0.000000
 42
1.000000
  0
VERTEX
  8
ETCH_TOP
 10
1468.750000
 20
5750.000000
 40
0.000000
 41
0.000000
 42
1.000000
  0
SEQEND
  0
POLYLINE
  8
ETCH_TOP
 66
1
 70
1
 40
0.000000
 41
0.000000
 39
0.000000
  0
VERTEX
  8
ETCH_TOP
 10
2531.250000
 20
5750.000000
 40
0.000000
 41
0.000000
 42
1.000000
  0
VERTEX
  8
ETCH_TOP
 10
2468.750000
 20
5750.000000
 40
0.000000
 41
0.000000
 42
1.000000
  0
SEQEND
  0
POLYLINE
  8
ETCH_TOP
 66
1
 70
1
 40
0.000000
 41
0.000000
 39
0.000000
  0
VERTEX
  8
ETCH_TOP
 10
3531.250000
 20
5750.000000
 40
0.000000
 41
0.000000
 42
1.000000
  0
VERTEX
  8
ETCH_TOP
 10
3468.750000
 20
5750.000000
 40
0.000000
 41
0.000000
 42
1.000000
  0
SEQEND
  0
POLYLINE
  8
ETCH_TOP
 66
1
 70
1
 40
0.000000
 41
0.000000
 39
0.000000
  0
VERTEX
  8
ETCH_TOP
 10
4531.250000
 20
5750.000000
 40
0.000000
 41
0.000000
 42
1.000000
  0
VERTEX
  8
ETCH_TOP
 10
4468.750000
 20
5750.000000
 40
0.000000
 41
0.000000
 42
1.000000
  0
SEQEND
  0
POLYLINE
  8
ETCH_TOP
 66
1
 70
1
 40
0.000000
 41
0.000000
 39
0.000000
  0
VERTEX
  8
ETCH_TOP
 10
5531.250000
 20
5750.000000
 40
0.000000
 41
0.000000
 42
1.000000
  0
VERTEX
  8
ETCH_TOP
 10
5468.750000
 20
5750.000000
 40
0.000000
 41
0.000000
 42
1.000000
  0
SEQEND
  0
POLYLINE
  8
ETCH_TOP
 66
1
 70
1
 40
0.000000
 41
0.000000
 39
0.000000
  0
VERTEX
  8
ETCH_TOP
 10
6531.250000
 20
5750.000000
 40
0.000000
 41
0.000000
 42
1.000000
  0
VERTEX
  8
ETCH_TOP
 10
6468.750000
 20
5750.000000
 40
0.000000
 41
0.000000
 42
1.000000
  0
SEQEND
  0
POLYLINE
  8
ETCH_TOP
 66
1
 70
1
 40
0.000000
 41
0.000000
 39
0.000000
  0
VERTEX
  8
ETCH_TOP
 10
7531.250000
 20
5750.000000
 40
0.000000
 41
0.000000
 42
1.000000
  0
VERTEX
  8
ETCH_TOP
 10
7468.750000
 20
5750.000000
 40
0.000000
 41
0.000000
 42
1.000000
  0
SEQEND
  0
POLYLINE
  8
ETCH_TOP
 66
1
 70
1
 40
0.000000
 41
0.000000
 39
0.000000
  0
VERTEX
  8
ETCH_TOP
 10
8031.250000
 20
4750.000000
 40
0.000000
 41
0.000000
 42
1.000000
  0
VERTEX
  8
ETCH_TOP
 10
7968.750000
 20
4750.000000
 40
0.000000
 41
0.000000
 42
1.000000
  0
SEQEND
  0
POLYLINE
  8
ETCH_TOP
 66
1
 70
1
 40
0.000000
 41
0.000000
 39
0.000000
  0
VERTEX
  8
ETCH_TOP
 10
7031.250000
 20
4750.000000
 40
0.000000
 41
0.000000
 42
1.000000
  0
VERTEX
  8
ETCH_TOP
 10
6968.750000
 20
4750.000000
 40
0.000000
 41
0.000000
 42
1.000000
  0
SEQEND
  0
POLYLINE
  8
ETCH_TOP
 66
1
 70
1
 40
0.000000
 41
0.000000
 39
0.000000
  0
VERTEX
  8
ETCH_TOP
 10
6031.250000
 20
4750.000000
 40
0.000000
 41
0.000000
 42
1.000000
  0
VERTEX
  8
ETCH_TOP
 10
5968.750000
 20
4750.000000
 40
0.000000
 41
0.000000
 42
1.000000
  0
SEQEND
  0
POLYLINE
  8
ETCH_TOP
 66
1
 70
1
 40
0.000000
 41
0.000000
 39
0.000000
  0
VERTEX
  8
ETCH_TOP
 10
5031.250000
 20
4750.000000
 40
0.000000
 41
0.000000
 42
1.000000
  0
VERTEX
  8
ETCH_TOP
 10
4968.750000
 20
4750.000000
 40
0.000000
 41
0.000000
 42
1.000000
  0
SEQEND
  0
POLYLINE
  8
ETCH_TOP
 66
1
 70
1
 40
0.000000
 41
0.000000
 39
0.000000
  0
VERTEX
  8
ETCH_TOP
 10
4031.250000
 20
4750.000000
 40
0.000000
 41
0.000000
 42
1.000000
  0
VERTEX
  8
ETCH_TOP
 10
3968.750000
 20
4750.000000
 40
0.000000
 41
0.000000
 42
1.000000
  0
SEQEND
  0
POLYLINE
  8
ETCH_TOP
 66
1
 70
1
 40
0.000000
 41
0.000000
 39
0.000000
  0
VERTEX
  8
ETCH_TOP
 10
3031.250000
 20
4750.000000
 40
0.000000
 41
0.000000
 42
1.000000
  0
VERTEX
  8
ETCH_TOP
 10
2968.750000
 20
4750.000000
 40
0.000000
 41
0.000000
 42
1.000000
  0
SEQEND
  0
POLYLINE
  8
ETCH_TOP
 66
1
 70
1
 40
0.000000
 41
0.000000
 39
0.000000
  0
VERTEX
  8
ETCH_TOP
 10
2031.250000
 20
4750.000000
 40
0.000000
 41
0.000000
 42
1.000000
  0
VERTEX
  8
ETCH_TOP
 10
1968.750000
 20
4750.000000
 40
0.000000
 41
0.000000
 42
1.000000
  0
SEQEND
  0
POLYLINE
  8
ETCH_TOP
 66
1
 70
1
 40
0.000000
 41
0.000000
 39
0.000000
  0
VERTEX
  8
ETCH_TOP
 10
1031.250000
 20
4750.000000
 40
0.000000
 41
0.000000
 42
1.000000
  0
VERTEX
  8
ETCH_TOP
 10
968.750000
 20
4750.000000
 40
0.000000
 41
0.000000
 42
1.000000
  0
SEQEND
  0
POLYLINE
  8
ETCH_TOP
 66
1
 70
1
 40
0.000000
 41
0.000000
 39
0.000000
  0
VERTEX
  8
ETCH_TOP
 10
1531.250000
 20
1750.000000
 40
0.000000
 41
0.000000
 42
1.000000
  0
VERTEX
  8
ETCH_TOP
 10
1468.750000
 20
1750.000000
 40
0.000000
 41
0.000000
 42
1.000000
  0
SEQEND
  0
POLYLINE
  8
ETCH_TOP
 66
1
 70
1
 40
0.000000
 41
0.000000
 39
0.000000
  0
VERTEX
  8
ETCH_TOP
 10
2531.250000
 20
1750.000000
 40
0.000000
 41
0.000000
 42
1.000000
  0
VERTEX
  8
ETCH_TOP
 10
2468.750000
 20
1750.000000
 40
0.000000
 41
0.000000
 42
1.000000
  0
SEQEND
  0
POLYLINE
  8
ETCH_TOP
 66
1
 70
1
 40
0.000000
 41
0.000000
 39
0.000000
  0
VERTEX
  8
ETCH_TOP
 10
3531.250000
 20
1750.000000
 40
0.000000
 41
0.000000
 42
1.000000
  0
VERTEX
  8
ETCH_TOP
 10
3468.750000
 20
1750.000000
 40
0.000000
 41
0.000000
 42
1.000000
  0
SEQEND
  0
POLYLINE
  8
ETCH_TOP
 66
1
 70
1
 40
0.000000
 41
0.000000
 39
0.000000
  0
VERTEX
  8
ETCH_TOP
 10
4531.250000
 20
1750.000000
 40
0.000000
 41
0.000000
 42
1.000000
  0
VERTEX
  8
ETCH_TOP
 10
4468.750000
 20
1750.000000
 40
0.000000
 41
0.000000
 42
1.000000
  0
SEQEND
  0
POLYLINE
  8
ETCH_TOP
 66
1
 70
1
 40
0.000000
 41
0.000000
 39
0.000000
  0
VERTEX
  8
ETCH_TOP
 10
5531.250000
 20
1750.000000
 40
0.000000
 41
0.000000
 42
1.000000
  0
VERTEX
  8
ETCH_TOP
 10
5468.750000
 20
1750.000000
 40
0.000000
 41
0.000000
 42
1.000000
  0
SEQEND
  0
POLYLINE
  8
ETCH_TOP
 66
1
 70
1
 40
0.000000
 41
0.000000
 39
0.000000
  0
VERTEX
  8
ETCH_TOP
 10
6531.250000
 20
1750.000000
 40
0.000000
 41
0.000000
 42
1.000000
  0
VERTEX
  8
ETCH_TOP
 10
6468.750000
 20
1750.000000
 40
0.000000
 41
0.000000
 42
1.000000
  0
SEQEND
  0
POLYLINE
  8
ETCH_TOP
 66
1
 70
1
 40
0.000000
 41
0.000000
 39
0.000000
  0
VERTEX
  8
ETCH_TOP
 10
7531.250000
 20
1750.000000
 40
0.000000
 41
0.000000
 42
1.000000
  0
VERTEX
  8
ETCH_TOP
 10
7468.750000
 20
1750.000000
 40
0.000000
 41
0.000000
 42
1.000000
  0
SEQEND
  0
POLYLINE
  8
ETCH_TOP
 66
1
 70
1
 40
0.000000
 41
0.000000
 39
0.000000
  0
VERTEX
  8
ETCH_TOP
 10
8031.250000
 20
2750.000000
 40
0.000000
 41
0.000000
 42
1.000000
  0
VERTEX
  8
ETCH_TOP
 10
7968.750000
 20
2750.000000
 40
0.000000
 41
0.000000
 42
1.000000
  0
SEQEND
  0
POLYLINE
  8
ETCH_TOP
 66
1
 70
1
 40
0.000000
 41
0.000000
 39
0.000000
  0
VERTEX
  8
ETCH_TOP
 10
7031.250000
 20
2750.000000
 40
0.000000
 41
0.000000
 42
1.000000
  0
VERTEX
  8
ETCH_TOP
 10
6968.750000
 20
2750.000000
 40
0.000000
 41
0.000000
 42
1.000000
  0
SEQEND
  0
POLYLINE
  8
ETCH_TOP
 66
1
 70
1
 40
0.000000
 41
0.000000
 39
0.000000
  0
VERTEX
  8
ETCH_TOP
 10
6031.250000
 20
2750.000000
 40
0.000000
 41
0.000000
 42
1.000000
  0
VERTEX
  8
ETCH_TOP
 10
5968.750000
 20
2750.000000
 40
0.000000
 41
0.000000
 42
1.000000
  0
SEQEND
  0
POLYLINE
  8
ETCH_TOP
 66
1
 70
1
 40
0.000000
 41
0.000000
 39
0.000000
  0
VERTEX
  8
ETCH_TOP
 10
5031.250000
 20
2750.000000
 40
0.000000
 41
0.000000
 42
1.000000
  0
VERTEX
  8
ETCH_TOP
 10
4968.750000
 20
2750.000000
 40
0.000000
 41
0.000000
 42
1.000000
  0
SEQEND
  0
POLYLINE
  8
ETCH_TOP
 66
1
 70
1
 40
0.000000
 41
0.000000
 39
0.000000
  0
VERTEX
  8
ETCH_TOP
 10
4031.250000
 20
2750.000000
 40
0.000000
 41
0.000000
 42
1.000000
  0
VERTEX
  8
ETCH_TOP
 10
3968.750000
 20
2750.000000
 40
0.000000
 41
0.000000
 42
1.000000
  0
SEQEND
  0
POLYLINE
  8
ETCH_TOP
 66
1
 70
1
 40
0.000000
 41
0.000000
 39
0.000000
  0
VERTEX
  8
ETCH_TOP
 10
3031.250000
 20
2750.000000
 40
0.000000
 41
0.000000
 42
1.000000
  0
VERTEX
  8
ETCH_TOP
 10
2968.750000
 20
2750.000000
 40
0.000000
 41
0.000000
 42
1.000000
  0
SEQEND
  0
POLYLINE
  8
ETCH_TOP
 66
1
 70
1
 40
0.000000
 41
0.000000
 39
0.000000
  0
VERTEX
  8
ETCH_TOP
 10
2031.250000
 20
2750.000000
 40
0.000000
 41
0.000000
 42
1.000000
  0
VERTEX
  8
ETCH_TOP
 10
1968.750000
 20
2750.000000
 40
0.000000
 41
0.000000
 42
1.000000
  0
SEQEND
  0
POLYLINE
  8
ETCH_TOP
 66
1
 70
1
 40
0.000000
 41
0.000000
 39
0.000000
  0
VERTEX
  8
ETCH_TOP
 10
1031.250000
 20
2750.000000
 40
0.000000
 41
0.000000
 42
1.000000
  0
VERTEX
  8
ETCH_TOP
 10
968.750000
 20
2750.000000
 40
0.000000
 41
0.000000
 42
1.000000
  0
SEQEND
  0
POLYLINE
  8
ETCH_TOP
 66
1
 70
0
 40
0.000000
 41
0.000000
 39
0.000000
  0
VERTEX
  8
ETCH_TOP
 10
0.000000
 20
9750.000000
 40
5.000000
 41
5.000000
 42
0.000000
  0
VERTEX
  8
ETCH_TOP
 10
9000.000000
 20
9750.000000
 40
5.000000
 41
5.000000
 42
0.000000
  0
SEQEND
  0
POLYLINE
  8
ETCH_TOP
 66
1
 70
0
 40
0.000000
 41
0.000000
 39
0.000000
  0
VERTEX
  8
ETCH_TOP
 10
0.000000
 20
10500.000000
 40
5.000000
 41
5.000000
 42
0.000000
  0
VERTEX
  8
ETCH_TOP
 10
9000.000000
 20
10500.000000
 40
5.000000
 41
5.000000
 42
0.000000
  0
SEQEND
  0
POLYLINE
  8
ETCH_TOP
 66
1
 70
0
 40
0.000000
 41
0.000000
 39
0.000000
  0
VERTEX
  8
ETCH_TOP
 10
0.000000
 20
3500.000000
 40
5.000000
 41
5.000000
 42
0.000000
  0
VERTEX
  8
ETCH_TOP
 10
9000.000000
 20
3500.000000
 40
5.000000
 41
5.000000
 42
0.000000
  0
SEQEND
  0
POLYLINE
  8
ETCH_TOP
 66
1
 70
0
 40
0.000000
 41
0.000000
 39
0.000000
  0
VERTEX
  8
ETCH_TOP
 10
0.000000
 20
500.000000
 40
5.000000
 41
5.000000
 42
0.000000
  0
VERTEX
  8
ETCH_TOP
 10
9000.000000
 20
500.000000
 40
5.000000
 41
5.000000
 42
0.000000
  0
SEQEND
  0
POLYLINE
  8
BOARD_GEOMETRY_OUTLINE
 66
1
 70
1
 40
0.000000
 41
0.000000
 39
0.000000
  0
VERTEX
  8
BOARD_GEOMETRY_OUTLINE
 10
0.000000
 20
0.000000
 40
0.000000
 41
0.000000
 42
0.000000
  0
VERTEX
  8
BOARD_GEOMETRY_OUTLINE
 10
0.000000
 20
10900.000000
 40
0.000000
 41
0.000000
 42
0.000000
  0
VERTEX
  8
BOARD_GEOMETRY_OUTLINE
 10
9000.000000
 20
10900.000000
 40
0.000000
 41
0.000000
 42
0.000000
  0
VERTEX
  8
BOARD_GEOMETRY_OUTLINE
 10
9000.000000
 20
0.000000
 40
0.000000
 41
0.000000
 42
0.000000
  0
SEQEND
  0
ENDSEC
  0
EOF
