G04 ================== begin FILE IDENTIFICATION RECORD ==================*
G04 Layout Name:  D:\misc\ED1\worklib\ed1\physical\ED2_8_.brd*
G04 Film Name:    TOP*
G04 File Format:  Gerber RS274X*
G04 File Origin:  15.2-s023*
G04 Origin Date:  Fri Nov 19 15:49:18 2010*
G04 ================== end FILE IDENTIFICATION RECORD ====================*
%FSLAX33Y33*MOIN*%
%IR0*IPPOS*OFA0.00000B0.00000*MIA0B0*SFA1.00000B1.00000*%
%ADD10C,.125*%
%ADD11C,.005*%
%ADD12C,.135002*%
G75*
%LPD*%
G75*
G36*
G01X321Y250D02*
G02I-71J0D01*
G37*
G36*
G01Y2000D02*
G02I-71J0D01*
G37*
G36*
G01X250Y10821D02*
G02I0J-71D01*
G37*
G36*
G01X825Y7255D02*
G02I-125J0D01*
G37*
G36*
G01X1000Y2440D02*
G02I0J310D01*
G37*
G36*
G01Y4485D02*
G02I0J265D01*
G37*
G36*
G01X1164Y890D02*
G02X1162Y892I0J2D01*
G01Y1238D01*
G02X1164Y1240I2J0D01*
G01X1836D01*
G02X1838Y1238I0J-2D01*
G01Y892D01*
G02X1836Y890I-2J0D01*
G01X1164D01*
G37*
G36*
G01X1075Y1065D02*
G02I-75J0D01*
G37*
G36*
G01X1500Y1440D02*
G02I0J310D01*
G37*
G36*
G01Y5485D02*
G02I0J265D01*
G37*
G36*
G01X1871Y7489D02*
Y7021D01*
G02X1869Y7019I-2J0D01*
G01X1401D01*
G02X1399Y7021I0J2D01*
G01Y7489D01*
G02X1401Y7491I2J0D01*
G01X1869D01*
G02X1871Y7489I0J-2D01*
G37*
G36*
G01X2000Y2440D02*
G02I0J310D01*
G37*
G36*
G01Y4485D02*
G02I0J265D01*
G37*
G36*
G01X2075Y1065D02*
G02I-75J0D01*
G37*
G36*
G01X2500Y1440D02*
G02I0J310D01*
G37*
G36*
G01Y5485D02*
G02I0J265D01*
G37*
G36*
G01X2151Y6741D02*
X2619D01*
G02X2621Y6739I0J-2D01*
G01Y6271D01*
G02X2619Y6269I-2J0D01*
G01X2151D01*
G02X2149Y6271I0J2D01*
G01Y6739D01*
G02X2151Y6741I2J0D01*
G37*
G36*
G01Y8241D02*
X2619D01*
G02X2621Y8239I0J-2D01*
G01Y7771D01*
G02X2619Y7769I-2J0D01*
G01X2151D01*
G02X2149Y7771I0J2D01*
G01Y8239D01*
G02X2151Y8241I2J0D01*
G37*
G36*
G01X3000Y2440D02*
G02I0J310D01*
G37*
G36*
G01Y4485D02*
G02I0J265D01*
G37*
G36*
G01X2901Y7491D02*
X3369D01*
G02X3371Y7489I0J-2D01*
G01Y7021D01*
G02X3369Y7019I-2J0D01*
G01X2901D01*
G02X2899Y7021I0J2D01*
G01Y7489D01*
G02X2901Y7491I2J0D01*
G37*
G36*
G01X3463Y815D02*
X3092D01*
G02X3090Y817I0J2D01*
G01Y1263D01*
G02X3092Y1265I2J0D01*
G01X3463D01*
G02X3465Y1263I0J-2D01*
G01Y817D01*
G02X3463Y815I-2J0D01*
G37*
G36*
G01X3500Y1440D02*
G02I0J310D01*
G37*
G36*
G01Y5485D02*
G02I0J265D01*
G37*
G36*
G01X4000Y2440D02*
G02I0J310D01*
G37*
G36*
G01Y4485D02*
G02I0J265D01*
G37*
G36*
G01X4500Y1440D02*
G02I0J310D01*
G37*
G36*
G01Y312D02*
G02I0J-62D01*
G37*
G36*
G01X4625Y1000D02*
G02I-62J0D01*
G37*
G36*
G01X4500Y5485D02*
G02I0J265D01*
G37*
G36*
G01Y10812D02*
G02I0J-62D01*
G37*
G36*
G01X5000Y1300D02*
G02I0J-300D01*
G37*
G36*
G01Y2440D02*
G02I0J310D01*
G37*
G36*
G01Y4485D02*
G02I0J265D01*
G37*
G36*
G01X7485Y7552D02*
Y7006D01*
G02X7483Y7004I-2J0D01*
G01X4967D01*
G02X4965Y7006I0J2D01*
G01Y7552D01*
G02X4967Y7554I2J0D01*
G01X7483D01*
G02X7485Y7552I0J-2D01*
G37*
G36*
G01X5500Y1000D02*
G02I-62J0D01*
G37*
G36*
G01Y1440D02*
G02I0J310D01*
G37*
G36*
G01Y5485D02*
G02I0J265D01*
G37*
G36*
G01X6000Y2440D02*
G02I0J310D01*
G37*
G36*
G01Y4485D02*
G02I0J265D01*
G37*
G36*
G01X6500Y1440D02*
G02I0J310D01*
G37*
G36*
G01Y5485D02*
G02I0J265D01*
G37*
G36*
G01X7000Y2440D02*
G02I0J310D01*
G37*
G36*
G01Y4485D02*
G02I0J265D01*
G37*
G36*
G01X7500Y1440D02*
G02I0J310D01*
G37*
G36*
G01Y5485D02*
G02I0J265D01*
G37*
G36*
G01X8000Y2440D02*
G02I0J310D01*
G37*
G36*
G01Y4485D02*
G02I0J265D01*
G37*
G36*
G01X8821Y250D02*
G02I-71J0D01*
G37*
G36*
G01Y2000D02*
G02I-71J0D01*
G37*
G36*
G01Y10750D02*
G02I-71J0D01*
G37*
%LPC*%
G75*
G54D12*
X1000Y2750D03*
Y4750D03*
X1500Y1750D03*
Y5750D03*
X2000Y2750D03*
Y4750D03*
X2500Y1750D03*
Y5750D03*
X3000Y2750D03*
Y4750D03*
X3500Y1750D03*
Y5750D03*
X4000Y2750D03*
Y4750D03*
X4500Y1750D03*
Y5750D03*
X5000Y2750D03*
Y4750D03*
X5500Y1750D03*
Y5750D03*
X6000Y2750D03*
Y4750D03*
X6500Y1750D03*
Y5750D03*
X7000Y2750D03*
Y4750D03*
X7500Y1750D03*
Y5750D03*
X8000Y2750D03*
Y4750D03*
%LPD*%
G75*
G36*
G01X1000Y2719D02*
G02I0J31D01*
G37*
G36*
G01Y4719D02*
G02I0J31D01*
G37*
G36*
G01X1500Y1719D02*
G02I0J31D01*
G37*
G36*
G01Y5719D02*
G02I0J31D01*
G37*
G36*
G01X2000Y2719D02*
G02I0J31D01*
G37*
G36*
G01Y4719D02*
G02I0J31D01*
G37*
G36*
G01X2500Y1719D02*
G02I0J31D01*
G37*
G36*
G01Y5719D02*
G02I0J31D01*
G37*
G36*
G01X3000Y2719D02*
G02I0J31D01*
G37*
G36*
G01Y4719D02*
G02I0J31D01*
G37*
G36*
G01X3500Y1719D02*
G02I0J31D01*
G37*
G36*
G01Y5719D02*
G02I0J31D01*
G37*
G36*
G01X4000Y2719D02*
G02I0J31D01*
G37*
G36*
G01Y4719D02*
G02I0J31D01*
G37*
G36*
G01X4500Y1719D02*
G02I0J31D01*
G37*
G36*
G01Y5719D02*
G02I0J31D01*
G37*
G36*
G01X5000Y2719D02*
G02I0J31D01*
G37*
G36*
G01Y4719D02*
G02I0J31D01*
G37*
G36*
G01X5500Y1719D02*
G02I0J31D01*
G37*
G36*
G01Y5719D02*
G02I0J31D01*
G37*
G36*
G01X6000Y2719D02*
G02I0J31D01*
G37*
G36*
G01Y4719D02*
G02I0J31D01*
G37*
G36*
G01X6500Y1719D02*
G02I0J31D01*
G37*
G36*
G01Y5719D02*
G02I0J31D01*
G37*
G36*
G01X7000Y2719D02*
G02I0J31D01*
G37*
G36*
G01Y4719D02*
G02I0J31D01*
G37*
G36*
G01X7500Y1719D02*
G02I0J31D01*
G37*
G36*
G01Y5719D02*
G02I0J31D01*
G37*
G36*
G01X8000Y2719D02*
G02I0J31D01*
G37*
G36*
G01Y4719D02*
G02I0J31D01*
G37*
G54D10*
X250Y250D03*
Y2000D03*
Y10750D03*
X700Y7255D03*
X1000Y1065D03*
Y2750D03*
Y4750D03*
X1500Y1750D03*
Y5750D03*
X2000Y1065D03*
Y2750D03*
Y4750D03*
X2500Y1750D03*
Y5750D03*
X3000Y2750D03*
Y4750D03*
X3500Y1750D03*
Y5750D03*
X4000Y2750D03*
Y4750D03*
X4562Y1000D03*
X4500Y1750D03*
Y5750D03*
X5000Y2750D03*
Y4750D03*
X5438Y1000D03*
X5500Y1750D03*
Y5750D03*
X6000Y2750D03*
Y4750D03*
X6500Y1750D03*
Y5750D03*
X7000Y2750D03*
Y4750D03*
X7500Y1750D03*
Y5750D03*
X8000Y2750D03*
Y4750D03*
X8750Y250D03*
Y2000D03*
Y10750D03*
G54D11*
G01X0Y500D02*
X9000D01*
G01X0Y3500D02*
X9000D01*
G01X0Y9750D02*
X9000D01*
G01X0Y10500D02*
X9000D01*
M02*
