G04 ================== begin FILE IDENTIFICATION RECORD ==================*
G04 Layout Name:  d:\misc\ED1\worklib\ed1\physical\ED2_8_ticks_graphics_CAPS.brd*
G04 Film Name:    TOP*
G04 File Format:  Gerber RS274X*
G04 File Origin:  15.2-s023*
G04 Origin Date:  Thu Dec 09 16:31:20 2010*
G04 ================== end FILE IDENTIFICATION RECORD ====================*
%FSLAX44Y44*MOIN*%
%IR0*IPPOS*OFA0.00000B0.00000*MIA0B0*SFA1.00000B1.00000*%
%ADD10C,.125*%
%ADD11C,.005*%
%ADD12C,.031*%
%ADD13C,.135002*%
G75*
%LPD*%
G75*
G36*
G01X3210Y2500D02*
G02I-710J0D01*
G37*
G36*
G01Y20000D02*
G02I-710J0D01*
G37*
G36*
G01X2500Y108210D02*
G02I0J-710D01*
G37*
G36*
G01X8250Y72550D02*
G02I-1250J0D01*
G37*
G36*
G01X10000Y24400D02*
G02I0J3100D01*
G37*
G36*
G01Y44850D02*
G02I0J2650D01*
G37*
G36*
G01X11645Y8900D02*
G02X11625Y8920I0J20D01*
G01Y12380D01*
G02X11645Y12400I20J0D01*
G01X18355D01*
G02X18375Y12380I0J-20D01*
G01Y8920D01*
G02X18355Y8900I-20J0D01*
G01X11645D01*
G37*
G36*
G01X10750Y10650D02*
G02I-750J0D01*
G37*
G36*
G01X15000Y14400D02*
G02I0J3100D01*
G37*
G36*
G01Y54850D02*
G02I0J2650D01*
G37*
G36*
G01X18712Y74890D02*
Y70210D01*
G02X18692Y70190I-20J0D01*
G01X14012D01*
G02X13992Y70210I0J20D01*
G01Y74890D01*
G02X14012Y74910I20J0D01*
G01X18692D01*
G02X18712Y74890I0J-20D01*
G37*
G36*
G01X20000Y24400D02*
G02I0J3100D01*
G37*
G36*
G01Y44850D02*
G02I0J2650D01*
G37*
G36*
G01X20750Y10650D02*
G02I-750J0D01*
G37*
G36*
G01X25000Y14400D02*
G02I0J3100D01*
G37*
G36*
G01Y54850D02*
G02I0J2650D01*
G37*
G36*
G01X21492Y62903D02*
Y67390D01*
G02X21512Y67410I20J0D01*
G01X26192D01*
G02X26212Y67390I0J-20D01*
G01Y62903D01*
G02X26192Y62883I-20J0D01*
G01X21512D01*
G02X21492Y62903I0J20D01*
G37*
G36*
G01X21512Y82410D02*
X26192D01*
G02X26212Y82390I0J-20D01*
G01Y77710D01*
G02X26192Y77690I-20J0D01*
G01X21512D01*
G02X21492Y77710I0J20D01*
G01Y82390D01*
G02X21512Y82410I20J0D01*
G37*
G36*
G01X30000Y24400D02*
G02I0J3100D01*
G37*
G36*
G01Y44850D02*
G02I0J2650D01*
G37*
G36*
G01X29012Y74910D02*
X33692D01*
G02X33712Y74890I0J-20D01*
G01Y70210D01*
G02X33692Y70190I-20J0D01*
G01X29012D01*
G02X28992Y70210I0J20D01*
G01Y74890D01*
G02X29012Y74910I20J0D01*
G37*
G36*
G01X34630Y8150D02*
X30920D01*
G02X30900Y8170I0J20D01*
G01Y12630D01*
G02X30920Y12650I20J0D01*
G01X34630D01*
G02X34650Y12630I0J-20D01*
G01Y8170D01*
G02X34630Y8150I-20J0D01*
G37*
G36*
G01X35000Y14400D02*
G02I0J3100D01*
G37*
G36*
G01Y54850D02*
G02I0J2650D01*
G37*
G36*
G01X40000Y24400D02*
G02I0J3100D01*
G37*
G36*
G01Y44850D02*
G02I0J2650D01*
G37*
G36*
G01X45000Y14400D02*
G02I0J3100D01*
G37*
G36*
G01Y3125D02*
G02I0J-625D01*
G37*
G36*
G01X46250Y10000D02*
G02I-625J0D01*
G37*
G36*
G01X45000Y54850D02*
G02I0J2650D01*
G37*
G36*
G01Y108125D02*
G02I0J-625D01*
G37*
G36*
G01X50000Y13000D02*
G02I0J-3000D01*
G37*
G36*
G01Y24400D02*
G02I0J3100D01*
G37*
G36*
G01Y44850D02*
G02I0J2650D01*
G37*
G36*
G01X74850Y75525D02*
Y70055D01*
G02X74830Y70035I-20J0D01*
G01X49670D01*
G02X49650Y70055I0J20D01*
G01Y75525D01*
G02X49670Y75545I20J0D01*
G01X74830D01*
G02X74850Y75525I0J-20D01*
G37*
G36*
G01X55000Y10000D02*
G02I-625J0D01*
G37*
G36*
G01Y14400D02*
G02I0J3100D01*
G37*
G36*
G01Y54850D02*
G02I0J2650D01*
G37*
G36*
G01X60000Y24400D02*
G02I0J3100D01*
G37*
G36*
G01Y44850D02*
G02I0J2650D01*
G37*
G36*
G01X65000Y14400D02*
G02I0J3100D01*
G37*
G36*
G01Y54850D02*
G02I0J2650D01*
G37*
G36*
G01X70000Y24400D02*
G02I0J3100D01*
G37*
G36*
G01Y44850D02*
G02I0J2650D01*
G37*
G36*
G01X75000Y14400D02*
G02I0J3100D01*
G37*
G36*
G01Y54850D02*
G02I0J2650D01*
G37*
G36*
G01X80000Y24400D02*
G02I0J3100D01*
G37*
G36*
G01Y44850D02*
G02I0J2650D01*
G37*
G36*
G01X88210Y2500D02*
G02I-710J0D01*
G37*
G36*
G01Y20000D02*
G02I-710J0D01*
G37*
G36*
G01Y107500D02*
G02I-710J0D01*
G37*
%LPC*%
G75*
G54D13*
X10000Y27500D03*
Y47500D03*
X15000Y17500D03*
Y57500D03*
X20000Y27500D03*
Y47500D03*
X25000Y17500D03*
Y57500D03*
X30000Y27500D03*
Y47500D03*
X35000Y17500D03*
Y57500D03*
X40000Y27500D03*
Y47500D03*
X45000Y17500D03*
Y57500D03*
X50000Y27500D03*
Y47500D03*
X55000Y17500D03*
Y57500D03*
X60000Y27500D03*
Y47500D03*
X65000Y17500D03*
Y57500D03*
X70000Y27500D03*
Y47500D03*
X75000Y17500D03*
Y57500D03*
X80000Y27500D03*
Y47500D03*
%LPD*%
G75*
G36*
G01X10000Y27188D02*
G02I0J312D01*
G37*
G36*
G01Y47188D02*
G02I0J312D01*
G37*
G36*
G01X15000Y17188D02*
G02I0J312D01*
G37*
G36*
G01Y57188D02*
G02I0J312D01*
G37*
G36*
G01X20000Y27188D02*
G02I0J312D01*
G37*
G36*
G01Y47188D02*
G02I0J312D01*
G37*
G36*
G01X25000Y17188D02*
G02I0J312D01*
G37*
G36*
G01Y57188D02*
G02I0J312D01*
G37*
G36*
G01X30000Y27188D02*
G02I0J312D01*
G37*
G36*
G01Y47188D02*
G02I0J312D01*
G37*
G36*
G01X35000Y17188D02*
G02I0J312D01*
G37*
G36*
G01Y57188D02*
G02I0J312D01*
G37*
G36*
G01X40000Y27188D02*
G02I0J312D01*
G37*
G36*
G01Y47188D02*
G02I0J312D01*
G37*
G36*
G01X45000Y17188D02*
G02I0J312D01*
G37*
G36*
G01Y57188D02*
G02I0J312D01*
G37*
G36*
G01X50000Y27188D02*
G02I0J312D01*
G37*
G36*
G01Y47188D02*
G02I0J312D01*
G37*
G36*
G01X55000Y17188D02*
G02I0J312D01*
G37*
G36*
G01Y57188D02*
G02I0J312D01*
G37*
G36*
G01X60000Y27188D02*
G02I0J312D01*
G37*
G36*
G01Y47188D02*
G02I0J312D01*
G37*
G36*
G01X65000Y17188D02*
G02I0J312D01*
G37*
G36*
G01Y57188D02*
G02I0J312D01*
G37*
G36*
G01X70000Y27188D02*
G02I0J312D01*
G37*
G36*
G01Y47188D02*
G02I0J312D01*
G37*
G36*
G01X75000Y17188D02*
G02I0J312D01*
G37*
G36*
G01Y57188D02*
G02I0J312D01*
G37*
G36*
G01X80000Y27188D02*
G02I0J312D01*
G37*
G36*
G01Y47188D02*
G02I0J312D01*
G37*
G54D10*
X2500Y2500D03*
Y20000D03*
Y107500D03*
X7000Y72550D03*
X10000Y10650D03*
Y27500D03*
Y47500D03*
X15000Y17500D03*
Y57500D03*
X20000Y10650D03*
Y27500D03*
Y47500D03*
X25000Y17500D03*
Y57500D03*
X30000Y27500D03*
Y47500D03*
X35000Y17500D03*
Y57500D03*
X40000Y27500D03*
Y47500D03*
X45625Y10000D03*
X45000Y17500D03*
Y57500D03*
X50000Y27500D03*
Y47500D03*
X54375Y10000D03*
X55000Y17500D03*
Y57500D03*
X60000Y27500D03*
Y47500D03*
X65000Y17500D03*
Y57500D03*
X70000Y27500D03*
Y47500D03*
X75000Y17500D03*
Y57500D03*
X80000Y27500D03*
Y47500D03*
X87500Y2500D03*
Y20000D03*
Y107500D03*
G54D11*
G01X0Y5000D02*
X90000D01*
G01X0Y35000D02*
X90000D01*
G01X0Y97500D02*
X90000D01*
G01X0Y105000D02*
X90000D01*
G54D12*
G01X6500Y47500D02*
X6000D01*
G01X8250Y44470D02*
X8000Y44040D01*
G01X6970Y45750D02*
X6830Y45670D01*
G01X6970Y49250D02*
X6830Y49330D01*
G01X8250Y50530D02*
X8000Y50960D01*
G01X10000Y44000D02*
Y43840D01*
G01X11750Y44470D02*
X12000Y44040D01*
G01X11750Y50530D02*
X12000Y50960D01*
G01X11970Y55750D02*
X11830Y55670D01*
G01X11970Y59250D02*
X11830Y59330D01*
G01X11500Y57500D02*
X11000D01*
G01X13030Y45750D02*
X13170Y45670D01*
G01X13500Y47500D02*
X14000D01*
G01X13030Y49250D02*
X13170Y49330D01*
G01X15000Y54000D02*
Y53840D01*
G01X13250Y54470D02*
X13000Y54040D01*
G01X13250Y60530D02*
X13000Y60960D01*
G01X18250Y44470D02*
X18000Y44040D01*
G01X16970Y45750D02*
X16830Y45670D01*
G01X16500Y47500D02*
X16000D01*
G01X18250Y50530D02*
X18000Y50960D01*
G01X16970Y49250D02*
X16830Y49330D01*
G01X16750Y54470D02*
X17000Y54040D01*
G01X18030Y55750D02*
X18170Y55670D01*
G01X18030Y59250D02*
X18170Y59330D01*
G01X16750Y60530D02*
X17000Y60960D01*
G01X20000Y44000D02*
Y43840D01*
G01X18500Y57500D02*
X19000D01*
G01X21500D02*
X21000D01*
G01X21750Y44470D02*
X22000Y44040D01*
G01X23500Y47500D02*
X24000D01*
G01X23030Y45750D02*
X23170Y45670D01*
G01X23030Y49250D02*
X23170Y49330D01*
G01X21750Y50530D02*
X22000Y50960D01*
G01X23250Y54470D02*
X23000Y54040D01*
G01X21970Y55750D02*
X21830Y55670D01*
G01X21970Y59250D02*
X21830Y59330D01*
G01X23250Y60530D02*
X23000Y60960D01*
G01X26970Y45750D02*
X26830Y45670D01*
G01X26500Y47500D02*
X26000D01*
G01X26970Y49250D02*
X26830Y49330D01*
G01X26750Y54470D02*
X27000Y54040D01*
G01X25000Y54000D02*
Y53840D01*
G01X26750Y60530D02*
X27000Y60960D01*
G01X30000Y44000D02*
Y43840D01*
G01X28250Y44470D02*
X28000Y44040D01*
G01X28250Y50530D02*
X28000Y50960D01*
G01X28030Y55750D02*
X28170Y55670D01*
G01X28030Y59250D02*
X28170Y59330D01*
G01X28500Y57500D02*
X29000D01*
G01X31750Y44470D02*
X32000Y44040D01*
G01X33030Y45750D02*
X33170Y45670D01*
G01X33030Y49250D02*
X33170Y49330D01*
G01X31750Y50530D02*
X32000Y50960D01*
G01X33250Y54470D02*
X33000Y54040D01*
G01X31970Y55750D02*
X31830Y55670D01*
G01X31970Y59250D02*
X31830Y59330D01*
G01X31500Y57500D02*
X31000D01*
G01X33250Y60530D02*
X33000Y60960D01*
G01X36500Y47500D02*
X36000D01*
G01X33500D02*
X34000D01*
G01X35000Y54000D02*
Y53840D01*
G01X38250Y44470D02*
X38000Y44040D01*
G01X36970Y45750D02*
X36830Y45670D01*
G01X38250Y50530D02*
X38000Y50960D01*
G01X36970Y49250D02*
X36830Y49330D01*
G01X36750Y54470D02*
X37000Y54040D01*
G01X38030Y55750D02*
X38170Y55670D01*
G01X38030Y59250D02*
X38170Y59330D01*
G01X38500Y57500D02*
X39000D01*
G01X36750Y60530D02*
X37000Y60960D01*
G01X41750Y44470D02*
X42000Y44040D01*
G01X40000Y44000D02*
Y43840D01*
G01X41750Y50530D02*
X42000Y50960D01*
G01X41970Y55750D02*
X41830Y55670D01*
G01X41970Y59250D02*
X41830Y59330D01*
G01X41500Y57500D02*
X41000D01*
G01X43500Y47500D02*
X44000D01*
G01X43030Y45750D02*
X43170Y45670D01*
G01X43030Y49250D02*
X43170Y49330D01*
G01X45000Y54000D02*
Y53840D01*
G01X43250Y54470D02*
X43000Y54040D01*
G01X43250Y60530D02*
X43000Y60960D01*
G01X48250Y44470D02*
X48000Y44040D01*
G01X46970Y45750D02*
X46830Y45670D01*
G01X46500Y47500D02*
X46000D01*
G01X48250Y50530D02*
X48000Y50960D01*
G01X46970Y49250D02*
X46830Y49330D01*
G01X46750Y54470D02*
X47000Y54040D01*
G01X48030Y55750D02*
X48170Y55670D01*
G01X48030Y59250D02*
X48170Y59330D01*
G01X46750Y60530D02*
X47000Y60960D01*
G01X50000Y44000D02*
Y43840D01*
G01X48500Y57500D02*
X49000D01*
G01X51500D02*
X51000D01*
G01X51750Y44470D02*
X52000Y44040D01*
G01X53500Y47500D02*
X54000D01*
G01X53030Y45750D02*
X53170Y45670D01*
G01X53030Y49250D02*
X53170Y49330D01*
G01X51750Y50530D02*
X52000Y50960D01*
G01X53250Y54470D02*
X53000Y54040D01*
G01X51970Y55750D02*
X51830Y55670D01*
G01X51970Y59250D02*
X51830Y59330D01*
G01X53250Y60530D02*
X53000Y60960D01*
G01X56970Y45750D02*
X56830Y45670D01*
G01X56500Y47500D02*
X56000D01*
G01X56970Y49250D02*
X56830Y49330D01*
G01X56750Y54470D02*
X57000Y54040D01*
G01X55000Y54000D02*
Y53840D01*
G01X56750Y60530D02*
X57000Y60960D01*
G01X60000Y44000D02*
Y43840D01*
G01X58250Y44470D02*
X58000Y44040D01*
G01X58250Y50530D02*
X58000Y50960D01*
G01X58030Y55750D02*
X58170Y55670D01*
G01X58030Y59250D02*
X58170Y59330D01*
G01X58500Y57500D02*
X59000D01*
G01X61750Y44470D02*
X62000Y44040D01*
G01X63030Y45750D02*
X63170Y45670D01*
G01X63030Y49250D02*
X63170Y49330D01*
G01X61750Y50530D02*
X62000Y50960D01*
G01X63250Y54470D02*
X63000Y54040D01*
G01X61970Y55750D02*
X61830Y55670D01*
G01X61970Y59250D02*
X61830Y59330D01*
G01X61500Y57500D02*
X61000D01*
G01X63250Y60530D02*
X63000Y60960D01*
G01X66500Y47500D02*
X66000D01*
G01X63500D02*
X64000D01*
G01X65000Y54000D02*
Y53840D01*
G01X68250Y44470D02*
X68000Y44040D01*
G01X66970Y45750D02*
X66830Y45670D01*
G01X68250Y50530D02*
X68000Y50960D01*
G01X66970Y49250D02*
X66830Y49330D01*
G01X66750Y54470D02*
X67000Y54040D01*
G01X68030Y55750D02*
X68170Y55670D01*
G01X68030Y59250D02*
X68170Y59330D01*
G01X68500Y57500D02*
X69000D01*
G01X66750Y60530D02*
X67000Y60960D01*
G01X71750Y44470D02*
X72000Y44040D01*
G01X70000Y44000D02*
Y43840D01*
G01X71750Y50530D02*
X72000Y50960D01*
G01X71970Y55750D02*
X71830Y55670D01*
G01X71970Y59250D02*
X71830Y59330D01*
G01X71500Y57500D02*
X71000D01*
G01X73500Y47500D02*
X74000D01*
G01X73030Y45750D02*
X73170Y45670D01*
G01X73030Y49250D02*
X73170Y49330D01*
G01X75000Y54000D02*
Y53840D01*
G01X73250Y54470D02*
X73000Y54040D01*
G01X73250Y60530D02*
X73000Y60960D01*
G01X78250Y44470D02*
X78000Y44040D01*
G01X76970Y45750D02*
X76830Y45670D01*
G01X76500Y47500D02*
X76000D01*
G01X78250Y50530D02*
X78000Y50960D01*
G01X76970Y49250D02*
X76830Y49330D01*
G01X76750Y54470D02*
X77000Y54040D01*
G01X78030Y55750D02*
X78170Y55670D01*
G01X78030Y59250D02*
X78170Y59330D01*
G01X76750Y60530D02*
X77000Y60960D01*
G01X80000Y44000D02*
Y43840D01*
G01X78500Y57500D02*
X79000D01*
G01X81750Y44470D02*
X82000Y44040D01*
G01X83500Y47500D02*
X84000D01*
G01X83030Y45750D02*
X83170Y45670D01*
G01X83030Y49250D02*
X83170Y49330D01*
G01X81750Y50530D02*
X82000Y50960D01*
G01X8688Y76000D02*
Y75000D01*
X8285Y75833D01*
X7882Y75000D01*
Y76000D01*
G01X7291Y75000D02*
X6919D01*
G01X7105D02*
Y76000D01*
G01X7291D02*
X6919D01*
G01X6266D02*
Y75000D01*
X5956D01*
X5832Y75050D01*
X5739Y75117D01*
X5661Y75217D01*
X5600Y75333D01*
X5584Y75500D01*
X5600Y75667D01*
X5661Y75783D01*
X5739Y75883D01*
X5832Y75950D01*
X5956Y76000D01*
X6266D01*
G01X4931Y75000D02*
X4559D01*
G01X4745D02*
Y76000D01*
G01X4931D02*
X4559D01*
G01X8920Y21250D02*
Y22250D01*
X9510D01*
G01X9292Y21767D02*
X8920D01*
G01X10395Y21250D02*
X10271Y21267D01*
X10163Y21333D01*
X10070Y21433D01*
X10007Y21550D01*
X9976Y21683D01*
Y21817D01*
X10007Y21950D01*
X10070Y22067D01*
X10163Y22167D01*
X10271Y22233D01*
X10395Y22250D01*
X10519Y22233D01*
X10627Y22167D01*
X10720Y22067D01*
X10783Y21950D01*
X10814Y21817D01*
Y21683D01*
X10783Y21550D01*
X10720Y21433D01*
X10627Y21333D01*
X10519Y21267D01*
X10395Y21250D01*
G01X11575D02*
X11451Y21267D01*
X11343Y21333D01*
X11250Y21433D01*
X11187Y21550D01*
X11156Y21683D01*
Y21817D01*
X11187Y21950D01*
X11250Y22067D01*
X11343Y22167D01*
X11451Y22233D01*
X11575Y22250D01*
X11699Y22233D01*
X11807Y22167D01*
X11900Y22067D01*
X11963Y21950D01*
X11994Y21817D01*
Y21683D01*
X11963Y21550D01*
X11900Y21433D01*
X11807Y21333D01*
X11699Y21267D01*
X11575Y21250D01*
G01X12755Y22250D02*
Y21250D01*
G01X12399Y22250D02*
X13111D01*
G01X13610Y21383D02*
X13733Y21300D01*
X13873Y21250D01*
X13997D01*
X14121Y21300D01*
X14214Y21383D01*
X14260Y21500D01*
X14230Y21617D01*
X14152Y21717D01*
X14013Y21783D01*
X13827Y21817D01*
X13718Y21883D01*
X13671Y22000D01*
X13703Y22117D01*
X13780Y22200D01*
X13888Y22250D01*
X13997D01*
X14106Y22217D01*
X14199Y22133D01*
G01X14650Y22250D02*
X14867Y21250D01*
X15115Y22250D01*
X15363Y21250D01*
X15580Y22250D01*
G01X16109D02*
X16481D01*
G01X16295D02*
Y21250D01*
G01X16109D02*
X16481D01*
G01X17475Y22250D02*
Y21250D01*
G01X17119Y22250D02*
X17831D01*
G01X18996Y22167D02*
X18903Y22217D01*
X18795Y22250D01*
X18671D01*
X18531Y22200D01*
X18423Y22117D01*
X18345Y22017D01*
X18283Y21850D01*
X18267Y21700D01*
X18299Y21550D01*
X18345Y21450D01*
X18438Y21350D01*
X18547Y21283D01*
X18655Y21250D01*
X18763D01*
X18872Y21283D01*
X18965Y21333D01*
X19043Y21400D01*
G01X19510Y21250D02*
Y22250D01*
G01X20160D02*
Y21250D01*
G01Y21750D02*
X19510D01*
G01X7905Y31250D02*
Y32250D01*
X8277D01*
X8401Y32200D01*
X8494Y32083D01*
X8525Y31950D01*
X8494Y31817D01*
X8416Y31717D01*
X8277Y31667D01*
X7905D01*
G01X9705Y31250D02*
X9085D01*
Y32250D01*
X9705D01*
G01X9457Y31767D02*
X9085D01*
G01X10234Y31250D02*
Y32250D01*
X10544D01*
X10668Y32200D01*
X10761Y32133D01*
X10839Y32033D01*
X10900Y31917D01*
X10916Y31750D01*
X10900Y31583D01*
X10839Y31467D01*
X10761Y31367D01*
X10668Y31300D01*
X10544Y31250D01*
X10234D01*
G01X11367D02*
X11755Y32250D01*
X12143Y31250D01*
G01X12003Y31600D02*
X11507D01*
G01X12625Y32250D02*
Y31250D01*
X13245D01*
G01X7890Y33000D02*
Y34000D01*
G01X8540D02*
Y33000D01*
G01Y33500D02*
X7890D01*
G01X9209Y34000D02*
X9581D01*
G01X9395D02*
Y33000D01*
G01X9209D02*
X9581D01*
G01X10250D02*
Y34000D01*
G01X10900D02*
Y33000D01*
G01Y33500D02*
X10250D01*
G01X11367Y33000D02*
X11755Y34000D01*
X12143Y33000D01*
G01X12003Y33350D02*
X11507D01*
G01X12935Y34000D02*
Y33000D01*
G01X12579Y34000D02*
X13291D01*
G01X19595Y62500D02*
Y61500D01*
X19208D01*
X19084Y61550D01*
X19006Y61617D01*
X18975Y61750D01*
X19006Y61883D01*
X19099Y61967D01*
X19208Y62017D01*
X19595D01*
G01X19208D02*
X18975Y62500D01*
G01X18291Y61500D02*
X17919D01*
G01X18105D02*
Y62500D01*
G01X18291D02*
X17919D01*
G01X17266D02*
Y61500D01*
X16956D01*
X16832Y61550D01*
X16739Y61617D01*
X16661Y61717D01*
X16600Y61833D01*
X16584Y62000D01*
X16600Y62167D01*
X16661Y62283D01*
X16739Y62383D01*
X16832Y62450D01*
X16956Y62500D01*
X17266D01*
G01X15435D02*
X16055D01*
Y61500D01*
X15435D01*
G01X15683Y61983D02*
X16055D01*
G01X13261Y61967D02*
X13199Y61917D01*
X13153Y61833D01*
X13121Y61717D01*
X13153Y61617D01*
X13214Y61550D01*
X13323Y61500D01*
X13741D01*
Y62500D01*
X13230D01*
X13121Y62433D01*
X13060Y62333D01*
X13029Y62217D01*
X13060Y62100D01*
X13153Y62000D01*
X13261Y61967D01*
X13741D01*
G01X11895Y62500D02*
X12515D01*
Y61500D01*
X11895D01*
G01X12143Y61983D02*
X12515D01*
G01X11335Y61500D02*
Y62500D01*
X10715D01*
G01X10155Y61500D02*
Y62500D01*
X9535D01*
G01X17056Y32167D02*
X16963Y32217D01*
X16855Y32250D01*
X16731D01*
X16591Y32200D01*
X16483Y32117D01*
X16405Y32017D01*
X16343Y31850D01*
X16327Y31700D01*
X16359Y31550D01*
X16405Y31450D01*
X16498Y31350D01*
X16607Y31283D01*
X16715Y31250D01*
X16823D01*
X16932Y31283D01*
X17025Y31333D01*
X17103Y31400D01*
G01X17585Y31250D02*
Y32250D01*
X17972D01*
X18097Y32200D01*
X18174Y32133D01*
X18205Y32000D01*
X18174Y31867D01*
X18081Y31783D01*
X17972Y31733D01*
X17585D01*
G01X17972D02*
X18205Y31250D01*
G01X18687D02*
X19075Y32250D01*
X19463Y31250D01*
G01X19323Y31600D02*
X18827D01*
G01X19930Y31383D02*
X20054Y31300D01*
X20193Y31250D01*
X20317D01*
X20441Y31300D01*
X20534Y31383D01*
X20580Y31500D01*
X20550Y31617D01*
X20472Y31717D01*
X20333Y31783D01*
X20147Y31817D01*
X20038Y31883D01*
X19991Y32000D01*
X20023Y32117D01*
X20100Y32200D01*
X20208Y32250D01*
X20317D01*
X20426Y32217D01*
X20519Y32133D01*
G01X21110Y31250D02*
Y32250D01*
G01X21760D02*
Y31250D01*
G01Y31750D02*
X21110D01*
G01X23454Y31450D02*
X23547Y31333D01*
X23671Y31267D01*
X23811Y31250D01*
X23935Y31267D01*
X24059Y31350D01*
X24136Y31450D01*
X24151Y31550D01*
X24121Y31667D01*
X24012Y31750D01*
X23903Y31783D01*
X23764D01*
G01X23903D02*
X23997Y31833D01*
X24074Y31917D01*
X24105Y32017D01*
X24074Y32117D01*
X23997Y32200D01*
X23857Y32250D01*
X23718Y32233D01*
X23578Y32167D01*
G01X22944Y51583D02*
X23037Y51533D01*
X23145Y51500D01*
X23269D01*
X23409Y51550D01*
X23517Y51633D01*
X23595Y51733D01*
X23657Y51900D01*
X23673Y52050D01*
X23641Y52200D01*
X23595Y52300D01*
X23502Y52400D01*
X23393Y52467D01*
X23285Y52500D01*
X23177D01*
X23068Y52467D01*
X22975Y52417D01*
X22897Y52350D01*
G01X22415Y52500D02*
Y51500D01*
X22028D01*
X21904Y51550D01*
X21826Y51617D01*
X21795Y51750D01*
X21826Y51883D01*
X21919Y51967D01*
X22028Y52017D01*
X22415D01*
G01X22028D02*
X21795Y52500D01*
G01X21313D02*
X20925Y51500D01*
X20537Y52500D01*
G01X20677Y52150D02*
X21173D01*
G01X20070Y52367D02*
X19946Y52450D01*
X19807Y52500D01*
X19683D01*
X19559Y52450D01*
X19466Y52367D01*
X19420Y52250D01*
X19450Y52133D01*
X19528Y52033D01*
X19668Y51967D01*
X19853Y51933D01*
X19962Y51867D01*
X20009Y51750D01*
X19977Y51633D01*
X19900Y51550D01*
X19792Y51500D01*
X19683D01*
X19574Y51533D01*
X19481Y51617D01*
G01X18890Y52500D02*
Y51500D01*
G01X18240D02*
Y52500D01*
G01Y52000D02*
X18890D01*
G01X16546Y52300D02*
X16453Y52417D01*
X16329Y52483D01*
X16189Y52500D01*
X16065Y52483D01*
X15941Y52400D01*
X15864Y52300D01*
X15849Y52200D01*
X15880Y52083D01*
X15988Y52000D01*
X16097Y51967D01*
X16236D01*
G01X16097D02*
X16004Y51917D01*
X15926Y51833D01*
X15895Y51733D01*
X15926Y51633D01*
X16004Y51550D01*
X16143Y51500D01*
X16282Y51517D01*
X16422Y51583D01*
G01X28444Y61583D02*
X28537Y61533D01*
X28645Y61500D01*
X28769D01*
X28909Y61550D01*
X29017Y61633D01*
X29095Y61733D01*
X29157Y61900D01*
X29173Y62050D01*
X29141Y62200D01*
X29095Y62300D01*
X29002Y62400D01*
X28893Y62467D01*
X28785Y62500D01*
X28677D01*
X28568Y62467D01*
X28475Y62417D01*
X28397Y62350D01*
G01X27915Y62500D02*
Y61500D01*
X27528D01*
X27404Y61550D01*
X27326Y61617D01*
X27295Y61750D01*
X27326Y61883D01*
X27419Y61967D01*
X27528Y62017D01*
X27915D01*
G01X27528D02*
X27295Y62500D01*
G01X26813D02*
X26425Y61500D01*
X26037Y62500D01*
G01X26177Y62150D02*
X26673D01*
G01X25571Y62367D02*
X25447Y62450D01*
X25307Y62500D01*
X25183D01*
X25059Y62450D01*
X24966Y62367D01*
X24919Y62250D01*
X24950Y62133D01*
X25028Y62033D01*
X25168Y61967D01*
X25353Y61933D01*
X25462Y61867D01*
X25509Y61750D01*
X25477Y61633D01*
X25400Y61550D01*
X25292Y61500D01*
X25183D01*
X25074Y61533D01*
X24981Y61617D01*
G01X24391Y62500D02*
Y61500D01*
G01X23739D02*
Y62500D01*
G01Y62000D02*
X24391D01*
G01X22000Y61667D02*
X21907Y61567D01*
X21798Y61517D01*
X21674Y61500D01*
X21519Y61533D01*
X21410Y61617D01*
X21380Y61717D01*
X21395Y61817D01*
X21457Y61900D01*
X21767Y62067D01*
X21907Y62183D01*
X22000Y62350D01*
X22030Y62500D01*
X21380D01*
G01X22306Y22167D02*
X22213Y22217D01*
X22105Y22250D01*
X21981D01*
X21841Y22200D01*
X21733Y22117D01*
X21655Y22017D01*
X21593Y21850D01*
X21577Y21700D01*
X21609Y21550D01*
X21655Y21450D01*
X21748Y21350D01*
X21857Y21283D01*
X21965Y21250D01*
X22073D01*
X22182Y21283D01*
X22275Y21333D01*
X22353Y21400D01*
G01X22835Y21250D02*
Y22250D01*
X23222D01*
X23347Y22200D01*
X23424Y22133D01*
X23455Y22000D01*
X23424Y21867D01*
X23331Y21783D01*
X23222Y21733D01*
X22835D01*
G01X23222D02*
X23455Y21250D01*
G01X23937D02*
X24325Y22250D01*
X24713Y21250D01*
G01X24573Y21600D02*
X24077D01*
G01X25180Y21383D02*
X25304Y21300D01*
X25443Y21250D01*
X25567D01*
X25691Y21300D01*
X25784Y21383D01*
X25830Y21500D01*
X25800Y21617D01*
X25722Y21717D01*
X25582Y21783D01*
X25397Y21817D01*
X25288Y21883D01*
X25241Y22000D01*
X25273Y22117D01*
X25350Y22200D01*
X25458Y22250D01*
X25567D01*
X25676Y22217D01*
X25769Y22133D01*
G01X26359Y21250D02*
Y22250D01*
G01X27011D02*
Y21250D01*
G01Y21750D02*
X26359D01*
G01X28750Y22083D02*
X28844Y22183D01*
X28952Y22233D01*
X29076Y22250D01*
X29231Y22217D01*
X29340Y22133D01*
X29370Y22033D01*
X29355Y21933D01*
X29293Y21850D01*
X28983Y21683D01*
X28844Y21567D01*
X28750Y21400D01*
X28720Y21250D01*
X29370D01*
G01X27056Y32167D02*
X26963Y32217D01*
X26855Y32250D01*
X26731D01*
X26591Y32200D01*
X26483Y32117D01*
X26405Y32017D01*
X26343Y31850D01*
X26327Y31700D01*
X26359Y31550D01*
X26405Y31450D01*
X26498Y31350D01*
X26607Y31283D01*
X26715Y31250D01*
X26823D01*
X26932Y31283D01*
X27025Y31333D01*
X27103Y31400D01*
G01X27585Y31250D02*
Y32250D01*
X27972D01*
X28096Y32200D01*
X28174Y32133D01*
X28205Y32000D01*
X28174Y31867D01*
X28081Y31783D01*
X27972Y31733D01*
X27585D01*
G01X27972D02*
X28205Y31250D01*
G01X28687D02*
X29075Y32250D01*
X29463Y31250D01*
G01X29323Y31600D02*
X28827D01*
G01X29930Y31383D02*
X30054Y31300D01*
X30193Y31250D01*
X30317D01*
X30441Y31300D01*
X30534Y31383D01*
X30580Y31500D01*
X30550Y31617D01*
X30472Y31717D01*
X30333Y31783D01*
X30147Y31817D01*
X30038Y31883D01*
X29991Y32000D01*
X30023Y32117D01*
X30100Y32200D01*
X30208Y32250D01*
X30317D01*
X30426Y32217D01*
X30519Y32133D01*
G01X31110Y31250D02*
Y32250D01*
G01X31760D02*
Y31250D01*
G01Y31750D02*
X31110D01*
G01X33795Y31250D02*
Y32250D01*
X33609Y32050D01*
G01Y31250D02*
X33981D01*
G01X32944Y51583D02*
X33037Y51533D01*
X33145Y51500D01*
X33269D01*
X33409Y51550D01*
X33517Y51633D01*
X33595Y51733D01*
X33657Y51900D01*
X33673Y52050D01*
X33641Y52200D01*
X33595Y52300D01*
X33502Y52400D01*
X33393Y52467D01*
X33285Y52500D01*
X33177D01*
X33068Y52467D01*
X32975Y52417D01*
X32897Y52350D01*
G01X32415Y52500D02*
Y51500D01*
X32028D01*
X31904Y51550D01*
X31826Y51617D01*
X31795Y51750D01*
X31826Y51883D01*
X31919Y51967D01*
X32028Y52017D01*
X32415D01*
G01X32028D02*
X31795Y52500D01*
G01X31313D02*
X30925Y51500D01*
X30537Y52500D01*
G01X30677Y52150D02*
X31173D01*
G01X30071Y52367D02*
X29946Y52450D01*
X29807Y52500D01*
X29683D01*
X29559Y52450D01*
X29466Y52367D01*
X29420Y52250D01*
X29450Y52133D01*
X29528Y52033D01*
X29668Y51967D01*
X29853Y51933D01*
X29962Y51867D01*
X30009Y51750D01*
X29977Y51633D01*
X29900Y51550D01*
X29792Y51500D01*
X29683D01*
X29574Y51533D01*
X29481Y51617D01*
G01X28890Y52500D02*
Y51500D01*
G01X28240D02*
Y52500D01*
G01Y52000D02*
X28890D01*
G01X26205Y52500D02*
Y51500D01*
X26391Y51700D01*
G01Y52500D02*
X26019D01*
G01X31775Y21250D02*
X31155D01*
Y22250D01*
X31775D01*
G01X31527Y21767D02*
X31155D01*
G01X32304Y21250D02*
Y22250D01*
X32614D01*
X32738Y22200D01*
X32831Y22133D01*
X32909Y22033D01*
X32970Y21917D01*
X32986Y21750D01*
X32970Y21583D01*
X32909Y21467D01*
X32831Y21367D01*
X32738Y21300D01*
X32614Y21250D01*
X32304D01*
G01X33918Y21750D02*
X34228D01*
Y21450D01*
X34135Y21350D01*
X34026Y21283D01*
X33872Y21250D01*
X33717Y21283D01*
X33608Y21350D01*
X33515Y21450D01*
X33453Y21567D01*
X33422Y21700D01*
Y21817D01*
X33453Y21917D01*
X33515Y22033D01*
X33608Y22133D01*
X33701Y22200D01*
X33825Y22250D01*
X33933D01*
X34057Y22217D01*
X34150Y22150D01*
G01X35315Y21250D02*
X34695D01*
Y22250D01*
X35315D01*
G01X35067Y21767D02*
X34695D01*
G01X35906Y21217D02*
X36464Y22250D01*
G01X37489Y21783D02*
X37551Y21833D01*
X37597Y21917D01*
X37629Y22033D01*
X37597Y22133D01*
X37536Y22200D01*
X37427Y22250D01*
X37009D01*
Y21250D01*
X37520D01*
X37629Y21317D01*
X37691Y21417D01*
X37721Y21533D01*
X37691Y21650D01*
X37597Y21750D01*
X37489Y21783D01*
X37009D01*
G01X38855Y21250D02*
X38235D01*
Y22250D01*
X38855D01*
G01X38607Y21767D02*
X38235D01*
G01X39415Y22250D02*
Y21250D01*
X40035D01*
G01X40595Y22250D02*
Y21250D01*
X41215D01*
G01X33155Y23000D02*
Y24000D01*
X33542D01*
X33667Y23950D01*
X33744Y23883D01*
X33775Y23750D01*
X33744Y23617D01*
X33651Y23533D01*
X33542Y23483D01*
X33155D01*
G01X33542D02*
X33775Y23000D01*
G01X34459Y24000D02*
X34831D01*
G01X34645D02*
Y23000D01*
G01X34459D02*
X34831D01*
G01X35484D02*
Y24000D01*
X35794D01*
X35918Y23950D01*
X36011Y23883D01*
X36089Y23783D01*
X36150Y23667D01*
X36166Y23500D01*
X36150Y23333D01*
X36089Y23217D01*
X36011Y23117D01*
X35918Y23050D01*
X35794Y23000D01*
X35484D01*
G01X37315D02*
X36695D01*
Y24000D01*
X37315D01*
G01X37067Y23517D02*
X36695D01*
G01X36845Y62500D02*
Y61500D01*
X36458D01*
X36334Y61550D01*
X36256Y61617D01*
X36225Y61750D01*
X36256Y61883D01*
X36349Y61967D01*
X36458Y62017D01*
X36845D01*
G01X36458D02*
X36225Y62500D01*
G01X35541Y61500D02*
X35169D01*
G01X35355D02*
Y62500D01*
G01X35541D02*
X35169D01*
G01X34516D02*
Y61500D01*
X34206D01*
X34082Y61550D01*
X33989Y61617D01*
X33911Y61717D01*
X33850Y61833D01*
X33834Y62000D01*
X33850Y62167D01*
X33911Y62283D01*
X33989Y62383D01*
X34082Y62450D01*
X34206Y62500D01*
X34516D01*
G01X32685D02*
X33305D01*
Y61500D01*
X32685D01*
G01X32933Y61983D02*
X33305D01*
G01X37965Y32250D02*
Y31250D01*
G01X37609Y32250D02*
X38321D01*
G01X39145Y31250D02*
X39021Y31267D01*
X38913Y31333D01*
X38820Y31433D01*
X38757Y31550D01*
X38726Y31683D01*
Y31817D01*
X38757Y31950D01*
X38820Y32067D01*
X38913Y32167D01*
X39021Y32233D01*
X39145Y32250D01*
X39269Y32233D01*
X39377Y32167D01*
X39471Y32067D01*
X39533Y31950D01*
X39564Y31817D01*
Y31683D01*
X39533Y31550D01*
X39471Y31433D01*
X39377Y31333D01*
X39269Y31267D01*
X39145Y31250D01*
G01X39922D02*
Y32250D01*
X40325Y31417D01*
X40728Y32250D01*
Y31250D01*
G01X42390Y32083D02*
X42484Y32183D01*
X42592Y32233D01*
X42716Y32250D01*
X42871Y32217D01*
X42980Y32133D01*
X43010Y32033D01*
X42995Y31933D01*
X42933Y31850D01*
X42623Y31683D01*
X42484Y31567D01*
X42390Y31400D01*
X42360Y31250D01*
X43010D01*
G01X37670Y33000D02*
Y34000D01*
X38260D01*
G01X38042Y33517D02*
X37670D01*
G01X38835Y34000D02*
Y33000D01*
X39455D01*
G01X40325D02*
X40201Y33017D01*
X40093Y33083D01*
X40000Y33183D01*
X39937Y33300D01*
X39906Y33433D01*
Y33567D01*
X39937Y33700D01*
X40000Y33817D01*
X40093Y33917D01*
X40201Y33983D01*
X40325Y34000D01*
X40449Y33983D01*
X40557Y33917D01*
X40650Y33817D01*
X40713Y33700D01*
X40744Y33567D01*
Y33433D01*
X40713Y33300D01*
X40650Y33183D01*
X40557Y33083D01*
X40449Y33017D01*
X40325Y33000D01*
G01X41505D02*
X41381Y33017D01*
X41273Y33083D01*
X41179Y33183D01*
X41117Y33300D01*
X41086Y33433D01*
Y33567D01*
X41117Y33700D01*
X41179Y33817D01*
X41273Y33917D01*
X41381Y33983D01*
X41505Y34000D01*
X41629Y33983D01*
X41737Y33917D01*
X41831Y33817D01*
X41893Y33700D01*
X41924Y33567D01*
Y33433D01*
X41893Y33300D01*
X41831Y33183D01*
X41737Y33083D01*
X41629Y33017D01*
X41505Y33000D01*
G01X42375D02*
Y34000D01*
X42762D01*
X42886Y33950D01*
X42964Y33883D01*
X42995Y33750D01*
X42964Y33617D01*
X42871Y33533D01*
X42762Y33483D01*
X42375D01*
G01X42762D02*
X42995Y33000D01*
G01X42535Y53000D02*
Y54000D01*
G01X42891Y53000D02*
X42179D01*
G01X41355Y54000D02*
X41479Y53983D01*
X41587Y53917D01*
X41680Y53817D01*
X41743Y53700D01*
X41774Y53567D01*
Y53433D01*
X41743Y53300D01*
X41680Y53183D01*
X41587Y53083D01*
X41479Y53017D01*
X41355Y53000D01*
X41231Y53017D01*
X41123Y53083D01*
X41030Y53183D01*
X40967Y53300D01*
X40936Y53433D01*
Y53567D01*
X40967Y53700D01*
X41030Y53817D01*
X41123Y53917D01*
X41231Y53983D01*
X41355Y54000D01*
G01X40578D02*
Y53000D01*
X40175Y53833D01*
X39772Y53000D01*
Y54000D01*
G01X38110Y53167D02*
X38016Y53067D01*
X37908Y53017D01*
X37784Y53000D01*
X37629Y53033D01*
X37520Y53117D01*
X37490Y53217D01*
X37505Y53317D01*
X37567Y53400D01*
X37877Y53567D01*
X38016Y53683D01*
X38110Y53850D01*
X38141Y54000D01*
X37490D01*
G01X42580Y52500D02*
Y51500D01*
X41990D01*
G01X42208Y51983D02*
X42580D01*
G01X41415Y51500D02*
Y52500D01*
X40795D01*
G01X39925D02*
X40049Y52483D01*
X40157Y52417D01*
X40250Y52317D01*
X40313Y52200D01*
X40344Y52067D01*
Y51933D01*
X40313Y51800D01*
X40250Y51683D01*
X40157Y51583D01*
X40049Y51517D01*
X39925Y51500D01*
X39801Y51517D01*
X39693Y51583D01*
X39600Y51683D01*
X39537Y51800D01*
X39506Y51933D01*
Y52067D01*
X39537Y52200D01*
X39600Y52317D01*
X39693Y52417D01*
X39801Y52483D01*
X39925Y52500D01*
G01X38745D02*
X38869Y52483D01*
X38977Y52417D01*
X39070Y52317D01*
X39133Y52200D01*
X39164Y52067D01*
Y51933D01*
X39133Y51800D01*
X39070Y51683D01*
X38977Y51583D01*
X38869Y51517D01*
X38745Y51500D01*
X38621Y51517D01*
X38513Y51583D01*
X38420Y51683D01*
X38357Y51800D01*
X38326Y51933D01*
Y52067D01*
X38357Y52200D01*
X38420Y52317D01*
X38513Y52417D01*
X38621Y52483D01*
X38745Y52500D01*
G01X37875D02*
Y51500D01*
X37488D01*
X37364Y51550D01*
X37286Y51617D01*
X37255Y51750D01*
X37286Y51883D01*
X37379Y51967D01*
X37488Y52017D01*
X37875D01*
G01X37488D02*
X37255Y52500D01*
G01X47035Y63000D02*
Y64000D01*
G01X47391Y63000D02*
X46679D01*
G01X45855Y64000D02*
X45979Y63983D01*
X46087Y63917D01*
X46180Y63817D01*
X46243Y63700D01*
X46274Y63567D01*
Y63433D01*
X46243Y63300D01*
X46180Y63183D01*
X46087Y63083D01*
X45979Y63017D01*
X45855Y63000D01*
X45731Y63017D01*
X45623Y63083D01*
X45530Y63183D01*
X45467Y63300D01*
X45436Y63433D01*
Y63567D01*
X45467Y63700D01*
X45530Y63817D01*
X45623Y63917D01*
X45731Y63983D01*
X45855Y64000D01*
G01X45078D02*
Y63000D01*
X44675Y63833D01*
X44272Y63000D01*
Y64000D01*
G01X42315D02*
Y63000D01*
X42501Y63200D01*
G01Y64000D02*
X42129D01*
G01X47330Y62500D02*
Y61500D01*
X46740D01*
G01X46958Y61983D02*
X47330D01*
G01X46165Y61500D02*
Y62500D01*
X45545D01*
G01X44675D02*
X44799Y62483D01*
X44907Y62417D01*
X45000Y62317D01*
X45063Y62200D01*
X45094Y62067D01*
Y61933D01*
X45063Y61800D01*
X45000Y61683D01*
X44907Y61583D01*
X44799Y61517D01*
X44675Y61500D01*
X44551Y61517D01*
X44443Y61583D01*
X44350Y61683D01*
X44287Y61800D01*
X44256Y61933D01*
Y62067D01*
X44287Y62200D01*
X44350Y62317D01*
X44443Y62417D01*
X44551Y62483D01*
X44675Y62500D01*
G01X43495D02*
X43619Y62483D01*
X43727Y62417D01*
X43821Y62317D01*
X43883Y62200D01*
X43914Y62067D01*
Y61933D01*
X43883Y61800D01*
X43821Y61683D01*
X43727Y61583D01*
X43619Y61517D01*
X43495Y61500D01*
X43371Y61517D01*
X43263Y61583D01*
X43170Y61683D01*
X43107Y61800D01*
X43076Y61933D01*
Y62067D01*
X43107Y62200D01*
X43170Y62317D01*
X43263Y62417D01*
X43371Y62483D01*
X43495Y62500D01*
G01X42625D02*
Y61500D01*
X42238D01*
X42114Y61550D01*
X42036Y61617D01*
X42005Y61750D01*
X42036Y61883D01*
X42129Y61967D01*
X42238Y62017D01*
X42625D01*
G01X42238D02*
X42005Y62500D01*
G01X42965Y22250D02*
Y21250D01*
G01X42609Y22250D02*
X43321D01*
G01X44145Y21250D02*
X44021Y21267D01*
X43913Y21333D01*
X43820Y21433D01*
X43757Y21550D01*
X43726Y21683D01*
Y21817D01*
X43757Y21950D01*
X43820Y22067D01*
X43913Y22167D01*
X44021Y22233D01*
X44145Y22250D01*
X44269Y22233D01*
X44377Y22167D01*
X44470Y22067D01*
X44533Y21950D01*
X44564Y21817D01*
Y21683D01*
X44533Y21550D01*
X44470Y21433D01*
X44377Y21333D01*
X44269Y21267D01*
X44145Y21250D01*
G01X44922D02*
Y22250D01*
X45325Y21417D01*
X45728Y22250D01*
Y21250D01*
G01X47685D02*
Y22250D01*
X47499Y22050D01*
G01Y21250D02*
X47871D01*
G01X42670Y23000D02*
Y24000D01*
X43260D01*
G01X43042Y23517D02*
X42670D01*
G01X43835Y24000D02*
Y23000D01*
X44455D01*
G01X45325D02*
X45201Y23017D01*
X45093Y23083D01*
X45000Y23183D01*
X44937Y23300D01*
X44906Y23433D01*
Y23567D01*
X44937Y23700D01*
X45000Y23817D01*
X45093Y23917D01*
X45201Y23983D01*
X45325Y24000D01*
X45449Y23983D01*
X45557Y23917D01*
X45650Y23817D01*
X45713Y23700D01*
X45744Y23567D01*
Y23433D01*
X45713Y23300D01*
X45650Y23183D01*
X45557Y23083D01*
X45449Y23017D01*
X45325Y23000D01*
G01X46505D02*
X46381Y23017D01*
X46273Y23083D01*
X46179Y23183D01*
X46117Y23300D01*
X46086Y23433D01*
Y23567D01*
X46117Y23700D01*
X46179Y23817D01*
X46273Y23917D01*
X46381Y23983D01*
X46505Y24000D01*
X46629Y23983D01*
X46737Y23917D01*
X46831Y23817D01*
X46893Y23700D01*
X46924Y23567D01*
Y23433D01*
X46893Y23300D01*
X46831Y23183D01*
X46737Y23083D01*
X46629Y23017D01*
X46505Y23000D01*
G01X47375D02*
Y24000D01*
X47762D01*
X47886Y23950D01*
X47964Y23883D01*
X47995Y23750D01*
X47964Y23617D01*
X47871Y23533D01*
X47762Y23483D01*
X47375D01*
G01X47762D02*
X47995Y23000D01*
G01X52095Y52500D02*
Y51500D01*
X51708D01*
X51584Y51550D01*
X51506Y51617D01*
X51475Y51750D01*
X51506Y51883D01*
X51599Y51967D01*
X51708Y52017D01*
X52095D01*
G01X51708D02*
X51475Y52500D01*
G01X50993D02*
X50605Y51500D01*
X50217Y52500D01*
G01X50357Y52150D02*
X50853D01*
G01X49084Y51583D02*
X49177Y51533D01*
X49285Y51500D01*
X49409D01*
X49549Y51550D01*
X49657Y51633D01*
X49735Y51733D01*
X49797Y51900D01*
X49813Y52050D01*
X49781Y52200D01*
X49735Y52300D01*
X49642Y52400D01*
X49533Y52467D01*
X49425Y52500D01*
X49317D01*
X49208Y52467D01*
X49115Y52417D01*
X49037Y52350D01*
G01X48586Y52500D02*
Y51500D01*
G01X47997D02*
X48586Y52117D01*
G01X47904Y52500D02*
X48322Y51833D01*
G01X48965Y32250D02*
Y31250D01*
G01X48609Y32250D02*
X49321D01*
G01X50145Y31250D02*
X50021Y31267D01*
X49913Y31333D01*
X49820Y31433D01*
X49757Y31550D01*
X49726Y31683D01*
Y31817D01*
X49757Y31950D01*
X49820Y32067D01*
X49913Y32167D01*
X50021Y32233D01*
X50145Y32250D01*
X50269Y32233D01*
X50377Y32167D01*
X50471Y32067D01*
X50533Y31950D01*
X50564Y31817D01*
Y31683D01*
X50533Y31550D01*
X50471Y31433D01*
X50377Y31333D01*
X50269Y31267D01*
X50145Y31250D01*
G01X50922D02*
Y32250D01*
X51325Y31417D01*
X51728Y32250D01*
Y31250D01*
G01X48405Y33000D02*
Y34000D01*
X48792D01*
X48916Y33950D01*
X48994Y33883D01*
X49025Y33750D01*
X48994Y33617D01*
X48901Y33533D01*
X48792Y33483D01*
X48405D01*
G01X48792D02*
X49025Y33000D01*
G01X49507D02*
X49895Y34000D01*
X50283Y33000D01*
G01X50143Y33350D02*
X49647D01*
G01X51416Y33917D02*
X51323Y33967D01*
X51215Y34000D01*
X51091D01*
X50951Y33950D01*
X50843Y33867D01*
X50765Y33767D01*
X50703Y33600D01*
X50687Y33450D01*
X50719Y33300D01*
X50765Y33200D01*
X50858Y33100D01*
X50967Y33033D01*
X51075Y33000D01*
X51183D01*
X51292Y33033D01*
X51385Y33083D01*
X51463Y33150D01*
G01X51914Y33000D02*
Y34000D01*
G01X52503D02*
X51914Y33383D01*
G01X52596Y33000D02*
X52178Y33667D01*
G01X51285Y53000D02*
Y54000D01*
G01X51641Y53000D02*
X50929D01*
G01X50105Y54000D02*
X50229Y53983D01*
X50337Y53917D01*
X50430Y53817D01*
X50493Y53700D01*
X50524Y53567D01*
Y53433D01*
X50493Y53300D01*
X50430Y53183D01*
X50337Y53083D01*
X50229Y53017D01*
X50105Y53000D01*
X49981Y53017D01*
X49873Y53083D01*
X49780Y53183D01*
X49717Y53300D01*
X49686Y53433D01*
Y53567D01*
X49717Y53700D01*
X49780Y53817D01*
X49873Y53917D01*
X49981Y53983D01*
X50105Y54000D01*
G01X49328D02*
Y53000D01*
X48925Y53833D01*
X48522Y53000D01*
Y54000D01*
G01X58360Y62367D02*
X58236Y62450D01*
X58097Y62500D01*
X57973D01*
X57849Y62450D01*
X57756Y62367D01*
X57710Y62250D01*
X57740Y62133D01*
X57818Y62033D01*
X57958Y61967D01*
X58143Y61933D01*
X58252Y61867D01*
X58299Y61750D01*
X58267Y61633D01*
X58190Y61550D01*
X58081Y61500D01*
X57973D01*
X57864Y61533D01*
X57771Y61617D01*
G01X57211Y62500D02*
Y61500D01*
X56499Y62500D01*
Y61500D01*
G01X56063Y62500D02*
X55675Y61500D01*
X55287Y62500D01*
G01X55427Y62150D02*
X55923D01*
G01X54805Y62500D02*
Y61500D01*
X54418D01*
X54294Y61550D01*
X54216Y61617D01*
X54185Y61750D01*
X54216Y61883D01*
X54309Y61967D01*
X54418Y62017D01*
X54805D01*
G01X54418D02*
X54185Y62500D01*
G01X53005D02*
X53625D01*
Y61500D01*
X53005D01*
G01X53253Y61983D02*
X53625D01*
G01X51265Y62500D02*
Y61500D01*
X50878D01*
X50754Y61550D01*
X50676Y61617D01*
X50645Y61750D01*
X50676Y61883D01*
X50769Y61967D01*
X50878Y62017D01*
X51265D01*
G01X50878D02*
X50645Y62500D01*
G01X63111Y52367D02*
X62986Y52450D01*
X62847Y52500D01*
X62723D01*
X62599Y52450D01*
X62506Y52367D01*
X62460Y52250D01*
X62490Y52133D01*
X62568Y52033D01*
X62708Y51967D01*
X62893Y51933D01*
X63002Y51867D01*
X63049Y51750D01*
X63017Y51633D01*
X62940Y51550D01*
X62832Y51500D01*
X62723D01*
X62614Y51533D01*
X62521Y51617D01*
G01X61961Y52500D02*
Y51500D01*
X61249Y52500D01*
Y51500D01*
G01X60813Y52500D02*
X60425Y51500D01*
X60037Y52500D01*
G01X60177Y52150D02*
X60673D01*
G01X59555Y52500D02*
Y51500D01*
X59168D01*
X59044Y51550D01*
X58966Y51617D01*
X58935Y51750D01*
X58966Y51883D01*
X59059Y51967D01*
X59168Y52017D01*
X59555D01*
G01X59168D02*
X58935Y52500D01*
G01X57755D02*
X58375D01*
Y51500D01*
X57755D01*
G01X58003Y51983D02*
X58375D01*
G01X56015Y51500D02*
Y52500D01*
X55395D01*
G01X58655Y32250D02*
Y31250D01*
X59275D01*
G01X59866Y31217D02*
X60424Y32250D01*
G01X61015Y31250D02*
Y32250D01*
X61402D01*
X61526Y32200D01*
X61604Y32133D01*
X61635Y32000D01*
X61604Y31867D01*
X61511Y31783D01*
X61402Y31733D01*
X61015D01*
G01X61402D02*
X61635Y31250D01*
G01X57640Y33383D02*
X57764Y33300D01*
X57903Y33250D01*
X58027D01*
X58151Y33300D01*
X58244Y33383D01*
X58291Y33500D01*
X58260Y33617D01*
X58182Y33717D01*
X58042Y33783D01*
X57857Y33817D01*
X57748Y33883D01*
X57701Y34000D01*
X57733Y34117D01*
X57810Y34200D01*
X57918Y34250D01*
X58027D01*
X58136Y34217D01*
X58229Y34133D01*
G01X58789Y33250D02*
Y34250D01*
X59501Y33250D01*
Y34250D01*
G01X59937Y33250D02*
X60325Y34250D01*
X60713Y33250D01*
G01X60573Y33600D02*
X60077D01*
G01X61195Y33250D02*
Y34250D01*
X61582D01*
X61706Y34200D01*
X61784Y34133D01*
X61815Y34000D01*
X61784Y33867D01*
X61691Y33783D01*
X61582Y33733D01*
X61195D01*
G01X61582D02*
X61815Y33250D01*
G01X62995D02*
X62375D01*
Y34250D01*
X62995D01*
G01X62747Y33767D02*
X62375D01*
G01X70110Y62367D02*
X69986Y62450D01*
X69847Y62500D01*
X69723D01*
X69599Y62450D01*
X69506Y62367D01*
X69460Y62250D01*
X69490Y62133D01*
X69568Y62033D01*
X69708Y61967D01*
X69893Y61933D01*
X70002Y61867D01*
X70049Y61750D01*
X70017Y61633D01*
X69940Y61550D01*
X69832Y61500D01*
X69723D01*
X69614Y61533D01*
X69521Y61617D01*
G01X68961Y62500D02*
Y61500D01*
X68249Y62500D01*
Y61500D01*
G01X67813Y62500D02*
X67425Y61500D01*
X67037Y62500D01*
G01X67177Y62150D02*
X67673D01*
G01X66555Y62500D02*
Y61500D01*
X66168D01*
X66044Y61550D01*
X65966Y61617D01*
X65935Y61750D01*
X65966Y61883D01*
X66059Y61967D01*
X66168Y62017D01*
X66555D01*
G01X66168D02*
X65935Y62500D01*
G01X64755D02*
X65375D01*
Y61500D01*
X64755D01*
G01X65003Y61983D02*
X65375D01*
G01X63015Y62500D02*
Y61500D01*
X62628D01*
X62504Y61550D01*
X62426Y61617D01*
X62395Y61750D01*
X62426Y61883D01*
X62519Y61967D01*
X62628Y62017D01*
X63015D01*
G01X62628D02*
X62395Y62500D01*
G01X61711Y61500D02*
X61339D01*
G01X61525D02*
Y62500D01*
G01X61711D02*
X61339D01*
G01X60748D02*
Y61500D01*
X60345Y62333D01*
X59942Y61500D01*
Y62500D01*
G01X65056Y32167D02*
X64963Y32217D01*
X64855Y32250D01*
X64731D01*
X64591Y32200D01*
X64483Y32117D01*
X64405Y32017D01*
X64343Y31850D01*
X64327Y31700D01*
X64359Y31550D01*
X64405Y31450D01*
X64498Y31350D01*
X64607Y31283D01*
X64715Y31250D01*
X64823D01*
X64932Y31283D01*
X65025Y31333D01*
X65103Y31400D01*
G01X66205Y31250D02*
X65585D01*
Y32250D01*
X66205D01*
G01X65957Y31767D02*
X65585D01*
G01X66719Y31250D02*
Y32250D01*
X67431Y31250D01*
Y32250D01*
G01X68255D02*
Y31250D01*
G01X67899Y32250D02*
X68611D01*
G01X69745Y31250D02*
X69125D01*
Y32250D01*
X69745D01*
G01X69497Y31767D02*
X69125D01*
G01X70305Y31250D02*
Y32250D01*
X70692D01*
X70816Y32200D01*
X70894Y32133D01*
X70925Y32000D01*
X70894Y31867D01*
X70801Y31783D01*
X70692Y31733D01*
X70305D01*
G01X70692D02*
X70925Y31250D01*
G01X71516Y31217D02*
X72074Y32250D01*
G01X72665Y31250D02*
Y32250D01*
X73052D01*
X73176Y32200D01*
X73254Y32133D01*
X73285Y32000D01*
X73254Y31867D01*
X73161Y31783D01*
X73052Y31733D01*
X72665D01*
G01X73052D02*
X73285Y31250D01*
G01X73969Y32250D02*
X74341D01*
G01X74155D02*
Y31250D01*
G01X73969D02*
X74341D01*
G01X74932D02*
Y32250D01*
X75335Y31417D01*
X75738Y32250D01*
Y31250D01*
G01X73360Y52367D02*
X73236Y52450D01*
X73097Y52500D01*
X72973D01*
X72849Y52450D01*
X72756Y52367D01*
X72710Y52250D01*
X72740Y52133D01*
X72818Y52033D01*
X72958Y51967D01*
X73143Y51933D01*
X73252Y51867D01*
X73299Y51750D01*
X73267Y51633D01*
X73190Y51550D01*
X73082Y51500D01*
X72973D01*
X72864Y51533D01*
X72771Y51617D01*
G01X72211Y52500D02*
Y51500D01*
X71499Y52500D01*
Y51500D01*
G01X71063Y52500D02*
X70675Y51500D01*
X70287Y52500D01*
G01X70427Y52150D02*
X70923D01*
G01X69805Y52500D02*
Y51500D01*
X69418D01*
X69294Y51550D01*
X69216Y51617D01*
X69185Y51750D01*
X69216Y51883D01*
X69309Y51967D01*
X69418Y52017D01*
X69805D01*
G01X69418D02*
X69185Y52500D01*
G01X68005D02*
X68625D01*
Y51500D01*
X68005D01*
G01X68253Y51983D02*
X68625D01*
G01X65614Y51583D02*
X65707Y51533D01*
X65815Y51500D01*
X65939D01*
X66079Y51550D01*
X66187Y51633D01*
X66265Y51733D01*
X66327Y51900D01*
X66343Y52050D01*
X66311Y52200D01*
X66265Y52300D01*
X66172Y52400D01*
X66063Y52467D01*
X65955Y52500D01*
X65847D01*
X65738Y52467D01*
X65645Y52417D01*
X65567Y52350D01*
G01X67640Y33133D02*
X67764Y33050D01*
X67903Y33000D01*
X68027D01*
X68151Y33050D01*
X68244Y33133D01*
X68290Y33250D01*
X68260Y33367D01*
X68182Y33467D01*
X68042Y33533D01*
X67857Y33567D01*
X67748Y33633D01*
X67701Y33750D01*
X67733Y33867D01*
X67810Y33950D01*
X67918Y34000D01*
X68027D01*
X68136Y33967D01*
X68229Y33883D01*
G01X68789Y33000D02*
Y34000D01*
X69501Y33000D01*
Y34000D01*
G01X69937Y33000D02*
X70325Y34000D01*
X70713Y33000D01*
G01X70573Y33350D02*
X70077D01*
G01X71195Y33000D02*
Y34000D01*
X71582D01*
X71706Y33950D01*
X71784Y33883D01*
X71815Y33750D01*
X71784Y33617D01*
X71691Y33533D01*
X71582Y33483D01*
X71195D01*
G01X71582D02*
X71815Y33000D01*
G01X72995D02*
X72375D01*
Y34000D01*
X72995D01*
G01X72747Y33517D02*
X72375D01*
G01X73124Y21250D02*
Y22250D01*
G01X73713D02*
X73124Y21633D01*
G01X73806Y21250D02*
X73388Y21917D01*
G01X74459Y22250D02*
X74831D01*
G01X74645D02*
Y21250D01*
G01X74459D02*
X74831D01*
G01X76166Y22167D02*
X76073Y22217D01*
X75965Y22250D01*
X75841D01*
X75701Y22200D01*
X75593Y22117D01*
X75515Y22017D01*
X75453Y21850D01*
X75437Y21700D01*
X75469Y21550D01*
X75515Y21450D01*
X75608Y21350D01*
X75717Y21283D01*
X75825Y21250D01*
X75933D01*
X76042Y21283D01*
X76135Y21333D01*
X76213Y21400D01*
G01X76664Y21250D02*
Y22250D01*
G01X77253D02*
X76664Y21633D01*
G01X77346Y21250D02*
X76928Y21917D01*
G01X76876Y62500D02*
Y61500D01*
G01X76287D02*
X76876Y62117D01*
G01X76194Y62500D02*
X76612Y61833D01*
G01X75541Y61500D02*
X75169D01*
G01X75355D02*
Y62500D01*
G01X75541D02*
X75169D01*
G01X73834Y61583D02*
X73927Y61533D01*
X74035Y61500D01*
X74159D01*
X74299Y61550D01*
X74407Y61633D01*
X74485Y61733D01*
X74547Y61900D01*
X74563Y62050D01*
X74531Y62200D01*
X74485Y62300D01*
X74392Y62400D01*
X74283Y62467D01*
X74175Y62500D01*
X74067D01*
X73958Y62467D01*
X73865Y62417D01*
X73787Y62350D01*
G01X73336Y62500D02*
Y61500D01*
G01X72747D02*
X73336Y62117D01*
G01X72654Y62500D02*
X73072Y61833D01*
G01X77640Y31250D02*
Y32250D01*
G01X78290D02*
Y31250D01*
G01Y31750D02*
X77640D01*
G01X78959Y32250D02*
X79331D01*
G01X79145D02*
Y31250D01*
G01X78959D02*
X79331D01*
G01X80000D02*
Y32250D01*
G01X80651D02*
Y31250D01*
G01Y31750D02*
X80000D01*
G01X81117Y31250D02*
X81505Y32250D01*
X81893Y31250D01*
G01X81753Y31600D02*
X81257D01*
G01X82685Y32250D02*
Y31250D01*
G01X82329Y32250D02*
X83041D01*
G01X82360Y52500D02*
Y51500D01*
G01X81710D02*
Y52500D01*
G01Y52000D02*
X82360D01*
G01X81041Y51500D02*
X80669D01*
G01X80855D02*
Y52500D01*
G01X81041D02*
X80669D01*
G01X80000D02*
Y51500D01*
G01X79350D02*
Y52500D01*
G01Y52000D02*
X80000D01*
G01X78883Y52500D02*
X78495Y51500D01*
X78107Y52500D01*
G01X78247Y52150D02*
X78743D01*
G01X77315Y51500D02*
Y52500D01*
G01X77671Y51500D02*
X76959D01*
M02*
