G04 ================== begin FILE IDENTIFICATION RECORD ==================*
G04 Layout Name:  d:\misc\ED1\worklib\ed1\physical\ED2_8_ticks_graphics_CAPS.brd*
G04 Film Name:    TOP*
G04 File Format:  Gerber RS274X*
G04 File Origin:  15.2-s023*
G04 Origin Date:  Thu Dec 09 16:21:24 2010*
G04 ================== end FILE IDENTIFICATION RECORD ====================*
%FSLAX44Y44*MOIN*%
%IR0*IPPOS*OFA0.00000B0.00000*MIA0B0*SFA1.00000B1.00000*%
%ADD10C,.125*%
%ADD11C,.005*%
%ADD12C,.031*%
%ADD13C,.135002*%
G75*
%LPD*%
G75*
G36*
G01X3210Y2500D02*
G02I-710J0D01*
G37*
G36*
G01Y20000D02*
G02I-710J0D01*
G37*
G36*
G01X2500Y108210D02*
G02I0J-710D01*
G37*
G36*
G01X8250Y72550D02*
G02I-1250J0D01*
G37*
G36*
G01X10000Y24400D02*
G02I0J3100D01*
G37*
G36*
G01Y44850D02*
G02I0J2650D01*
G37*
G36*
G01X11645Y8900D02*
G02X11625Y8920I0J20D01*
G01Y12380D01*
G02X11645Y12400I20J0D01*
G01X18355D01*
G02X18375Y12380I0J-20D01*
G01Y8920D01*
G02X18355Y8900I-20J0D01*
G01X11645D01*
G37*
G36*
G01X10750Y10650D02*
G02I-750J0D01*
G37*
G36*
G01X15000Y14400D02*
G02I0J3100D01*
G37*
G36*
G01Y54850D02*
G02I0J2650D01*
G37*
G36*
G01X18712Y74890D02*
Y70210D01*
G02X18692Y70190I-20J0D01*
G01X14012D01*
G02X13992Y70210I0J20D01*
G01Y74890D01*
G02X14012Y74910I20J0D01*
G01X18692D01*
G02X18712Y74890I0J-20D01*
G37*
G36*
G01X20000Y24400D02*
G02I0J3100D01*
G37*
G36*
G01Y44850D02*
G02I0J2650D01*
G37*
G36*
G01X20750Y10650D02*
G02I-750J0D01*
G37*
G36*
G01X25000Y14400D02*
G02I0J3100D01*
G37*
G36*
G01Y54850D02*
G02I0J2650D01*
G37*
G36*
G01X21492Y62903D02*
Y67390D01*
G02X21512Y67410I20J0D01*
G01X26192D01*
G02X26212Y67390I0J-20D01*
G01Y62903D01*
G02X26192Y62883I-20J0D01*
G01X21512D01*
G02X21492Y62903I0J20D01*
G37*
G36*
G01X21512Y82410D02*
X26192D01*
G02X26212Y82390I0J-20D01*
G01Y77710D01*
G02X26192Y77690I-20J0D01*
G01X21512D01*
G02X21492Y77710I0J20D01*
G01Y82390D01*
G02X21512Y82410I20J0D01*
G37*
G36*
G01X30000Y24400D02*
G02I0J3100D01*
G37*
G36*
G01Y44850D02*
G02I0J2650D01*
G37*
G36*
G01X29012Y74910D02*
X33692D01*
G02X33712Y74890I0J-20D01*
G01Y70210D01*
G02X33692Y70190I-20J0D01*
G01X29012D01*
G02X28992Y70210I0J20D01*
G01Y74890D01*
G02X29012Y74910I20J0D01*
G37*
G36*
G01X34630Y8150D02*
X30920D01*
G02X30900Y8170I0J20D01*
G01Y12630D01*
G02X30920Y12650I20J0D01*
G01X34630D01*
G02X34650Y12630I0J-20D01*
G01Y8170D01*
G02X34630Y8150I-20J0D01*
G37*
G36*
G01X35000Y14400D02*
G02I0J3100D01*
G37*
G36*
G01Y54850D02*
G02I0J2650D01*
G37*
G36*
G01X40000Y24400D02*
G02I0J3100D01*
G37*
G36*
G01Y44850D02*
G02I0J2650D01*
G37*
G36*
G01X45000Y14400D02*
G02I0J3100D01*
G37*
G36*
G01Y3125D02*
G02I0J-625D01*
G37*
G36*
G01X46250Y10000D02*
G02I-625J0D01*
G37*
G36*
G01X45000Y54850D02*
G02I0J2650D01*
G37*
G36*
G01Y108125D02*
G02I0J-625D01*
G37*
G36*
G01X50000Y13000D02*
G02I0J-3000D01*
G37*
G36*
G01Y24400D02*
G02I0J3100D01*
G37*
G36*
G01Y44850D02*
G02I0J2650D01*
G37*
G36*
G01X74850Y75525D02*
Y70055D01*
G02X74830Y70035I-20J0D01*
G01X49670D01*
G02X49650Y70055I0J20D01*
G01Y75525D01*
G02X49670Y75545I20J0D01*
G01X74830D01*
G02X74850Y75525I0J-20D01*
G37*
G36*
G01X55000Y10000D02*
G02I-625J0D01*
G37*
G36*
G01Y14400D02*
G02I0J3100D01*
G37*
G36*
G01Y54850D02*
G02I0J2650D01*
G37*
G36*
G01X60000Y24400D02*
G02I0J3100D01*
G37*
G36*
G01Y44850D02*
G02I0J2650D01*
G37*
G36*
G01X65000Y14400D02*
G02I0J3100D01*
G37*
G36*
G01Y54850D02*
G02I0J2650D01*
G37*
G36*
G01X70000Y24400D02*
G02I0J3100D01*
G37*
G36*
G01Y44850D02*
G02I0J2650D01*
G37*
G36*
G01X75000Y14400D02*
G02I0J3100D01*
G37*
G36*
G01Y54850D02*
G02I0J2650D01*
G37*
G36*
G01X80000Y24400D02*
G02I0J3100D01*
G37*
G36*
G01Y44850D02*
G02I0J2650D01*
G37*
G36*
G01X88210Y2500D02*
G02I-710J0D01*
G37*
G36*
G01Y20000D02*
G02I-710J0D01*
G37*
G36*
G01Y107500D02*
G02I-710J0D01*
G37*
%LPC*%
G75*
G54D13*
X10000Y27500D03*
Y47500D03*
X15000Y17500D03*
Y57500D03*
X20000Y27500D03*
Y47500D03*
X25000Y17500D03*
Y57500D03*
X30000Y27500D03*
Y47500D03*
X35000Y17500D03*
Y57500D03*
X40000Y27500D03*
Y47500D03*
X45000Y17500D03*
Y57500D03*
X50000Y27500D03*
Y47500D03*
X55000Y17500D03*
Y57500D03*
X60000Y27500D03*
Y47500D03*
X65000Y17500D03*
Y57500D03*
X70000Y27500D03*
Y47500D03*
X75000Y17500D03*
Y57500D03*
X80000Y27500D03*
Y47500D03*
%LPD*%
G75*
G36*
G01X10000Y27188D02*
G02I0J312D01*
G37*
G36*
G01Y47188D02*
G02I0J312D01*
G37*
G36*
G01X15000Y17188D02*
G02I0J312D01*
G37*
G36*
G01Y57188D02*
G02I0J312D01*
G37*
G36*
G01X20000Y27188D02*
G02I0J312D01*
G37*
G36*
G01Y47188D02*
G02I0J312D01*
G37*
G36*
G01X25000Y17188D02*
G02I0J312D01*
G37*
G36*
G01Y57188D02*
G02I0J312D01*
G37*
G36*
G01X30000Y27188D02*
G02I0J312D01*
G37*
G36*
G01Y47188D02*
G02I0J312D01*
G37*
G36*
G01X35000Y17188D02*
G02I0J312D01*
G37*
G36*
G01Y57188D02*
G02I0J312D01*
G37*
G36*
G01X40000Y27188D02*
G02I0J312D01*
G37*
G36*
G01Y47188D02*
G02I0J312D01*
G37*
G36*
G01X45000Y17188D02*
G02I0J312D01*
G37*
G36*
G01Y57188D02*
G02I0J312D01*
G37*
G36*
G01X50000Y27188D02*
G02I0J312D01*
G37*
G36*
G01Y47188D02*
G02I0J312D01*
G37*
G36*
G01X55000Y17188D02*
G02I0J312D01*
G37*
G36*
G01Y57188D02*
G02I0J312D01*
G37*
G36*
G01X60000Y27188D02*
G02I0J312D01*
G37*
G36*
G01Y47188D02*
G02I0J312D01*
G37*
G36*
G01X65000Y17188D02*
G02I0J312D01*
G37*
G36*
G01Y57188D02*
G02I0J312D01*
G37*
G36*
G01X70000Y27188D02*
G02I0J312D01*
G37*
G36*
G01Y47188D02*
G02I0J312D01*
G37*
G36*
G01X75000Y17188D02*
G02I0J312D01*
G37*
G36*
G01Y57188D02*
G02I0J312D01*
G37*
G36*
G01X80000Y27188D02*
G02I0J312D01*
G37*
G36*
G01Y47188D02*
G02I0J312D01*
G37*
G54D10*
X2500Y2500D03*
Y20000D03*
Y107500D03*
X7000Y72550D03*
X10000Y10650D03*
Y27500D03*
Y47500D03*
X15000Y17500D03*
Y57500D03*
X20000Y10650D03*
Y27500D03*
Y47500D03*
X25000Y17500D03*
Y57500D03*
X30000Y27500D03*
Y47500D03*
X35000Y17500D03*
Y57500D03*
X40000Y27500D03*
Y47500D03*
X45625Y10000D03*
X45000Y17500D03*
Y57500D03*
X50000Y27500D03*
Y47500D03*
X54375Y10000D03*
X55000Y17500D03*
Y57500D03*
X60000Y27500D03*
Y47500D03*
X65000Y17500D03*
Y57500D03*
X70000Y27500D03*
Y47500D03*
X75000Y17500D03*
Y57500D03*
X80000Y27500D03*
Y47500D03*
X87500Y2500D03*
Y20000D03*
Y107500D03*
G54D11*
G01X0Y5000D02*
X90000D01*
G01X0Y35000D02*
X90000D01*
G01X0Y97500D02*
X90000D01*
G01X0Y105000D02*
X90000D01*
G54D12*
G01X6500Y47500D02*
X6000D01*
G01X8250Y44470D02*
X8000Y44040D01*
G01X6970Y45750D02*
X6830Y45670D01*
G01X6970Y49250D02*
X6830Y49330D01*
G01X8250Y50530D02*
X8000Y50960D01*
G01X10000Y44000D02*
Y43840D01*
G01X11750Y44470D02*
X12000Y44040D01*
G01X11750Y50530D02*
X12000Y50960D01*
G01X11970Y55750D02*
X11830Y55670D01*
G01X11970Y59250D02*
X11830Y59330D01*
G01X11500Y57500D02*
X11000D01*
G01X13030Y45750D02*
X13170Y45670D01*
G01X13500Y47500D02*
X14000D01*
G01X13030Y49250D02*
X13170Y49330D01*
G01X15000Y54000D02*
Y53840D01*
G01X13250Y54470D02*
X13000Y54040D01*
G01X13250Y60530D02*
X13000Y60960D01*
G01X18250Y44470D02*
X18000Y44040D01*
G01X16970Y45750D02*
X16830Y45670D01*
G01X16500Y47500D02*
X16000D01*
G01X18250Y50530D02*
X18000Y50960D01*
G01X16970Y49250D02*
X16830Y49330D01*
G01X16750Y54470D02*
X17000Y54040D01*
G01X18030Y55750D02*
X18170Y55670D01*
G01X18030Y59250D02*
X18170Y59330D01*
G01X16750Y60530D02*
X17000Y60960D01*
G01X20000Y44000D02*
Y43840D01*
G01X18500Y57500D02*
X19000D01*
G01X21500D02*
X21000D01*
G01X21750Y44470D02*
X22000Y44040D01*
G01X23500Y47500D02*
X24000D01*
G01X23030Y45750D02*
X23170Y45670D01*
G01X23030Y49250D02*
X23170Y49330D01*
G01X21750Y50530D02*
X22000Y50960D01*
G01X23250Y54470D02*
X23000Y54040D01*
G01X21970Y55750D02*
X21830Y55670D01*
G01X21970Y59250D02*
X21830Y59330D01*
G01X23250Y60530D02*
X23000Y60960D01*
G01X26970Y45750D02*
X26830Y45670D01*
G01X26500Y47500D02*
X26000D01*
G01X26970Y49250D02*
X26830Y49330D01*
G01X26750Y54470D02*
X27000Y54040D01*
G01X25000Y54000D02*
Y53840D01*
G01X26750Y60530D02*
X27000Y60960D01*
G01X30000Y44000D02*
Y43840D01*
G01X28250Y44470D02*
X28000Y44040D01*
G01X28250Y50530D02*
X28000Y50960D01*
G01X28030Y55750D02*
X28170Y55670D01*
G01X28030Y59250D02*
X28170Y59330D01*
G01X28500Y57500D02*
X29000D01*
G01X31750Y44470D02*
X32000Y44040D01*
G01X33030Y45750D02*
X33170Y45670D01*
G01X33030Y49250D02*
X33170Y49330D01*
G01X31750Y50530D02*
X32000Y50960D01*
G01X33250Y54470D02*
X33000Y54040D01*
G01X31970Y55750D02*
X31830Y55670D01*
G01X31970Y59250D02*
X31830Y59330D01*
G01X31500Y57500D02*
X31000D01*
G01X33250Y60530D02*
X33000Y60960D01*
G01X36500Y47500D02*
X36000D01*
G01X33500D02*
X34000D01*
G01X35000Y54000D02*
Y53840D01*
G01X38250Y44470D02*
X38000Y44040D01*
G01X36970Y45750D02*
X36830Y45670D01*
G01X38250Y50530D02*
X38000Y50960D01*
G01X36970Y49250D02*
X36830Y49330D01*
G01X36750Y54470D02*
X37000Y54040D01*
G01X38030Y55750D02*
X38170Y55670D01*
G01X38030Y59250D02*
X38170Y59330D01*
G01X38500Y57500D02*
X39000D01*
G01X36750Y60530D02*
X37000Y60960D01*
G01X41750Y44470D02*
X42000Y44040D01*
G01X40000Y44000D02*
Y43840D01*
G01X41750Y50530D02*
X42000Y50960D01*
G01X41970Y55750D02*
X41830Y55670D01*
G01X41970Y59250D02*
X41830Y59330D01*
G01X41500Y57500D02*
X41000D01*
G01X43500Y47500D02*
X44000D01*
G01X43030Y45750D02*
X43170Y45670D01*
G01X43030Y49250D02*
X43170Y49330D01*
G01X45000Y54000D02*
Y53840D01*
G01X43250Y54470D02*
X43000Y54040D01*
G01X43250Y60530D02*
X43000Y60960D01*
G01X48250Y44470D02*
X48000Y44040D01*
G01X46970Y45750D02*
X46830Y45670D01*
G01X46500Y47500D02*
X46000D01*
G01X48250Y50530D02*
X48000Y50960D01*
G01X46970Y49250D02*
X46830Y49330D01*
G01X46750Y54470D02*
X47000Y54040D01*
G01X48030Y55750D02*
X48170Y55670D01*
G01X48030Y59250D02*
X48170Y59330D01*
G01X46750Y60530D02*
X47000Y60960D01*
G01X50000Y44000D02*
Y43840D01*
G01X48500Y57500D02*
X49000D01*
G01X51500D02*
X51000D01*
G01X51750Y44470D02*
X52000Y44040D01*
G01X53500Y47500D02*
X54000D01*
G01X53030Y45750D02*
X53170Y45670D01*
G01X53030Y49250D02*
X53170Y49330D01*
G01X51750Y50530D02*
X52000Y50960D01*
G01X53250Y54470D02*
X53000Y54040D01*
G01X51970Y55750D02*
X51830Y55670D01*
G01X51970Y59250D02*
X51830Y59330D01*
G01X53250Y60530D02*
X53000Y60960D01*
G01X56970Y45750D02*
X56830Y45670D01*
G01X56500Y47500D02*
X56000D01*
G01X56970Y49250D02*
X56830Y49330D01*
G01X56750Y54470D02*
X57000Y54040D01*
G01X55000Y54000D02*
Y53840D01*
G01X56750Y60530D02*
X57000Y60960D01*
G01X60000Y44000D02*
Y43840D01*
G01X58250Y44470D02*
X58000Y44040D01*
G01X58250Y50530D02*
X58000Y50960D01*
G01X58030Y55750D02*
X58170Y55670D01*
G01X58030Y59250D02*
X58170Y59330D01*
G01X58500Y57500D02*
X59000D01*
G01X61750Y44470D02*
X62000Y44040D01*
G01X63030Y45750D02*
X63170Y45670D01*
G01X63030Y49250D02*
X63170Y49330D01*
G01X61750Y50530D02*
X62000Y50960D01*
G01X63250Y54470D02*
X63000Y54040D01*
G01X61970Y55750D02*
X61830Y55670D01*
G01X61970Y59250D02*
X61830Y59330D01*
G01X61500Y57500D02*
X61000D01*
G01X63250Y60530D02*
X63000Y60960D01*
G01X66500Y47500D02*
X66000D01*
G01X63500D02*
X64000D01*
G01X65000Y54000D02*
Y53840D01*
G01X68250Y44470D02*
X68000Y44040D01*
G01X66970Y45750D02*
X66830Y45670D01*
G01X68250Y50530D02*
X68000Y50960D01*
G01X66970Y49250D02*
X66830Y49330D01*
G01X66750Y54470D02*
X67000Y54040D01*
G01X68030Y55750D02*
X68170Y55670D01*
G01X68030Y59250D02*
X68170Y59330D01*
G01X68500Y57500D02*
X69000D01*
G01X66750Y60530D02*
X67000Y60960D01*
G01X71750Y44470D02*
X72000Y44040D01*
G01X70000Y44000D02*
Y43840D01*
G01X71750Y50530D02*
X72000Y50960D01*
G01X71970Y55750D02*
X71830Y55670D01*
G01X71970Y59250D02*
X71830Y59330D01*
G01X71500Y57500D02*
X71000D01*
G01X73500Y47500D02*
X74000D01*
G01X73030Y45750D02*
X73170Y45670D01*
G01X73030Y49250D02*
X73170Y49330D01*
G01X75000Y54000D02*
Y53840D01*
G01X73250Y54470D02*
X73000Y54040D01*
G01X73250Y60530D02*
X73000Y60960D01*
G01X78250Y44470D02*
X78000Y44040D01*
G01X76970Y45750D02*
X76830Y45670D01*
G01X76500Y47500D02*
X76000D01*
G01X78250Y50530D02*
X78000Y50960D01*
G01X76970Y49250D02*
X76830Y49330D01*
G01X76750Y54470D02*
X77000Y54040D01*
G01X78030Y55750D02*
X78170Y55670D01*
G01X78030Y59250D02*
X78170Y59330D01*
G01X76750Y60530D02*
X77000Y60960D01*
G01X80000Y44000D02*
Y43840D01*
G01X78500Y57500D02*
X79000D01*
G01X81750Y44470D02*
X82000Y44040D01*
G01X83500Y47500D02*
X84000D01*
G01X83030Y45750D02*
X83170Y45670D01*
G01X83030Y49250D02*
X83170Y49330D01*
G01X81750Y50530D02*
X82000Y50960D01*
G01X8688Y76000D02*
Y75000D01*
X8285Y75833D01*
X7882Y75000D01*
Y76000D01*
G01X7391Y75000D02*
X7019D01*
G01X7205D02*
Y76000D01*
G01X7391D02*
X7019D01*
G01X6466D02*
Y75000D01*
X6156D01*
X6032Y75050D01*
X5939Y75117D01*
X5861Y75217D01*
X5800Y75333D01*
X5784Y75500D01*
X5800Y75667D01*
X5861Y75783D01*
X5939Y75883D01*
X6032Y75950D01*
X6156Y76000D01*
X6466D01*
G01X5231Y75000D02*
X4859D01*
G01X5045D02*
Y76000D01*
G01X5231D02*
X4859D01*
G01X7905Y31250D02*
Y32250D01*
X8277D01*
X8401Y32200D01*
X8494Y32083D01*
X8525Y31950D01*
X8494Y31817D01*
X8416Y31717D01*
X8277Y31667D01*
X7905D01*
G01X9605Y31250D02*
X8985D01*
Y32250D01*
X9605D01*
G01X9357Y31767D02*
X8985D01*
G01X10034Y31250D02*
Y32250D01*
X10344D01*
X10468Y32200D01*
X10561Y32133D01*
X10639Y32033D01*
X10700Y31917D01*
X10716Y31750D01*
X10700Y31583D01*
X10639Y31467D01*
X10561Y31367D01*
X10468Y31300D01*
X10344Y31250D01*
X10034D01*
G01X11067D02*
X11455Y32250D01*
X11843Y31250D01*
G01X11703Y31600D02*
X11207D01*
G01X12225Y32250D02*
Y31250D01*
X12845D01*
G01X7890Y33000D02*
Y34000D01*
G01X8540D02*
Y33000D01*
G01Y33500D02*
X7890D01*
G01X9109Y34000D02*
X9481D01*
G01X9295D02*
Y33000D01*
G01X9109D02*
X9481D01*
G01X10050D02*
Y34000D01*
G01X10700D02*
Y33000D01*
G01Y33500D02*
X10050D01*
G01X11067Y33000D02*
X11455Y34000D01*
X11843Y33000D01*
G01X11703Y33350D02*
X11207D01*
G01X12535Y34000D02*
Y33000D01*
G01X12179Y34000D02*
X12891D01*
G01X9670Y21250D02*
Y22250D01*
X10260D01*
G01X10042Y21767D02*
X9670D01*
G01X11045Y21250D02*
X10921Y21267D01*
X10813Y21333D01*
X10720Y21433D01*
X10657Y21550D01*
X10626Y21683D01*
Y21817D01*
X10657Y21950D01*
X10720Y22067D01*
X10813Y22167D01*
X10921Y22233D01*
X11045Y22250D01*
X11169Y22233D01*
X11277Y22167D01*
X11370Y22067D01*
X11433Y21950D01*
X11464Y21817D01*
Y21683D01*
X11433Y21550D01*
X11370Y21433D01*
X11277Y21333D01*
X11169Y21267D01*
X11045Y21250D01*
G01X12125D02*
X12001Y21267D01*
X11893Y21333D01*
X11800Y21433D01*
X11737Y21550D01*
X11706Y21683D01*
Y21817D01*
X11737Y21950D01*
X11800Y22067D01*
X11893Y22167D01*
X12001Y22233D01*
X12125Y22250D01*
X12249Y22233D01*
X12357Y22167D01*
X12450Y22067D01*
X12513Y21950D01*
X12544Y21817D01*
Y21683D01*
X12513Y21550D01*
X12450Y21433D01*
X12357Y21333D01*
X12249Y21267D01*
X12125Y21250D01*
G01X13205Y22250D02*
Y21250D01*
G01X12849Y22250D02*
X13561D01*
G01X13960Y21383D02*
X14084Y21300D01*
X14223Y21250D01*
X14347D01*
X14471Y21300D01*
X14564Y21383D01*
X14610Y21500D01*
X14580Y21617D01*
X14502Y21717D01*
X14362Y21783D01*
X14177Y21817D01*
X14068Y21883D01*
X14021Y22000D01*
X14053Y22117D01*
X14130Y22200D01*
X14238Y22250D01*
X14347D01*
X14456Y22217D01*
X14549Y22133D01*
G01X14900Y22250D02*
X15117Y21250D01*
X15365Y22250D01*
X15613Y21250D01*
X15830Y22250D01*
G01X16259D02*
X16631D01*
G01X16445D02*
Y21250D01*
G01X16259D02*
X16631D01*
G01X17525Y22250D02*
Y21250D01*
G01X17169Y22250D02*
X17881D01*
G01X18946Y22167D02*
X18853Y22217D01*
X18745Y22250D01*
X18621D01*
X18481Y22200D01*
X18373Y22117D01*
X18295Y22017D01*
X18233Y21850D01*
X18217Y21700D01*
X18249Y21550D01*
X18295Y21450D01*
X18388Y21350D01*
X18497Y21283D01*
X18605Y21250D01*
X18713D01*
X18822Y21283D01*
X18915Y21333D01*
X18993Y21400D01*
G01X19360Y21250D02*
Y22250D01*
G01X20011D02*
Y21250D01*
G01Y21750D02*
X19360D01*
G01X19595Y62500D02*
Y61500D01*
X19208D01*
X19084Y61550D01*
X19006Y61617D01*
X18975Y61750D01*
X19006Y61883D01*
X19099Y61967D01*
X19208Y62017D01*
X19595D01*
G01X19208D02*
X18975Y62500D01*
G01X18391Y61500D02*
X18019D01*
G01X18205D02*
Y62500D01*
G01X18391D02*
X18019D01*
G01X17466D02*
Y61500D01*
X17156D01*
X17032Y61550D01*
X16939Y61617D01*
X16861Y61717D01*
X16800Y61833D01*
X16784Y62000D01*
X16800Y62167D01*
X16861Y62283D01*
X16939Y62383D01*
X17032Y62450D01*
X17156Y62500D01*
X17466D01*
G01X15735D02*
X16355D01*
Y61500D01*
X15735D01*
G01X15983Y61983D02*
X16355D01*
G01X13761Y61967D02*
X13699Y61917D01*
X13653Y61833D01*
X13621Y61717D01*
X13653Y61617D01*
X13714Y61550D01*
X13823Y61500D01*
X14241D01*
Y62500D01*
X13730D01*
X13621Y62433D01*
X13560Y62333D01*
X13529Y62217D01*
X13560Y62100D01*
X13653Y62000D01*
X13761Y61967D01*
X14241D01*
G01X12495Y62500D02*
X13115D01*
Y61500D01*
X12495D01*
G01X12743Y61983D02*
X13115D01*
G01X12035Y61500D02*
Y62500D01*
X11415D01*
G01X10955Y61500D02*
Y62500D01*
X10335D01*
G01X17306Y32167D02*
X17213Y32217D01*
X17105Y32250D01*
X16981D01*
X16841Y32200D01*
X16733Y32117D01*
X16655Y32017D01*
X16593Y31850D01*
X16577Y31700D01*
X16609Y31550D01*
X16655Y31450D01*
X16748Y31350D01*
X16857Y31283D01*
X16965Y31250D01*
X17073D01*
X17182Y31283D01*
X17275Y31333D01*
X17353Y31400D01*
G01X17735Y31250D02*
Y32250D01*
X18122D01*
X18246Y32200D01*
X18324Y32133D01*
X18355Y32000D01*
X18324Y31867D01*
X18231Y31783D01*
X18122Y31733D01*
X17735D01*
G01X18122D02*
X18355Y31250D01*
G01X18737D02*
X19125Y32250D01*
X19513Y31250D01*
G01X19373Y31600D02*
X18877D01*
G01X19880Y31383D02*
X20004Y31300D01*
X20143Y31250D01*
X20267D01*
X20391Y31300D01*
X20484Y31383D01*
X20531Y31500D01*
X20500Y31617D01*
X20422Y31717D01*
X20282Y31783D01*
X20097Y31817D01*
X19988Y31883D01*
X19941Y32000D01*
X19973Y32117D01*
X20050Y32200D01*
X20158Y32250D01*
X20267D01*
X20376Y32217D01*
X20469Y32133D01*
G01X20959Y31250D02*
Y32250D01*
G01X21611D02*
Y31250D01*
G01Y31750D02*
X20959D01*
G01X23104Y31450D02*
X23197Y31333D01*
X23321Y31267D01*
X23461Y31250D01*
X23585Y31267D01*
X23709Y31350D01*
X23786Y31450D01*
X23801Y31550D01*
X23770Y31667D01*
X23662Y31750D01*
X23553Y31783D01*
X23414D01*
G01X23553D02*
X23646Y31833D01*
X23724Y31917D01*
X23755Y32017D01*
X23724Y32117D01*
X23646Y32200D01*
X23507Y32250D01*
X23368Y32233D01*
X23228Y32167D01*
G01X22944Y51583D02*
X23037Y51533D01*
X23145Y51500D01*
X23269D01*
X23409Y51550D01*
X23517Y51633D01*
X23595Y51733D01*
X23657Y51900D01*
X23673Y52050D01*
X23641Y52200D01*
X23595Y52300D01*
X23502Y52400D01*
X23393Y52467D01*
X23285Y52500D01*
X23177D01*
X23068Y52467D01*
X22975Y52417D01*
X22897Y52350D01*
G01X22515Y52500D02*
Y51500D01*
X22128D01*
X22003Y51550D01*
X21926Y51617D01*
X21895Y51750D01*
X21926Y51883D01*
X22019Y51967D01*
X22128Y52017D01*
X22515D01*
G01X22128D02*
X21895Y52500D01*
G01X21513D02*
X21125Y51500D01*
X20737Y52500D01*
G01X20877Y52150D02*
X21373D01*
G01X20370Y52367D02*
X20247Y52450D01*
X20107Y52500D01*
X19983D01*
X19859Y52450D01*
X19766Y52367D01*
X19720Y52250D01*
X19750Y52133D01*
X19828Y52033D01*
X19968Y51967D01*
X20153Y51933D01*
X20262Y51867D01*
X20309Y51750D01*
X20277Y51633D01*
X20200Y51550D01*
X20092Y51500D01*
X19983D01*
X19874Y51533D01*
X19781Y51617D01*
G01X19290Y52500D02*
Y51500D01*
G01X18640D02*
Y52500D01*
G01Y52000D02*
X19290D01*
G01X17146Y52300D02*
X17053Y52417D01*
X16929Y52483D01*
X16789Y52500D01*
X16665Y52483D01*
X16541Y52400D01*
X16464Y52300D01*
X16449Y52200D01*
X16480Y52083D01*
X16588Y52000D01*
X16697Y51967D01*
X16836D01*
G01X16697D02*
X16604Y51917D01*
X16526Y51833D01*
X16495Y51733D01*
X16526Y51633D01*
X16604Y51550D01*
X16743Y51500D01*
X16882Y51517D01*
X17022Y51583D01*
G01X27694Y61583D02*
X27787Y61533D01*
X27895Y61500D01*
X28019D01*
X28159Y61550D01*
X28267Y61633D01*
X28345Y61733D01*
X28407Y61900D01*
X28423Y62050D01*
X28391Y62200D01*
X28345Y62300D01*
X28252Y62400D01*
X28143Y62467D01*
X28035Y62500D01*
X27927D01*
X27818Y62467D01*
X27725Y62417D01*
X27647Y62350D01*
G01X27265Y62500D02*
Y61500D01*
X26878D01*
X26754Y61550D01*
X26676Y61617D01*
X26645Y61750D01*
X26676Y61883D01*
X26769Y61967D01*
X26878Y62017D01*
X27265D01*
G01X26878D02*
X26645Y62500D01*
G01X26263D02*
X25875Y61500D01*
X25487Y62500D01*
G01X25627Y62150D02*
X26123D01*
G01X25121Y62367D02*
X24996Y62450D01*
X24857Y62500D01*
X24733D01*
X24609Y62450D01*
X24516Y62367D01*
X24469Y62250D01*
X24500Y62133D01*
X24578Y62033D01*
X24718Y61967D01*
X24903Y61933D01*
X25012Y61867D01*
X25059Y61750D01*
X25027Y61633D01*
X24950Y61550D01*
X24842Y61500D01*
X24733D01*
X24624Y61533D01*
X24531Y61617D01*
G01X24041Y62500D02*
Y61500D01*
G01X23390D02*
Y62500D01*
G01Y62000D02*
X24041D01*
G01X21850Y61667D02*
X21756Y61567D01*
X21648Y61517D01*
X21524Y61500D01*
X21369Y61533D01*
X21260Y61617D01*
X21230Y61717D01*
X21245Y61817D01*
X21307Y61900D01*
X21617Y62067D01*
X21756Y62183D01*
X21850Y62350D01*
X21880Y62500D01*
X21230D01*
G01X22306Y22167D02*
X22213Y22217D01*
X22105Y22250D01*
X21981D01*
X21841Y22200D01*
X21733Y22117D01*
X21655Y22017D01*
X21593Y21850D01*
X21577Y21700D01*
X21609Y21550D01*
X21655Y21450D01*
X21748Y21350D01*
X21857Y21283D01*
X21965Y21250D01*
X22073D01*
X22182Y21283D01*
X22275Y21333D01*
X22353Y21400D01*
G01X22735Y21250D02*
Y22250D01*
X23122D01*
X23246Y22200D01*
X23324Y22133D01*
X23355Y22000D01*
X23324Y21867D01*
X23231Y21783D01*
X23122Y21733D01*
X22735D01*
G01X23122D02*
X23355Y21250D01*
G01X23737D02*
X24125Y22250D01*
X24513Y21250D01*
G01X24373Y21600D02*
X23877D01*
G01X24879Y21383D02*
X25004Y21300D01*
X25143Y21250D01*
X25267D01*
X25391Y21300D01*
X25484Y21383D01*
X25531Y21500D01*
X25500Y21617D01*
X25422Y21717D01*
X25282Y21783D01*
X25097Y21817D01*
X24988Y21883D01*
X24941Y22000D01*
X24973Y22117D01*
X25050Y22200D01*
X25158Y22250D01*
X25267D01*
X25376Y22217D01*
X25469Y22133D01*
G01X25959Y21250D02*
Y22250D01*
G01X26611D02*
Y21250D01*
G01Y21750D02*
X25959D01*
G01X28150Y22083D02*
X28244Y22183D01*
X28352Y22233D01*
X28476Y22250D01*
X28631Y22217D01*
X28740Y22133D01*
X28770Y22033D01*
X28755Y21933D01*
X28693Y21850D01*
X28383Y21683D01*
X28244Y21567D01*
X28150Y21400D01*
X28120Y21250D01*
X28770D01*
G01X27556Y32167D02*
X27463Y32217D01*
X27355Y32250D01*
X27231D01*
X27091Y32200D01*
X26983Y32117D01*
X26905Y32017D01*
X26843Y31850D01*
X26827Y31700D01*
X26859Y31550D01*
X26905Y31450D01*
X26998Y31350D01*
X27107Y31283D01*
X27215Y31250D01*
X27323D01*
X27432Y31283D01*
X27525Y31333D01*
X27603Y31400D01*
G01X27985Y31250D02*
Y32250D01*
X28372D01*
X28496Y32200D01*
X28574Y32133D01*
X28605Y32000D01*
X28574Y31867D01*
X28481Y31783D01*
X28372Y31733D01*
X27985D01*
G01X28372D02*
X28605Y31250D01*
G01X28987D02*
X29375Y32250D01*
X29763Y31250D01*
G01X29623Y31600D02*
X29127D01*
G01X30130Y31383D02*
X30254Y31300D01*
X30393Y31250D01*
X30517D01*
X30641Y31300D01*
X30734Y31383D01*
X30780Y31500D01*
X30750Y31617D01*
X30672Y31717D01*
X30533Y31783D01*
X30347Y31817D01*
X30238Y31883D01*
X30191Y32000D01*
X30223Y32117D01*
X30300Y32200D01*
X30408Y32250D01*
X30517D01*
X30626Y32217D01*
X30719Y32133D01*
G01X31209Y31250D02*
Y32250D01*
G01X31861D02*
Y31250D01*
G01Y31750D02*
X31209D01*
G01X33695Y31250D02*
Y32250D01*
X33509Y32050D01*
G01Y31250D02*
X33881D01*
G01X32944Y51583D02*
X33037Y51533D01*
X33145Y51500D01*
X33269D01*
X33409Y51550D01*
X33517Y51633D01*
X33595Y51733D01*
X33657Y51900D01*
X33673Y52050D01*
X33641Y52200D01*
X33595Y52300D01*
X33502Y52400D01*
X33393Y52467D01*
X33285Y52500D01*
X33177D01*
X33068Y52467D01*
X32975Y52417D01*
X32897Y52350D01*
G01X32515Y52500D02*
Y51500D01*
X32128D01*
X32003Y51550D01*
X31926Y51617D01*
X31895Y51750D01*
X31926Y51883D01*
X32019Y51967D01*
X32128Y52017D01*
X32515D01*
G01X32128D02*
X31895Y52500D01*
G01X31513D02*
X31125Y51500D01*
X30737Y52500D01*
G01X30877Y52150D02*
X31373D01*
G01X30371Y52367D02*
X30247Y52450D01*
X30107Y52500D01*
X29983D01*
X29859Y52450D01*
X29766Y52367D01*
X29720Y52250D01*
X29750Y52133D01*
X29828Y52033D01*
X29968Y51967D01*
X30153Y51933D01*
X30262Y51867D01*
X30309Y51750D01*
X30277Y51633D01*
X30200Y51550D01*
X30092Y51500D01*
X29983D01*
X29874Y51533D01*
X29781Y51617D01*
G01X29290Y52500D02*
Y51500D01*
G01X28640D02*
Y52500D01*
G01Y52000D02*
X29290D01*
G01X26805Y52500D02*
Y51500D01*
X26991Y51700D01*
G01Y52500D02*
X26619D01*
G01X31025Y21250D02*
X30405D01*
Y22250D01*
X31025D01*
G01X30777Y21767D02*
X30405D01*
G01X31454Y21250D02*
Y22250D01*
X31764D01*
X31888Y22200D01*
X31981Y22133D01*
X32059Y22033D01*
X32120Y21917D01*
X32136Y21750D01*
X32120Y21583D01*
X32059Y21467D01*
X31981Y21367D01*
X31888Y21300D01*
X31764Y21250D01*
X31454D01*
G01X32968Y21750D02*
X33278D01*
Y21450D01*
X33185Y21350D01*
X33076Y21283D01*
X32922Y21250D01*
X32767Y21283D01*
X32658Y21350D01*
X32565Y21450D01*
X32503Y21567D01*
X32472Y21700D01*
Y21817D01*
X32503Y21917D01*
X32565Y22033D01*
X32658Y22133D01*
X32751Y22200D01*
X32875Y22250D01*
X32983D01*
X33107Y22217D01*
X33200Y22150D01*
G01X34265Y21250D02*
X33645D01*
Y22250D01*
X34265D01*
G01X34017Y21767D02*
X33645D01*
G01X34756Y21217D02*
X35314Y22250D01*
G01X36239Y21783D02*
X36301Y21833D01*
X36347Y21917D01*
X36379Y22033D01*
X36347Y22133D01*
X36286Y22200D01*
X36177Y22250D01*
X35759D01*
Y21250D01*
X36270D01*
X36379Y21317D01*
X36441Y21417D01*
X36471Y21533D01*
X36441Y21650D01*
X36347Y21750D01*
X36239Y21783D01*
X35759D01*
G01X37505Y21250D02*
X36885D01*
Y22250D01*
X37505D01*
G01X37257Y21767D02*
X36885D01*
G01X37965Y22250D02*
Y21250D01*
X38585D01*
G01X39045Y22250D02*
Y21250D01*
X39665D01*
G01X33155Y23000D02*
Y24000D01*
X33542D01*
X33667Y23950D01*
X33744Y23883D01*
X33775Y23750D01*
X33744Y23617D01*
X33651Y23533D01*
X33542Y23483D01*
X33155D01*
G01X33542D02*
X33775Y23000D01*
G01X34359Y24000D02*
X34731D01*
G01X34545D02*
Y23000D01*
G01X34359D02*
X34731D01*
G01X35284D02*
Y24000D01*
X35594D01*
X35718Y23950D01*
X35811Y23883D01*
X35889Y23783D01*
X35950Y23667D01*
X35966Y23500D01*
X35950Y23333D01*
X35889Y23217D01*
X35811Y23117D01*
X35718Y23050D01*
X35594Y23000D01*
X35284D01*
G01X37015D02*
X36395D01*
Y24000D01*
X37015D01*
G01X36767Y23517D02*
X36395D01*
G01X36845Y62500D02*
Y61500D01*
X36458D01*
X36334Y61550D01*
X36256Y61617D01*
X36225Y61750D01*
X36256Y61883D01*
X36349Y61967D01*
X36458Y62017D01*
X36845D01*
G01X36458D02*
X36225Y62500D01*
G01X35641Y61500D02*
X35269D01*
G01X35455D02*
Y62500D01*
G01X35641D02*
X35269D01*
G01X34716D02*
Y61500D01*
X34406D01*
X34282Y61550D01*
X34189Y61617D01*
X34111Y61717D01*
X34050Y61833D01*
X34034Y62000D01*
X34050Y62167D01*
X34111Y62283D01*
X34189Y62383D01*
X34282Y62450D01*
X34406Y62500D01*
X34716D01*
G01X32985D02*
X33605D01*
Y61500D01*
X32985D01*
G01X33233Y61983D02*
X33605D01*
G01X37965Y32250D02*
Y31250D01*
G01X37609Y32250D02*
X38321D01*
G01X39045Y31250D02*
X38921Y31267D01*
X38813Y31333D01*
X38720Y31433D01*
X38657Y31550D01*
X38626Y31683D01*
Y31817D01*
X38657Y31950D01*
X38720Y32067D01*
X38813Y32167D01*
X38921Y32233D01*
X39045Y32250D01*
X39169Y32233D01*
X39277Y32167D01*
X39370Y32067D01*
X39433Y31950D01*
X39464Y31817D01*
Y31683D01*
X39433Y31550D01*
X39370Y31433D01*
X39277Y31333D01*
X39169Y31267D01*
X39045Y31250D01*
G01X39722D02*
Y32250D01*
X40125Y31417D01*
X40528Y32250D01*
Y31250D01*
G01X41990Y32083D02*
X42084Y32183D01*
X42192Y32233D01*
X42316Y32250D01*
X42471Y32217D01*
X42580Y32133D01*
X42610Y32033D01*
X42595Y31933D01*
X42533Y31850D01*
X42223Y31683D01*
X42084Y31567D01*
X41990Y31400D01*
X41960Y31250D01*
X42610D01*
G01X37670Y33000D02*
Y34000D01*
X38260D01*
G01X38042Y33517D02*
X37670D01*
G01X38735Y34000D02*
Y33000D01*
X39355D01*
G01X40125D02*
X40001Y33017D01*
X39893Y33083D01*
X39800Y33183D01*
X39737Y33300D01*
X39706Y33433D01*
Y33567D01*
X39737Y33700D01*
X39800Y33817D01*
X39893Y33917D01*
X40001Y33983D01*
X40125Y34000D01*
X40249Y33983D01*
X40357Y33917D01*
X40451Y33817D01*
X40513Y33700D01*
X40544Y33567D01*
Y33433D01*
X40513Y33300D01*
X40451Y33183D01*
X40357Y33083D01*
X40249Y33017D01*
X40125Y33000D01*
G01X41205D02*
X41081Y33017D01*
X40973Y33083D01*
X40880Y33183D01*
X40817Y33300D01*
X40786Y33433D01*
Y33567D01*
X40817Y33700D01*
X40880Y33817D01*
X40973Y33917D01*
X41081Y33983D01*
X41205Y34000D01*
X41329Y33983D01*
X41437Y33917D01*
X41530Y33817D01*
X41593Y33700D01*
X41624Y33567D01*
Y33433D01*
X41593Y33300D01*
X41530Y33183D01*
X41437Y33083D01*
X41329Y33017D01*
X41205Y33000D01*
G01X41975D02*
Y34000D01*
X42362D01*
X42486Y33950D01*
X42564Y33883D01*
X42595Y33750D01*
X42564Y33617D01*
X42471Y33533D01*
X42362Y33483D01*
X41975D01*
G01X42362D02*
X42595Y33000D01*
G01X42285Y53000D02*
Y54000D01*
G01X42641Y53000D02*
X41929D01*
G01X41205Y54000D02*
X41329Y53983D01*
X41437Y53917D01*
X41530Y53817D01*
X41593Y53700D01*
X41624Y53567D01*
Y53433D01*
X41593Y53300D01*
X41530Y53183D01*
X41437Y53083D01*
X41329Y53017D01*
X41205Y53000D01*
X41081Y53017D01*
X40973Y53083D01*
X40880Y53183D01*
X40817Y53300D01*
X40786Y53433D01*
Y53567D01*
X40817Y53700D01*
X40880Y53817D01*
X40973Y53917D01*
X41081Y53983D01*
X41205Y54000D01*
G01X40528D02*
Y53000D01*
X40125Y53833D01*
X39722Y53000D01*
Y54000D01*
G01X38260Y53167D02*
X38166Y53067D01*
X38058Y53017D01*
X37934Y53000D01*
X37779Y53033D01*
X37670Y53117D01*
X37640Y53217D01*
X37655Y53317D01*
X37717Y53400D01*
X38027Y53567D01*
X38166Y53683D01*
X38260Y53850D01*
X38290Y54000D01*
X37640D01*
G01X42580Y52500D02*
Y51500D01*
X41990D01*
G01X42208Y51983D02*
X42580D01*
G01X41515Y51500D02*
Y52500D01*
X40895D01*
G01X40125D02*
X40249Y52483D01*
X40357Y52417D01*
X40451Y52317D01*
X40513Y52200D01*
X40544Y52067D01*
Y51933D01*
X40513Y51800D01*
X40451Y51683D01*
X40357Y51583D01*
X40249Y51517D01*
X40125Y51500D01*
X40001Y51517D01*
X39893Y51583D01*
X39800Y51683D01*
X39737Y51800D01*
X39706Y51933D01*
Y52067D01*
X39737Y52200D01*
X39800Y52317D01*
X39893Y52417D01*
X40001Y52483D01*
X40125Y52500D01*
G01X39045D02*
X39169Y52483D01*
X39277Y52417D01*
X39370Y52317D01*
X39433Y52200D01*
X39464Y52067D01*
Y51933D01*
X39433Y51800D01*
X39370Y51683D01*
X39277Y51583D01*
X39169Y51517D01*
X39045Y51500D01*
X38921Y51517D01*
X38813Y51583D01*
X38720Y51683D01*
X38657Y51800D01*
X38626Y51933D01*
Y52067D01*
X38657Y52200D01*
X38720Y52317D01*
X38813Y52417D01*
X38921Y52483D01*
X39045Y52500D01*
G01X38275D02*
Y51500D01*
X37888D01*
X37764Y51550D01*
X37686Y51617D01*
X37655Y51750D01*
X37686Y51883D01*
X37779Y51967D01*
X37888Y52017D01*
X38275D01*
G01X37888D02*
X37655Y52500D01*
G01X42965Y22250D02*
Y21250D01*
G01X42609Y22250D02*
X43321D01*
G01X44045Y21250D02*
X43921Y21267D01*
X43813Y21333D01*
X43720Y21433D01*
X43657Y21550D01*
X43626Y21683D01*
Y21817D01*
X43657Y21950D01*
X43720Y22067D01*
X43813Y22167D01*
X43921Y22233D01*
X44045Y22250D01*
X44169Y22233D01*
X44277Y22167D01*
X44370Y22067D01*
X44433Y21950D01*
X44464Y21817D01*
Y21683D01*
X44433Y21550D01*
X44370Y21433D01*
X44277Y21333D01*
X44169Y21267D01*
X44045Y21250D01*
G01X44722D02*
Y22250D01*
X45125Y21417D01*
X45528Y22250D01*
Y21250D01*
G01X47285D02*
Y22250D01*
X47099Y22050D01*
G01Y21250D02*
X47471D01*
G01X42670Y23000D02*
Y24000D01*
X43260D01*
G01X43042Y23517D02*
X42670D01*
G01X43735Y24000D02*
Y23000D01*
X44355D01*
G01X45125D02*
X45001Y23017D01*
X44893Y23083D01*
X44800Y23183D01*
X44737Y23300D01*
X44706Y23433D01*
Y23567D01*
X44737Y23700D01*
X44800Y23817D01*
X44893Y23917D01*
X45001Y23983D01*
X45125Y24000D01*
X45249Y23983D01*
X45357Y23917D01*
X45451Y23817D01*
X45513Y23700D01*
X45544Y23567D01*
Y23433D01*
X45513Y23300D01*
X45451Y23183D01*
X45357Y23083D01*
X45249Y23017D01*
X45125Y23000D01*
G01X46205D02*
X46081Y23017D01*
X45973Y23083D01*
X45880Y23183D01*
X45817Y23300D01*
X45786Y23433D01*
Y23567D01*
X45817Y23700D01*
X45880Y23817D01*
X45973Y23917D01*
X46081Y23983D01*
X46205Y24000D01*
X46329Y23983D01*
X46437Y23917D01*
X46530Y23817D01*
X46593Y23700D01*
X46624Y23567D01*
Y23433D01*
X46593Y23300D01*
X46530Y23183D01*
X46437Y23083D01*
X46329Y23017D01*
X46205Y23000D01*
G01X46975D02*
Y24000D01*
X47362D01*
X47486Y23950D01*
X47564Y23883D01*
X47595Y23750D01*
X47564Y23617D01*
X47471Y23533D01*
X47362Y23483D01*
X46975D01*
G01X47362D02*
X47595Y23000D01*
G01X47035Y63000D02*
Y64000D01*
G01X47391Y63000D02*
X46679D01*
G01X45955Y64000D02*
X46079Y63983D01*
X46187Y63917D01*
X46280Y63817D01*
X46343Y63700D01*
X46374Y63567D01*
Y63433D01*
X46343Y63300D01*
X46280Y63183D01*
X46187Y63083D01*
X46079Y63017D01*
X45955Y63000D01*
X45831Y63017D01*
X45723Y63083D01*
X45630Y63183D01*
X45567Y63300D01*
X45536Y63433D01*
Y63567D01*
X45567Y63700D01*
X45630Y63817D01*
X45723Y63917D01*
X45831Y63983D01*
X45955Y64000D01*
G01X45278D02*
Y63000D01*
X44875Y63833D01*
X44472Y63000D01*
Y64000D01*
G01X42715D02*
Y63000D01*
X42901Y63200D01*
G01Y64000D02*
X42529D01*
G01X47330Y62500D02*
Y61500D01*
X46740D01*
G01X46958Y61983D02*
X47330D01*
G01X46265Y61500D02*
Y62500D01*
X45645D01*
G01X44875D02*
X44999Y62483D01*
X45107Y62417D01*
X45200Y62317D01*
X45263Y62200D01*
X45294Y62067D01*
Y61933D01*
X45263Y61800D01*
X45200Y61683D01*
X45107Y61583D01*
X44999Y61517D01*
X44875Y61500D01*
X44751Y61517D01*
X44643Y61583D01*
X44550Y61683D01*
X44487Y61800D01*
X44456Y61933D01*
Y62067D01*
X44487Y62200D01*
X44550Y62317D01*
X44643Y62417D01*
X44751Y62483D01*
X44875Y62500D01*
G01X43795D02*
X43919Y62483D01*
X44027Y62417D01*
X44121Y62317D01*
X44183Y62200D01*
X44214Y62067D01*
Y61933D01*
X44183Y61800D01*
X44121Y61683D01*
X44027Y61583D01*
X43919Y61517D01*
X43795Y61500D01*
X43671Y61517D01*
X43563Y61583D01*
X43470Y61683D01*
X43407Y61800D01*
X43376Y61933D01*
Y62067D01*
X43407Y62200D01*
X43470Y62317D01*
X43563Y62417D01*
X43671Y62483D01*
X43795Y62500D01*
G01X43025D02*
Y61500D01*
X42638D01*
X42514Y61550D01*
X42436Y61617D01*
X42405Y61750D01*
X42436Y61883D01*
X42529Y61967D01*
X42638Y62017D01*
X43025D01*
G01X42638D02*
X42405Y62500D01*
G01X51845Y52500D02*
Y51500D01*
X51458D01*
X51334Y51550D01*
X51256Y51617D01*
X51225Y51750D01*
X51256Y51883D01*
X51349Y51967D01*
X51458Y52017D01*
X51845D01*
G01X51458D02*
X51225Y52500D01*
G01X50843D02*
X50455Y51500D01*
X50067Y52500D01*
G01X50207Y52150D02*
X50703D01*
G01X49034Y51583D02*
X49127Y51533D01*
X49235Y51500D01*
X49359D01*
X49499Y51550D01*
X49607Y51633D01*
X49685Y51733D01*
X49747Y51900D01*
X49763Y52050D01*
X49731Y52200D01*
X49685Y52300D01*
X49592Y52400D01*
X49483Y52467D01*
X49375Y52500D01*
X49267D01*
X49158Y52467D01*
X49065Y52417D01*
X48987Y52350D01*
G01X48636Y52500D02*
Y51500D01*
G01X48047D02*
X48636Y52117D01*
G01X47954Y52500D02*
X48372Y51833D01*
G01X48965Y32250D02*
Y31250D01*
G01X48609Y32250D02*
X49321D01*
G01X50045Y31250D02*
X49921Y31267D01*
X49813Y31333D01*
X49720Y31433D01*
X49657Y31550D01*
X49626Y31683D01*
Y31817D01*
X49657Y31950D01*
X49720Y32067D01*
X49813Y32167D01*
X49921Y32233D01*
X50045Y32250D01*
X50169Y32233D01*
X50277Y32167D01*
X50371Y32067D01*
X50433Y31950D01*
X50464Y31817D01*
Y31683D01*
X50433Y31550D01*
X50371Y31433D01*
X50277Y31333D01*
X50169Y31267D01*
X50045Y31250D01*
G01X50722D02*
Y32250D01*
X51125Y31417D01*
X51528Y32250D01*
Y31250D01*
G01X48405Y33000D02*
Y34000D01*
X48792D01*
X48916Y33950D01*
X48994Y33883D01*
X49025Y33750D01*
X48994Y33617D01*
X48901Y33533D01*
X48792Y33483D01*
X48405D01*
G01X48792D02*
X49025Y33000D01*
G01X49407D02*
X49795Y34000D01*
X50183Y33000D01*
G01X50043Y33350D02*
X49547D01*
G01X51216Y33917D02*
X51123Y33967D01*
X51015Y34000D01*
X50891D01*
X50751Y33950D01*
X50643Y33867D01*
X50565Y33767D01*
X50503Y33600D01*
X50487Y33450D01*
X50519Y33300D01*
X50565Y33200D01*
X50658Y33100D01*
X50767Y33033D01*
X50875Y33000D01*
X50983D01*
X51092Y33033D01*
X51185Y33083D01*
X51263Y33150D01*
G01X51614Y33000D02*
Y34000D01*
G01X52203D02*
X51614Y33383D01*
G01X52296Y33000D02*
X51878Y33667D01*
G01X51035Y53000D02*
Y54000D01*
G01X51391Y53000D02*
X50679D01*
G01X49955Y54000D02*
X50079Y53983D01*
X50187Y53917D01*
X50280Y53817D01*
X50343Y53700D01*
X50374Y53567D01*
Y53433D01*
X50343Y53300D01*
X50280Y53183D01*
X50187Y53083D01*
X50079Y53017D01*
X49955Y53000D01*
X49831Y53017D01*
X49723Y53083D01*
X49630Y53183D01*
X49567Y53300D01*
X49536Y53433D01*
Y53567D01*
X49567Y53700D01*
X49630Y53817D01*
X49723Y53917D01*
X49831Y53983D01*
X49955Y54000D01*
G01X49278D02*
Y53000D01*
X48875Y53833D01*
X48472Y53000D01*
Y54000D01*
G01X58360Y62367D02*
X58236Y62450D01*
X58097Y62500D01*
X57973D01*
X57849Y62450D01*
X57756Y62367D01*
X57710Y62250D01*
X57740Y62133D01*
X57818Y62033D01*
X57958Y61967D01*
X58143Y61933D01*
X58252Y61867D01*
X58299Y61750D01*
X58267Y61633D01*
X58190Y61550D01*
X58081Y61500D01*
X57973D01*
X57864Y61533D01*
X57771Y61617D01*
G01X57311Y62500D02*
Y61500D01*
X56599Y62500D01*
Y61500D01*
G01X56263Y62500D02*
X55875Y61500D01*
X55487Y62500D01*
G01X55627Y62150D02*
X56123D01*
G01X55105Y62500D02*
Y61500D01*
X54718D01*
X54594Y61550D01*
X54516Y61617D01*
X54485Y61750D01*
X54516Y61883D01*
X54609Y61967D01*
X54718Y62017D01*
X55105D01*
G01X54718D02*
X54485Y62500D01*
G01X53405D02*
X54025D01*
Y61500D01*
X53405D01*
G01X53653Y61983D02*
X54025D01*
G01X51865Y62500D02*
Y61500D01*
X51478D01*
X51354Y61550D01*
X51276Y61617D01*
X51245Y61750D01*
X51276Y61883D01*
X51369Y61967D01*
X51478Y62017D01*
X51865D01*
G01X51478D02*
X51245Y62500D01*
G01X63111Y52367D02*
X62986Y52450D01*
X62847Y52500D01*
X62723D01*
X62599Y52450D01*
X62506Y52367D01*
X62460Y52250D01*
X62490Y52133D01*
X62568Y52033D01*
X62708Y51967D01*
X62893Y51933D01*
X63002Y51867D01*
X63049Y51750D01*
X63017Y51633D01*
X62940Y51550D01*
X62832Y51500D01*
X62723D01*
X62614Y51533D01*
X62521Y51617D01*
G01X62061Y52500D02*
Y51500D01*
X61349Y52500D01*
Y51500D01*
G01X61013Y52500D02*
X60625Y51500D01*
X60237Y52500D01*
G01X60377Y52150D02*
X60873D01*
G01X59855Y52500D02*
Y51500D01*
X59468D01*
X59344Y51550D01*
X59266Y51617D01*
X59235Y51750D01*
X59266Y51883D01*
X59359Y51967D01*
X59468Y52017D01*
X59855D01*
G01X59468D02*
X59235Y52500D01*
G01X58155D02*
X58775D01*
Y51500D01*
X58155D01*
G01X58403Y51983D02*
X58775D01*
G01X56615Y51500D02*
Y52500D01*
X55995D01*
G01X58655Y32250D02*
Y31250D01*
X59275D01*
G01X59766Y31217D02*
X60324Y32250D01*
G01X60815Y31250D02*
Y32250D01*
X61203D01*
X61326Y32200D01*
X61404Y32133D01*
X61435Y32000D01*
X61404Y31867D01*
X61311Y31783D01*
X61203Y31733D01*
X60815D01*
G01X61203D02*
X61435Y31250D01*
G01X57640Y33383D02*
X57764Y33300D01*
X57903Y33250D01*
X58027D01*
X58151Y33300D01*
X58244Y33383D01*
X58291Y33500D01*
X58260Y33617D01*
X58182Y33717D01*
X58042Y33783D01*
X57857Y33817D01*
X57748Y33883D01*
X57701Y34000D01*
X57733Y34117D01*
X57810Y34200D01*
X57918Y34250D01*
X58027D01*
X58136Y34217D01*
X58229Y34133D01*
G01X58689Y33250D02*
Y34250D01*
X59401Y33250D01*
Y34250D01*
G01X59737Y33250D02*
X60125Y34250D01*
X60513Y33250D01*
G01X60373Y33600D02*
X59877D01*
G01X60895Y33250D02*
Y34250D01*
X61283D01*
X61406Y34200D01*
X61484Y34133D01*
X61515Y34000D01*
X61484Y33867D01*
X61391Y33783D01*
X61283Y33733D01*
X60895D01*
G01X61283D02*
X61515Y33250D01*
G01X62595D02*
X61975D01*
Y34250D01*
X62595D01*
G01X62347Y33767D02*
X61975D01*
G01X69360Y62367D02*
X69236Y62450D01*
X69097Y62500D01*
X68973D01*
X68849Y62450D01*
X68756Y62367D01*
X68710Y62250D01*
X68740Y62133D01*
X68818Y62033D01*
X68958Y61967D01*
X69143Y61933D01*
X69252Y61867D01*
X69299Y61750D01*
X69267Y61633D01*
X69190Y61550D01*
X69082Y61500D01*
X68973D01*
X68864Y61533D01*
X68771Y61617D01*
G01X68311Y62500D02*
Y61500D01*
X67599Y62500D01*
Y61500D01*
G01X67263Y62500D02*
X66875Y61500D01*
X66487Y62500D01*
G01X66627Y62150D02*
X67123D01*
G01X66105Y62500D02*
Y61500D01*
X65718D01*
X65594Y61550D01*
X65516Y61617D01*
X65485Y61750D01*
X65516Y61883D01*
X65609Y61967D01*
X65718Y62017D01*
X66105D01*
G01X65718D02*
X65485Y62500D01*
G01X64405D02*
X65025D01*
Y61500D01*
X64405D01*
G01X64653Y61983D02*
X65025D01*
G01X62865Y62500D02*
Y61500D01*
X62478D01*
X62354Y61550D01*
X62276Y61617D01*
X62245Y61750D01*
X62276Y61883D01*
X62369Y61967D01*
X62478Y62017D01*
X62865D01*
G01X62478D02*
X62245Y62500D01*
G01X61661Y61500D02*
X61289D01*
G01X61475D02*
Y62500D01*
G01X61661D02*
X61289D01*
G01X60798D02*
Y61500D01*
X60395Y62333D01*
X59992Y61500D01*
Y62500D01*
G01X65306Y32167D02*
X65213Y32217D01*
X65105Y32250D01*
X64981D01*
X64841Y32200D01*
X64733Y32117D01*
X64655Y32017D01*
X64593Y31850D01*
X64577Y31700D01*
X64609Y31550D01*
X64655Y31450D01*
X64748Y31350D01*
X64857Y31283D01*
X64965Y31250D01*
X65073D01*
X65182Y31283D01*
X65275Y31333D01*
X65353Y31400D01*
G01X66355Y31250D02*
X65735D01*
Y32250D01*
X66355D01*
G01X66107Y31767D02*
X65735D01*
G01X66769Y31250D02*
Y32250D01*
X67481Y31250D01*
Y32250D01*
G01X68205D02*
Y31250D01*
G01X67849Y32250D02*
X68561D01*
G01X69595Y31250D02*
X68975D01*
Y32250D01*
X69595D01*
G01X69347Y31767D02*
X68975D01*
G01X70055Y31250D02*
Y32250D01*
X70442D01*
X70566Y32200D01*
X70644Y32133D01*
X70675Y32000D01*
X70644Y31867D01*
X70551Y31783D01*
X70442Y31733D01*
X70055D01*
G01X70442D02*
X70675Y31250D01*
G01X71166Y31217D02*
X71724Y32250D01*
G01X72215Y31250D02*
Y32250D01*
X72602D01*
X72726Y32200D01*
X72804Y32133D01*
X72835Y32000D01*
X72804Y31867D01*
X72711Y31783D01*
X72602Y31733D01*
X72215D01*
G01X72602D02*
X72835Y31250D01*
G01X73419Y32250D02*
X73791D01*
G01X73605D02*
Y31250D01*
G01X73419D02*
X73791D01*
G01X74282D02*
Y32250D01*
X74685Y31417D01*
X75088Y32250D01*
Y31250D01*
G01X73360Y52367D02*
X73236Y52450D01*
X73097Y52500D01*
X72973D01*
X72849Y52450D01*
X72756Y52367D01*
X72710Y52250D01*
X72740Y52133D01*
X72818Y52033D01*
X72958Y51967D01*
X73143Y51933D01*
X73252Y51867D01*
X73299Y51750D01*
X73267Y51633D01*
X73190Y51550D01*
X73082Y51500D01*
X72973D01*
X72864Y51533D01*
X72771Y51617D01*
G01X72311Y52500D02*
Y51500D01*
X71599Y52500D01*
Y51500D01*
G01X71263Y52500D02*
X70875Y51500D01*
X70487Y52500D01*
G01X70627Y52150D02*
X71123D01*
G01X70105Y52500D02*
Y51500D01*
X69718D01*
X69594Y51550D01*
X69516Y51617D01*
X69485Y51750D01*
X69516Y51883D01*
X69609Y51967D01*
X69718Y52017D01*
X70105D01*
G01X69718D02*
X69485Y52500D01*
G01X68405D02*
X69025D01*
Y51500D01*
X68405D01*
G01X68653Y51983D02*
X69025D01*
G01X66214Y51583D02*
X66307Y51533D01*
X66415Y51500D01*
X66539D01*
X66679Y51550D01*
X66787Y51633D01*
X66865Y51733D01*
X66927Y51900D01*
X66943Y52050D01*
X66911Y52200D01*
X66865Y52300D01*
X66772Y52400D01*
X66663Y52467D01*
X66555Y52500D01*
X66447D01*
X66338Y52467D01*
X66245Y52417D01*
X66167Y52350D01*
G01X67640Y33133D02*
X67764Y33050D01*
X67903Y33000D01*
X68027D01*
X68151Y33050D01*
X68244Y33133D01*
X68290Y33250D01*
X68260Y33367D01*
X68182Y33467D01*
X68042Y33533D01*
X67857Y33567D01*
X67748Y33633D01*
X67701Y33750D01*
X67733Y33867D01*
X67810Y33950D01*
X67918Y34000D01*
X68027D01*
X68136Y33967D01*
X68229Y33883D01*
G01X68689Y33000D02*
Y34000D01*
X69401Y33000D01*
Y34000D01*
G01X69737Y33000D02*
X70125Y34000D01*
X70513Y33000D01*
G01X70373Y33350D02*
X69877D01*
G01X70895Y33000D02*
Y34000D01*
X71282D01*
X71406Y33950D01*
X71484Y33883D01*
X71515Y33750D01*
X71484Y33617D01*
X71391Y33533D01*
X71282Y33483D01*
X70895D01*
G01X71282D02*
X71515Y33000D01*
G01X72595D02*
X71975D01*
Y34000D01*
X72595D01*
G01X72347Y33517D02*
X71975D01*
G01X73124Y21250D02*
Y22250D01*
G01X73713D02*
X73124Y21633D01*
G01X73806Y21250D02*
X73388Y21917D01*
G01X74359Y22250D02*
X74731D01*
G01X74545D02*
Y21250D01*
G01X74359D02*
X74731D01*
G01X75966Y22167D02*
X75873Y22217D01*
X75765Y22250D01*
X75641D01*
X75501Y22200D01*
X75393Y22117D01*
X75315Y22017D01*
X75253Y21850D01*
X75237Y21700D01*
X75269Y21550D01*
X75315Y21450D01*
X75408Y21350D01*
X75517Y21283D01*
X75625Y21250D01*
X75733D01*
X75842Y21283D01*
X75935Y21333D01*
X76013Y21400D01*
G01X76364Y21250D02*
Y22250D01*
G01X76953D02*
X76364Y21633D01*
G01X77046Y21250D02*
X76628Y21917D01*
G01X76876Y62500D02*
Y61500D01*
G01X76287D02*
X76876Y62117D01*
G01X76194Y62500D02*
X76612Y61833D01*
G01X75641Y61500D02*
X75269D01*
G01X75455D02*
Y62500D01*
G01X75641D02*
X75269D01*
G01X74034Y61583D02*
X74127Y61533D01*
X74235Y61500D01*
X74359D01*
X74499Y61550D01*
X74607Y61633D01*
X74685Y61733D01*
X74747Y61900D01*
X74763Y62050D01*
X74731Y62200D01*
X74685Y62300D01*
X74592Y62400D01*
X74483Y62467D01*
X74375Y62500D01*
X74267D01*
X74158Y62467D01*
X74065Y62417D01*
X73987Y62350D01*
G01X73636Y62500D02*
Y61500D01*
G01X73047D02*
X73636Y62117D01*
G01X72954Y62500D02*
X73372Y61833D01*
G01X77640Y31250D02*
Y32250D01*
G01X78290D02*
Y31250D01*
G01Y31750D02*
X77640D01*
G01X78859Y32250D02*
X79231D01*
G01X79045D02*
Y31250D01*
G01X78859D02*
X79231D01*
G01X79800D02*
Y32250D01*
G01X80450D02*
Y31250D01*
G01Y31750D02*
X79800D01*
G01X80817Y31250D02*
X81205Y32250D01*
X81593Y31250D01*
G01X81453Y31600D02*
X80957D01*
G01X82285Y32250D02*
Y31250D01*
G01X81929Y32250D02*
X82641D01*
G01X82360Y52500D02*
Y51500D01*
G01X81710D02*
Y52500D01*
G01Y52000D02*
X82360D01*
G01X81141Y51500D02*
X80769D01*
G01X80955D02*
Y52500D01*
G01X81141D02*
X80769D01*
G01X80201D02*
Y51500D01*
G01X79550D02*
Y52500D01*
G01Y52000D02*
X80201D01*
G01X79183Y52500D02*
X78795Y51500D01*
X78407Y52500D01*
G01X78547Y52150D02*
X79043D01*
G01X77715Y51500D02*
Y52500D01*
G01X78071Y51500D02*
X77359D01*
M02*
